%TF.GenerationSoftware,KiCad,Pcbnew,7.0.9*%
%TF.CreationDate,2023-12-29T19:26:43-05:00*%
%TF.ProjectId,watch-0001,77617463-682d-4303-9030-312e6b696361,v.0.0.1*%
%TF.SameCoordinates,Original*%
%TF.FileFunction,Legend,Bot*%
%TF.FilePolarity,Positive*%
%FSLAX46Y46*%
G04 Gerber Fmt 4.6, Leading zero omitted, Abs format (unit mm)*
G04 Created by KiCad (PCBNEW 7.0.9) date 2023-12-29 19:26:43*
%MOMM*%
%LPD*%
G01*
G04 APERTURE LIST*
%ADD10C,0.100000*%
%ADD11C,0.150000*%
%ADD12C,0.254000*%
%ADD13C,0.120000*%
%ADD14C,0.152400*%
%ADD15C,0.508000*%
%ADD16C,0.127000*%
%ADD17C,0.200000*%
G04 APERTURE END LIST*
D10*
X128380952Y-87536800D02*
X128476190Y-87584419D01*
X128476190Y-87584419D02*
X128666666Y-87584419D01*
X128666666Y-87584419D02*
X128761904Y-87536800D01*
X128761904Y-87536800D02*
X128809523Y-87441561D01*
X128809523Y-87441561D02*
X128809523Y-87060609D01*
X128809523Y-87060609D02*
X128761904Y-86965371D01*
X128761904Y-86965371D02*
X128666666Y-86917752D01*
X128666666Y-86917752D02*
X128476190Y-86917752D01*
X128476190Y-86917752D02*
X128380952Y-86965371D01*
X128380952Y-86965371D02*
X128333333Y-87060609D01*
X128333333Y-87060609D02*
X128333333Y-87155847D01*
X128333333Y-87155847D02*
X128809523Y-87251085D01*
X127904761Y-87584419D02*
X127904761Y-86917752D01*
X127904761Y-87012990D02*
X127857142Y-86965371D01*
X127857142Y-86965371D02*
X127761904Y-86917752D01*
X127761904Y-86917752D02*
X127619047Y-86917752D01*
X127619047Y-86917752D02*
X127523809Y-86965371D01*
X127523809Y-86965371D02*
X127476190Y-87060609D01*
X127476190Y-87060609D02*
X127476190Y-87584419D01*
X127476190Y-87060609D02*
X127428571Y-86965371D01*
X127428571Y-86965371D02*
X127333333Y-86917752D01*
X127333333Y-86917752D02*
X127190476Y-86917752D01*
X127190476Y-86917752D02*
X127095237Y-86965371D01*
X127095237Y-86965371D02*
X127047618Y-87060609D01*
X127047618Y-87060609D02*
X127047618Y-87584419D01*
X126571428Y-87584419D02*
X126571428Y-86584419D01*
X126571428Y-86965371D02*
X126476190Y-86917752D01*
X126476190Y-86917752D02*
X126285714Y-86917752D01*
X126285714Y-86917752D02*
X126190476Y-86965371D01*
X126190476Y-86965371D02*
X126142857Y-87012990D01*
X126142857Y-87012990D02*
X126095238Y-87108228D01*
X126095238Y-87108228D02*
X126095238Y-87393942D01*
X126095238Y-87393942D02*
X126142857Y-87489180D01*
X126142857Y-87489180D02*
X126190476Y-87536800D01*
X126190476Y-87536800D02*
X126285714Y-87584419D01*
X126285714Y-87584419D02*
X126476190Y-87584419D01*
X126476190Y-87584419D02*
X126571428Y-87536800D01*
X125238095Y-87584419D02*
X125238095Y-86584419D01*
X125238095Y-87536800D02*
X125333333Y-87584419D01*
X125333333Y-87584419D02*
X125523809Y-87584419D01*
X125523809Y-87584419D02*
X125619047Y-87536800D01*
X125619047Y-87536800D02*
X125666666Y-87489180D01*
X125666666Y-87489180D02*
X125714285Y-87393942D01*
X125714285Y-87393942D02*
X125714285Y-87108228D01*
X125714285Y-87108228D02*
X125666666Y-87012990D01*
X125666666Y-87012990D02*
X125619047Y-86965371D01*
X125619047Y-86965371D02*
X125523809Y-86917752D01*
X125523809Y-86917752D02*
X125333333Y-86917752D01*
X125333333Y-86917752D02*
X125238095Y-86965371D01*
X128999999Y-88527752D02*
X128809523Y-89194419D01*
X128809523Y-89194419D02*
X128619047Y-88718228D01*
X128619047Y-88718228D02*
X128428571Y-89194419D01*
X128428571Y-89194419D02*
X128238095Y-88527752D01*
X127428571Y-89194419D02*
X127428571Y-88670609D01*
X127428571Y-88670609D02*
X127476190Y-88575371D01*
X127476190Y-88575371D02*
X127571428Y-88527752D01*
X127571428Y-88527752D02*
X127761904Y-88527752D01*
X127761904Y-88527752D02*
X127857142Y-88575371D01*
X127428571Y-89146800D02*
X127523809Y-89194419D01*
X127523809Y-89194419D02*
X127761904Y-89194419D01*
X127761904Y-89194419D02*
X127857142Y-89146800D01*
X127857142Y-89146800D02*
X127904761Y-89051561D01*
X127904761Y-89051561D02*
X127904761Y-88956323D01*
X127904761Y-88956323D02*
X127857142Y-88861085D01*
X127857142Y-88861085D02*
X127761904Y-88813466D01*
X127761904Y-88813466D02*
X127523809Y-88813466D01*
X127523809Y-88813466D02*
X127428571Y-88765847D01*
X127095237Y-88527752D02*
X126714285Y-88527752D01*
X126952380Y-88194419D02*
X126952380Y-89051561D01*
X126952380Y-89051561D02*
X126904761Y-89146800D01*
X126904761Y-89146800D02*
X126809523Y-89194419D01*
X126809523Y-89194419D02*
X126714285Y-89194419D01*
X125952380Y-89146800D02*
X126047618Y-89194419D01*
X126047618Y-89194419D02*
X126238094Y-89194419D01*
X126238094Y-89194419D02*
X126333332Y-89146800D01*
X126333332Y-89146800D02*
X126380951Y-89099180D01*
X126380951Y-89099180D02*
X126428570Y-89003942D01*
X126428570Y-89003942D02*
X126428570Y-88718228D01*
X126428570Y-88718228D02*
X126380951Y-88622990D01*
X126380951Y-88622990D02*
X126333332Y-88575371D01*
X126333332Y-88575371D02*
X126238094Y-88527752D01*
X126238094Y-88527752D02*
X126047618Y-88527752D01*
X126047618Y-88527752D02*
X125952380Y-88575371D01*
X125523808Y-89194419D02*
X125523808Y-88194419D01*
X125095237Y-89194419D02*
X125095237Y-88670609D01*
X125095237Y-88670609D02*
X125142856Y-88575371D01*
X125142856Y-88575371D02*
X125238094Y-88527752D01*
X125238094Y-88527752D02*
X125380951Y-88527752D01*
X125380951Y-88527752D02*
X125476189Y-88575371D01*
X125476189Y-88575371D02*
X125523808Y-88622990D01*
X129380951Y-90137752D02*
X129142856Y-90804419D01*
X129142856Y-90804419D02*
X128904761Y-90137752D01*
X128523808Y-90709180D02*
X128476189Y-90756800D01*
X128476189Y-90756800D02*
X128523808Y-90804419D01*
X128523808Y-90804419D02*
X128571427Y-90756800D01*
X128571427Y-90756800D02*
X128523808Y-90709180D01*
X128523808Y-90709180D02*
X128523808Y-90804419D01*
X127857142Y-89804419D02*
X127761904Y-89804419D01*
X127761904Y-89804419D02*
X127666666Y-89852038D01*
X127666666Y-89852038D02*
X127619047Y-89899657D01*
X127619047Y-89899657D02*
X127571428Y-89994895D01*
X127571428Y-89994895D02*
X127523809Y-90185371D01*
X127523809Y-90185371D02*
X127523809Y-90423466D01*
X127523809Y-90423466D02*
X127571428Y-90613942D01*
X127571428Y-90613942D02*
X127619047Y-90709180D01*
X127619047Y-90709180D02*
X127666666Y-90756800D01*
X127666666Y-90756800D02*
X127761904Y-90804419D01*
X127761904Y-90804419D02*
X127857142Y-90804419D01*
X127857142Y-90804419D02*
X127952380Y-90756800D01*
X127952380Y-90756800D02*
X127999999Y-90709180D01*
X127999999Y-90709180D02*
X128047618Y-90613942D01*
X128047618Y-90613942D02*
X128095237Y-90423466D01*
X128095237Y-90423466D02*
X128095237Y-90185371D01*
X128095237Y-90185371D02*
X128047618Y-89994895D01*
X128047618Y-89994895D02*
X127999999Y-89899657D01*
X127999999Y-89899657D02*
X127952380Y-89852038D01*
X127952380Y-89852038D02*
X127857142Y-89804419D01*
X127095237Y-90709180D02*
X127047618Y-90756800D01*
X127047618Y-90756800D02*
X127095237Y-90804419D01*
X127095237Y-90804419D02*
X127142856Y-90756800D01*
X127142856Y-90756800D02*
X127095237Y-90709180D01*
X127095237Y-90709180D02*
X127095237Y-90804419D01*
X126428571Y-89804419D02*
X126333333Y-89804419D01*
X126333333Y-89804419D02*
X126238095Y-89852038D01*
X126238095Y-89852038D02*
X126190476Y-89899657D01*
X126190476Y-89899657D02*
X126142857Y-89994895D01*
X126142857Y-89994895D02*
X126095238Y-90185371D01*
X126095238Y-90185371D02*
X126095238Y-90423466D01*
X126095238Y-90423466D02*
X126142857Y-90613942D01*
X126142857Y-90613942D02*
X126190476Y-90709180D01*
X126190476Y-90709180D02*
X126238095Y-90756800D01*
X126238095Y-90756800D02*
X126333333Y-90804419D01*
X126333333Y-90804419D02*
X126428571Y-90804419D01*
X126428571Y-90804419D02*
X126523809Y-90756800D01*
X126523809Y-90756800D02*
X126571428Y-90709180D01*
X126571428Y-90709180D02*
X126619047Y-90613942D01*
X126619047Y-90613942D02*
X126666666Y-90423466D01*
X126666666Y-90423466D02*
X126666666Y-90185371D01*
X126666666Y-90185371D02*
X126619047Y-89994895D01*
X126619047Y-89994895D02*
X126571428Y-89899657D01*
X126571428Y-89899657D02*
X126523809Y-89852038D01*
X126523809Y-89852038D02*
X126428571Y-89804419D01*
X125666666Y-90709180D02*
X125619047Y-90756800D01*
X125619047Y-90756800D02*
X125666666Y-90804419D01*
X125666666Y-90804419D02*
X125714285Y-90756800D01*
X125714285Y-90756800D02*
X125666666Y-90709180D01*
X125666666Y-90709180D02*
X125666666Y-90804419D01*
X124666667Y-90804419D02*
X125238095Y-90804419D01*
X124952381Y-90804419D02*
X124952381Y-89804419D01*
X124952381Y-89804419D02*
X125047619Y-89947276D01*
X125047619Y-89947276D02*
X125142857Y-90042514D01*
X125142857Y-90042514D02*
X125238095Y-90090133D01*
X128333333Y-85978419D02*
X128333333Y-84978419D01*
X128333333Y-85359371D02*
X128238095Y-85311752D01*
X128238095Y-85311752D02*
X128047619Y-85311752D01*
X128047619Y-85311752D02*
X127952381Y-85359371D01*
X127952381Y-85359371D02*
X127904762Y-85406990D01*
X127904762Y-85406990D02*
X127857143Y-85502228D01*
X127857143Y-85502228D02*
X127857143Y-85787942D01*
X127857143Y-85787942D02*
X127904762Y-85883180D01*
X127904762Y-85883180D02*
X127952381Y-85930800D01*
X127952381Y-85930800D02*
X128047619Y-85978419D01*
X128047619Y-85978419D02*
X128238095Y-85978419D01*
X128238095Y-85978419D02*
X128333333Y-85930800D01*
X127428571Y-85978419D02*
X127428571Y-85311752D01*
X127428571Y-85502228D02*
X127380952Y-85406990D01*
X127380952Y-85406990D02*
X127333333Y-85359371D01*
X127333333Y-85359371D02*
X127238095Y-85311752D01*
X127238095Y-85311752D02*
X127142857Y-85311752D01*
X126904761Y-85311752D02*
X126380952Y-85311752D01*
X126380952Y-85311752D02*
X126904761Y-85978419D01*
X126904761Y-85978419D02*
X126380952Y-85978419D01*
X125999999Y-85978419D02*
X125999999Y-84978419D01*
X125904761Y-85597466D02*
X125619047Y-85978419D01*
X125619047Y-85311752D02*
X125999999Y-85692704D01*
D11*
X162218666Y-91291580D02*
X162266285Y-91339200D01*
X162266285Y-91339200D02*
X162409142Y-91386819D01*
X162409142Y-91386819D02*
X162504380Y-91386819D01*
X162504380Y-91386819D02*
X162647237Y-91339200D01*
X162647237Y-91339200D02*
X162742475Y-91243961D01*
X162742475Y-91243961D02*
X162790094Y-91148723D01*
X162790094Y-91148723D02*
X162837713Y-90958247D01*
X162837713Y-90958247D02*
X162837713Y-90815390D01*
X162837713Y-90815390D02*
X162790094Y-90624914D01*
X162790094Y-90624914D02*
X162742475Y-90529676D01*
X162742475Y-90529676D02*
X162647237Y-90434438D01*
X162647237Y-90434438D02*
X162504380Y-90386819D01*
X162504380Y-90386819D02*
X162409142Y-90386819D01*
X162409142Y-90386819D02*
X162266285Y-90434438D01*
X162266285Y-90434438D02*
X162218666Y-90482057D01*
X161885332Y-90386819D02*
X161218666Y-90386819D01*
X161218666Y-90386819D02*
X161647237Y-91386819D01*
X145871237Y-103416819D02*
X145299809Y-103416819D01*
X145585523Y-104416819D02*
X145585523Y-103416819D01*
X144966475Y-104416819D02*
X144966475Y-103416819D01*
X144966475Y-103416819D02*
X144585523Y-103416819D01*
X144585523Y-103416819D02*
X144490285Y-103464438D01*
X144490285Y-103464438D02*
X144442666Y-103512057D01*
X144442666Y-103512057D02*
X144395047Y-103607295D01*
X144395047Y-103607295D02*
X144395047Y-103750152D01*
X144395047Y-103750152D02*
X144442666Y-103845390D01*
X144442666Y-103845390D02*
X144490285Y-103893009D01*
X144490285Y-103893009D02*
X144585523Y-103940628D01*
X144585523Y-103940628D02*
X144966475Y-103940628D01*
X143537904Y-103750152D02*
X143537904Y-104416819D01*
X143775999Y-103369200D02*
X144014094Y-104083485D01*
X144014094Y-104083485D02*
X143395047Y-104083485D01*
X157614857Y-93672819D02*
X157948190Y-93196628D01*
X158186285Y-93672819D02*
X158186285Y-92672819D01*
X158186285Y-92672819D02*
X157805333Y-92672819D01*
X157805333Y-92672819D02*
X157710095Y-92720438D01*
X157710095Y-92720438D02*
X157662476Y-92768057D01*
X157662476Y-92768057D02*
X157614857Y-92863295D01*
X157614857Y-92863295D02*
X157614857Y-93006152D01*
X157614857Y-93006152D02*
X157662476Y-93101390D01*
X157662476Y-93101390D02*
X157710095Y-93149009D01*
X157710095Y-93149009D02*
X157805333Y-93196628D01*
X157805333Y-93196628D02*
X158186285Y-93196628D01*
X156662476Y-93672819D02*
X157233904Y-93672819D01*
X156948190Y-93672819D02*
X156948190Y-92672819D01*
X156948190Y-92672819D02*
X157043428Y-92815676D01*
X157043428Y-92815676D02*
X157138666Y-92910914D01*
X157138666Y-92910914D02*
X157233904Y-92958533D01*
X156043428Y-92672819D02*
X155948190Y-92672819D01*
X155948190Y-92672819D02*
X155852952Y-92720438D01*
X155852952Y-92720438D02*
X155805333Y-92768057D01*
X155805333Y-92768057D02*
X155757714Y-92863295D01*
X155757714Y-92863295D02*
X155710095Y-93053771D01*
X155710095Y-93053771D02*
X155710095Y-93291866D01*
X155710095Y-93291866D02*
X155757714Y-93482342D01*
X155757714Y-93482342D02*
X155805333Y-93577580D01*
X155805333Y-93577580D02*
X155852952Y-93625200D01*
X155852952Y-93625200D02*
X155948190Y-93672819D01*
X155948190Y-93672819D02*
X156043428Y-93672819D01*
X156043428Y-93672819D02*
X156138666Y-93625200D01*
X156138666Y-93625200D02*
X156186285Y-93577580D01*
X156186285Y-93577580D02*
X156233904Y-93482342D01*
X156233904Y-93482342D02*
X156281523Y-93291866D01*
X156281523Y-93291866D02*
X156281523Y-93053771D01*
X156281523Y-93053771D02*
X156233904Y-92863295D01*
X156233904Y-92863295D02*
X156186285Y-92768057D01*
X156186285Y-92768057D02*
X156138666Y-92720438D01*
X156138666Y-92720438D02*
X156043428Y-92672819D01*
X160662857Y-90116819D02*
X160996190Y-89640628D01*
X161234285Y-90116819D02*
X161234285Y-89116819D01*
X161234285Y-89116819D02*
X160853333Y-89116819D01*
X160853333Y-89116819D02*
X160758095Y-89164438D01*
X160758095Y-89164438D02*
X160710476Y-89212057D01*
X160710476Y-89212057D02*
X160662857Y-89307295D01*
X160662857Y-89307295D02*
X160662857Y-89450152D01*
X160662857Y-89450152D02*
X160710476Y-89545390D01*
X160710476Y-89545390D02*
X160758095Y-89593009D01*
X160758095Y-89593009D02*
X160853333Y-89640628D01*
X160853333Y-89640628D02*
X161234285Y-89640628D01*
X159710476Y-90116819D02*
X160281904Y-90116819D01*
X159996190Y-90116819D02*
X159996190Y-89116819D01*
X159996190Y-89116819D02*
X160091428Y-89259676D01*
X160091428Y-89259676D02*
X160186666Y-89354914D01*
X160186666Y-89354914D02*
X160281904Y-89402533D01*
X159139047Y-89545390D02*
X159234285Y-89497771D01*
X159234285Y-89497771D02*
X159281904Y-89450152D01*
X159281904Y-89450152D02*
X159329523Y-89354914D01*
X159329523Y-89354914D02*
X159329523Y-89307295D01*
X159329523Y-89307295D02*
X159281904Y-89212057D01*
X159281904Y-89212057D02*
X159234285Y-89164438D01*
X159234285Y-89164438D02*
X159139047Y-89116819D01*
X159139047Y-89116819D02*
X158948571Y-89116819D01*
X158948571Y-89116819D02*
X158853333Y-89164438D01*
X158853333Y-89164438D02*
X158805714Y-89212057D01*
X158805714Y-89212057D02*
X158758095Y-89307295D01*
X158758095Y-89307295D02*
X158758095Y-89354914D01*
X158758095Y-89354914D02*
X158805714Y-89450152D01*
X158805714Y-89450152D02*
X158853333Y-89497771D01*
X158853333Y-89497771D02*
X158948571Y-89545390D01*
X158948571Y-89545390D02*
X159139047Y-89545390D01*
X159139047Y-89545390D02*
X159234285Y-89593009D01*
X159234285Y-89593009D02*
X159281904Y-89640628D01*
X159281904Y-89640628D02*
X159329523Y-89735866D01*
X159329523Y-89735866D02*
X159329523Y-89926342D01*
X159329523Y-89926342D02*
X159281904Y-90021580D01*
X159281904Y-90021580D02*
X159234285Y-90069200D01*
X159234285Y-90069200D02*
X159139047Y-90116819D01*
X159139047Y-90116819D02*
X158948571Y-90116819D01*
X158948571Y-90116819D02*
X158853333Y-90069200D01*
X158853333Y-90069200D02*
X158805714Y-90021580D01*
X158805714Y-90021580D02*
X158758095Y-89926342D01*
X158758095Y-89926342D02*
X158758095Y-89735866D01*
X158758095Y-89735866D02*
X158805714Y-89640628D01*
X158805714Y-89640628D02*
X158853333Y-89593009D01*
X158853333Y-89593009D02*
X158948571Y-89545390D01*
X144770433Y-67272819D02*
X144770433Y-67987104D01*
X144770433Y-67987104D02*
X144818052Y-68129961D01*
X144818052Y-68129961D02*
X144913290Y-68225200D01*
X144913290Y-68225200D02*
X145056147Y-68272819D01*
X145056147Y-68272819D02*
X145151385Y-68272819D01*
X144389480Y-67272819D02*
X143770433Y-67272819D01*
X143770433Y-67272819D02*
X144103766Y-67653771D01*
X144103766Y-67653771D02*
X143960909Y-67653771D01*
X143960909Y-67653771D02*
X143865671Y-67701390D01*
X143865671Y-67701390D02*
X143818052Y-67749009D01*
X143818052Y-67749009D02*
X143770433Y-67844247D01*
X143770433Y-67844247D02*
X143770433Y-68082342D01*
X143770433Y-68082342D02*
X143818052Y-68177580D01*
X143818052Y-68177580D02*
X143865671Y-68225200D01*
X143865671Y-68225200D02*
X143960909Y-68272819D01*
X143960909Y-68272819D02*
X144246623Y-68272819D01*
X144246623Y-68272819D02*
X144341861Y-68225200D01*
X144341861Y-68225200D02*
X144389480Y-68177580D01*
X159867523Y-99638295D02*
X159867523Y-100285914D01*
X159867523Y-100285914D02*
X159829428Y-100362104D01*
X159829428Y-100362104D02*
X159791333Y-100400200D01*
X159791333Y-100400200D02*
X159715142Y-100438295D01*
X159715142Y-100438295D02*
X159562761Y-100438295D01*
X159562761Y-100438295D02*
X159486571Y-100400200D01*
X159486571Y-100400200D02*
X159448476Y-100362104D01*
X159448476Y-100362104D02*
X159410380Y-100285914D01*
X159410380Y-100285914D02*
X159410380Y-99638295D01*
X159105619Y-99638295D02*
X158610381Y-99638295D01*
X158610381Y-99638295D02*
X158877047Y-99943057D01*
X158877047Y-99943057D02*
X158762762Y-99943057D01*
X158762762Y-99943057D02*
X158686571Y-99981152D01*
X158686571Y-99981152D02*
X158648476Y-100019247D01*
X158648476Y-100019247D02*
X158610381Y-100095438D01*
X158610381Y-100095438D02*
X158610381Y-100285914D01*
X158610381Y-100285914D02*
X158648476Y-100362104D01*
X158648476Y-100362104D02*
X158686571Y-100400200D01*
X158686571Y-100400200D02*
X158762762Y-100438295D01*
X158762762Y-100438295D02*
X158991333Y-100438295D01*
X158991333Y-100438295D02*
X159067524Y-100400200D01*
X159067524Y-100400200D02*
X159105619Y-100362104D01*
X163202857Y-95958819D02*
X163536190Y-95482628D01*
X163774285Y-95958819D02*
X163774285Y-94958819D01*
X163774285Y-94958819D02*
X163393333Y-94958819D01*
X163393333Y-94958819D02*
X163298095Y-95006438D01*
X163298095Y-95006438D02*
X163250476Y-95054057D01*
X163250476Y-95054057D02*
X163202857Y-95149295D01*
X163202857Y-95149295D02*
X163202857Y-95292152D01*
X163202857Y-95292152D02*
X163250476Y-95387390D01*
X163250476Y-95387390D02*
X163298095Y-95435009D01*
X163298095Y-95435009D02*
X163393333Y-95482628D01*
X163393333Y-95482628D02*
X163774285Y-95482628D01*
X162250476Y-95958819D02*
X162821904Y-95958819D01*
X162536190Y-95958819D02*
X162536190Y-94958819D01*
X162536190Y-94958819D02*
X162631428Y-95101676D01*
X162631428Y-95101676D02*
X162726666Y-95196914D01*
X162726666Y-95196914D02*
X162821904Y-95244533D01*
X161774285Y-95958819D02*
X161583809Y-95958819D01*
X161583809Y-95958819D02*
X161488571Y-95911200D01*
X161488571Y-95911200D02*
X161440952Y-95863580D01*
X161440952Y-95863580D02*
X161345714Y-95720723D01*
X161345714Y-95720723D02*
X161298095Y-95530247D01*
X161298095Y-95530247D02*
X161298095Y-95149295D01*
X161298095Y-95149295D02*
X161345714Y-95054057D01*
X161345714Y-95054057D02*
X161393333Y-95006438D01*
X161393333Y-95006438D02*
X161488571Y-94958819D01*
X161488571Y-94958819D02*
X161679047Y-94958819D01*
X161679047Y-94958819D02*
X161774285Y-95006438D01*
X161774285Y-95006438D02*
X161821904Y-95054057D01*
X161821904Y-95054057D02*
X161869523Y-95149295D01*
X161869523Y-95149295D02*
X161869523Y-95387390D01*
X161869523Y-95387390D02*
X161821904Y-95482628D01*
X161821904Y-95482628D02*
X161774285Y-95530247D01*
X161774285Y-95530247D02*
X161679047Y-95577866D01*
X161679047Y-95577866D02*
X161488571Y-95577866D01*
X161488571Y-95577866D02*
X161393333Y-95530247D01*
X161393333Y-95530247D02*
X161345714Y-95482628D01*
X161345714Y-95482628D02*
X161298095Y-95387390D01*
X142569237Y-103416819D02*
X141997809Y-103416819D01*
X142283523Y-104416819D02*
X142283523Y-103416819D01*
X141664475Y-104416819D02*
X141664475Y-103416819D01*
X141664475Y-103416819D02*
X141283523Y-103416819D01*
X141283523Y-103416819D02*
X141188285Y-103464438D01*
X141188285Y-103464438D02*
X141140666Y-103512057D01*
X141140666Y-103512057D02*
X141093047Y-103607295D01*
X141093047Y-103607295D02*
X141093047Y-103750152D01*
X141093047Y-103750152D02*
X141140666Y-103845390D01*
X141140666Y-103845390D02*
X141188285Y-103893009D01*
X141188285Y-103893009D02*
X141283523Y-103940628D01*
X141283523Y-103940628D02*
X141664475Y-103940628D01*
X140188285Y-103416819D02*
X140664475Y-103416819D01*
X140664475Y-103416819D02*
X140712094Y-103893009D01*
X140712094Y-103893009D02*
X140664475Y-103845390D01*
X140664475Y-103845390D02*
X140569237Y-103797771D01*
X140569237Y-103797771D02*
X140331142Y-103797771D01*
X140331142Y-103797771D02*
X140235904Y-103845390D01*
X140235904Y-103845390D02*
X140188285Y-103893009D01*
X140188285Y-103893009D02*
X140140666Y-103988247D01*
X140140666Y-103988247D02*
X140140666Y-104226342D01*
X140140666Y-104226342D02*
X140188285Y-104321580D01*
X140188285Y-104321580D02*
X140235904Y-104369200D01*
X140235904Y-104369200D02*
X140331142Y-104416819D01*
X140331142Y-104416819D02*
X140569237Y-104416819D01*
X140569237Y-104416819D02*
X140664475Y-104369200D01*
X140664475Y-104369200D02*
X140712094Y-104321580D01*
X139267237Y-103416819D02*
X138695809Y-103416819D01*
X138981523Y-104416819D02*
X138981523Y-103416819D01*
X138362475Y-104416819D02*
X138362475Y-103416819D01*
X138362475Y-103416819D02*
X137981523Y-103416819D01*
X137981523Y-103416819D02*
X137886285Y-103464438D01*
X137886285Y-103464438D02*
X137838666Y-103512057D01*
X137838666Y-103512057D02*
X137791047Y-103607295D01*
X137791047Y-103607295D02*
X137791047Y-103750152D01*
X137791047Y-103750152D02*
X137838666Y-103845390D01*
X137838666Y-103845390D02*
X137886285Y-103893009D01*
X137886285Y-103893009D02*
X137981523Y-103940628D01*
X137981523Y-103940628D02*
X138362475Y-103940628D01*
X136838666Y-104416819D02*
X137410094Y-104416819D01*
X137124380Y-104416819D02*
X137124380Y-103416819D01*
X137124380Y-103416819D02*
X137219618Y-103559676D01*
X137219618Y-103559676D02*
X137314856Y-103654914D01*
X137314856Y-103654914D02*
X137410094Y-103702533D01*
X164591904Y-82512819D02*
X164591904Y-83322342D01*
X164591904Y-83322342D02*
X164544285Y-83417580D01*
X164544285Y-83417580D02*
X164496666Y-83465200D01*
X164496666Y-83465200D02*
X164401428Y-83512819D01*
X164401428Y-83512819D02*
X164210952Y-83512819D01*
X164210952Y-83512819D02*
X164115714Y-83465200D01*
X164115714Y-83465200D02*
X164068095Y-83417580D01*
X164068095Y-83417580D02*
X164020476Y-83322342D01*
X164020476Y-83322342D02*
X164020476Y-82512819D01*
X163115714Y-82846152D02*
X163115714Y-83512819D01*
X163353809Y-82465200D02*
X163591904Y-83179485D01*
X163591904Y-83179485D02*
X162972857Y-83179485D01*
X161710666Y-78181580D02*
X161758285Y-78229200D01*
X161758285Y-78229200D02*
X161901142Y-78276819D01*
X161901142Y-78276819D02*
X161996380Y-78276819D01*
X161996380Y-78276819D02*
X162139237Y-78229200D01*
X162139237Y-78229200D02*
X162234475Y-78133961D01*
X162234475Y-78133961D02*
X162282094Y-78038723D01*
X162282094Y-78038723D02*
X162329713Y-77848247D01*
X162329713Y-77848247D02*
X162329713Y-77705390D01*
X162329713Y-77705390D02*
X162282094Y-77514914D01*
X162282094Y-77514914D02*
X162234475Y-77419676D01*
X162234475Y-77419676D02*
X162139237Y-77324438D01*
X162139237Y-77324438D02*
X161996380Y-77276819D01*
X161996380Y-77276819D02*
X161901142Y-77276819D01*
X161901142Y-77276819D02*
X161758285Y-77324438D01*
X161758285Y-77324438D02*
X161710666Y-77372057D01*
X161234475Y-78276819D02*
X161043999Y-78276819D01*
X161043999Y-78276819D02*
X160948761Y-78229200D01*
X160948761Y-78229200D02*
X160901142Y-78181580D01*
X160901142Y-78181580D02*
X160805904Y-78038723D01*
X160805904Y-78038723D02*
X160758285Y-77848247D01*
X160758285Y-77848247D02*
X160758285Y-77467295D01*
X160758285Y-77467295D02*
X160805904Y-77372057D01*
X160805904Y-77372057D02*
X160853523Y-77324438D01*
X160853523Y-77324438D02*
X160948761Y-77276819D01*
X160948761Y-77276819D02*
X161139237Y-77276819D01*
X161139237Y-77276819D02*
X161234475Y-77324438D01*
X161234475Y-77324438D02*
X161282094Y-77372057D01*
X161282094Y-77372057D02*
X161329713Y-77467295D01*
X161329713Y-77467295D02*
X161329713Y-77705390D01*
X161329713Y-77705390D02*
X161282094Y-77800628D01*
X161282094Y-77800628D02*
X161234475Y-77848247D01*
X161234475Y-77848247D02*
X161139237Y-77895866D01*
X161139237Y-77895866D02*
X160948761Y-77895866D01*
X160948761Y-77895866D02*
X160853523Y-77848247D01*
X160853523Y-77848247D02*
X160805904Y-77800628D01*
X160805904Y-77800628D02*
X160758285Y-77705390D01*
X149173237Y-103416819D02*
X148601809Y-103416819D01*
X148887523Y-104416819D02*
X148887523Y-103416819D01*
X148268475Y-104416819D02*
X148268475Y-103416819D01*
X148268475Y-103416819D02*
X147887523Y-103416819D01*
X147887523Y-103416819D02*
X147792285Y-103464438D01*
X147792285Y-103464438D02*
X147744666Y-103512057D01*
X147744666Y-103512057D02*
X147697047Y-103607295D01*
X147697047Y-103607295D02*
X147697047Y-103750152D01*
X147697047Y-103750152D02*
X147744666Y-103845390D01*
X147744666Y-103845390D02*
X147792285Y-103893009D01*
X147792285Y-103893009D02*
X147887523Y-103940628D01*
X147887523Y-103940628D02*
X148268475Y-103940628D01*
X147316094Y-103512057D02*
X147268475Y-103464438D01*
X147268475Y-103464438D02*
X147173237Y-103416819D01*
X147173237Y-103416819D02*
X146935142Y-103416819D01*
X146935142Y-103416819D02*
X146839904Y-103464438D01*
X146839904Y-103464438D02*
X146792285Y-103512057D01*
X146792285Y-103512057D02*
X146744666Y-103607295D01*
X146744666Y-103607295D02*
X146744666Y-103702533D01*
X146744666Y-103702533D02*
X146792285Y-103845390D01*
X146792285Y-103845390D02*
X147363713Y-104416819D01*
X147363713Y-104416819D02*
X146744666Y-104416819D01*
X158884857Y-81385580D02*
X158932476Y-81433200D01*
X158932476Y-81433200D02*
X159075333Y-81480819D01*
X159075333Y-81480819D02*
X159170571Y-81480819D01*
X159170571Y-81480819D02*
X159313428Y-81433200D01*
X159313428Y-81433200D02*
X159408666Y-81337961D01*
X159408666Y-81337961D02*
X159456285Y-81242723D01*
X159456285Y-81242723D02*
X159503904Y-81052247D01*
X159503904Y-81052247D02*
X159503904Y-80909390D01*
X159503904Y-80909390D02*
X159456285Y-80718914D01*
X159456285Y-80718914D02*
X159408666Y-80623676D01*
X159408666Y-80623676D02*
X159313428Y-80528438D01*
X159313428Y-80528438D02*
X159170571Y-80480819D01*
X159170571Y-80480819D02*
X159075333Y-80480819D01*
X159075333Y-80480819D02*
X158932476Y-80528438D01*
X158932476Y-80528438D02*
X158884857Y-80576057D01*
X157932476Y-81480819D02*
X158503904Y-81480819D01*
X158218190Y-81480819D02*
X158218190Y-80480819D01*
X158218190Y-80480819D02*
X158313428Y-80623676D01*
X158313428Y-80623676D02*
X158408666Y-80718914D01*
X158408666Y-80718914D02*
X158503904Y-80766533D01*
X156980095Y-81480819D02*
X157551523Y-81480819D01*
X157265809Y-81480819D02*
X157265809Y-80480819D01*
X157265809Y-80480819D02*
X157361047Y-80623676D01*
X157361047Y-80623676D02*
X157456285Y-80718914D01*
X157456285Y-80718914D02*
X157551523Y-80766533D01*
X164250666Y-90275580D02*
X164298285Y-90323200D01*
X164298285Y-90323200D02*
X164441142Y-90370819D01*
X164441142Y-90370819D02*
X164536380Y-90370819D01*
X164536380Y-90370819D02*
X164679237Y-90323200D01*
X164679237Y-90323200D02*
X164774475Y-90227961D01*
X164774475Y-90227961D02*
X164822094Y-90132723D01*
X164822094Y-90132723D02*
X164869713Y-89942247D01*
X164869713Y-89942247D02*
X164869713Y-89799390D01*
X164869713Y-89799390D02*
X164822094Y-89608914D01*
X164822094Y-89608914D02*
X164774475Y-89513676D01*
X164774475Y-89513676D02*
X164679237Y-89418438D01*
X164679237Y-89418438D02*
X164536380Y-89370819D01*
X164536380Y-89370819D02*
X164441142Y-89370819D01*
X164441142Y-89370819D02*
X164298285Y-89418438D01*
X164298285Y-89418438D02*
X164250666Y-89466057D01*
X163679237Y-89799390D02*
X163774475Y-89751771D01*
X163774475Y-89751771D02*
X163822094Y-89704152D01*
X163822094Y-89704152D02*
X163869713Y-89608914D01*
X163869713Y-89608914D02*
X163869713Y-89561295D01*
X163869713Y-89561295D02*
X163822094Y-89466057D01*
X163822094Y-89466057D02*
X163774475Y-89418438D01*
X163774475Y-89418438D02*
X163679237Y-89370819D01*
X163679237Y-89370819D02*
X163488761Y-89370819D01*
X163488761Y-89370819D02*
X163393523Y-89418438D01*
X163393523Y-89418438D02*
X163345904Y-89466057D01*
X163345904Y-89466057D02*
X163298285Y-89561295D01*
X163298285Y-89561295D02*
X163298285Y-89608914D01*
X163298285Y-89608914D02*
X163345904Y-89704152D01*
X163345904Y-89704152D02*
X163393523Y-89751771D01*
X163393523Y-89751771D02*
X163488761Y-89799390D01*
X163488761Y-89799390D02*
X163679237Y-89799390D01*
X163679237Y-89799390D02*
X163774475Y-89847009D01*
X163774475Y-89847009D02*
X163822094Y-89894628D01*
X163822094Y-89894628D02*
X163869713Y-89989866D01*
X163869713Y-89989866D02*
X163869713Y-90180342D01*
X163869713Y-90180342D02*
X163822094Y-90275580D01*
X163822094Y-90275580D02*
X163774475Y-90323200D01*
X163774475Y-90323200D02*
X163679237Y-90370819D01*
X163679237Y-90370819D02*
X163488761Y-90370819D01*
X163488761Y-90370819D02*
X163393523Y-90323200D01*
X163393523Y-90323200D02*
X163345904Y-90275580D01*
X163345904Y-90275580D02*
X163298285Y-90180342D01*
X163298285Y-90180342D02*
X163298285Y-89989866D01*
X163298285Y-89989866D02*
X163345904Y-89894628D01*
X163345904Y-89894628D02*
X163393523Y-89847009D01*
X163393523Y-89847009D02*
X163488761Y-89799390D01*
X157614857Y-73700819D02*
X157948190Y-73224628D01*
X158186285Y-73700819D02*
X158186285Y-72700819D01*
X158186285Y-72700819D02*
X157805333Y-72700819D01*
X157805333Y-72700819D02*
X157710095Y-72748438D01*
X157710095Y-72748438D02*
X157662476Y-72796057D01*
X157662476Y-72796057D02*
X157614857Y-72891295D01*
X157614857Y-72891295D02*
X157614857Y-73034152D01*
X157614857Y-73034152D02*
X157662476Y-73129390D01*
X157662476Y-73129390D02*
X157710095Y-73177009D01*
X157710095Y-73177009D02*
X157805333Y-73224628D01*
X157805333Y-73224628D02*
X158186285Y-73224628D01*
X156662476Y-73700819D02*
X157233904Y-73700819D01*
X156948190Y-73700819D02*
X156948190Y-72700819D01*
X156948190Y-72700819D02*
X157043428Y-72843676D01*
X157043428Y-72843676D02*
X157138666Y-72938914D01*
X157138666Y-72938914D02*
X157233904Y-72986533D01*
X156329142Y-72700819D02*
X155662476Y-72700819D01*
X155662476Y-72700819D02*
X156091047Y-73700819D01*
X157614857Y-95196819D02*
X157948190Y-94720628D01*
X158186285Y-95196819D02*
X158186285Y-94196819D01*
X158186285Y-94196819D02*
X157805333Y-94196819D01*
X157805333Y-94196819D02*
X157710095Y-94244438D01*
X157710095Y-94244438D02*
X157662476Y-94292057D01*
X157662476Y-94292057D02*
X157614857Y-94387295D01*
X157614857Y-94387295D02*
X157614857Y-94530152D01*
X157614857Y-94530152D02*
X157662476Y-94625390D01*
X157662476Y-94625390D02*
X157710095Y-94673009D01*
X157710095Y-94673009D02*
X157805333Y-94720628D01*
X157805333Y-94720628D02*
X158186285Y-94720628D01*
X156662476Y-95196819D02*
X157233904Y-95196819D01*
X156948190Y-95196819D02*
X156948190Y-94196819D01*
X156948190Y-94196819D02*
X157043428Y-94339676D01*
X157043428Y-94339676D02*
X157138666Y-94434914D01*
X157138666Y-94434914D02*
X157233904Y-94482533D01*
X155710095Y-95196819D02*
X156281523Y-95196819D01*
X155995809Y-95196819D02*
X155995809Y-94196819D01*
X155995809Y-94196819D02*
X156091047Y-94339676D01*
X156091047Y-94339676D02*
X156186285Y-94434914D01*
X156186285Y-94434914D02*
X156281523Y-94482533D01*
X152280857Y-102975580D02*
X152328476Y-103023200D01*
X152328476Y-103023200D02*
X152471333Y-103070819D01*
X152471333Y-103070819D02*
X152566571Y-103070819D01*
X152566571Y-103070819D02*
X152709428Y-103023200D01*
X152709428Y-103023200D02*
X152804666Y-102927961D01*
X152804666Y-102927961D02*
X152852285Y-102832723D01*
X152852285Y-102832723D02*
X152899904Y-102642247D01*
X152899904Y-102642247D02*
X152899904Y-102499390D01*
X152899904Y-102499390D02*
X152852285Y-102308914D01*
X152852285Y-102308914D02*
X152804666Y-102213676D01*
X152804666Y-102213676D02*
X152709428Y-102118438D01*
X152709428Y-102118438D02*
X152566571Y-102070819D01*
X152566571Y-102070819D02*
X152471333Y-102070819D01*
X152471333Y-102070819D02*
X152328476Y-102118438D01*
X152328476Y-102118438D02*
X152280857Y-102166057D01*
X151328476Y-103070819D02*
X151899904Y-103070819D01*
X151614190Y-103070819D02*
X151614190Y-102070819D01*
X151614190Y-102070819D02*
X151709428Y-102213676D01*
X151709428Y-102213676D02*
X151804666Y-102308914D01*
X151804666Y-102308914D02*
X151899904Y-102356533D01*
X150709428Y-102070819D02*
X150614190Y-102070819D01*
X150614190Y-102070819D02*
X150518952Y-102118438D01*
X150518952Y-102118438D02*
X150471333Y-102166057D01*
X150471333Y-102166057D02*
X150423714Y-102261295D01*
X150423714Y-102261295D02*
X150376095Y-102451771D01*
X150376095Y-102451771D02*
X150376095Y-102689866D01*
X150376095Y-102689866D02*
X150423714Y-102880342D01*
X150423714Y-102880342D02*
X150471333Y-102975580D01*
X150471333Y-102975580D02*
X150518952Y-103023200D01*
X150518952Y-103023200D02*
X150614190Y-103070819D01*
X150614190Y-103070819D02*
X150709428Y-103070819D01*
X150709428Y-103070819D02*
X150804666Y-103023200D01*
X150804666Y-103023200D02*
X150852285Y-102975580D01*
X150852285Y-102975580D02*
X150899904Y-102880342D01*
X150899904Y-102880342D02*
X150947523Y-102689866D01*
X150947523Y-102689866D02*
X150947523Y-102451771D01*
X150947523Y-102451771D02*
X150899904Y-102261295D01*
X150899904Y-102261295D02*
X150852285Y-102166057D01*
X150852285Y-102166057D02*
X150804666Y-102118438D01*
X150804666Y-102118438D02*
X150709428Y-102070819D01*
X156376666Y-86211580D02*
X156424285Y-86259200D01*
X156424285Y-86259200D02*
X156567142Y-86306819D01*
X156567142Y-86306819D02*
X156662380Y-86306819D01*
X156662380Y-86306819D02*
X156805237Y-86259200D01*
X156805237Y-86259200D02*
X156900475Y-86163961D01*
X156900475Y-86163961D02*
X156948094Y-86068723D01*
X156948094Y-86068723D02*
X156995713Y-85878247D01*
X156995713Y-85878247D02*
X156995713Y-85735390D01*
X156995713Y-85735390D02*
X156948094Y-85544914D01*
X156948094Y-85544914D02*
X156900475Y-85449676D01*
X156900475Y-85449676D02*
X156805237Y-85354438D01*
X156805237Y-85354438D02*
X156662380Y-85306819D01*
X156662380Y-85306819D02*
X156567142Y-85306819D01*
X156567142Y-85306819D02*
X156424285Y-85354438D01*
X156424285Y-85354438D02*
X156376666Y-85402057D01*
X155519523Y-85306819D02*
X155709999Y-85306819D01*
X155709999Y-85306819D02*
X155805237Y-85354438D01*
X155805237Y-85354438D02*
X155852856Y-85402057D01*
X155852856Y-85402057D02*
X155948094Y-85544914D01*
X155948094Y-85544914D02*
X155995713Y-85735390D01*
X155995713Y-85735390D02*
X155995713Y-86116342D01*
X155995713Y-86116342D02*
X155948094Y-86211580D01*
X155948094Y-86211580D02*
X155900475Y-86259200D01*
X155900475Y-86259200D02*
X155805237Y-86306819D01*
X155805237Y-86306819D02*
X155614761Y-86306819D01*
X155614761Y-86306819D02*
X155519523Y-86259200D01*
X155519523Y-86259200D02*
X155471904Y-86211580D01*
X155471904Y-86211580D02*
X155424285Y-86116342D01*
X155424285Y-86116342D02*
X155424285Y-85878247D01*
X155424285Y-85878247D02*
X155471904Y-85783009D01*
X155471904Y-85783009D02*
X155519523Y-85735390D01*
X155519523Y-85735390D02*
X155614761Y-85687771D01*
X155614761Y-85687771D02*
X155805237Y-85687771D01*
X155805237Y-85687771D02*
X155900475Y-85735390D01*
X155900475Y-85735390D02*
X155948094Y-85783009D01*
X155948094Y-85783009D02*
X155995713Y-85878247D01*
X158408666Y-86211580D02*
X158456285Y-86259200D01*
X158456285Y-86259200D02*
X158599142Y-86306819D01*
X158599142Y-86306819D02*
X158694380Y-86306819D01*
X158694380Y-86306819D02*
X158837237Y-86259200D01*
X158837237Y-86259200D02*
X158932475Y-86163961D01*
X158932475Y-86163961D02*
X158980094Y-86068723D01*
X158980094Y-86068723D02*
X159027713Y-85878247D01*
X159027713Y-85878247D02*
X159027713Y-85735390D01*
X159027713Y-85735390D02*
X158980094Y-85544914D01*
X158980094Y-85544914D02*
X158932475Y-85449676D01*
X158932475Y-85449676D02*
X158837237Y-85354438D01*
X158837237Y-85354438D02*
X158694380Y-85306819D01*
X158694380Y-85306819D02*
X158599142Y-85306819D01*
X158599142Y-85306819D02*
X158456285Y-85354438D01*
X158456285Y-85354438D02*
X158408666Y-85402057D01*
X157503904Y-85306819D02*
X157980094Y-85306819D01*
X157980094Y-85306819D02*
X158027713Y-85783009D01*
X158027713Y-85783009D02*
X157980094Y-85735390D01*
X157980094Y-85735390D02*
X157884856Y-85687771D01*
X157884856Y-85687771D02*
X157646761Y-85687771D01*
X157646761Y-85687771D02*
X157551523Y-85735390D01*
X157551523Y-85735390D02*
X157503904Y-85783009D01*
X157503904Y-85783009D02*
X157456285Y-85878247D01*
X157456285Y-85878247D02*
X157456285Y-86116342D01*
X157456285Y-86116342D02*
X157503904Y-86211580D01*
X157503904Y-86211580D02*
X157551523Y-86259200D01*
X157551523Y-86259200D02*
X157646761Y-86306819D01*
X157646761Y-86306819D02*
X157884856Y-86306819D01*
X157884856Y-86306819D02*
X157980094Y-86259200D01*
X157980094Y-86259200D02*
X158027713Y-86211580D01*
X152475237Y-103416819D02*
X151903809Y-103416819D01*
X152189523Y-104416819D02*
X152189523Y-103416819D01*
X151570475Y-104416819D02*
X151570475Y-103416819D01*
X151570475Y-103416819D02*
X151189523Y-103416819D01*
X151189523Y-103416819D02*
X151094285Y-103464438D01*
X151094285Y-103464438D02*
X151046666Y-103512057D01*
X151046666Y-103512057D02*
X150999047Y-103607295D01*
X150999047Y-103607295D02*
X150999047Y-103750152D01*
X150999047Y-103750152D02*
X151046666Y-103845390D01*
X151046666Y-103845390D02*
X151094285Y-103893009D01*
X151094285Y-103893009D02*
X151189523Y-103940628D01*
X151189523Y-103940628D02*
X151570475Y-103940628D01*
X150665713Y-103416819D02*
X150046666Y-103416819D01*
X150046666Y-103416819D02*
X150379999Y-103797771D01*
X150379999Y-103797771D02*
X150237142Y-103797771D01*
X150237142Y-103797771D02*
X150141904Y-103845390D01*
X150141904Y-103845390D02*
X150094285Y-103893009D01*
X150094285Y-103893009D02*
X150046666Y-103988247D01*
X150046666Y-103988247D02*
X150046666Y-104226342D01*
X150046666Y-104226342D02*
X150094285Y-104321580D01*
X150094285Y-104321580D02*
X150141904Y-104369200D01*
X150141904Y-104369200D02*
X150237142Y-104416819D01*
X150237142Y-104416819D02*
X150522856Y-104416819D01*
X150522856Y-104416819D02*
X150618094Y-104369200D01*
X150618094Y-104369200D02*
X150665713Y-104321580D01*
D12*
X138635619Y-72964318D02*
X138635619Y-73992413D01*
X138635619Y-73992413D02*
X138575142Y-74113365D01*
X138575142Y-74113365D02*
X138514666Y-74173842D01*
X138514666Y-74173842D02*
X138393714Y-74234318D01*
X138393714Y-74234318D02*
X138151809Y-74234318D01*
X138151809Y-74234318D02*
X138030857Y-74173842D01*
X138030857Y-74173842D02*
X137970380Y-74113365D01*
X137970380Y-74113365D02*
X137909904Y-73992413D01*
X137909904Y-73992413D02*
X137909904Y-72964318D01*
X136639904Y-74234318D02*
X137365619Y-74234318D01*
X137002762Y-74234318D02*
X137002762Y-72964318D01*
X137002762Y-72964318D02*
X137123714Y-73145746D01*
X137123714Y-73145746D02*
X137244666Y-73266699D01*
X137244666Y-73266699D02*
X137365619Y-73327175D01*
D11*
X157614857Y-92053580D02*
X157662476Y-92101200D01*
X157662476Y-92101200D02*
X157805333Y-92148819D01*
X157805333Y-92148819D02*
X157900571Y-92148819D01*
X157900571Y-92148819D02*
X158043428Y-92101200D01*
X158043428Y-92101200D02*
X158138666Y-92005961D01*
X158138666Y-92005961D02*
X158186285Y-91910723D01*
X158186285Y-91910723D02*
X158233904Y-91720247D01*
X158233904Y-91720247D02*
X158233904Y-91577390D01*
X158233904Y-91577390D02*
X158186285Y-91386914D01*
X158186285Y-91386914D02*
X158138666Y-91291676D01*
X158138666Y-91291676D02*
X158043428Y-91196438D01*
X158043428Y-91196438D02*
X157900571Y-91148819D01*
X157900571Y-91148819D02*
X157805333Y-91148819D01*
X157805333Y-91148819D02*
X157662476Y-91196438D01*
X157662476Y-91196438D02*
X157614857Y-91244057D01*
X156662476Y-92148819D02*
X157233904Y-92148819D01*
X156948190Y-92148819D02*
X156948190Y-91148819D01*
X156948190Y-91148819D02*
X157043428Y-91291676D01*
X157043428Y-91291676D02*
X157138666Y-91386914D01*
X157138666Y-91386914D02*
X157233904Y-91434533D01*
X156281523Y-91244057D02*
X156233904Y-91196438D01*
X156233904Y-91196438D02*
X156138666Y-91148819D01*
X156138666Y-91148819D02*
X155900571Y-91148819D01*
X155900571Y-91148819D02*
X155805333Y-91196438D01*
X155805333Y-91196438D02*
X155757714Y-91244057D01*
X155757714Y-91244057D02*
X155710095Y-91339295D01*
X155710095Y-91339295D02*
X155710095Y-91434533D01*
X155710095Y-91434533D02*
X155757714Y-91577390D01*
X155757714Y-91577390D02*
X156329142Y-92148819D01*
X156329142Y-92148819D02*
X155710095Y-92148819D01*
D13*
%TO.C,C7*%
X162787000Y-87114748D02*
X162787000Y-87637252D01*
X161317000Y-87114748D02*
X161317000Y-87637252D01*
%TO.C,TP4*%
X145309333Y-105410000D02*
G75*
G03*
X145309333Y-105410000I-700000J0D01*
G01*
%TO.C,R10*%
X160003258Y-93740500D02*
X159528742Y-93740500D01*
X160003258Y-92695500D02*
X159528742Y-92695500D01*
%TO.C,R18*%
X160542500Y-87138742D02*
X160542500Y-87613258D01*
X159497500Y-87138742D02*
X159497500Y-87613258D01*
D14*
%TO.C,J3*%
X147993100Y-72250300D02*
X140881100Y-72250300D01*
X147993100Y-68592700D02*
X147993100Y-72250300D01*
X140881100Y-72250300D02*
X140881100Y-68592700D01*
X140881100Y-68592700D02*
X147993100Y-68592700D01*
D15*
X150152100Y-69786500D02*
G75*
G03*
X150152100Y-69786500I-381000J0D01*
G01*
D16*
%TO.C,U3*%
X155418000Y-102736500D02*
X155418000Y-102336500D01*
X158018000Y-102336500D02*
X158018000Y-102736500D01*
X155418000Y-99636500D02*
X155418000Y-100036500D01*
X158018000Y-99636500D02*
X158018000Y-100036500D01*
D10*
X157768000Y-103286500D02*
G75*
G03*
X157768000Y-103286500I-50000J0D01*
G01*
D13*
%TO.C,R19*%
X161304500Y-97298742D02*
X161304500Y-97773258D01*
X160259500Y-97298742D02*
X160259500Y-97773258D01*
%TO.C,TP5*%
X142007333Y-105410000D02*
G75*
G03*
X142007333Y-105410000I-700000J0D01*
G01*
%TO.C,TP1*%
X138705333Y-105410000D02*
G75*
G03*
X138705333Y-105410000I-700000J0D01*
G01*
%TO.C,U4*%
X160180000Y-83218000D02*
X160180000Y-83643000D01*
X160355000Y-83218000D02*
X160180000Y-83218000D01*
X160355000Y-85438000D02*
X160180000Y-85438000D01*
X162225000Y-83218000D02*
X162400000Y-83218000D01*
X162225000Y-85438000D02*
X162400000Y-85438000D01*
X162400000Y-83218000D02*
X162400000Y-83643000D01*
X162400000Y-85438000D02*
X162400000Y-85013000D01*
%TO.C,C9*%
X161805252Y-80237000D02*
X161282748Y-80237000D01*
X161805252Y-78767000D02*
X161282748Y-78767000D01*
%TO.C,TP2*%
X148611333Y-105410000D02*
G75*
G03*
X148611333Y-105410000I-700000J0D01*
G01*
%TO.C,C11*%
X161805252Y-82269000D02*
X161282748Y-82269000D01*
X161805252Y-80799000D02*
X161282748Y-80799000D01*
%TO.C,C8*%
X164819000Y-87434748D02*
X164819000Y-87957252D01*
X163349000Y-87434748D02*
X163349000Y-87957252D01*
%TO.C,R17*%
X157209258Y-75198500D02*
X156734742Y-75198500D01*
X157209258Y-74153500D02*
X156734742Y-74153500D01*
%TO.C,R11*%
X160003258Y-95264500D02*
X159528742Y-95264500D01*
X160003258Y-94219500D02*
X159528742Y-94219500D01*
%TO.C,C10*%
X153443000Y-103893252D02*
X153443000Y-103370748D01*
X154913000Y-103893252D02*
X154913000Y-103370748D01*
%TO.C,C6*%
X155475000Y-83573252D02*
X155475000Y-83050748D01*
X156945000Y-83573252D02*
X156945000Y-83050748D01*
%TO.C,C5*%
X157507000Y-83573252D02*
X157507000Y-83050748D01*
X158977000Y-83573252D02*
X158977000Y-83050748D01*
%TO.C,TP3*%
X151913333Y-105410000D02*
G75*
G03*
X151913333Y-105410000I-700000J0D01*
G01*
D10*
%TO.C,U1*%
X154626000Y-82374000D02*
X154626000Y-82374000D01*
X154526000Y-82374000D02*
X154526000Y-82374000D01*
D17*
X153526000Y-100384000D02*
X153526000Y-99634000D01*
X153526000Y-81634000D02*
X153526000Y-74884000D01*
X153526000Y-74884000D02*
X135526000Y-74884000D01*
X151026000Y-100384000D02*
X153526000Y-100384000D01*
X135526000Y-100384000D02*
X138026000Y-100384000D01*
X135526000Y-99634000D02*
X135526000Y-100384000D01*
X135526000Y-74884000D02*
X135526000Y-81634000D01*
D10*
X154526000Y-82374000D02*
G75*
G03*
X154626000Y-82374000I50000J0D01*
G01*
X154626000Y-82374000D02*
G75*
G03*
X154526000Y-82374000I-50000J0D01*
G01*
D13*
%TO.C,C12*%
X155983000Y-89669252D02*
X155983000Y-89146748D01*
X157453000Y-89669252D02*
X157453000Y-89146748D01*
%TD*%
M02*
