%TF.GenerationSoftware,KiCad,Pcbnew,7.0.9*%
%TF.CreationDate,2023-12-29T19:26:42-05:00*%
%TF.ProjectId,watch-0001,77617463-682d-4303-9030-312e6b696361,v.0.0.1*%
%TF.SameCoordinates,Original*%
%TF.FileFunction,Copper,L1,Top*%
%TF.FilePolarity,Positive*%
%FSLAX46Y46*%
G04 Gerber Fmt 4.6, Leading zero omitted, Abs format (unit mm)*
G04 Created by KiCad (PCBNEW 7.0.9) date 2023-12-29 19:26:42*
%MOMM*%
%LPD*%
G01*
G04 APERTURE LIST*
G04 Aperture macros list*
%AMRoundRect*
0 Rectangle with rounded corners*
0 $1 Rounding radius*
0 $2 $3 $4 $5 $6 $7 $8 $9 X,Y pos of 4 corners*
0 Add a 4 corners polygon primitive as box body*
4,1,4,$2,$3,$4,$5,$6,$7,$8,$9,$2,$3,0*
0 Add four circle primitives for the rounded corners*
1,1,$1+$1,$2,$3*
1,1,$1+$1,$4,$5*
1,1,$1+$1,$6,$7*
1,1,$1+$1,$8,$9*
0 Add four rect primitives between the rounded corners*
20,1,$1+$1,$2,$3,$4,$5,0*
20,1,$1+$1,$4,$5,$6,$7,0*
20,1,$1+$1,$6,$7,$8,$9,0*
20,1,$1+$1,$8,$9,$2,$3,0*%
G04 Aperture macros list end*
%TA.AperFunction,SMDPad,CuDef*%
%ADD10RoundRect,0.200000X-0.275000X0.200000X-0.275000X-0.200000X0.275000X-0.200000X0.275000X0.200000X0*%
%TD*%
%TA.AperFunction,SMDPad,CuDef*%
%ADD11RoundRect,0.250000X-0.250000X-0.475000X0.250000X-0.475000X0.250000X0.475000X-0.250000X0.475000X0*%
%TD*%
%TA.AperFunction,SMDPad,CuDef*%
%ADD12C,1.000000*%
%TD*%
%TA.AperFunction,ComponentPad*%
%ADD13C,3.800000*%
%TD*%
%TA.AperFunction,SMDPad,CuDef*%
%ADD14R,0.492000X0.300000*%
%TD*%
%TA.AperFunction,SMDPad,CuDef*%
%ADD15RoundRect,0.200000X0.200000X0.275000X-0.200000X0.275000X-0.200000X-0.275000X0.200000X-0.275000X0*%
%TD*%
%TA.AperFunction,SMDPad,CuDef*%
%ADD16RoundRect,0.200000X-0.200000X-0.275000X0.200000X-0.275000X0.200000X0.275000X-0.200000X0.275000X0*%
%TD*%
%TA.AperFunction,SMDPad,CuDef*%
%ADD17R,2.500000X1.200000*%
%TD*%
%TA.AperFunction,SMDPad,CuDef*%
%ADD18R,0.900000X0.300000*%
%TD*%
%TA.AperFunction,ComponentPad*%
%ADD19C,0.600000*%
%TD*%
%TA.AperFunction,ComponentPad*%
%ADD20C,1.815000*%
%TD*%
%TA.AperFunction,SMDPad,CuDef*%
%ADD21RoundRect,0.250000X0.475000X-0.250000X0.475000X0.250000X-0.475000X0.250000X-0.475000X-0.250000X0*%
%TD*%
%TA.AperFunction,SMDPad,CuDef*%
%ADD22RoundRect,0.200000X0.275000X-0.200000X0.275000X0.200000X-0.275000X0.200000X-0.275000X-0.200000X0*%
%TD*%
%TA.AperFunction,SMDPad,CuDef*%
%ADD23RoundRect,0.150000X-0.825000X-0.150000X0.825000X-0.150000X0.825000X0.150000X-0.825000X0.150000X0*%
%TD*%
%TA.AperFunction,SMDPad,CuDef*%
%ADD24R,1.200000X0.600000*%
%TD*%
%TA.AperFunction,SMDPad,CuDef*%
%ADD25RoundRect,0.250000X-0.475000X0.250000X-0.475000X-0.250000X0.475000X-0.250000X0.475000X0.250000X0*%
%TD*%
%TA.AperFunction,SMDPad,CuDef*%
%ADD26R,0.900000X0.600000*%
%TD*%
%TA.AperFunction,SMDPad,CuDef*%
%ADD27R,1.193800X3.708400*%
%TD*%
%TA.AperFunction,SMDPad,CuDef*%
%ADD28R,0.600000X1.700000*%
%TD*%
%TA.AperFunction,SMDPad,CuDef*%
%ADD29R,1.000000X2.700000*%
%TD*%
%TA.AperFunction,SMDPad,CuDef*%
%ADD30RoundRect,0.250000X0.250000X0.475000X-0.250000X0.475000X-0.250000X-0.475000X0.250000X-0.475000X0*%
%TD*%
%TA.AperFunction,ComponentPad*%
%ADD31C,1.168400*%
%TD*%
%TA.AperFunction,ViaPad*%
%ADD32C,0.600000*%
%TD*%
%TA.AperFunction,Conductor*%
%ADD33C,0.200000*%
%TD*%
G04 APERTURE END LIST*
D10*
%TO.P,R16,1*%
%TO.N,Net-(J1-Pad13)*%
X136906000Y-104585000D03*
%TO.P,R16,2*%
%TO.N,/TP_RST*%
X136906000Y-106235000D03*
%TD*%
D11*
%TO.P,C2,1*%
%TO.N,+BATT*%
X146878000Y-75184000D03*
%TO.P,C2,2*%
%TO.N,GND*%
X148778000Y-75184000D03*
%TD*%
D12*
%TO.P,BT1,1,+*%
%TO.N,+BATT*%
X143764000Y-75184000D03*
%TO.P,BT1,2,-*%
%TO.N,GND*%
X151384000Y-75184000D03*
%TD*%
D13*
%TO.P,H1,1*%
%TO.N,N/C*%
X131234000Y-78559000D03*
%TD*%
D10*
%TO.P,R2,1*%
%TO.N,Net-(J2-CC2)*%
X128270000Y-94933000D03*
%TO.P,R2,2*%
%TO.N,GND*%
X128270000Y-96583000D03*
%TD*%
D14*
%TO.P,Q1,1,S1*%
%TO.N,GND*%
X153344000Y-75446000D03*
%TO.P,Q1,2,G1*%
%TO.N,BAT_MON_EN*%
X153344000Y-75946000D03*
%TO.P,Q1,3,D2*%
%TO.N,Net-(Q1-D2)*%
X153344000Y-76446000D03*
%TO.P,Q1,4,S2*%
%TO.N,+BATT*%
X155012000Y-76446000D03*
%TO.P,Q1,5,G2*%
%TO.N,Net-(Q1-D1)*%
X155012000Y-75946000D03*
%TO.P,Q1,6,D1*%
X155012000Y-75446000D03*
%TD*%
D10*
%TO.P,R14,1*%
%TO.N,Net-(J1-Pad9)*%
X141732000Y-104585000D03*
%TO.P,R14,2*%
%TO.N,/DISP_BL*%
X141732000Y-106235000D03*
%TD*%
D15*
%TO.P,R8,1*%
%TO.N,BAT_MON*%
X155003000Y-73406000D03*
%TO.P,R8,2*%
%TO.N,GND*%
X153353000Y-73406000D03*
%TD*%
D16*
%TO.P,R7,1*%
%TO.N,Net-(Q1-D2)*%
X153353000Y-71882000D03*
%TO.P,R7,2*%
%TO.N,BAT_MON*%
X155003000Y-71882000D03*
%TD*%
D17*
%TO.P,S1,1*%
%TO.N,Net-(IC2-~{RESET})*%
X161588000Y-90384000D03*
%TO.P,S1,2*%
%TO.N,Net-(IC3-CE{slash}MODE)*%
X161588000Y-87884000D03*
%TO.P,S1,3*%
%TO.N,unconnected-(S1-Pad3)*%
X161588000Y-85384000D03*
%TD*%
D18*
%TO.P,J2,A1,GND_1*%
%TO.N,GND*%
X132573000Y-85134000D03*
%TO.P,J2,A2,SSTXP1*%
%TO.N,unconnected-(J2-SSTXP1-PadA2)*%
X132573000Y-85634000D03*
%TO.P,J2,A3,SSTXN1*%
%TO.N,unconnected-(J2-SSTXN1-PadA3)*%
X132573000Y-86134000D03*
%TO.P,J2,A4,VBUS_1*%
%TO.N,VBUS*%
X132573000Y-86634000D03*
%TO.P,J2,A5,CC1*%
%TO.N,Net-(J2-CC1)*%
X132573000Y-87134000D03*
%TO.P,J2,A6,DP1*%
%TO.N,unconnected-(J2-DP1-PadA6)*%
X132573000Y-87634000D03*
%TO.P,J2,A7,DN1*%
%TO.N,unconnected-(J2-DN1-PadA7)*%
X132573000Y-88134000D03*
%TO.P,J2,A8,SBU1*%
%TO.N,unconnected-(J2-SBU1-PadA8)*%
X132573000Y-88634000D03*
%TO.P,J2,A9,VBUS_2*%
%TO.N,VBUS*%
X132573000Y-89134000D03*
%TO.P,J2,A10,SSRXN2*%
%TO.N,unconnected-(J2-SSRXN2-PadA10)*%
X132573000Y-89634000D03*
%TO.P,J2,A11,SSRXP2*%
%TO.N,unconnected-(J2-SSRXP2-PadA11)*%
X132573000Y-90134000D03*
%TO.P,J2,A12,GND_2*%
%TO.N,GND*%
X132573000Y-90634000D03*
D19*
%TO.P,J2,B1,GND_3*%
X131363000Y-90684000D03*
%TO.P,J2,B2,SSTXP2*%
%TO.N,unconnected-(J2-SSTXP2-PadB2)*%
X130663000Y-90284000D03*
%TO.P,J2,B3,SSTXN2*%
%TO.N,unconnected-(J2-SSTXN2-PadB3)*%
X130663000Y-89484000D03*
%TO.P,J2,B4,VBUS_3*%
%TO.N,VBUS*%
X131363000Y-89084000D03*
%TO.P,J2,B5,CC2*%
%TO.N,Net-(J2-CC2)*%
X130663000Y-88684000D03*
%TO.P,J2,B6,DP2*%
%TO.N,unconnected-(J2-DP2-PadB6)*%
X131363000Y-88284000D03*
%TO.P,J2,B7,DN2*%
%TO.N,unconnected-(J2-DN2-PadB7)*%
X131363000Y-87484000D03*
%TO.P,J2,B8,SBU2*%
%TO.N,unconnected-(J2-SBU2-PadB8)*%
X130663000Y-87084000D03*
%TO.P,J2,B9,VBUS_4*%
%TO.N,VBUS*%
X131363000Y-86684000D03*
%TO.P,J2,B10,SSRXN1*%
%TO.N,unconnected-(J2-SSRXN1-PadB10)*%
X130663000Y-86284000D03*
%TO.P,J2,B11,SSRXP1*%
%TO.N,unconnected-(J2-SSRXP1-PadB11)*%
X130663000Y-85484000D03*
%TO.P,J2,B12,GND_4*%
%TO.N,GND*%
X131363000Y-85084000D03*
D20*
%TO.P,J2,MH1,MH1*%
%TO.N,unconnected-(J2-PadMH1)*%
X130773000Y-83754000D03*
%TO.P,J2,MH2,MH2*%
%TO.N,unconnected-(J2-PadMH2)*%
X130773000Y-92014000D03*
%TO.P,J2,MH3,MH3*%
%TO.N,unconnected-(J2-PadMH3)*%
X126373000Y-92374000D03*
%TO.P,J2,MH4,MH4*%
%TO.N,unconnected-(J2-PadMH4)*%
X126373000Y-83394000D03*
%TD*%
D15*
%TO.P,R3,1*%
%TO.N,Net-(U2-SELI)*%
X136715000Y-74168000D03*
%TO.P,R3,2*%
%TO.N,GND*%
X135065000Y-74168000D03*
%TD*%
D13*
%TO.P,H4,1*%
%TO.N,N/C*%
X157734000Y-97209000D03*
%TD*%
D15*
%TO.P,R4,1*%
%TO.N,VBUS*%
X140271000Y-72898000D03*
%TO.P,R4,2*%
%TO.N,GND*%
X138621000Y-72898000D03*
%TD*%
D21*
%TO.P,C1,1*%
%TO.N,VBUS*%
X132842000Y-75626000D03*
%TO.P,C1,2*%
%TO.N,GND*%
X132842000Y-73726000D03*
%TD*%
D22*
%TO.P,R15,1*%
%TO.N,Net-(J1-Pad12)*%
X138430000Y-106235000D03*
%TO.P,R15,2*%
%TO.N,/TP_INT*%
X138430000Y-104585000D03*
%TD*%
D13*
%TO.P,H3,1*%
%TO.N,N/C*%
X157734000Y-78559000D03*
%TD*%
D10*
%TO.P,R13,1*%
%TO.N,Net-(J1-Pad8)*%
X143256000Y-104585000D03*
%TO.P,R13,2*%
%TO.N,DISP_RST*%
X143256000Y-106235000D03*
%TD*%
D23*
%TO.P,U2,1,SELV*%
%TO.N,VBUS*%
X136209000Y-76327000D03*
%TO.P,U2,2,SELI*%
%TO.N,Net-(U2-SELI)*%
X136209000Y-77597000D03*
%TO.P,U2,3,GND*%
%TO.N,GND*%
X136209000Y-78867000D03*
%TO.P,U2,4,IN*%
%TO.N,VBUS*%
X136209000Y-80137000D03*
%TO.P,U2,5,BATT*%
%TO.N,+BATT*%
X141159000Y-80137000D03*
%TO.P,U2,6,GND*%
%TO.N,GND*%
X141159000Y-78867000D03*
%TO.P,U2,7,EN*%
%TO.N,VBUS*%
X141159000Y-77597000D03*
%TO.P,U2,8,~{CHG}*%
%TO.N,CHG*%
X141159000Y-76327000D03*
%TD*%
D13*
%TO.P,H2,1*%
%TO.N,N/C*%
X131234000Y-97209000D03*
%TD*%
D24*
%TO.P,IC2,1,~{RESET}*%
%TO.N,Net-(IC2-~{RESET})*%
X151404000Y-78806000D03*
%TO.P,IC2,2,VDD*%
%TO.N,+BATT*%
X151404000Y-79756000D03*
%TO.P,IC2,3,GND*%
%TO.N,GND*%
X151404000Y-80706000D03*
%TO.P,IC2,4,~{MR}*%
%TO.N,Net-(IC2-~{MR})*%
X153904000Y-80706000D03*
%TO.P,IC2,5,CT*%
%TO.N,unconnected-(IC2-CT-Pad5)*%
X153904000Y-78806000D03*
%TD*%
D25*
%TO.P,C3,1*%
%TO.N,+BATT*%
X149352000Y-83378000D03*
%TO.P,C3,2*%
%TO.N,GND*%
X149352000Y-85278000D03*
%TD*%
D16*
%TO.P,R9,1*%
%TO.N,GND*%
X150305000Y-72898000D03*
%TO.P,R9,2*%
%TO.N,BAT_MON_EN*%
X151955000Y-72898000D03*
%TD*%
D26*
%TO.P,IC3,1,VIN*%
%TO.N,+BATT*%
X151254000Y-84140000D03*
%TO.P,IC3,2,VSS*%
%TO.N,GND*%
X151254000Y-85090000D03*
%TO.P,IC3,3,CE/MODE*%
%TO.N,Net-(IC3-CE{slash}MODE)*%
X151254000Y-86040000D03*
%TO.P,IC3,4,VOUT*%
%TO.N,+3V3*%
X154054000Y-86040000D03*
%TO.P,IC3,5,LX*%
%TO.N,Net-(IC3-LX)*%
X154054000Y-84140000D03*
%TD*%
D10*
%TO.P,R1,1*%
%TO.N,Net-(J2-CC1)*%
X126746000Y-94933000D03*
%TO.P,R1,2*%
%TO.N,GND*%
X126746000Y-96583000D03*
%TD*%
D16*
%TO.P,R5,1*%
%TO.N,CHG*%
X141669000Y-72898000D03*
%TO.P,R5,2*%
%TO.N,+3V3*%
X143319000Y-72898000D03*
%TD*%
D22*
%TO.P,R20,1*%
%TO.N,Net-(IC3-CE{slash}MODE)*%
X146812000Y-81089000D03*
%TO.P,R20,2*%
%TO.N,GND*%
X146812000Y-79439000D03*
%TD*%
D16*
%TO.P,R6,1*%
%TO.N,+BATT*%
X150305000Y-76962000D03*
%TO.P,R6,2*%
%TO.N,Net-(Q1-D1)*%
X151955000Y-76962000D03*
%TD*%
D27*
%TO.P,L1,1,1*%
%TO.N,Net-(IC3-LX)*%
X155829000Y-85090000D03*
%TO.P,L1,2,2*%
%TO.N,+3V3*%
X158623000Y-85090000D03*
%TD*%
D28*
%TO.P,J1,1,1*%
%TO.N,+3V3*%
X152026000Y-101854000D03*
%TO.P,J1,2,2*%
%TO.N,GND*%
X150776000Y-101854000D03*
%TO.P,J1,3,3*%
%TO.N,DISP_SPI_MISO*%
X149526000Y-101854000D03*
%TO.P,J1,4,4*%
%TO.N,DISP_SPI_MOSI*%
X148276000Y-101854000D03*
%TO.P,J1,5,5*%
%TO.N,DISP_SPI_SCLK*%
X147026000Y-101854000D03*
%TO.P,J1,6,6*%
%TO.N,DISP_CS*%
X145776000Y-101854000D03*
%TO.P,J1,7,7*%
%TO.N,Net-(J1-Pad7)*%
X144526000Y-101854000D03*
%TO.P,J1,8,8*%
%TO.N,Net-(J1-Pad8)*%
X143276000Y-101854000D03*
%TO.P,J1,9,9*%
%TO.N,Net-(J1-Pad9)*%
X142026000Y-101854000D03*
%TO.P,J1,10,10*%
%TO.N,I2C_SDA*%
X140776000Y-101854000D03*
%TO.P,J1,11,11*%
%TO.N,I2C_SCL*%
X139526000Y-101854000D03*
%TO.P,J1,12,12*%
%TO.N,Net-(J1-Pad12)*%
X138276000Y-101854000D03*
%TO.P,J1,13,13*%
%TO.N,Net-(J1-Pad13)*%
X137026000Y-101854000D03*
D29*
%TO.P,J1,MP1,MP1*%
%TO.N,unconnected-(J1-PadMP1)*%
X153876000Y-98654000D03*
%TO.P,J1,MP2,MP2*%
%TO.N,unconnected-(J1-PadMP2)*%
X135176000Y-98654000D03*
%TD*%
D30*
%TO.P,C4,1*%
%TO.N,+3V3*%
X153604000Y-87884000D03*
%TO.P,C4,2*%
%TO.N,GND*%
X151704000Y-87884000D03*
%TD*%
D10*
%TO.P,R12,1*%
%TO.N,Net-(J1-Pad7)*%
X144780000Y-104585000D03*
%TO.P,R12,2*%
%TO.N,DISP_DC*%
X144780000Y-106235000D03*
%TD*%
D31*
%TO.P,J3,1,1*%
%TO.N,+3V3*%
X146977100Y-69786500D03*
%TO.P,J3,2,2*%
%TO.N,/JTAG_TMS*%
X145707100Y-69786500D03*
%TO.P,J3,3,3*%
%TO.N,GND*%
X144437100Y-69786500D03*
%TO.P,J3,4,4*%
%TO.N,/JTAG_TCK*%
X143167100Y-69786500D03*
%TO.P,J3,5,5*%
%TO.N,GND*%
X141897100Y-69786500D03*
%TO.P,J3,6,6*%
%TO.N,/JTAG_TDO*%
X146977100Y-71056500D03*
%TO.P,J3,7,7*%
%TO.N,GND*%
X145707100Y-71056500D03*
%TO.P,J3,8,8*%
%TO.N,/JTAG_TDI*%
X144437100Y-71056500D03*
%TO.P,J3,9,9*%
%TO.N,GND*%
X143167100Y-71056500D03*
%TO.P,J3,10,10*%
%TO.N,unconnected-(J3-Pad10)*%
X141897100Y-71056500D03*
%TD*%
D32*
%TO.N,I2C_SDA*%
X161290000Y-82870137D03*
X158750000Y-101600000D03*
X148336000Y-93726000D03*
X158750000Y-92202000D03*
%TO.N,I2C_SCL*%
X146050000Y-93980000D03*
X156718000Y-100932500D03*
X160020000Y-83474500D03*
X161290000Y-91948000D03*
%TO.N,DISP_SPI_MISO*%
X149352000Y-98806000D03*
%TO.N,DISP_SPI_MOSI*%
X148336000Y-98044000D03*
%TO.N,+BATT*%
X143764000Y-76454000D03*
X145288000Y-75184000D03*
X144272000Y-81280000D03*
%TO.N,DISP_SPI_SCLK*%
X147066000Y-98806000D03*
%TO.N,CHG*%
X137160000Y-84836000D03*
%TO.N,+3V3*%
X144526000Y-84582000D03*
X162494000Y-83636500D03*
X152908000Y-103632000D03*
X157988000Y-88138000D03*
X154940000Y-89916000D03*
%TO.N,Net-(IC2-~{MR})*%
X155194000Y-80772000D03*
X152771676Y-100778445D03*
%TO.N,BAT_MON_EN*%
X151892000Y-71628000D03*
X137160000Y-98552000D03*
%TO.N,Net-(IC2-~{RESET})*%
X152654000Y-78232000D03*
X160274000Y-91694000D03*
%TO.N,/JTAG_TMS*%
X149098000Y-70612000D03*
X151892000Y-97028000D03*
%TO.N,/JTAG_TDO*%
X139954000Y-98552000D03*
%TO.N,DISP_CS*%
X145542000Y-98806000D03*
%TO.N,GND*%
X162560000Y-93218000D03*
X164338000Y-85598000D03*
X164592000Y-89916000D03*
X143310000Y-91494000D03*
X152654000Y-70358000D03*
X159512000Y-82296000D03*
X151130000Y-100584000D03*
X154686000Y-82296000D03*
X160782000Y-77724000D03*
X149860000Y-86614000D03*
X133096000Y-91694000D03*
X134620000Y-78994000D03*
X150368000Y-74422000D03*
X153924000Y-101346000D03*
%TO.N,VBUS*%
X139446000Y-76962000D03*
X134620000Y-76962000D03*
%TO.N,/DISP_BL*%
X151059225Y-89486747D03*
%TO.N,/TP_INT*%
X151059085Y-90334429D03*
%TO.N,/TP_RST*%
X152188911Y-91482911D03*
%TO.N,DISP_RST*%
X143764000Y-107188000D03*
%TO.N,DISP_DC*%
X147320000Y-97028000D03*
%TO.N,IMU_INT*%
X154686000Y-96520000D03*
X156054470Y-103409248D03*
%TO.N,PR_INT_DRDY*%
X163830000Y-83058000D03*
X137160000Y-93980000D03*
%TO.N,BAT_MON*%
X151638000Y-92964000D03*
X151384000Y-99568000D03*
X154940000Y-74422000D03*
%TO.N,Net-(U1-RXD0)*%
X140970000Y-103632000D03*
X135890000Y-87630000D03*
%TO.N,Net-(U1-TXD0)*%
X138176000Y-94742000D03*
X135890000Y-86360000D03*
%TO.N,Net-(U4-VDD)*%
X159004000Y-88138000D03*
X162052000Y-86483502D03*
%TD*%
D33*
%TO.N,I2C_SDA*%
X140776000Y-101286000D02*
X148336000Y-93726000D01*
X140776000Y-101854000D02*
X140776000Y-101286000D01*
%TO.N,I2C_SCL*%
X139526000Y-100504000D02*
X139526000Y-101854000D01*
X146050000Y-93980000D02*
X139526000Y-100504000D01*
%TO.N,DISP_SPI_MISO*%
X149352000Y-98806000D02*
X149526000Y-98980000D01*
X149526000Y-98980000D02*
X149526000Y-101854000D01*
%TO.N,DISP_SPI_MOSI*%
X148276000Y-98104000D02*
X148276000Y-98358000D01*
X148276000Y-98358000D02*
X148336000Y-98044000D01*
X148336000Y-98044000D02*
X148276000Y-98104000D01*
X148276000Y-101854000D02*
X148276000Y-98358000D01*
%TO.N,+BATT*%
X144272000Y-81280000D02*
X146370000Y-83378000D01*
X152367648Y-76187000D02*
X151080000Y-76187000D01*
X152843000Y-76896000D02*
X152655000Y-76708000D01*
X152655000Y-76474352D02*
X152367648Y-76187000D01*
X144400000Y-83378000D02*
X149352000Y-83378000D01*
X146370000Y-83378000D02*
X149352000Y-83378000D01*
X145288000Y-75184000D02*
X143764000Y-75184000D01*
X155012000Y-76446000D02*
X154562000Y-76896000D01*
X154562000Y-76896000D02*
X152843000Y-76896000D01*
X152655000Y-76708000D02*
X152655000Y-76474352D01*
X151080000Y-76187000D02*
X150305000Y-76962000D01*
X149352000Y-83378000D02*
X150492000Y-83378000D01*
X145288000Y-75184000D02*
X146878000Y-75184000D01*
X142133999Y-80137000D02*
X143764000Y-78506999D01*
X150492000Y-83378000D02*
X151254000Y-84140000D01*
X150305000Y-76962000D02*
X148656000Y-76962000D01*
X150604000Y-79756000D02*
X150305000Y-79457000D01*
X143764000Y-78506999D02*
X143764000Y-76454000D01*
X141159000Y-80137000D02*
X142133999Y-80137000D01*
X141159000Y-80137000D02*
X144400000Y-83378000D01*
X148656000Y-76962000D02*
X146878000Y-75184000D01*
X150305000Y-79457000D02*
X150305000Y-76962000D01*
X143764000Y-76454000D02*
X143764000Y-75184000D01*
X151404000Y-79756000D02*
X150604000Y-79756000D01*
%TO.N,DISP_SPI_SCLK*%
X147026000Y-98846000D02*
X147026000Y-101854000D01*
X147066000Y-98806000D02*
X147026000Y-98846000D01*
%TO.N,CHG*%
X139919000Y-79537000D02*
X137160000Y-82296000D01*
X142133999Y-76327000D02*
X142748000Y-76941001D01*
X141159000Y-76327000D02*
X141669000Y-75817000D01*
X137160000Y-82296000D02*
X137160000Y-84836000D01*
X142748000Y-76941001D02*
X142748000Y-78957313D01*
X141159000Y-76327000D02*
X142133999Y-76327000D01*
X142168313Y-79537000D02*
X139919000Y-79537000D01*
X142748000Y-78957313D02*
X142168313Y-79537000D01*
X141669000Y-75817000D02*
X141669000Y-72898000D01*
%TO.N,+3V3*%
X152908000Y-102736000D02*
X152908000Y-103632000D01*
X143319000Y-72898000D02*
X146386048Y-72898000D01*
X158007222Y-87244200D02*
X154808200Y-87244200D01*
X162494000Y-83636500D02*
X162056500Y-84074000D01*
X158623000Y-86628422D02*
X158007222Y-87244200D01*
X152026000Y-101854000D02*
X152908000Y-102736000D01*
X162056500Y-84074000D02*
X159639000Y-84074000D01*
X154808200Y-87244200D02*
X154432000Y-86868000D01*
X154054000Y-86040000D02*
X153604000Y-86490000D01*
X154054000Y-86040000D02*
X154054000Y-86230000D01*
X158623000Y-85090000D02*
X158623000Y-86628422D01*
X147861300Y-70670700D02*
X146977100Y-69786500D01*
X153604000Y-86490000D02*
X153604000Y-87884000D01*
X154432000Y-86418000D02*
X154054000Y-86040000D01*
X154940000Y-89916000D02*
X154940000Y-89220000D01*
X154940000Y-89220000D02*
X153604000Y-87884000D01*
X154432000Y-86868000D02*
X154432000Y-86418000D01*
X159639000Y-84074000D02*
X158623000Y-85090000D01*
X146386048Y-72898000D02*
X147861300Y-71422748D01*
X147861300Y-71422748D02*
X147861300Y-70670700D01*
%TO.N,Net-(IC2-~{MR})*%
X155128000Y-80706000D02*
X155194000Y-80772000D01*
X153904000Y-80706000D02*
X155128000Y-80706000D01*
%TO.N,BAT_MON_EN*%
X153344000Y-75946000D02*
X152848000Y-75946000D01*
X152848000Y-75946000D02*
X152184000Y-75282000D01*
X152184000Y-73127000D02*
X151955000Y-72898000D01*
X151892000Y-71628000D02*
X151955000Y-71691000D01*
X151955000Y-71691000D02*
X151955000Y-72898000D01*
X152184000Y-75282000D02*
X152184000Y-73127000D01*
%TO.N,Net-(Q1-D2)*%
X154178000Y-72707000D02*
X153353000Y-71882000D01*
X153344000Y-76446000D02*
X153932000Y-76446000D01*
X154178000Y-76200000D02*
X154178000Y-72707000D01*
X153932000Y-76446000D02*
X154178000Y-76200000D01*
%TO.N,Net-(Q1-D1)*%
X152463000Y-77470000D02*
X151955000Y-76962000D01*
X155703000Y-76961000D02*
X155703000Y-76137000D01*
X155194000Y-77470000D02*
X155703000Y-76961000D01*
X155194000Y-77470000D02*
X152463000Y-77470000D01*
X155703000Y-76137000D02*
X155012000Y-75446000D01*
X155012000Y-75446000D02*
X155012000Y-75946000D01*
%TO.N,Net-(IC2-~{RESET})*%
X151978000Y-78232000D02*
X151404000Y-78806000D01*
X161056000Y-90916000D02*
X161052000Y-90916000D01*
X152654000Y-78232000D02*
X151978000Y-78232000D01*
X161588000Y-90384000D02*
X161056000Y-90916000D01*
X161052000Y-90916000D02*
X160274000Y-91694000D01*
%TO.N,/JTAG_TMS*%
X159934000Y-79470270D02*
X163138000Y-82674270D01*
X154003730Y-94916270D02*
X151892000Y-97028000D01*
X155415648Y-71107000D02*
X159934000Y-75625352D01*
X159934000Y-75625352D02*
X159934000Y-79470270D01*
X163138000Y-82674270D02*
X163138000Y-91284000D01*
X152257352Y-69758000D02*
X153241352Y-69758000D01*
X149098000Y-70612000D02*
X149098000Y-72917352D01*
X163138000Y-91284000D02*
X159505730Y-94916270D01*
X149098000Y-72917352D02*
X152257352Y-69758000D01*
X154590352Y-71107000D02*
X155415648Y-71107000D01*
X153241352Y-69758000D02*
X154590352Y-71107000D01*
X159505730Y-94916270D02*
X154003730Y-94916270D01*
%TO.N,DISP_CS*%
X145776000Y-99040000D02*
X145776000Y-101854000D01*
X145542000Y-98806000D02*
X145776000Y-99040000D01*
%TO.N,Net-(J1-Pad7)*%
X144780000Y-102108000D02*
X144526000Y-101854000D01*
X144780000Y-104585000D02*
X144780000Y-102108000D01*
%TO.N,Net-(J1-Pad8)*%
X143256000Y-101874000D02*
X143276000Y-101854000D01*
X143256000Y-104585000D02*
X143256000Y-101874000D01*
%TO.N,Net-(J1-Pad9)*%
X141732000Y-102148000D02*
X142026000Y-101854000D01*
X141732000Y-104585000D02*
X141732000Y-102148000D01*
%TO.N,Net-(J1-Pad12)*%
X136131000Y-100999000D02*
X136426000Y-100704000D01*
X136426000Y-100704000D02*
X137676000Y-100704000D01*
X137676000Y-100704000D02*
X138276000Y-101304000D01*
X138430000Y-106235000D02*
X137480000Y-105285000D01*
X137480000Y-105285000D02*
X136418352Y-105285000D01*
X136418352Y-105285000D02*
X136131000Y-104997648D01*
X138276000Y-101304000D02*
X138276000Y-101854000D01*
X136131000Y-104997648D02*
X136131000Y-100999000D01*
%TO.N,Net-(J1-Pad13)*%
X136906000Y-104585000D02*
X136906000Y-101974000D01*
X136906000Y-101974000D02*
X137026000Y-101854000D01*
%TO.N,GND*%
X128270000Y-96583000D02*
X133096000Y-91757000D01*
X164338000Y-89408000D02*
X164592000Y-89662000D01*
X132573000Y-90634000D02*
X133096000Y-91157000D01*
X152203938Y-87384062D02*
X152203938Y-85639938D01*
X151654000Y-85090000D02*
X151254000Y-85090000D01*
X136209000Y-78867000D02*
X134747000Y-78867000D01*
X134747000Y-78867000D02*
X134620000Y-78994000D01*
X152653000Y-72369648D02*
X153353000Y-73069648D01*
X151704000Y-87884000D02*
X152203938Y-87384062D01*
X151384000Y-75184000D02*
X148778000Y-75184000D01*
X152203938Y-85639938D02*
X151654000Y-85090000D01*
X149352000Y-85278000D02*
X149352000Y-86106000D01*
X151384000Y-73977000D02*
X150305000Y-72898000D01*
X132573000Y-85134000D02*
X131413000Y-85134000D01*
X150622000Y-74422000D02*
X151384000Y-75184000D01*
X164592000Y-89662000D02*
X164592000Y-89916000D01*
X136335000Y-72898000D02*
X135065000Y-74168000D01*
X137183999Y-78867000D02*
X136209000Y-78867000D01*
X131413000Y-85134000D02*
X131363000Y-85084000D01*
X144437100Y-69786500D02*
X143167100Y-71056500D01*
X132842000Y-73726000D02*
X134623000Y-73726000D01*
X164338000Y-85598000D02*
X164338000Y-89408000D01*
X134623000Y-73726000D02*
X135065000Y-74168000D01*
X154686000Y-82296000D02*
X152994000Y-82296000D01*
X145707100Y-71056500D02*
X144437100Y-69786500D01*
X128270000Y-96583000D02*
X126746000Y-96583000D01*
X149352000Y-86106000D02*
X149860000Y-86614000D01*
X133096000Y-91757000D02*
X133096000Y-91694000D01*
X151384000Y-75184000D02*
X151384000Y-73977000D01*
X152654000Y-70358000D02*
X152653000Y-70359000D01*
X153344000Y-73415000D02*
X153353000Y-73406000D01*
X151130000Y-101500000D02*
X150776000Y-101854000D01*
X138621000Y-72898000D02*
X136335000Y-72898000D01*
X149540000Y-85090000D02*
X149352000Y-85278000D01*
X153344000Y-75446000D02*
X153344000Y-73415000D01*
X150368000Y-74422000D02*
X150622000Y-74422000D01*
X141897100Y-69786500D02*
X143167100Y-71056500D01*
X148079000Y-80706000D02*
X146812000Y-79439000D01*
X153353000Y-73069648D02*
X153353000Y-73406000D01*
X151130000Y-100584000D02*
X151130000Y-101500000D01*
X151404000Y-80706000D02*
X148079000Y-80706000D01*
X133096000Y-91157000D02*
X133096000Y-91694000D01*
X138621000Y-77429999D02*
X137183999Y-78867000D01*
X138621000Y-72898000D02*
X138621000Y-77429999D01*
X151254000Y-85090000D02*
X149540000Y-85090000D01*
X152653000Y-70359000D02*
X152653000Y-72369648D01*
X152994000Y-82296000D02*
X151404000Y-80706000D01*
X141159000Y-78867000D02*
X136209000Y-78867000D01*
%TO.N,VBUS*%
X133604000Y-76388000D02*
X132842000Y-75626000D01*
X135255000Y-76327000D02*
X134620000Y-76962000D01*
X141159000Y-77597000D02*
X140184001Y-77597000D01*
X131363000Y-89084000D02*
X132523000Y-89084000D01*
X140184001Y-77597000D02*
X139549001Y-76962000D01*
X132573000Y-86634000D02*
X131413000Y-86634000D01*
X139446000Y-76858999D02*
X139446000Y-76858999D01*
X139446000Y-73723000D02*
X140271000Y-72898000D01*
X139549001Y-76962000D02*
X139446000Y-76962000D01*
X139446000Y-76858999D02*
X139446000Y-73723000D01*
X132523000Y-89084000D02*
X132573000Y-89134000D01*
X136209000Y-80137000D02*
X134914471Y-80137000D01*
X133543000Y-76327000D02*
X132842000Y-75626000D01*
X131413000Y-86634000D02*
X131363000Y-86684000D01*
X134914471Y-80137000D02*
X133604000Y-78826529D01*
X136209000Y-76327000D02*
X133543000Y-76327000D01*
X136209000Y-76327000D02*
X135255000Y-76327000D01*
X133604000Y-78826529D02*
X133604000Y-76388000D01*
X139446000Y-76962000D02*
X139446000Y-76858999D01*
%TO.N,Net-(J2-CC1)*%
X133273000Y-87134000D02*
X132573000Y-87134000D01*
X126746000Y-94933000D02*
X127870000Y-93809000D01*
X130272837Y-82546500D02*
X131273163Y-82546500D01*
X127870000Y-84949337D02*
X130272837Y-82546500D01*
X131273163Y-82546500D02*
X133323000Y-84596337D01*
X127870000Y-93809000D02*
X127870000Y-84949337D01*
X133323000Y-87084000D02*
X133273000Y-87134000D01*
X133323000Y-84596337D02*
X133323000Y-87084000D01*
%TO.N,Net-(J2-CC2)*%
X128270000Y-94933000D02*
X128270000Y-90652736D01*
X128270000Y-90652736D02*
X130238736Y-88684000D01*
X130238736Y-88684000D02*
X130663000Y-88684000D01*
%TO.N,Net-(U2-SELI)*%
X137668000Y-75121000D02*
X136715000Y-74168000D01*
X137668000Y-77112999D02*
X137668000Y-75121000D01*
X136209000Y-77597000D02*
X137183999Y-77597000D01*
X137183999Y-77597000D02*
X137668000Y-77112999D01*
%TO.N,/DISP_BL*%
X151588911Y-91489089D02*
X146376000Y-96702000D01*
X151659007Y-90086529D02*
X151659007Y-91164286D01*
X146376000Y-104176648D02*
X145267648Y-105285000D01*
X151059225Y-89486747D02*
X151659007Y-90086529D01*
X151659007Y-91164286D02*
X151588911Y-91234382D01*
X151588911Y-91234382D02*
X151588911Y-91489089D01*
X142682000Y-105285000D02*
X141732000Y-106235000D01*
X145267648Y-105285000D02*
X142682000Y-105285000D01*
X146376000Y-96702000D02*
X146376000Y-104176648D01*
%TO.N,/TP_INT*%
X140342000Y-100704000D02*
X140176000Y-100704000D01*
X150711571Y-90334429D02*
X140342000Y-100704000D01*
X140176000Y-102839000D02*
X138430000Y-104585000D01*
X140176000Y-100704000D02*
X140176000Y-102839000D01*
X151059085Y-90334429D02*
X150711571Y-90334429D01*
%TO.N,/TP_RST*%
X140890209Y-107950000D02*
X140082075Y-107141866D01*
X147574000Y-107950000D02*
X140890209Y-107950000D01*
X140082075Y-107141866D02*
X137812866Y-107141866D01*
X137812866Y-107141866D02*
X136906000Y-106235000D01*
X150176000Y-93495822D02*
X150176000Y-105348000D01*
X152188911Y-91482911D02*
X150176000Y-93495822D01*
X150176000Y-105348000D02*
X147574000Y-107950000D01*
%TO.N,DISP_RST*%
X143256000Y-106235000D02*
X143256000Y-106680000D01*
X143256000Y-106680000D02*
X143764000Y-107188000D01*
%TO.N,DISP_DC*%
X147666000Y-97882000D02*
X147320000Y-97028000D01*
X145255000Y-106235000D02*
X147666000Y-103824000D01*
X147666000Y-103824000D02*
X147666000Y-97882000D01*
X144780000Y-106235000D02*
X145255000Y-106235000D01*
%TO.N,IMU_INT*%
X156054470Y-103409248D02*
X154686000Y-102040778D01*
X154686000Y-102040778D02*
X154686000Y-96520000D01*
%TO.N,Net-(IC3-CE{slash}MODE)*%
X149570000Y-81106000D02*
X146829000Y-81106000D01*
X152603938Y-88493806D02*
X152603938Y-84139938D01*
X150460000Y-86862529D02*
X150460000Y-88149744D01*
X146829000Y-81106000D02*
X146812000Y-81089000D01*
X153084471Y-88909000D02*
X154691471Y-90516000D01*
X158956000Y-90516000D02*
X161588000Y-87884000D01*
X151219256Y-88909000D02*
X152188744Y-88909000D01*
X152188744Y-88909000D02*
X153084471Y-88909000D01*
X152188744Y-88909000D02*
X152603938Y-88493806D01*
X152603938Y-84139938D02*
X149570000Y-81106000D01*
X150460000Y-88149744D02*
X151219256Y-88909000D01*
X151254000Y-86040000D02*
X151254000Y-86068529D01*
X154691471Y-90516000D02*
X158956000Y-90516000D01*
X151254000Y-86068529D02*
X150460000Y-86862529D01*
%TO.N,Net-(IC3-LX)*%
X155004000Y-85090000D02*
X154054000Y-84140000D01*
X155829000Y-85090000D02*
X155004000Y-85090000D01*
%TO.N,BAT_MON*%
X155003000Y-71882000D02*
X155003000Y-73406000D01*
X151384000Y-99568000D02*
X151292000Y-99476000D01*
X155003000Y-73406000D02*
X155003000Y-74359000D01*
X155003000Y-74359000D02*
X154940000Y-74422000D01*
X151292000Y-99476000D02*
X151292000Y-93310000D01*
X151292000Y-93310000D02*
X151638000Y-92964000D01*
%TO.N,Net-(U1-TXD0)*%
X138176000Y-94742000D02*
X138176000Y-88646000D01*
X138176000Y-88646000D02*
X135890000Y-86360000D01*
%TD*%
%TA.AperFunction,Conductor*%
%TO.N,VBUS*%
G36*
X131955313Y-88981193D02*
G01*
X131961909Y-88987249D01*
X131963000Y-88992183D01*
X131963000Y-89175816D01*
X131959573Y-89184089D01*
X131955313Y-89186806D01*
X131488305Y-89357330D01*
X131479358Y-89356949D01*
X131473496Y-89350851D01*
X131363883Y-89088509D01*
X131363857Y-89079556D01*
X131363862Y-89079542D01*
X131473496Y-88817147D01*
X131479848Y-88810836D01*
X131488302Y-88810669D01*
X131955313Y-88981193D01*
G37*
%TD.AperFunction*%
%TD*%
%TA.AperFunction,Conductor*%
%TO.N,Net-(J1-Pad8)*%
G36*
X143358030Y-103788427D02*
G01*
X143359476Y-103790186D01*
X143650300Y-104224101D01*
X143652059Y-104232881D01*
X143648328Y-104239383D01*
X143263747Y-104579155D01*
X143255278Y-104582065D01*
X143248253Y-104579155D01*
X142863671Y-104239383D01*
X142859740Y-104231337D01*
X142861698Y-104224104D01*
X143152524Y-103790185D01*
X143159977Y-103785222D01*
X143162243Y-103785000D01*
X143349757Y-103785000D01*
X143358030Y-103788427D01*
G37*
%TD.AperFunction*%
%TD*%
%TA.AperFunction,Conductor*%
%TO.N,+3V3*%
G36*
X155040090Y-89319427D02*
G01*
X155042807Y-89323687D01*
X155213330Y-89790694D01*
X155212949Y-89799641D01*
X155206851Y-89805503D01*
X154944511Y-89915115D01*
X154935556Y-89915142D01*
X154935489Y-89915115D01*
X154673148Y-89805503D01*
X154666836Y-89799151D01*
X154666669Y-89790697D01*
X154837193Y-89323686D01*
X154843249Y-89317091D01*
X154848183Y-89316000D01*
X155031817Y-89316000D01*
X155040090Y-89319427D01*
G37*
%TD.AperFunction*%
%TD*%
%TA.AperFunction,Conductor*%
%TO.N,GND*%
G36*
X143924511Y-70162546D02*
G01*
X143927847Y-70164880D01*
X144058719Y-70295752D01*
X144062146Y-70304025D01*
X144061437Y-70308035D01*
X144035471Y-70379208D01*
X144030705Y-70385105D01*
X143944747Y-70439118D01*
X143819718Y-70564147D01*
X143725634Y-70713880D01*
X143667233Y-70880784D01*
X143667233Y-70880785D01*
X143647435Y-71056496D01*
X143647435Y-71056503D01*
X143667233Y-71232214D01*
X143667233Y-71232215D01*
X143671505Y-71244423D01*
X143671003Y-71253363D01*
X143664326Y-71259330D01*
X143656002Y-71259103D01*
X143170893Y-71059062D01*
X143164551Y-71052740D01*
X143164537Y-71052706D01*
X142964495Y-70567597D01*
X142964509Y-70558643D01*
X142970851Y-70552321D01*
X142979174Y-70552094D01*
X142991383Y-70556366D01*
X143049955Y-70562965D01*
X143167096Y-70576165D01*
X143167100Y-70576165D01*
X143167104Y-70576165D01*
X143273760Y-70564147D01*
X143342817Y-70556366D01*
X143509723Y-70497964D01*
X143659448Y-70403885D01*
X143784485Y-70278848D01*
X143838495Y-70192890D01*
X143844387Y-70188128D01*
X143915566Y-70162162D01*
X143924511Y-70162546D01*
G37*
%TD.AperFunction*%
%TD*%
%TA.AperFunction,Conductor*%
%TO.N,BAT_MON*%
G36*
X155010902Y-73412240D02*
G01*
X155381029Y-73751355D01*
X155384814Y-73759471D01*
X155383403Y-73765573D01*
X155106323Y-74274891D01*
X155099359Y-74280521D01*
X155096045Y-74281000D01*
X154909955Y-74281000D01*
X154901682Y-74277573D01*
X154899677Y-74274891D01*
X154622596Y-73765573D01*
X154621653Y-73756668D01*
X154624968Y-73751357D01*
X154995097Y-73412240D01*
X155003511Y-73409179D01*
X155010902Y-73412240D01*
G37*
%TD.AperFunction*%
%TD*%
%TA.AperFunction,Conductor*%
%TO.N,BAT_MON*%
G36*
X155102062Y-73837958D02*
G01*
X155105162Y-73843484D01*
X155214821Y-74297497D01*
X155213432Y-74306344D01*
X155207959Y-74311040D01*
X154944511Y-74421115D01*
X154935556Y-74421142D01*
X154935489Y-74421115D01*
X154674465Y-74312054D01*
X154668153Y-74305702D01*
X154668180Y-74296747D01*
X154668538Y-74295971D01*
X154899748Y-73840930D01*
X154906551Y-73835108D01*
X154910179Y-73834531D01*
X155093789Y-73834531D01*
X155102062Y-73837958D01*
G37*
%TD.AperFunction*%
%TD*%
%TA.AperFunction,Conductor*%
%TO.N,I2C_SDA*%
G36*
X148069174Y-93615439D02*
G01*
X148232804Y-93682629D01*
X148332184Y-93723436D01*
X148338536Y-93729748D01*
X148338563Y-93729815D01*
X148446559Y-93992824D01*
X148446532Y-94001779D01*
X148440670Y-94007877D01*
X147989867Y-94217523D01*
X147980920Y-94217904D01*
X147976660Y-94215187D01*
X147846812Y-94085339D01*
X147843385Y-94077066D01*
X147844474Y-94072136D01*
X148054124Y-93621327D01*
X148060718Y-93615273D01*
X148069174Y-93615439D01*
G37*
%TD.AperFunction*%
%TD*%
%TA.AperFunction,Conductor*%
%TO.N,GND*%
G36*
X134335526Y-73627176D02*
G01*
X135039567Y-73692053D01*
X135047489Y-73696225D01*
X135050185Y-73703306D01*
X135065758Y-74160911D01*
X135062615Y-74169296D01*
X135059827Y-74171492D01*
X134674915Y-74389305D01*
X134666027Y-74390397D01*
X134659127Y-74385153D01*
X134324429Y-73828782D01*
X134322755Y-73822751D01*
X134322755Y-73638828D01*
X134326182Y-73630555D01*
X134334455Y-73627128D01*
X134335526Y-73627176D01*
G37*
%TD.AperFunction*%
%TD*%
%TA.AperFunction,Conductor*%
%TO.N,Net-(J1-Pad12)*%
G36*
X137853702Y-105513150D02*
G01*
X138585150Y-105830430D01*
X138591376Y-105836866D01*
X138591313Y-105845618D01*
X138433121Y-106229843D01*
X138426802Y-106236189D01*
X138424476Y-106236885D01*
X137964708Y-106323848D01*
X137955943Y-106322019D01*
X137951565Y-106316421D01*
X137707593Y-105658439D01*
X137707930Y-105649492D01*
X137710287Y-105646103D01*
X137840779Y-105515611D01*
X137849051Y-105512185D01*
X137853702Y-105513150D01*
G37*
%TD.AperFunction*%
%TD*%
%TA.AperFunction,Conductor*%
%TO.N,+3V3*%
G36*
X159229384Y-83660811D02*
G01*
X159231956Y-83662289D01*
X159638571Y-83970488D01*
X159643095Y-83978216D01*
X159643204Y-83979812D01*
X159643204Y-84171936D01*
X159642499Y-84175937D01*
X159224077Y-85325665D01*
X159218027Y-85332268D01*
X159209081Y-85332659D01*
X159208613Y-85332477D01*
X158632838Y-85094480D01*
X158626501Y-85088152D01*
X158626494Y-85079200D01*
X159214088Y-83667116D01*
X159220429Y-83660796D01*
X159229384Y-83660811D01*
G37*
%TD.AperFunction*%
%TD*%
%TA.AperFunction,Conductor*%
%TO.N,IMU_INT*%
G36*
X154952851Y-96630496D02*
G01*
X154959163Y-96636848D01*
X154959330Y-96645305D01*
X154788807Y-97112313D01*
X154782751Y-97118909D01*
X154777817Y-97120000D01*
X154594183Y-97120000D01*
X154585910Y-97116573D01*
X154583193Y-97112313D01*
X154412669Y-96645302D01*
X154413050Y-96636358D01*
X154419147Y-96630496D01*
X154681490Y-96520883D01*
X154690444Y-96520857D01*
X154952851Y-96630496D01*
G37*
%TD.AperFunction*%
%TD*%
%TA.AperFunction,Conductor*%
%TO.N,Net-(Q1-D1)*%
G36*
X155252102Y-75479041D02*
G01*
X155259819Y-75483583D01*
X155260802Y-75485123D01*
X155334697Y-75623706D01*
X155335566Y-75632619D01*
X155332646Y-75637484D01*
X155204363Y-75765767D01*
X155196090Y-75769194D01*
X155189290Y-75767015D01*
X154957392Y-75601374D01*
X154952651Y-75593776D01*
X154953356Y-75587440D01*
X155007855Y-75453726D01*
X155014150Y-75447360D01*
X155020312Y-75446557D01*
X155252102Y-75479041D01*
G37*
%TD.AperFunction*%
%TD*%
%TA.AperFunction,Conductor*%
%TO.N,DISP_DC*%
G36*
X147608730Y-97027965D02*
G01*
X147616993Y-97031417D01*
X147620387Y-97039263D01*
X147637532Y-97537946D01*
X147634392Y-97546332D01*
X147630232Y-97549192D01*
X147460032Y-97618149D01*
X147451078Y-97618079D01*
X147446961Y-97615152D01*
X147115307Y-97248359D01*
X147112300Y-97239924D01*
X147115686Y-97232265D01*
X147316179Y-97030540D01*
X147324441Y-97027089D01*
X147324491Y-97027089D01*
X147608730Y-97027965D01*
G37*
%TD.AperFunction*%
%TD*%
%TA.AperFunction,Conductor*%
%TO.N,+BATT*%
G36*
X150890507Y-76239930D02*
G01*
X150893899Y-76242290D01*
X151024387Y-76372778D01*
X151027814Y-76381051D01*
X151026848Y-76385707D01*
X150709569Y-77117151D01*
X150703133Y-77123377D01*
X150694381Y-77123314D01*
X150310156Y-76965121D01*
X150303810Y-76958802D01*
X150303114Y-76956476D01*
X150216151Y-76496708D01*
X150217980Y-76487943D01*
X150223576Y-76483565D01*
X150881560Y-76239593D01*
X150890507Y-76239930D01*
G37*
%TD.AperFunction*%
%TD*%
%TA.AperFunction,Conductor*%
%TO.N,+BATT*%
G36*
X147376265Y-74981314D02*
G01*
X147382532Y-74987529D01*
X147795017Y-75955422D01*
X147795108Y-75964376D01*
X147792527Y-75968282D01*
X147661411Y-76099398D01*
X147653138Y-76102825D01*
X147650231Y-76102458D01*
X146904455Y-75911195D01*
X146897293Y-75905821D01*
X146895666Y-75900162D01*
X146877499Y-75191341D01*
X146880713Y-75182983D01*
X146884732Y-75180226D01*
X147367311Y-74981299D01*
X147376265Y-74981314D01*
G37*
%TD.AperFunction*%
%TD*%
%TA.AperFunction,Conductor*%
%TO.N,DISP_CS*%
G36*
X145831101Y-98805963D02*
G01*
X145839362Y-98809417D01*
X145842734Y-98816874D01*
X145875156Y-99296585D01*
X145872295Y-99305070D01*
X145864272Y-99309047D01*
X145863483Y-99309074D01*
X145680263Y-99309074D01*
X145672735Y-99306330D01*
X145661141Y-99296585D01*
X145524054Y-99181355D01*
X145339611Y-99026321D01*
X145335483Y-99018375D01*
X145338183Y-99009837D01*
X145338838Y-99009119D01*
X145538555Y-98808461D01*
X145546817Y-98805016D01*
X145831101Y-98805963D01*
G37*
%TD.AperFunction*%
%TD*%
%TA.AperFunction,Conductor*%
%TO.N,VBUS*%
G36*
X135850446Y-80019544D02*
G01*
X136175953Y-80125878D01*
X136182753Y-80131705D01*
X136183442Y-80140633D01*
X136177615Y-80147433D01*
X136175953Y-80148122D01*
X135331061Y-80424123D01*
X135322362Y-80423547D01*
X134940634Y-80240186D01*
X134934660Y-80233515D01*
X134934000Y-80229640D01*
X134934000Y-80044359D01*
X134937427Y-80036086D01*
X134940632Y-80033814D01*
X135322362Y-79850451D01*
X135331060Y-79849876D01*
X135850446Y-80019544D01*
G37*
%TD.AperFunction*%
%TD*%
%TA.AperFunction,Conductor*%
%TO.N,GND*%
G36*
X131488369Y-84811901D02*
G01*
X131488897Y-84812137D01*
X131946400Y-85030819D01*
X131952386Y-85037479D01*
X131953054Y-85041375D01*
X131953054Y-85225019D01*
X131949627Y-85233292D01*
X131944378Y-85236321D01*
X131487683Y-85358520D01*
X131478805Y-85357348D01*
X131473863Y-85351729D01*
X131424377Y-85233292D01*
X131363883Y-85088509D01*
X131363857Y-85079556D01*
X131363862Y-85079542D01*
X131473063Y-84818184D01*
X131479414Y-84811874D01*
X131488369Y-84811901D01*
G37*
%TD.AperFunction*%
%TD*%
%TA.AperFunction,Conductor*%
%TO.N,+BATT*%
G36*
X145171641Y-74911050D02*
G01*
X145177503Y-74917148D01*
X145287115Y-75179489D01*
X145287142Y-75188444D01*
X145287115Y-75188511D01*
X145177503Y-75450851D01*
X145171151Y-75457163D01*
X145162694Y-75457329D01*
X145028947Y-75408493D01*
X144695687Y-75286806D01*
X144689091Y-75280750D01*
X144688000Y-75275816D01*
X144688000Y-75092183D01*
X144691427Y-75083910D01*
X144695687Y-75081193D01*
X145162697Y-74910669D01*
X145171641Y-74911050D01*
G37*
%TD.AperFunction*%
%TD*%
%TA.AperFunction,Conductor*%
%TO.N,DISP_SPI_MISO*%
G36*
X149639761Y-98805959D02*
G01*
X149648023Y-98809413D01*
X149651422Y-98817698D01*
X149651408Y-98818224D01*
X149626539Y-99332476D01*
X149622717Y-99340574D01*
X149614853Y-99343611D01*
X149431293Y-99343611D01*
X149423020Y-99340184D01*
X149422506Y-99339636D01*
X149147095Y-99026353D01*
X149144206Y-99017877D01*
X149147588Y-99010375D01*
X149348555Y-98808461D01*
X149356817Y-98805016D01*
X149639761Y-98805959D01*
G37*
%TD.AperFunction*%
%TD*%
%TA.AperFunction,Conductor*%
%TO.N,GND*%
G36*
X152920832Y-70468488D02*
G01*
X152927143Y-70474839D01*
X152927302Y-70483317D01*
X152755816Y-70950135D01*
X152749747Y-70956719D01*
X152744834Y-70957801D01*
X152561198Y-70957801D01*
X152552925Y-70954374D01*
X152550201Y-70950095D01*
X152380654Y-70483317D01*
X152380645Y-70483291D01*
X152381041Y-70474347D01*
X152387130Y-70468503D01*
X152649490Y-70358883D01*
X152658444Y-70358857D01*
X152920832Y-70468488D01*
G37*
%TD.AperFunction*%
%TD*%
%TA.AperFunction,Conductor*%
%TO.N,VBUS*%
G36*
X135850446Y-76209544D02*
G01*
X136175953Y-76315878D01*
X136182753Y-76321705D01*
X136183442Y-76330633D01*
X136177615Y-76337433D01*
X136175953Y-76338122D01*
X135331061Y-76614123D01*
X135322362Y-76613547D01*
X134940634Y-76430186D01*
X134934660Y-76423515D01*
X134934000Y-76419640D01*
X134934000Y-76234359D01*
X134937427Y-76226086D01*
X134940632Y-76223814D01*
X135322362Y-76040451D01*
X135331060Y-76039876D01*
X135850446Y-76209544D01*
G37*
%TD.AperFunction*%
%TD*%
%TA.AperFunction,Conductor*%
%TO.N,+BATT*%
G36*
X141992661Y-79837510D02*
G01*
X142030928Y-79839762D01*
X142270982Y-79853895D01*
X142278566Y-79857302D01*
X142408406Y-79987142D01*
X142411833Y-79995415D01*
X142408406Y-80003688D01*
X142408244Y-80003847D01*
X142138065Y-80263745D01*
X142129727Y-80267011D01*
X142128409Y-80266911D01*
X141205516Y-80143996D01*
X141197768Y-80139507D01*
X141195463Y-80130853D01*
X141199952Y-80123105D01*
X141203052Y-80121406D01*
X141980688Y-79838205D01*
X141984692Y-79837500D01*
X141992317Y-79837500D01*
X141992661Y-79837510D01*
G37*
%TD.AperFunction*%
%TD*%
%TA.AperFunction,Conductor*%
%TO.N,VBUS*%
G36*
X139881616Y-72736685D02*
G01*
X140265844Y-72894879D01*
X140272189Y-72901197D01*
X140272885Y-72903523D01*
X140359849Y-73363291D01*
X140358020Y-73372056D01*
X140352421Y-73376435D01*
X139694441Y-73620406D01*
X139685492Y-73620069D01*
X139682100Y-73617709D01*
X139551612Y-73487221D01*
X139548185Y-73478948D01*
X139549149Y-73474298D01*
X139866431Y-72742847D01*
X139872866Y-72736623D01*
X139881616Y-72736685D01*
G37*
%TD.AperFunction*%
%TD*%
%TA.AperFunction,Conductor*%
%TO.N,+BATT*%
G36*
X143864090Y-75857427D02*
G01*
X143866807Y-75861687D01*
X144037330Y-76328694D01*
X144036949Y-76337641D01*
X144030851Y-76343503D01*
X143768511Y-76453115D01*
X143759556Y-76453142D01*
X143759489Y-76453115D01*
X143497148Y-76343503D01*
X143490836Y-76337151D01*
X143490669Y-76328697D01*
X143661193Y-75861686D01*
X143667249Y-75855091D01*
X143672183Y-75854000D01*
X143855817Y-75854000D01*
X143864090Y-75857427D01*
G37*
%TD.AperFunction*%
%TD*%
%TA.AperFunction,Conductor*%
%TO.N,VBUS*%
G36*
X131944379Y-86531678D02*
G01*
X131951484Y-86537126D01*
X131953054Y-86542980D01*
X131953054Y-86726624D01*
X131949627Y-86734897D01*
X131946400Y-86737180D01*
X131488904Y-86955858D01*
X131479962Y-86956334D01*
X131473302Y-86950348D01*
X131473062Y-86949813D01*
X131363883Y-86688509D01*
X131363857Y-86679556D01*
X131363862Y-86679542D01*
X131473863Y-86416269D01*
X131480215Y-86409958D01*
X131487683Y-86409479D01*
X131944379Y-86531678D01*
G37*
%TD.AperFunction*%
%TD*%
%TA.AperFunction,Conductor*%
%TO.N,GND*%
G36*
X149513864Y-86122475D02*
G01*
X149964671Y-86332123D01*
X149970726Y-86338718D01*
X149970559Y-86347175D01*
X149862563Y-86610184D01*
X149856251Y-86616536D01*
X149856184Y-86616563D01*
X149593175Y-86724559D01*
X149584220Y-86724532D01*
X149578123Y-86718671D01*
X149368475Y-86267865D01*
X149368095Y-86258920D01*
X149370810Y-86254662D01*
X149500661Y-86124811D01*
X149508933Y-86121385D01*
X149513864Y-86122475D01*
G37*
%TD.AperFunction*%
%TD*%
%TA.AperFunction,Conductor*%
%TO.N,/JTAG_TMS*%
G36*
X149364851Y-70722496D02*
G01*
X149371163Y-70728848D01*
X149371330Y-70737305D01*
X149200807Y-71204313D01*
X149194751Y-71210909D01*
X149189817Y-71212000D01*
X149006183Y-71212000D01*
X148997910Y-71208573D01*
X148995193Y-71204313D01*
X148824669Y-70737302D01*
X148825050Y-70728358D01*
X148831147Y-70722496D01*
X149093490Y-70612883D01*
X149102444Y-70612857D01*
X149364851Y-70722496D01*
G37*
%TD.AperFunction*%
%TD*%
%TA.AperFunction,Conductor*%
%TO.N,Net-(Q1-D1)*%
G36*
X155111840Y-75649427D02*
G01*
X155114667Y-75654000D01*
X155159721Y-75789165D01*
X155159086Y-75798097D01*
X155156922Y-75801111D01*
X155020301Y-75938643D01*
X155012039Y-75942097D01*
X155003754Y-75938698D01*
X155003699Y-75938643D01*
X154867077Y-75801111D01*
X154863678Y-75792826D01*
X154864278Y-75789165D01*
X154909333Y-75654000D01*
X154915201Y-75647235D01*
X154920433Y-75646000D01*
X155103567Y-75646000D01*
X155111840Y-75649427D01*
G37*
%TD.AperFunction*%
%TD*%
%TA.AperFunction,Conductor*%
%TO.N,Net-(J2-CC2)*%
G36*
X130552614Y-88417929D02*
G01*
X130553625Y-88419833D01*
X130661827Y-88678793D01*
X130661854Y-88687748D01*
X130661835Y-88687795D01*
X130551975Y-88952068D01*
X130545635Y-88958392D01*
X130538587Y-88958988D01*
X130188480Y-88879720D01*
X130182791Y-88876582D01*
X130053933Y-88747724D01*
X130050506Y-88739451D01*
X130053933Y-88731178D01*
X130055787Y-88729668D01*
X130536415Y-88414558D01*
X130545212Y-88412889D01*
X130552614Y-88417929D01*
G37*
%TD.AperFunction*%
%TD*%
%TA.AperFunction,Conductor*%
%TO.N,CHG*%
G36*
X141770184Y-75817411D02*
G01*
X141772282Y-75820267D01*
X141874353Y-76015697D01*
X141875145Y-76024617D01*
X141869399Y-76031485D01*
X141868488Y-76031911D01*
X141169847Y-76323472D01*
X141160892Y-76323496D01*
X141154544Y-76317181D01*
X141154523Y-76317130D01*
X141039542Y-76037936D01*
X141039560Y-76028984D01*
X141045905Y-76022665D01*
X141045928Y-76022655D01*
X141566912Y-75814817D01*
X141571247Y-75813984D01*
X141761911Y-75813984D01*
X141770184Y-75817411D01*
G37*
%TD.AperFunction*%
%TD*%
%TA.AperFunction,Conductor*%
%TO.N,DISP_SPI_SCLK*%
G36*
X147128011Y-100707427D02*
G01*
X147129473Y-100709210D01*
X147322756Y-100999135D01*
X147324494Y-101007920D01*
X147324055Y-101009515D01*
X147037034Y-101823700D01*
X147031052Y-101830363D01*
X147022110Y-101830844D01*
X147015447Y-101824862D01*
X147014966Y-101823700D01*
X146727944Y-101009515D01*
X146728425Y-101000573D01*
X146729243Y-100999135D01*
X146922527Y-100709210D01*
X146929967Y-100704227D01*
X146932262Y-100704000D01*
X147119738Y-100704000D01*
X147128011Y-100707427D01*
G37*
%TD.AperFunction*%
%TD*%
%TA.AperFunction,Conductor*%
%TO.N,Net-(U1-TXD0)*%
G36*
X138276090Y-94145427D02*
G01*
X138278807Y-94149687D01*
X138449330Y-94616694D01*
X138448949Y-94625641D01*
X138442851Y-94631503D01*
X138180511Y-94741115D01*
X138171556Y-94741142D01*
X138171489Y-94741115D01*
X137909148Y-94631503D01*
X137902836Y-94625151D01*
X137902669Y-94616697D01*
X138073193Y-94149686D01*
X138079249Y-94143091D01*
X138084183Y-94142000D01*
X138267817Y-94142000D01*
X138276090Y-94145427D01*
G37*
%TD.AperFunction*%
%TD*%
%TA.AperFunction,Conductor*%
%TO.N,/TP_INT*%
G36*
X150854501Y-90129795D02*
G01*
X151056326Y-90330279D01*
X151059780Y-90338541D01*
X151059780Y-90338608D01*
X151059115Y-90621383D01*
X151055669Y-90629648D01*
X151047387Y-90633055D01*
X151046119Y-90632983D01*
X150607824Y-90584128D01*
X150600847Y-90580773D01*
X150471393Y-90451319D01*
X150467966Y-90443046D01*
X150471393Y-90434773D01*
X150472177Y-90434057D01*
X150838774Y-90129100D01*
X150847324Y-90126445D01*
X150854501Y-90129795D01*
G37*
%TD.AperFunction*%
%TD*%
%TA.AperFunction,Conductor*%
%TO.N,BAT_MON_EN*%
G36*
X151964630Y-72903648D02*
G01*
X151964829Y-72903782D01*
X152349190Y-73168991D01*
X152354053Y-73176510D01*
X152354162Y-73180009D01*
X152285232Y-73756920D01*
X152280848Y-73764728D01*
X152273615Y-73767232D01*
X152088826Y-73767232D01*
X152080577Y-73763829D01*
X151666048Y-73351694D01*
X151662597Y-73343431D01*
X151664532Y-73336952D01*
X151948420Y-72906965D01*
X151955838Y-72901950D01*
X151964630Y-72903648D01*
G37*
%TD.AperFunction*%
%TD*%
%TA.AperFunction,Conductor*%
%TO.N,GND*%
G36*
X142418631Y-70162161D02*
G01*
X142489808Y-70188127D01*
X142495705Y-70192893D01*
X142549718Y-70278852D01*
X142674747Y-70403881D01*
X142674749Y-70403882D01*
X142674752Y-70403885D01*
X142824477Y-70497964D01*
X142991383Y-70556366D01*
X143049955Y-70562965D01*
X143167096Y-70576165D01*
X143167100Y-70576165D01*
X143167104Y-70576165D01*
X143342813Y-70556367D01*
X143342815Y-70556366D01*
X143342817Y-70556366D01*
X143355025Y-70552094D01*
X143363963Y-70552595D01*
X143369930Y-70559272D01*
X143369703Y-70567597D01*
X143169662Y-71052706D01*
X143163340Y-71059048D01*
X143163306Y-71059062D01*
X142678197Y-71259103D01*
X142669243Y-71259089D01*
X142662921Y-71252747D01*
X142662694Y-71244425D01*
X142666966Y-71232217D01*
X142666966Y-71232215D01*
X142666967Y-71232213D01*
X142686765Y-71056503D01*
X142686765Y-71056496D01*
X142666966Y-70880785D01*
X142666966Y-70880784D01*
X142608565Y-70713880D01*
X142608564Y-70713877D01*
X142514485Y-70564152D01*
X142514482Y-70564149D01*
X142514481Y-70564147D01*
X142389452Y-70439118D01*
X142389449Y-70439116D01*
X142389448Y-70439115D01*
X142333374Y-70403881D01*
X142303493Y-70385105D01*
X142298727Y-70379208D01*
X142272762Y-70308033D01*
X142273146Y-70299088D01*
X142275477Y-70295755D01*
X142406353Y-70164879D01*
X142414625Y-70161453D01*
X142418631Y-70162161D01*
G37*
%TD.AperFunction*%
%TD*%
%TA.AperFunction,Conductor*%
%TO.N,BAT_MON_EN*%
G36*
X153101791Y-75798348D02*
G01*
X153102632Y-75798813D01*
X153328533Y-75936000D01*
X153333826Y-75943223D01*
X153332460Y-75952073D01*
X153328533Y-75956000D01*
X153102632Y-76093186D01*
X153093782Y-76094552D01*
X153092859Y-76094286D01*
X152956000Y-76048666D01*
X152949235Y-76042798D01*
X152948000Y-76037566D01*
X152948000Y-75854433D01*
X152951427Y-75846160D01*
X152955998Y-75843333D01*
X153092860Y-75797713D01*
X153101791Y-75798348D01*
G37*
%TD.AperFunction*%
%TD*%
%TA.AperFunction,Conductor*%
%TO.N,CHG*%
G36*
X142137063Y-76199393D02*
G01*
X142138065Y-76200254D01*
X142408244Y-76460152D01*
X142411831Y-76468357D01*
X142408565Y-76476695D01*
X142408406Y-76476857D01*
X142278566Y-76606697D01*
X142270981Y-76610104D01*
X141986417Y-76626857D01*
X141981725Y-76626171D01*
X141203057Y-76342595D01*
X141196456Y-76336544D01*
X141196067Y-76327597D01*
X141202118Y-76320996D01*
X141205512Y-76320004D01*
X142128410Y-76197088D01*
X142137063Y-76199393D01*
G37*
%TD.AperFunction*%
%TD*%
%TA.AperFunction,Conductor*%
%TO.N,GND*%
G36*
X135650507Y-73445930D02*
G01*
X135653899Y-73448290D01*
X135784387Y-73578778D01*
X135787814Y-73587051D01*
X135786848Y-73591707D01*
X135469569Y-74323151D01*
X135463133Y-74329377D01*
X135454381Y-74329314D01*
X135070156Y-74171121D01*
X135063810Y-74164802D01*
X135063114Y-74162476D01*
X134976151Y-73702708D01*
X134977980Y-73693943D01*
X134983576Y-73689565D01*
X135641560Y-73445593D01*
X135650507Y-73445930D01*
G37*
%TD.AperFunction*%
%TD*%
%TA.AperFunction,Conductor*%
%TO.N,/DISP_BL*%
G36*
X151335004Y-89376214D02*
G01*
X151341102Y-89382076D01*
X151550748Y-89832879D01*
X151551129Y-89841826D01*
X151548412Y-89846086D01*
X151423238Y-89971259D01*
X151414965Y-89974686D01*
X151406692Y-89971259D01*
X151406132Y-89970657D01*
X151390213Y-89952286D01*
X151269138Y-89874476D01*
X151200092Y-89854202D01*
X151131047Y-89833929D01*
X151131046Y-89833929D01*
X151097568Y-89833929D01*
X151092634Y-89832838D01*
X150954554Y-89768624D01*
X150948498Y-89762028D01*
X150948664Y-89753572D01*
X151056661Y-89490561D01*
X151062971Y-89484211D01*
X151326050Y-89376187D01*
X151335004Y-89376214D01*
G37*
%TD.AperFunction*%
%TD*%
%TA.AperFunction,Conductor*%
%TO.N,+BATT*%
G36*
X150010210Y-82955548D02*
G01*
X150611016Y-83359463D01*
X150615970Y-83366923D01*
X150614198Y-83375701D01*
X150612761Y-83377446D01*
X150482331Y-83507876D01*
X150480271Y-83509517D01*
X149929900Y-83854439D01*
X149921070Y-83855929D01*
X149916147Y-83853470D01*
X149506194Y-83507876D01*
X149363321Y-83387432D01*
X149359204Y-83379480D01*
X149361917Y-83370946D01*
X149364461Y-83368693D01*
X149997285Y-82955461D01*
X150006086Y-82953808D01*
X150010210Y-82955548D01*
G37*
%TD.AperFunction*%
%TD*%
%TA.AperFunction,Conductor*%
%TO.N,BAT_MON_EN*%
G36*
X152145992Y-71733123D02*
G01*
X152159959Y-71738959D01*
X152166271Y-71745311D01*
X152166821Y-71752502D01*
X152057162Y-72206516D01*
X152051889Y-72213753D01*
X152045789Y-72215469D01*
X151862179Y-72215469D01*
X151853906Y-72212042D01*
X151851748Y-72209069D01*
X151620545Y-71754041D01*
X151619853Y-71745113D01*
X151625676Y-71738310D01*
X151626439Y-71737956D01*
X151887490Y-71628883D01*
X151896444Y-71628857D01*
X152145992Y-71733123D01*
G37*
%TD.AperFunction*%
%TD*%
%TA.AperFunction,Conductor*%
%TO.N,+BATT*%
G36*
X141867099Y-80430295D02*
G01*
X141873427Y-80436629D01*
X141873422Y-80445584D01*
X141870888Y-80449374D01*
X141741842Y-80578421D01*
X141606383Y-80713879D01*
X141598110Y-80717306D01*
X141592879Y-80716071D01*
X141044455Y-80441859D01*
X141038588Y-80435095D01*
X141038866Y-80426948D01*
X141153832Y-80147148D01*
X141160145Y-80140800D01*
X141169098Y-80140775D01*
X141867099Y-80430295D01*
G37*
%TD.AperFunction*%
%TD*%
%TA.AperFunction,Conductor*%
%TO.N,IMU_INT*%
G36*
X155708334Y-102917723D02*
G01*
X156159141Y-103127371D01*
X156165196Y-103133966D01*
X156165029Y-103142423D01*
X156057033Y-103405432D01*
X156050721Y-103411784D01*
X156050654Y-103411811D01*
X155787645Y-103519807D01*
X155778690Y-103519780D01*
X155772593Y-103513919D01*
X155562945Y-103063113D01*
X155562565Y-103054168D01*
X155565280Y-103049910D01*
X155695131Y-102920059D01*
X155703403Y-102916633D01*
X155708334Y-102917723D01*
G37*
%TD.AperFunction*%
%TD*%
%TA.AperFunction,Conductor*%
%TO.N,Net-(U2-SELI)*%
G36*
X137113335Y-74006704D02*
G01*
X137119569Y-74012848D01*
X137436848Y-74744292D01*
X137436996Y-74753246D01*
X137434387Y-74757221D01*
X137303899Y-74887709D01*
X137295626Y-74891136D01*
X137291558Y-74890406D01*
X136633579Y-74646435D01*
X136627014Y-74640346D01*
X136626151Y-74633291D01*
X136713114Y-74173521D01*
X136718019Y-74166030D01*
X136720147Y-74164882D01*
X137104383Y-74006685D01*
X137113335Y-74006704D01*
G37*
%TD.AperFunction*%
%TD*%
%TA.AperFunction,Conductor*%
%TO.N,/DISP_BL*%
G36*
X142321221Y-105515612D02*
G01*
X142451709Y-105646100D01*
X142455136Y-105654373D01*
X142454406Y-105658441D01*
X142210435Y-106316421D01*
X142204346Y-106322986D01*
X142197291Y-106323849D01*
X141737523Y-106236885D01*
X141730030Y-106231980D01*
X141728880Y-106229848D01*
X141570686Y-105845616D01*
X141570705Y-105836664D01*
X141576847Y-105830431D01*
X142308295Y-105513150D01*
X142317246Y-105513003D01*
X142321221Y-105515612D01*
G37*
%TD.AperFunction*%
%TD*%
%TA.AperFunction,Conductor*%
%TO.N,+BATT*%
G36*
X144547779Y-81169467D02*
G01*
X144553877Y-81175329D01*
X144763523Y-81626132D01*
X144763904Y-81635079D01*
X144761187Y-81639339D01*
X144631339Y-81769187D01*
X144623066Y-81772614D01*
X144618132Y-81771523D01*
X144324736Y-81635079D01*
X144167328Y-81561876D01*
X144161273Y-81555281D01*
X144161439Y-81546825D01*
X144269436Y-81283814D01*
X144275746Y-81277464D01*
X144538825Y-81169440D01*
X144547779Y-81169467D01*
G37*
%TD.AperFunction*%
%TD*%
%TA.AperFunction,Conductor*%
%TO.N,Net-(IC3-CE{slash}MODE)*%
G36*
X161593159Y-87894134D02*
G01*
X161593428Y-87894737D01*
X161832062Y-88473176D01*
X161832049Y-88482131D01*
X161825708Y-88488454D01*
X161825701Y-88488457D01*
X160641659Y-88976004D01*
X160632704Y-88975985D01*
X160628931Y-88973458D01*
X160494583Y-88839110D01*
X160492141Y-88835535D01*
X160342537Y-88494349D01*
X160342354Y-88485399D01*
X160348186Y-88479107D01*
X161577549Y-87888651D01*
X161586488Y-87888160D01*
X161593159Y-87894134D01*
G37*
%TD.AperFunction*%
%TD*%
%TA.AperFunction,Conductor*%
%TO.N,Net-(IC3-CE{slash}MODE)*%
G36*
X147171666Y-80708910D02*
G01*
X147681144Y-81002624D01*
X147686599Y-81009725D01*
X147687000Y-81012760D01*
X147687000Y-81198843D01*
X147683573Y-81207116D01*
X147680628Y-81209259D01*
X147171471Y-81469717D01*
X147162545Y-81470434D01*
X147157517Y-81467205D01*
X146818240Y-81096902D01*
X146815179Y-81088489D01*
X146818240Y-81081097D01*
X147157198Y-80711142D01*
X147165313Y-80707358D01*
X147171666Y-80708910D01*
G37*
%TD.AperFunction*%
%TD*%
%TA.AperFunction,Conductor*%
%TO.N,DISP_SPI_MOSI*%
G36*
X148597296Y-98152175D02*
G01*
X148601604Y-98153975D01*
X148607916Y-98160327D01*
X148607889Y-98169282D01*
X148607555Y-98170008D01*
X148379235Y-98626100D01*
X148372468Y-98631964D01*
X148368773Y-98632563D01*
X148185159Y-98632563D01*
X148176886Y-98629136D01*
X148173801Y-98623672D01*
X148061244Y-98168542D01*
X148062585Y-98159688D01*
X148068088Y-98154939D01*
X148331490Y-98044883D01*
X148340444Y-98044857D01*
X148597296Y-98152175D01*
G37*
%TD.AperFunction*%
%TD*%
%TA.AperFunction,Conductor*%
%TO.N,GND*%
G36*
X153443840Y-75149427D02*
G01*
X153446667Y-75154000D01*
X153491721Y-75289165D01*
X153491086Y-75298097D01*
X153488922Y-75301111D01*
X153352301Y-75438643D01*
X153344039Y-75442097D01*
X153335754Y-75438698D01*
X153335699Y-75438643D01*
X153199077Y-75301111D01*
X153195678Y-75292826D01*
X153196278Y-75289165D01*
X153241333Y-75154000D01*
X153247201Y-75147235D01*
X153252433Y-75146000D01*
X153435567Y-75146000D01*
X153443840Y-75149427D01*
G37*
%TD.AperFunction*%
%TD*%
%TA.AperFunction,Conductor*%
%TO.N,GND*%
G36*
X153360902Y-73412240D02*
G01*
X153730937Y-73751271D01*
X153734722Y-73759387D01*
X153733236Y-73765624D01*
X153447353Y-74275026D01*
X153440316Y-74280564D01*
X153437150Y-74281000D01*
X153251060Y-74281000D01*
X153242787Y-74277573D01*
X153240709Y-74274753D01*
X152972430Y-73765521D01*
X152971605Y-73756605D01*
X152974877Y-73751441D01*
X152975063Y-73751271D01*
X153345097Y-73412240D01*
X153353511Y-73409179D01*
X153360902Y-73412240D01*
G37*
%TD.AperFunction*%
%TD*%
%TA.AperFunction,Conductor*%
%TO.N,Net-(J1-Pad7)*%
G36*
X144882030Y-103788427D02*
G01*
X144883476Y-103790186D01*
X145174300Y-104224101D01*
X145176059Y-104232881D01*
X145172328Y-104239383D01*
X144787747Y-104579155D01*
X144779278Y-104582065D01*
X144772253Y-104579155D01*
X144387671Y-104239383D01*
X144383740Y-104231337D01*
X144385698Y-104224104D01*
X144676524Y-103790185D01*
X144683977Y-103785222D01*
X144686243Y-103785000D01*
X144873757Y-103785000D01*
X144882030Y-103788427D01*
G37*
%TD.AperFunction*%
%TD*%
%TA.AperFunction,Conductor*%
%TO.N,GND*%
G36*
X149281226Y-74690495D02*
G01*
X149773565Y-75080487D01*
X149777922Y-75088309D01*
X149778000Y-75089657D01*
X149778000Y-75278342D01*
X149774573Y-75286615D01*
X149773565Y-75287513D01*
X149281229Y-75677503D01*
X149272616Y-75679954D01*
X149265658Y-75676572D01*
X148879690Y-75287513D01*
X148785173Y-75192239D01*
X148781780Y-75183953D01*
X148785173Y-75175760D01*
X149265659Y-74691426D01*
X149273917Y-74687967D01*
X149281226Y-74690495D01*
G37*
%TD.AperFunction*%
%TD*%
%TA.AperFunction,Conductor*%
%TO.N,GND*%
G36*
X147286056Y-79351979D02*
G01*
X147290435Y-79357578D01*
X147534406Y-80015558D01*
X147534069Y-80024507D01*
X147531709Y-80027899D01*
X147401221Y-80158387D01*
X147392948Y-80161814D01*
X147388293Y-80160848D01*
X146995283Y-79990372D01*
X146656849Y-79843569D01*
X146650623Y-79837133D01*
X146650685Y-79828383D01*
X146808879Y-79444154D01*
X146815197Y-79437810D01*
X146817517Y-79437115D01*
X147277292Y-79350150D01*
X147286056Y-79351979D01*
G37*
%TD.AperFunction*%
%TD*%
%TA.AperFunction,Conductor*%
%TO.N,GND*%
G36*
X164604851Y-85708496D02*
G01*
X164611163Y-85714848D01*
X164611330Y-85723305D01*
X164440807Y-86190313D01*
X164434751Y-86196909D01*
X164429817Y-86198000D01*
X164246183Y-86198000D01*
X164237910Y-86194573D01*
X164235193Y-86190313D01*
X164064669Y-85723302D01*
X164065050Y-85714358D01*
X164071147Y-85708496D01*
X164333490Y-85598883D01*
X164342444Y-85598857D01*
X164604851Y-85708496D01*
G37*
%TD.AperFunction*%
%TD*%
%TA.AperFunction,Conductor*%
%TO.N,Net-(J1-Pad9)*%
G36*
X141834030Y-103788427D02*
G01*
X141835476Y-103790186D01*
X142126300Y-104224101D01*
X142128059Y-104232881D01*
X142124328Y-104239383D01*
X141739747Y-104579155D01*
X141731278Y-104582065D01*
X141724253Y-104579155D01*
X141339671Y-104239383D01*
X141335740Y-104231337D01*
X141337698Y-104224104D01*
X141628524Y-103790185D01*
X141635977Y-103785222D01*
X141638243Y-103785000D01*
X141825757Y-103785000D01*
X141834030Y-103788427D01*
G37*
%TD.AperFunction*%
%TD*%
%TA.AperFunction,Conductor*%
%TO.N,VBUS*%
G36*
X132101869Y-88984225D02*
G01*
X132103252Y-88984500D01*
X132568017Y-88984500D01*
X132576290Y-88987927D01*
X132579717Y-88996200D01*
X132579707Y-88996686D01*
X132574363Y-89125262D01*
X132570595Y-89133386D01*
X132565517Y-89136125D01*
X132126780Y-89246049D01*
X132119406Y-89245487D01*
X131980170Y-89187011D01*
X131973869Y-89180648D01*
X131973000Y-89176224D01*
X131973000Y-88995700D01*
X131976427Y-88987427D01*
X131984700Y-88984000D01*
X132099587Y-88984000D01*
X132101869Y-88984225D01*
G37*
%TD.AperFunction*%
%TD*%
%TA.AperFunction,Conductor*%
%TO.N,Net-(IC2-~{RESET})*%
G36*
X151851383Y-78229120D02*
G01*
X151983986Y-78361723D01*
X151987328Y-78368587D01*
X152003007Y-78497818D01*
X152000601Y-78506443D01*
X151996629Y-78509689D01*
X151414562Y-78801065D01*
X151405630Y-78801704D01*
X151398863Y-78795840D01*
X151398503Y-78795050D01*
X151283866Y-78516051D01*
X151283891Y-78507096D01*
X151289454Y-78501140D01*
X151837881Y-78226927D01*
X151846810Y-78226293D01*
X151851383Y-78229120D01*
G37*
%TD.AperFunction*%
%TD*%
%TA.AperFunction,Conductor*%
%TO.N,+BATT*%
G36*
X148787630Y-82902331D02*
G01*
X149342358Y-83369047D01*
X149346483Y-83376996D01*
X149343779Y-83385532D01*
X149342358Y-83386953D01*
X148787630Y-83853668D01*
X148779094Y-83856372D01*
X148774212Y-83854826D01*
X148528045Y-83711500D01*
X148132813Y-83481384D01*
X148127388Y-83474260D01*
X148127000Y-83471273D01*
X148127000Y-83284726D01*
X148130427Y-83276453D01*
X148132810Y-83274617D01*
X148774213Y-82901172D01*
X148783085Y-82899972D01*
X148787630Y-82902331D01*
G37*
%TD.AperFunction*%
%TD*%
%TA.AperFunction,Conductor*%
%TO.N,GND*%
G36*
X144958631Y-70162161D02*
G01*
X145029808Y-70188127D01*
X145035705Y-70192893D01*
X145089718Y-70278852D01*
X145214747Y-70403881D01*
X145214749Y-70403882D01*
X145214752Y-70403885D01*
X145364477Y-70497964D01*
X145531383Y-70556366D01*
X145589955Y-70562965D01*
X145707096Y-70576165D01*
X145707100Y-70576165D01*
X145707104Y-70576165D01*
X145882813Y-70556367D01*
X145882815Y-70556366D01*
X145882817Y-70556366D01*
X145895025Y-70552094D01*
X145903963Y-70552595D01*
X145909930Y-70559272D01*
X145909703Y-70567597D01*
X145709662Y-71052706D01*
X145703340Y-71059048D01*
X145703306Y-71059062D01*
X145218197Y-71259103D01*
X145209243Y-71259089D01*
X145202921Y-71252747D01*
X145202694Y-71244425D01*
X145206966Y-71232217D01*
X145206966Y-71232215D01*
X145206967Y-71232213D01*
X145226765Y-71056503D01*
X145226765Y-71056496D01*
X145206966Y-70880785D01*
X145206966Y-70880784D01*
X145148565Y-70713880D01*
X145148564Y-70713877D01*
X145054485Y-70564152D01*
X145054482Y-70564149D01*
X145054481Y-70564147D01*
X144929452Y-70439118D01*
X144929449Y-70439116D01*
X144929448Y-70439115D01*
X144873374Y-70403881D01*
X144843493Y-70385105D01*
X144838727Y-70379208D01*
X144812762Y-70308033D01*
X144813146Y-70299088D01*
X144815477Y-70295755D01*
X144946353Y-70164879D01*
X144954625Y-70161453D01*
X144958631Y-70162161D01*
G37*
%TD.AperFunction*%
%TD*%
%TA.AperFunction,Conductor*%
%TO.N,Net-(J2-CC2)*%
G36*
X128372030Y-94136427D02*
G01*
X128373476Y-94138186D01*
X128664300Y-94572101D01*
X128666059Y-94580881D01*
X128662328Y-94587383D01*
X128277747Y-94927155D01*
X128269278Y-94930065D01*
X128262253Y-94927155D01*
X127877671Y-94587383D01*
X127873740Y-94579337D01*
X127875698Y-94572104D01*
X128166524Y-94138185D01*
X128173977Y-94133222D01*
X128176243Y-94133000D01*
X128363757Y-94133000D01*
X128372030Y-94136427D01*
G37*
%TD.AperFunction*%
%TD*%
%TA.AperFunction,Conductor*%
%TO.N,Net-(IC2-~{RESET})*%
G36*
X160633339Y-91204812D02*
G01*
X160763187Y-91334660D01*
X160766614Y-91342933D01*
X160765523Y-91347867D01*
X160555877Y-91798670D01*
X160549281Y-91804726D01*
X160540824Y-91804559D01*
X160277815Y-91696563D01*
X160271463Y-91690251D01*
X160271436Y-91690184D01*
X160163440Y-91427175D01*
X160163467Y-91418220D01*
X160169326Y-91412124D01*
X160620134Y-91202475D01*
X160629079Y-91202095D01*
X160633339Y-91204812D01*
G37*
%TD.AperFunction*%
%TD*%
%TA.AperFunction,Conductor*%
%TO.N,Net-(IC3-LX)*%
G36*
X155239336Y-84342263D02*
G01*
X155240323Y-84343363D01*
X155822452Y-85081508D01*
X155824884Y-85090126D01*
X155820510Y-85097940D01*
X155820499Y-85097949D01*
X155240969Y-85553845D01*
X155232348Y-85556266D01*
X155224806Y-85552209D01*
X154840175Y-85097949D01*
X154679466Y-84908147D01*
X154676736Y-84899620D01*
X154680122Y-84892316D01*
X154813930Y-84758509D01*
X155222794Y-84342406D01*
X155231033Y-84338908D01*
X155239336Y-84342263D01*
G37*
%TD.AperFunction*%
%TD*%
%TA.AperFunction,Conductor*%
%TO.N,GND*%
G36*
X132540620Y-85122898D02*
G01*
X132547388Y-85128760D01*
X132548029Y-85137691D01*
X132542166Y-85144460D01*
X132540619Y-85145101D01*
X132126696Y-85282770D01*
X132119304Y-85282768D01*
X131981000Y-85236666D01*
X131974235Y-85230798D01*
X131973000Y-85225566D01*
X131973000Y-85042433D01*
X131976427Y-85034160D01*
X131980998Y-85031333D01*
X132119307Y-84985230D01*
X132126695Y-84985229D01*
X132540620Y-85122898D01*
G37*
%TD.AperFunction*%
%TD*%
%TA.AperFunction,Conductor*%
%TO.N,DISP_DC*%
G36*
X145463064Y-105880988D02*
G01*
X145470026Y-105884341D01*
X145601232Y-106015547D01*
X145604659Y-106023820D01*
X145602177Y-106031025D01*
X145250379Y-106481115D01*
X145242584Y-106485523D01*
X145235565Y-106484185D01*
X144790696Y-106241916D01*
X144785070Y-106234950D01*
X144786017Y-106226045D01*
X144786646Y-106225019D01*
X145051024Y-105840778D01*
X145058536Y-105835906D01*
X145061966Y-105835785D01*
X145463064Y-105880988D01*
G37*
%TD.AperFunction*%
%TD*%
%TA.AperFunction,Conductor*%
%TO.N,Net-(Q1-D1)*%
G36*
X155020246Y-75453301D02*
G01*
X155020301Y-75453356D01*
X155156922Y-75590888D01*
X155160321Y-75599173D01*
X155159721Y-75602834D01*
X155114667Y-75738000D01*
X155108799Y-75744765D01*
X155103567Y-75746000D01*
X154920433Y-75746000D01*
X154912160Y-75742573D01*
X154909333Y-75738000D01*
X154864278Y-75602834D01*
X154864913Y-75593902D01*
X154867074Y-75590892D01*
X155003699Y-75453355D01*
X155011961Y-75449902D01*
X155020246Y-75453301D01*
G37*
%TD.AperFunction*%
%TD*%
%TA.AperFunction,Conductor*%
%TO.N,DISP_SPI_MISO*%
G36*
X149628011Y-100707427D02*
G01*
X149629473Y-100709210D01*
X149822756Y-100999135D01*
X149824494Y-101007920D01*
X149824055Y-101009515D01*
X149537034Y-101823700D01*
X149531052Y-101830363D01*
X149522110Y-101830844D01*
X149515447Y-101824862D01*
X149514966Y-101823700D01*
X149227944Y-101009515D01*
X149228425Y-101000573D01*
X149229243Y-100999135D01*
X149422527Y-100709210D01*
X149429967Y-100704227D01*
X149432262Y-100704000D01*
X149619738Y-100704000D01*
X149628011Y-100707427D01*
G37*
%TD.AperFunction*%
%TD*%
%TA.AperFunction,Conductor*%
%TO.N,GND*%
G36*
X133126900Y-91053549D02*
G01*
X133129228Y-91056871D01*
X133368004Y-91568148D01*
X133368400Y-91577094D01*
X133362354Y-91583700D01*
X133361914Y-91583895D01*
X133101206Y-91692827D01*
X133092251Y-91692854D01*
X133092204Y-91692835D01*
X132841504Y-91588617D01*
X132835180Y-91582277D01*
X132834449Y-91575925D01*
X132842150Y-91528955D01*
X132841967Y-91525585D01*
X132842819Y-91520529D01*
X132979852Y-91185338D01*
X132982405Y-91181498D01*
X133110355Y-91053548D01*
X133118627Y-91050122D01*
X133126900Y-91053549D01*
G37*
%TD.AperFunction*%
%TD*%
%TA.AperFunction,Conductor*%
%TO.N,Net-(Q1-D1)*%
G36*
X152355930Y-76768747D02*
G01*
X152357209Y-76773550D01*
X152357414Y-76777988D01*
X152357416Y-76777994D01*
X152365474Y-76796245D01*
X152366272Y-76798820D01*
X152369939Y-76818433D01*
X152388313Y-76848111D01*
X152388691Y-76848828D01*
X152402794Y-76880765D01*
X152402795Y-76880767D01*
X152416903Y-76894874D01*
X152418574Y-76896983D01*
X152429081Y-76913952D01*
X152429082Y-76913953D01*
X152438207Y-76920844D01*
X152441567Y-76924841D01*
X152668617Y-77367485D01*
X152669907Y-77372825D01*
X152669907Y-77556002D01*
X152666480Y-77564275D01*
X152658207Y-77567702D01*
X152656131Y-77567516D01*
X151942277Y-77438817D01*
X151934743Y-77433977D01*
X151932665Y-77426768D01*
X151953689Y-76968772D01*
X151957492Y-76960666D01*
X151960029Y-76958903D01*
X152340179Y-76763683D01*
X152349102Y-76762953D01*
X152355930Y-76768747D01*
G37*
%TD.AperFunction*%
%TD*%
%TA.AperFunction,Conductor*%
%TO.N,VBUS*%
G36*
X140336273Y-77297827D02*
G01*
X141114942Y-77581404D01*
X141121543Y-77587455D01*
X141121932Y-77596402D01*
X141115881Y-77603003D01*
X141112483Y-77603996D01*
X140189590Y-77726910D01*
X140180936Y-77724605D01*
X140179934Y-77723744D01*
X139909755Y-77463847D01*
X139906168Y-77455642D01*
X139909434Y-77447304D01*
X139909540Y-77447196D01*
X140039434Y-77317301D01*
X140047016Y-77313895D01*
X140331583Y-77297142D01*
X140336273Y-77297827D01*
G37*
%TD.AperFunction*%
%TD*%
%TA.AperFunction,Conductor*%
%TO.N,+3V3*%
G36*
X162227174Y-83525939D02*
G01*
X162390804Y-83593129D01*
X162490184Y-83633936D01*
X162496536Y-83640248D01*
X162496563Y-83640315D01*
X162604559Y-83903324D01*
X162604532Y-83912279D01*
X162598670Y-83918377D01*
X162147867Y-84128023D01*
X162138920Y-84128404D01*
X162134660Y-84125687D01*
X162004812Y-83995839D01*
X162001385Y-83987566D01*
X162002474Y-83982636D01*
X162212124Y-83531827D01*
X162218718Y-83525773D01*
X162227174Y-83525939D01*
G37*
%TD.AperFunction*%
%TD*%
%TA.AperFunction,Conductor*%
%TO.N,+3V3*%
G36*
X152324903Y-101733891D02*
G01*
X152330859Y-101739455D01*
X152388722Y-101855181D01*
X152605071Y-102287878D01*
X152605706Y-102296810D01*
X152602879Y-102301383D01*
X152467421Y-102436842D01*
X152338374Y-102565888D01*
X152330101Y-102569315D01*
X152321828Y-102565888D01*
X152319295Y-102562100D01*
X152029789Y-101864134D01*
X152029785Y-101855181D01*
X152036112Y-101848847D01*
X152315948Y-101733866D01*
X152324903Y-101733891D01*
G37*
%TD.AperFunction*%
%TD*%
%TA.AperFunction,Conductor*%
%TO.N,GND*%
G36*
X142394956Y-69583909D02*
G01*
X142401278Y-69590251D01*
X142401506Y-69598575D01*
X142397232Y-69610789D01*
X142377435Y-69786496D01*
X142377435Y-69786503D01*
X142397233Y-69962214D01*
X142397233Y-69962215D01*
X142455634Y-70129119D01*
X142455635Y-70129121D01*
X142455636Y-70129123D01*
X142549715Y-70278848D01*
X142549718Y-70278852D01*
X142674747Y-70403881D01*
X142674749Y-70403882D01*
X142674752Y-70403885D01*
X142730825Y-70439118D01*
X142760705Y-70457893D01*
X142765471Y-70463790D01*
X142791437Y-70534964D01*
X142791054Y-70543911D01*
X142788719Y-70547247D01*
X142657847Y-70678119D01*
X142649574Y-70681546D01*
X142645564Y-70680837D01*
X142574390Y-70654871D01*
X142568493Y-70650105D01*
X142522033Y-70576165D01*
X142514485Y-70564152D01*
X142514482Y-70564149D01*
X142514481Y-70564147D01*
X142389452Y-70439118D01*
X142389449Y-70439116D01*
X142389448Y-70439115D01*
X142239723Y-70345036D01*
X142239721Y-70345035D01*
X142239719Y-70345034D01*
X142072814Y-70286633D01*
X141897104Y-70266835D01*
X141897096Y-70266835D01*
X141721389Y-70286632D01*
X141721383Y-70286633D01*
X141721383Y-70286634D01*
X141709174Y-70290905D01*
X141700234Y-70290403D01*
X141694267Y-70283726D01*
X141694494Y-70275403D01*
X141894537Y-69790292D01*
X141900858Y-69783951D01*
X142386003Y-69583895D01*
X142394956Y-69583909D01*
G37*
%TD.AperFunction*%
%TD*%
%TA.AperFunction,Conductor*%
%TO.N,VBUS*%
G36*
X132298689Y-86542433D02*
G01*
X132540619Y-86622898D01*
X132547388Y-86628761D01*
X132548029Y-86637692D01*
X132542166Y-86644461D01*
X132540619Y-86645102D01*
X132126696Y-86782770D01*
X132119304Y-86782768D01*
X131981000Y-86736666D01*
X131974235Y-86730798D01*
X131973000Y-86725566D01*
X131973000Y-86542433D01*
X131976427Y-86534160D01*
X131980998Y-86531333D01*
X132119307Y-86485230D01*
X132126695Y-86485229D01*
X132298689Y-86542433D01*
G37*
%TD.AperFunction*%
%TD*%
%TA.AperFunction,Conductor*%
%TO.N,GND*%
G36*
X151484691Y-74187427D02*
G01*
X151487097Y-74190920D01*
X151841032Y-74981694D01*
X151841284Y-74990645D01*
X151835133Y-74997153D01*
X151834850Y-74997275D01*
X151388497Y-75183127D01*
X151379543Y-75183144D01*
X151379503Y-75183127D01*
X150933149Y-74997275D01*
X150926828Y-74990931D01*
X150926845Y-74981977D01*
X150926967Y-74981694D01*
X151280903Y-74190920D01*
X151287411Y-74184769D01*
X151291582Y-74184000D01*
X151476418Y-74184000D01*
X151484691Y-74187427D01*
G37*
%TD.AperFunction*%
%TD*%
%TA.AperFunction,Conductor*%
%TO.N,/TP_RST*%
G36*
X137380056Y-106147979D02*
G01*
X137384435Y-106153578D01*
X137628406Y-106811558D01*
X137628069Y-106820507D01*
X137625709Y-106823899D01*
X137495221Y-106954387D01*
X137486948Y-106957814D01*
X137482293Y-106956848D01*
X137089283Y-106786372D01*
X136750849Y-106639569D01*
X136744623Y-106633133D01*
X136744685Y-106624383D01*
X136902879Y-106240154D01*
X136909197Y-106233810D01*
X136911517Y-106233115D01*
X137371292Y-106146150D01*
X137380056Y-106147979D01*
G37*
%TD.AperFunction*%
%TD*%
%TA.AperFunction,Conductor*%
%TO.N,VBUS*%
G36*
X135239542Y-76213258D02*
G01*
X136200215Y-76325187D01*
X136208036Y-76329548D01*
X136210519Y-76335813D01*
X136234286Y-76614347D01*
X136231575Y-76622882D01*
X136223623Y-76627000D01*
X136222667Y-76627042D01*
X135097447Y-76630825D01*
X135089163Y-76627426D01*
X134959520Y-76497783D01*
X134956093Y-76489510D01*
X134959520Y-76481237D01*
X135230010Y-76216517D01*
X135238318Y-76213181D01*
X135239542Y-76213258D01*
G37*
%TD.AperFunction*%
%TD*%
%TA.AperFunction,Conductor*%
%TO.N,Net-(J2-CC1)*%
G36*
X133026692Y-86985230D02*
G01*
X133165000Y-87031333D01*
X133171765Y-87037201D01*
X133173000Y-87042433D01*
X133173000Y-87225566D01*
X133169573Y-87233839D01*
X133165000Y-87236666D01*
X133026695Y-87282768D01*
X133019303Y-87282770D01*
X132605380Y-87145102D01*
X132598611Y-87139239D01*
X132597970Y-87130308D01*
X132603833Y-87123539D01*
X132605380Y-87122898D01*
X133019304Y-86985229D01*
X133026692Y-86985230D01*
G37*
%TD.AperFunction*%
%TD*%
%TA.AperFunction,Conductor*%
%TO.N,GND*%
G36*
X134633139Y-78695685D02*
G01*
X135178805Y-78765690D01*
X135186575Y-78770142D01*
X135189016Y-78777295D01*
X135189016Y-78960755D01*
X135185589Y-78969028D01*
X135183829Y-78970475D01*
X134840100Y-79200792D01*
X134831319Y-79202550D01*
X134825333Y-79199365D01*
X134622462Y-78997446D01*
X134619016Y-78989181D01*
X134619016Y-78989114D01*
X134619090Y-78967000D01*
X134619955Y-78707250D01*
X134623409Y-78698990D01*
X134631694Y-78695591D01*
X134633139Y-78695685D01*
G37*
%TD.AperFunction*%
%TD*%
%TA.AperFunction,Conductor*%
%TO.N,+BATT*%
G36*
X143966022Y-74726845D02*
G01*
X143966305Y-74726967D01*
X144757081Y-75080903D01*
X144763231Y-75087410D01*
X144764000Y-75091581D01*
X144764000Y-75276418D01*
X144760573Y-75284691D01*
X144757080Y-75287097D01*
X143966305Y-75641032D01*
X143957354Y-75641284D01*
X143950846Y-75635133D01*
X143950724Y-75634850D01*
X143805927Y-75287097D01*
X143764871Y-75188495D01*
X143764855Y-75179544D01*
X143950725Y-74733147D01*
X143957068Y-74726828D01*
X143966022Y-74726845D01*
G37*
%TD.AperFunction*%
%TD*%
%TA.AperFunction,Conductor*%
%TO.N,BAT_MON*%
G36*
X155010902Y-71888240D02*
G01*
X155381029Y-72227355D01*
X155384814Y-72235471D01*
X155383403Y-72241573D01*
X155106323Y-72750891D01*
X155099359Y-72756521D01*
X155096045Y-72757000D01*
X154909955Y-72757000D01*
X154901682Y-72753573D01*
X154899677Y-72750891D01*
X154622596Y-72241573D01*
X154621653Y-72232668D01*
X154624968Y-72227357D01*
X154995097Y-71888240D01*
X155003511Y-71885179D01*
X155010902Y-71888240D01*
G37*
%TD.AperFunction*%
%TD*%
%TA.AperFunction,Conductor*%
%TO.N,+BATT*%
G36*
X150820117Y-83560927D02*
G01*
X151368543Y-83835139D01*
X151374411Y-83841904D01*
X151374133Y-83850051D01*
X151257879Y-84132985D01*
X151251565Y-84139335D01*
X151246372Y-84140218D01*
X150812015Y-84114734D01*
X150803956Y-84110828D01*
X150801557Y-84106619D01*
X150673328Y-83705369D01*
X150674074Y-83696447D01*
X150676197Y-83693539D01*
X150806617Y-83563119D01*
X150814889Y-83559693D01*
X150820117Y-83560927D01*
G37*
%TD.AperFunction*%
%TD*%
%TA.AperFunction,Conductor*%
%TO.N,/TP_INT*%
G36*
X139019221Y-103865612D02*
G01*
X139149709Y-103996100D01*
X139153136Y-104004373D01*
X139152406Y-104008441D01*
X138908435Y-104666421D01*
X138902346Y-104672986D01*
X138895291Y-104673849D01*
X138435523Y-104586885D01*
X138428030Y-104581980D01*
X138426880Y-104579848D01*
X138268686Y-104195616D01*
X138268705Y-104186664D01*
X138274847Y-104180431D01*
X139006295Y-103863150D01*
X139015246Y-103863003D01*
X139019221Y-103865612D01*
G37*
%TD.AperFunction*%
%TD*%
%TA.AperFunction,Conductor*%
%TO.N,+3V3*%
G36*
X153008090Y-103035427D02*
G01*
X153010807Y-103039687D01*
X153181330Y-103506694D01*
X153180949Y-103515641D01*
X153174851Y-103521503D01*
X152912511Y-103631115D01*
X152903556Y-103631142D01*
X152903489Y-103631115D01*
X152641148Y-103521503D01*
X152634836Y-103515151D01*
X152634669Y-103506697D01*
X152805193Y-103039686D01*
X152811249Y-103033091D01*
X152816183Y-103032000D01*
X152999817Y-103032000D01*
X153008090Y-103035427D01*
G37*
%TD.AperFunction*%
%TD*%
%TA.AperFunction,Conductor*%
%TO.N,+BATT*%
G36*
X155012355Y-76448803D02*
G01*
X155016145Y-76453728D01*
X155070642Y-76587437D01*
X155070591Y-76596392D01*
X155066607Y-76601374D01*
X154834709Y-76767015D01*
X154825986Y-76769035D01*
X154819636Y-76765767D01*
X154691353Y-76637484D01*
X154687926Y-76629211D01*
X154689301Y-76623708D01*
X154763198Y-76485121D01*
X154770113Y-76479435D01*
X154771890Y-76479042D01*
X155003686Y-76446557D01*
X155012355Y-76448803D01*
G37*
%TD.AperFunction*%
%TD*%
%TA.AperFunction,Conductor*%
%TO.N,BAT_MON*%
G36*
X151393513Y-98989727D02*
G01*
X151395376Y-98992156D01*
X151654525Y-99441679D01*
X151655688Y-99450558D01*
X151650233Y-99457659D01*
X151648900Y-99458319D01*
X151386182Y-99568088D01*
X151381632Y-99568992D01*
X151098024Y-99568046D01*
X151089762Y-99564592D01*
X151086363Y-99556307D01*
X151086560Y-99554210D01*
X151190224Y-98995863D01*
X151195103Y-98988356D01*
X151201727Y-98986300D01*
X151385240Y-98986300D01*
X151393513Y-98989727D01*
G37*
%TD.AperFunction*%
%TD*%
%TA.AperFunction,Conductor*%
%TO.N,+BATT*%
G36*
X145880313Y-75081193D02*
G01*
X145886909Y-75087249D01*
X145888000Y-75092183D01*
X145888000Y-75275816D01*
X145884573Y-75284089D01*
X145880313Y-75286806D01*
X145413305Y-75457330D01*
X145404358Y-75456949D01*
X145398496Y-75450851D01*
X145288883Y-75188509D01*
X145288857Y-75179556D01*
X145288862Y-75179542D01*
X145398496Y-74917147D01*
X145404848Y-74910836D01*
X145413302Y-74910669D01*
X145880313Y-75081193D01*
G37*
%TD.AperFunction*%
%TD*%
%TA.AperFunction,Conductor*%
%TO.N,BAT_MON*%
G36*
X151372828Y-92854119D02*
G01*
X151633490Y-92961148D01*
X151639839Y-92967457D01*
X151639860Y-92967506D01*
X151748644Y-93231082D01*
X151748633Y-93240037D01*
X151743041Y-93246021D01*
X151394462Y-93419458D01*
X151389250Y-93420683D01*
X151207657Y-93420683D01*
X151199384Y-93417256D01*
X151195957Y-93408983D01*
X151196436Y-93405668D01*
X151357163Y-92861627D01*
X151362794Y-92854664D01*
X151371699Y-92853721D01*
X151372828Y-92854119D01*
G37*
%TD.AperFunction*%
%TD*%
%TA.AperFunction,Conductor*%
%TO.N,GND*%
G36*
X150703335Y-72736704D02*
G01*
X150709569Y-72742848D01*
X151026848Y-73474292D01*
X151026996Y-73483246D01*
X151024387Y-73487221D01*
X150893899Y-73617709D01*
X150885626Y-73621136D01*
X150881558Y-73620406D01*
X150223579Y-73376435D01*
X150217014Y-73370346D01*
X150216151Y-73363291D01*
X150303114Y-72903521D01*
X150308019Y-72896030D01*
X150310147Y-72894882D01*
X150694383Y-72736685D01*
X150703335Y-72736704D01*
G37*
%TD.AperFunction*%
%TD*%
%TA.AperFunction,Conductor*%
%TO.N,GND*%
G36*
X128859221Y-95863612D02*
G01*
X128989709Y-95994100D01*
X128993136Y-96002373D01*
X128992406Y-96006441D01*
X128748435Y-96664421D01*
X128742346Y-96670986D01*
X128735291Y-96671849D01*
X128275523Y-96584885D01*
X128268030Y-96579980D01*
X128266880Y-96577848D01*
X128108686Y-96193616D01*
X128108705Y-96184664D01*
X128114847Y-96178431D01*
X128846295Y-95861150D01*
X128855246Y-95861003D01*
X128859221Y-95863612D01*
G37*
%TD.AperFunction*%
%TD*%
%TA.AperFunction,Conductor*%
%TO.N,Net-(IC3-LX)*%
G36*
X154495985Y-84165265D02*
G01*
X154504043Y-84169171D01*
X154506444Y-84173383D01*
X154634671Y-84574628D01*
X154633925Y-84583552D01*
X154631799Y-84586463D01*
X154501383Y-84716879D01*
X154493110Y-84720306D01*
X154487879Y-84719071D01*
X153939455Y-84444859D01*
X153933588Y-84438095D01*
X153933866Y-84429948D01*
X154050120Y-84147013D01*
X154056434Y-84140664D01*
X154061622Y-84139781D01*
X154495985Y-84165265D01*
G37*
%TD.AperFunction*%
%TD*%
%TA.AperFunction,Conductor*%
%TO.N,+3V3*%
G36*
X154496210Y-86171725D02*
G01*
X154503149Y-86177385D01*
X154504523Y-86182177D01*
X154531196Y-86595238D01*
X154528309Y-86603715D01*
X154520274Y-86607668D01*
X154519520Y-86607692D01*
X154335291Y-86607692D01*
X154329191Y-86605976D01*
X153903251Y-86345747D01*
X153897978Y-86338510D01*
X153899021Y-86330268D01*
X154049495Y-86047465D01*
X154056405Y-86041773D01*
X154063186Y-86041757D01*
X154496210Y-86171725D01*
G37*
%TD.AperFunction*%
%TD*%
%TA.AperFunction,Conductor*%
%TO.N,Net-(U1-TXD0)*%
G36*
X136165779Y-86249467D02*
G01*
X136171877Y-86255329D01*
X136381523Y-86706132D01*
X136381904Y-86715079D01*
X136379187Y-86719339D01*
X136249339Y-86849187D01*
X136241066Y-86852614D01*
X136236132Y-86851523D01*
X135942736Y-86715079D01*
X135785328Y-86641876D01*
X135779273Y-86635281D01*
X135779439Y-86626825D01*
X135887436Y-86363814D01*
X135893746Y-86357464D01*
X136156825Y-86249440D01*
X136165779Y-86249467D01*
G37*
%TD.AperFunction*%
%TD*%
%TA.AperFunction,Conductor*%
%TO.N,DISP_SPI_SCLK*%
G36*
X147299977Y-98902760D02*
G01*
X147332025Y-98916151D01*
X147338337Y-98922503D01*
X147338310Y-98931458D01*
X147338163Y-98931793D01*
X147129119Y-99391190D01*
X147122574Y-99397301D01*
X147118470Y-99398044D01*
X146934811Y-99398044D01*
X146926538Y-99394617D01*
X146923566Y-99389576D01*
X146791994Y-98931793D01*
X146791713Y-98930815D01*
X146792721Y-98921919D01*
X146798446Y-98916789D01*
X147061490Y-98806883D01*
X147070444Y-98806857D01*
X147299977Y-98902760D01*
G37*
%TD.AperFunction*%
%TD*%
%TA.AperFunction,Conductor*%
%TO.N,+3V3*%
G36*
X154053982Y-86042471D02*
G01*
X154057712Y-86047011D01*
X154188659Y-86329578D01*
X154189028Y-86338525D01*
X154183157Y-86345020D01*
X153706422Y-86576691D01*
X153701308Y-86577868D01*
X153518464Y-86577868D01*
X153510191Y-86574441D01*
X153506764Y-86566168D01*
X153507022Y-86563723D01*
X153553750Y-86345020D01*
X153602320Y-86117693D01*
X153607400Y-86110320D01*
X153611939Y-86108582D01*
X154045279Y-86040372D01*
X154053982Y-86042471D01*
G37*
%TD.AperFunction*%
%TD*%
%TA.AperFunction,Conductor*%
%TO.N,/JTAG_TMS*%
G36*
X152251339Y-96538812D02*
G01*
X152381187Y-96668660D01*
X152384614Y-96676933D01*
X152383523Y-96681867D01*
X152173877Y-97132670D01*
X152167281Y-97138726D01*
X152158824Y-97138559D01*
X151895815Y-97030563D01*
X151889463Y-97024251D01*
X151889436Y-97024184D01*
X151781440Y-96761175D01*
X151781467Y-96752220D01*
X151787326Y-96746124D01*
X152238134Y-96536475D01*
X152247079Y-96536095D01*
X152251339Y-96538812D01*
G37*
%TD.AperFunction*%
%TD*%
%TA.AperFunction,Conductor*%
%TO.N,GND*%
G36*
X149360067Y-85284772D02*
G01*
X149908202Y-85752018D01*
X149912275Y-85759993D01*
X149909516Y-85768512D01*
X149909136Y-85768937D01*
X149544333Y-86156911D01*
X149411424Y-86289819D01*
X149403151Y-86293246D01*
X149394878Y-86289819D01*
X149394667Y-86289602D01*
X148918934Y-85785746D01*
X148915746Y-85777378D01*
X148918648Y-85769996D01*
X149343686Y-85285955D01*
X149351719Y-85282001D01*
X149360067Y-85284772D01*
G37*
%TD.AperFunction*%
%TD*%
%TA.AperFunction,Conductor*%
%TO.N,GND*%
G36*
X152299414Y-86893267D02*
G01*
X152302841Y-86901540D01*
X152302794Y-86902586D01*
X152205207Y-87990077D01*
X152201055Y-87998010D01*
X152192508Y-88000684D01*
X152190855Y-88000415D01*
X151710791Y-87886610D01*
X151703532Y-87881368D01*
X151702191Y-87878262D01*
X151511747Y-87168592D01*
X151512912Y-87159717D01*
X151518222Y-87154904D01*
X152075773Y-86902586D01*
X152101638Y-86890881D01*
X152106462Y-86889840D01*
X152291141Y-86889840D01*
X152299414Y-86893267D01*
G37*
%TD.AperFunction*%
%TD*%
%TA.AperFunction,Conductor*%
%TO.N,VBUS*%
G36*
X134979339Y-76472812D02*
G01*
X135109187Y-76602660D01*
X135112614Y-76610933D01*
X135111523Y-76615867D01*
X134901877Y-77066670D01*
X134895281Y-77072726D01*
X134886824Y-77072559D01*
X134623815Y-76964563D01*
X134617463Y-76958251D01*
X134617436Y-76958184D01*
X134509440Y-76695175D01*
X134509467Y-76686220D01*
X134515326Y-76680124D01*
X134966134Y-76470475D01*
X134975079Y-76470095D01*
X134979339Y-76472812D01*
G37*
%TD.AperFunction*%
%TD*%
%TA.AperFunction,Conductor*%
%TO.N,GND*%
G36*
X138628902Y-72904240D02*
G01*
X138999029Y-73243355D01*
X139002814Y-73251471D01*
X139001403Y-73257573D01*
X138724323Y-73766891D01*
X138717359Y-73772521D01*
X138714045Y-73773000D01*
X138527955Y-73773000D01*
X138519682Y-73769573D01*
X138517677Y-73766891D01*
X138240596Y-73257573D01*
X138239653Y-73248668D01*
X138242968Y-73243357D01*
X138613097Y-72904240D01*
X138621511Y-72901179D01*
X138628902Y-72904240D01*
G37*
%TD.AperFunction*%
%TD*%
%TA.AperFunction,Conductor*%
%TO.N,I2C_SDA*%
G36*
X141206770Y-100728507D02*
G01*
X141336154Y-100857891D01*
X141339581Y-100866164D01*
X141339230Y-100869008D01*
X141078751Y-101908621D01*
X141073416Y-101915813D01*
X141064934Y-101917214D01*
X140785270Y-101856860D01*
X140777906Y-101851765D01*
X140776072Y-101844530D01*
X140840054Y-101009116D01*
X140844102Y-101001131D01*
X140844444Y-101000849D01*
X141191258Y-100727589D01*
X141199875Y-100725161D01*
X141206770Y-100728507D01*
G37*
%TD.AperFunction*%
%TD*%
%TA.AperFunction,Conductor*%
%TO.N,GND*%
G36*
X133419785Y-73249172D02*
G01*
X134061187Y-73622615D01*
X134066612Y-73629739D01*
X134067000Y-73632726D01*
X134067000Y-73819273D01*
X134063573Y-73827546D01*
X134061187Y-73829384D01*
X133419788Y-74202826D01*
X133410914Y-74204027D01*
X133406369Y-74201668D01*
X132851641Y-73734953D01*
X132847516Y-73727004D01*
X132850220Y-73718468D01*
X132851641Y-73717047D01*
X133406371Y-73250330D01*
X133414905Y-73247627D01*
X133419785Y-73249172D01*
G37*
%TD.AperFunction*%
%TD*%
%TA.AperFunction,Conductor*%
%TO.N,GND*%
G36*
X150588083Y-74218461D02*
G01*
X150588365Y-74218756D01*
X150935556Y-74593528D01*
X150938664Y-74601926D01*
X150935246Y-74609752D01*
X150805455Y-74739543D01*
X150797182Y-74742970D01*
X150796611Y-74742956D01*
X150379102Y-74722542D01*
X150371006Y-74718715D01*
X150367973Y-74710885D01*
X150367304Y-74426176D01*
X150370710Y-74417898D01*
X150571537Y-74218405D01*
X150579821Y-74215007D01*
X150588083Y-74218461D01*
G37*
%TD.AperFunction*%
%TD*%
%TA.AperFunction,Conductor*%
%TO.N,+3V3*%
G36*
X147514511Y-69567598D02*
G01*
X147520833Y-69573940D01*
X147521008Y-69574390D01*
X147871437Y-70534964D01*
X147871053Y-70543911D01*
X147868719Y-70547247D01*
X147737847Y-70678119D01*
X147729574Y-70681546D01*
X147725564Y-70680837D01*
X147654390Y-70654871D01*
X147648493Y-70650105D01*
X147612099Y-70592185D01*
X147594485Y-70564152D01*
X147594482Y-70564149D01*
X147594481Y-70564147D01*
X147469452Y-70439118D01*
X147469449Y-70439116D01*
X147469448Y-70439115D01*
X147319723Y-70345036D01*
X147319721Y-70345035D01*
X147319719Y-70345034D01*
X147152814Y-70286633D01*
X146977104Y-70266835D01*
X146977096Y-70266835D01*
X146801389Y-70286632D01*
X146801383Y-70286633D01*
X146801383Y-70286634D01*
X146789174Y-70290905D01*
X146780234Y-70290403D01*
X146774267Y-70283726D01*
X146774494Y-70275403D01*
X146974537Y-69790292D01*
X146980858Y-69783951D01*
X147505558Y-69567584D01*
X147514511Y-69567598D01*
G37*
%TD.AperFunction*%
%TD*%
%TA.AperFunction,Conductor*%
%TO.N,Net-(J2-CC1)*%
G36*
X127335221Y-94213612D02*
G01*
X127465709Y-94344100D01*
X127469136Y-94352373D01*
X127468406Y-94356441D01*
X127224435Y-95014421D01*
X127218346Y-95020986D01*
X127211291Y-95021849D01*
X126751523Y-94934885D01*
X126744030Y-94929980D01*
X126742880Y-94927848D01*
X126584686Y-94543616D01*
X126584705Y-94534664D01*
X126590847Y-94528431D01*
X127322295Y-94211150D01*
X127331246Y-94211003D01*
X127335221Y-94213612D01*
G37*
%TD.AperFunction*%
%TD*%
%TA.AperFunction,Conductor*%
%TO.N,Net-(J1-Pad13)*%
G36*
X137008030Y-103788427D02*
G01*
X137009476Y-103790186D01*
X137300300Y-104224101D01*
X137302059Y-104232881D01*
X137298328Y-104239383D01*
X136913747Y-104579155D01*
X136905278Y-104582065D01*
X136898253Y-104579155D01*
X136513671Y-104239383D01*
X136509740Y-104231337D01*
X136511698Y-104224104D01*
X136802524Y-103790185D01*
X136809977Y-103785222D01*
X136812243Y-103785000D01*
X136999757Y-103785000D01*
X137008030Y-103788427D01*
G37*
%TD.AperFunction*%
%TD*%
%TA.AperFunction,Conductor*%
%TO.N,CHG*%
G36*
X137260090Y-84239427D02*
G01*
X137262807Y-84243687D01*
X137433330Y-84710694D01*
X137432949Y-84719641D01*
X137426851Y-84725503D01*
X137164511Y-84835115D01*
X137155556Y-84835142D01*
X137155489Y-84835115D01*
X136893148Y-84725503D01*
X136886836Y-84719151D01*
X136886669Y-84710697D01*
X137057193Y-84243686D01*
X137063249Y-84237091D01*
X137068183Y-84236000D01*
X137251817Y-84236000D01*
X137260090Y-84239427D01*
G37*
%TD.AperFunction*%
%TD*%
%TA.AperFunction,Conductor*%
%TO.N,GND*%
G36*
X132918978Y-90777290D02*
G01*
X132925304Y-90783628D01*
X132925295Y-90792583D01*
X132922763Y-90796368D01*
X132899776Y-90819355D01*
X132765363Y-90953767D01*
X132757090Y-90957194D01*
X132750290Y-90955015D01*
X132518392Y-90789374D01*
X132513651Y-90781776D01*
X132514356Y-90775440D01*
X132567847Y-90644199D01*
X132574143Y-90637832D01*
X132583098Y-90637781D01*
X132918978Y-90777290D01*
G37*
%TD.AperFunction*%
%TD*%
%TA.AperFunction,Conductor*%
%TO.N,Net-(J1-Pad8)*%
G36*
X143286274Y-101883928D02*
G01*
X143286814Y-101885261D01*
X143559407Y-102698479D01*
X143558788Y-102707413D01*
X143557970Y-102708805D01*
X143359887Y-102998320D01*
X143359485Y-102998907D01*
X143351985Y-103003800D01*
X143349829Y-103004000D01*
X143162625Y-103004000D01*
X143154352Y-103000573D01*
X143152592Y-102998320D01*
X142978831Y-102708718D01*
X142977513Y-102699860D01*
X142977830Y-102698808D01*
X143264687Y-101885090D01*
X143270669Y-101878427D01*
X143279611Y-101877946D01*
X143286274Y-101883928D01*
G37*
%TD.AperFunction*%
%TD*%
%TA.AperFunction,Conductor*%
%TO.N,VBUS*%
G36*
X133565755Y-75557008D02*
G01*
X133569624Y-75562951D01*
X133752455Y-76225470D01*
X133752877Y-76228582D01*
X133752877Y-76411600D01*
X133749450Y-76419873D01*
X133741177Y-76423300D01*
X133738041Y-76422872D01*
X132682950Y-76129317D01*
X132675898Y-76123798D01*
X132674814Y-76114909D01*
X132675003Y-76114297D01*
X132838577Y-75633126D01*
X132844484Y-75626397D01*
X132848487Y-75625251D01*
X133557182Y-75554421D01*
X133565755Y-75557008D01*
G37*
%TD.AperFunction*%
%TD*%
%TA.AperFunction,Conductor*%
%TO.N,GND*%
G36*
X144934956Y-69583909D02*
G01*
X144941278Y-69590251D01*
X144941506Y-69598575D01*
X144937232Y-69610789D01*
X144917435Y-69786496D01*
X144917435Y-69786503D01*
X144937233Y-69962214D01*
X144937233Y-69962215D01*
X144995634Y-70129119D01*
X144995635Y-70129121D01*
X144995636Y-70129123D01*
X145089715Y-70278848D01*
X145089718Y-70278852D01*
X145214747Y-70403881D01*
X145214749Y-70403882D01*
X145214752Y-70403885D01*
X145270825Y-70439118D01*
X145300705Y-70457893D01*
X145305471Y-70463790D01*
X145331437Y-70534964D01*
X145331054Y-70543911D01*
X145328719Y-70547247D01*
X145197847Y-70678119D01*
X145189574Y-70681546D01*
X145185564Y-70680837D01*
X145114390Y-70654871D01*
X145108493Y-70650105D01*
X145062033Y-70576165D01*
X145054485Y-70564152D01*
X145054482Y-70564149D01*
X145054481Y-70564147D01*
X144929452Y-70439118D01*
X144929449Y-70439116D01*
X144929448Y-70439115D01*
X144779723Y-70345036D01*
X144779721Y-70345035D01*
X144779719Y-70345034D01*
X144612814Y-70286633D01*
X144437104Y-70266835D01*
X144437096Y-70266835D01*
X144261389Y-70286632D01*
X144261383Y-70286633D01*
X144261383Y-70286634D01*
X144249174Y-70290905D01*
X144240234Y-70290403D01*
X144234267Y-70283726D01*
X144234494Y-70275403D01*
X144434537Y-69790292D01*
X144440858Y-69783951D01*
X144926003Y-69583895D01*
X144934956Y-69583909D01*
G37*
%TD.AperFunction*%
%TD*%
%TA.AperFunction,Conductor*%
%TO.N,+BATT*%
G36*
X144214850Y-75370724D02*
G01*
X144221171Y-75377068D01*
X144221154Y-75386022D01*
X144221032Y-75386305D01*
X143867097Y-76177080D01*
X143860589Y-76183231D01*
X143856418Y-76184000D01*
X143671582Y-76184000D01*
X143663309Y-76180573D01*
X143660903Y-76177080D01*
X143306967Y-75386305D01*
X143306715Y-75377354D01*
X143312866Y-75370846D01*
X143313096Y-75370746D01*
X143759504Y-75184871D01*
X143768455Y-75184855D01*
X144214850Y-75370724D01*
G37*
%TD.AperFunction*%
%TD*%
%TA.AperFunction,Conductor*%
%TO.N,+BATT*%
G36*
X146390341Y-74691427D02*
G01*
X146870825Y-75175760D01*
X146874219Y-75184047D01*
X146870825Y-75192240D01*
X146390341Y-75676572D01*
X146382082Y-75680032D01*
X146374771Y-75677503D01*
X145882435Y-75287513D01*
X145878078Y-75279690D01*
X145878000Y-75278342D01*
X145878000Y-75089657D01*
X145881427Y-75081384D01*
X145882425Y-75080494D01*
X146374773Y-74690495D01*
X146383383Y-74688045D01*
X146390341Y-74691427D01*
G37*
%TD.AperFunction*%
%TD*%
%TA.AperFunction,Conductor*%
%TO.N,VBUS*%
G36*
X133558173Y-75700523D02*
G01*
X133566039Y-75704797D01*
X133568479Y-75710205D01*
X133636956Y-76115144D01*
X133701692Y-76497959D01*
X133699693Y-76506688D01*
X133692107Y-76511446D01*
X133690156Y-76511610D01*
X133506424Y-76511610D01*
X133501776Y-76510647D01*
X132624245Y-76130740D01*
X132618014Y-76124308D01*
X132618156Y-76115355D01*
X132618220Y-76115210D01*
X132838504Y-75632657D01*
X132845056Y-75626556D01*
X132850373Y-75625883D01*
X133558173Y-75700523D01*
G37*
%TD.AperFunction*%
%TD*%
%TA.AperFunction,Conductor*%
%TO.N,GND*%
G36*
X140800446Y-78749544D02*
G01*
X141125953Y-78855878D01*
X141132753Y-78861705D01*
X141133442Y-78870633D01*
X141127615Y-78877433D01*
X141125953Y-78878122D01*
X140281061Y-79154123D01*
X140272362Y-79153547D01*
X139890634Y-78970186D01*
X139884660Y-78963515D01*
X139884000Y-78959640D01*
X139884000Y-78774359D01*
X139887427Y-78766086D01*
X139890632Y-78763814D01*
X140272362Y-78580451D01*
X140281060Y-78579876D01*
X140800446Y-78749544D01*
G37*
%TD.AperFunction*%
%TD*%
%TA.AperFunction,Conductor*%
%TO.N,DISP_SPI_MOSI*%
G36*
X148571695Y-98141478D02*
G01*
X148601599Y-98153973D01*
X148607911Y-98160325D01*
X148607884Y-98169280D01*
X148607548Y-98170011D01*
X148379236Y-98625607D01*
X148372466Y-98631468D01*
X148368776Y-98632065D01*
X148185157Y-98632065D01*
X148176884Y-98628638D01*
X148173800Y-98623177D01*
X148061247Y-98168545D01*
X148062585Y-98159690D01*
X148068092Y-98154937D01*
X148331490Y-98044883D01*
X148340444Y-98044857D01*
X148571695Y-98141478D01*
G37*
%TD.AperFunction*%
%TD*%
%TA.AperFunction,Conductor*%
%TO.N,+BATT*%
G36*
X150312902Y-76968240D02*
G01*
X150683029Y-77307355D01*
X150686814Y-77315471D01*
X150685403Y-77321573D01*
X150408323Y-77830891D01*
X150401359Y-77836521D01*
X150398045Y-77837000D01*
X150211955Y-77837000D01*
X150203682Y-77833573D01*
X150201677Y-77830891D01*
X149924596Y-77321573D01*
X149923653Y-77312668D01*
X149926968Y-77307357D01*
X150297097Y-76968240D01*
X150305511Y-76965179D01*
X150312902Y-76968240D01*
G37*
%TD.AperFunction*%
%TD*%
%TA.AperFunction,Conductor*%
%TO.N,Net-(IC2-~{MR})*%
G36*
X154509645Y-80409763D02*
G01*
X154798790Y-80602527D01*
X154803773Y-80609966D01*
X154804000Y-80612261D01*
X154804000Y-80799738D01*
X154800573Y-80808011D01*
X154798790Y-80809473D01*
X154509644Y-81002236D01*
X154500859Y-81003974D01*
X154497929Y-81002969D01*
X154090788Y-80799738D01*
X153923969Y-80716467D01*
X153918098Y-80709707D01*
X153918727Y-80700775D01*
X153923969Y-80695532D01*
X154497930Y-80409029D01*
X154506861Y-80408401D01*
X154509645Y-80409763D01*
G37*
%TD.AperFunction*%
%TD*%
%TA.AperFunction,Conductor*%
%TO.N,GND*%
G36*
X150754683Y-74408884D02*
G01*
X151564119Y-74717777D01*
X151570627Y-74723928D01*
X151570879Y-74732879D01*
X151570766Y-74733165D01*
X151386563Y-75180202D01*
X151380242Y-75186546D01*
X151380202Y-75186563D01*
X150933165Y-75370766D01*
X150924211Y-75370749D01*
X150917890Y-75364405D01*
X150917777Y-75364119D01*
X150850019Y-75186563D01*
X150608885Y-74554685D01*
X150609137Y-74545737D01*
X150611540Y-74542247D01*
X150742245Y-74411542D01*
X150750517Y-74408116D01*
X150754683Y-74408884D01*
G37*
%TD.AperFunction*%
%TD*%
%TA.AperFunction,Conductor*%
%TO.N,DISP_CS*%
G36*
X145878011Y-100707427D02*
G01*
X145879473Y-100709210D01*
X146072756Y-100999135D01*
X146074494Y-101007920D01*
X146074055Y-101009515D01*
X145787033Y-101823700D01*
X145781051Y-101830363D01*
X145772109Y-101830844D01*
X145765446Y-101824862D01*
X145764971Y-101823715D01*
X145477944Y-101009514D01*
X145478425Y-101000573D01*
X145479243Y-100999135D01*
X145672527Y-100709210D01*
X145679967Y-100704227D01*
X145682262Y-100704000D01*
X145869738Y-100704000D01*
X145878011Y-100707427D01*
G37*
%TD.AperFunction*%
%TD*%
%TA.AperFunction,Conductor*%
%TO.N,Net-(IC2-~{RESET})*%
G36*
X161593149Y-90394139D02*
G01*
X161593422Y-90394753D01*
X161831387Y-90973173D01*
X161831366Y-90982127D01*
X161825018Y-90988444D01*
X161825011Y-90988447D01*
X160637654Y-91476014D01*
X160628700Y-91475987D01*
X160624937Y-91473464D01*
X160490623Y-91339150D01*
X160488137Y-91335473D01*
X160342398Y-90994295D01*
X160342299Y-90985341D01*
X160348090Y-90979153D01*
X161577539Y-90388656D01*
X161586478Y-90388165D01*
X161593149Y-90394139D01*
G37*
%TD.AperFunction*%
%TD*%
%TA.AperFunction,Conductor*%
%TO.N,VBUS*%
G36*
X139723066Y-76850939D02*
G01*
X139728422Y-76855448D01*
X139977183Y-77245888D01*
X139978739Y-77254707D01*
X139975589Y-77260448D01*
X139845782Y-77390255D01*
X139837509Y-77393682D01*
X139834083Y-77393169D01*
X139343467Y-77242922D01*
X139336560Y-77237223D01*
X139335706Y-77228309D01*
X139336070Y-77227291D01*
X139443436Y-76965815D01*
X139449746Y-76959464D01*
X139714111Y-76850912D01*
X139723066Y-76850939D01*
G37*
%TD.AperFunction*%
%TD*%
%TA.AperFunction,Conductor*%
%TO.N,CHG*%
G36*
X141676902Y-72904240D02*
G01*
X142047029Y-73243355D01*
X142050814Y-73251471D01*
X142049403Y-73257573D01*
X141772323Y-73766891D01*
X141765359Y-73772521D01*
X141762045Y-73773000D01*
X141575955Y-73773000D01*
X141567682Y-73769573D01*
X141565677Y-73766891D01*
X141288596Y-73257573D01*
X141287653Y-73248668D01*
X141290968Y-73243357D01*
X141661097Y-72904240D01*
X141669511Y-72901179D01*
X141676902Y-72904240D01*
G37*
%TD.AperFunction*%
%TD*%
%TA.AperFunction,Conductor*%
%TO.N,DISP_RST*%
G36*
X143264627Y-106239913D02*
G01*
X143707284Y-106506424D01*
X143712604Y-106513627D01*
X143712128Y-106520753D01*
X143578624Y-106858059D01*
X143576018Y-106862026D01*
X143443701Y-106994343D01*
X143435428Y-106997770D01*
X143428138Y-106995221D01*
X142982901Y-106640531D01*
X142978565Y-106632696D01*
X142980621Y-106624649D01*
X143249023Y-106243202D01*
X143256587Y-106238409D01*
X143264627Y-106239913D01*
G37*
%TD.AperFunction*%
%TD*%
%TA.AperFunction,Conductor*%
%TO.N,+3V3*%
G36*
X143679895Y-72503698D02*
G01*
X144113814Y-72794524D01*
X144118778Y-72801977D01*
X144119000Y-72804243D01*
X144119000Y-72991756D01*
X144115573Y-73000029D01*
X144113814Y-73001475D01*
X143679897Y-73292300D01*
X143671117Y-73294059D01*
X143664615Y-73290328D01*
X143324844Y-72905747D01*
X143321934Y-72897278D01*
X143324844Y-72890253D01*
X143664616Y-72505670D01*
X143672661Y-72501740D01*
X143679895Y-72503698D01*
G37*
%TD.AperFunction*%
%TD*%
%TA.AperFunction,Conductor*%
%TO.N,GND*%
G36*
X127924644Y-96204970D02*
G01*
X128263758Y-96575096D01*
X128266820Y-96583511D01*
X128263758Y-96590904D01*
X127924644Y-96961029D01*
X127916528Y-96964814D01*
X127910426Y-96963403D01*
X127401109Y-96686323D01*
X127395479Y-96679359D01*
X127395000Y-96676045D01*
X127395000Y-96489954D01*
X127398427Y-96481681D01*
X127401106Y-96479678D01*
X127910426Y-96202595D01*
X127919331Y-96201653D01*
X127924644Y-96204970D01*
G37*
%TD.AperFunction*%
%TD*%
%TA.AperFunction,Conductor*%
%TO.N,GND*%
G36*
X154569641Y-82023050D02*
G01*
X154575503Y-82029148D01*
X154685115Y-82291489D01*
X154685142Y-82300444D01*
X154685115Y-82300511D01*
X154575503Y-82562851D01*
X154569151Y-82569163D01*
X154560694Y-82569329D01*
X154426947Y-82520493D01*
X154093687Y-82398806D01*
X154087091Y-82392750D01*
X154086000Y-82387816D01*
X154086000Y-82204183D01*
X154089427Y-82195910D01*
X154093687Y-82193193D01*
X154560697Y-82022669D01*
X154569641Y-82023050D01*
G37*
%TD.AperFunction*%
%TD*%
%TA.AperFunction,Conductor*%
%TO.N,DISP_SPI_MOSI*%
G36*
X148378011Y-100707427D02*
G01*
X148379473Y-100709210D01*
X148572756Y-100999135D01*
X148574494Y-101007920D01*
X148574055Y-101009515D01*
X148287034Y-101823700D01*
X148281052Y-101830363D01*
X148272110Y-101830844D01*
X148265447Y-101824862D01*
X148264966Y-101823700D01*
X147977944Y-101009515D01*
X147978425Y-101000573D01*
X147979243Y-100999135D01*
X148172527Y-100709210D01*
X148179967Y-100704227D01*
X148182262Y-100704000D01*
X148369738Y-100704000D01*
X148378011Y-100707427D01*
G37*
%TD.AperFunction*%
%TD*%
%TA.AperFunction,Conductor*%
%TO.N,GND*%
G36*
X132846567Y-91590582D02*
G01*
X133008154Y-91656931D01*
X133092184Y-91691436D01*
X133098536Y-91697748D01*
X133098563Y-91697815D01*
X133206881Y-91961608D01*
X133206854Y-91970563D01*
X133201809Y-91976241D01*
X132787952Y-92209839D01*
X132779063Y-92210921D01*
X132773928Y-92207923D01*
X132644066Y-92078061D01*
X132640639Y-92069788D01*
X132641345Y-92065785D01*
X132670489Y-91985888D01*
X132671787Y-91983350D01*
X132746640Y-91872951D01*
X132813101Y-91706147D01*
X132830583Y-91599509D01*
X132835301Y-91591903D01*
X132844020Y-91589860D01*
X132846567Y-91590582D01*
G37*
%TD.AperFunction*%
%TD*%
%TA.AperFunction,Conductor*%
%TO.N,+BATT*%
G36*
X144030851Y-76564496D02*
G01*
X144037163Y-76570848D01*
X144037330Y-76579305D01*
X143866807Y-77046313D01*
X143860751Y-77052909D01*
X143855817Y-77054000D01*
X143672183Y-77054000D01*
X143663910Y-77050573D01*
X143661193Y-77046313D01*
X143490669Y-76579302D01*
X143491050Y-76570358D01*
X143497147Y-76564496D01*
X143759490Y-76454883D01*
X143768444Y-76454857D01*
X144030851Y-76564496D01*
G37*
%TD.AperFunction*%
%TD*%
%TA.AperFunction,Conductor*%
%TO.N,GND*%
G36*
X151396851Y-100694496D02*
G01*
X151403163Y-100700848D01*
X151403330Y-100709305D01*
X151232807Y-101176313D01*
X151226751Y-101182909D01*
X151221817Y-101184000D01*
X151038183Y-101184000D01*
X151029910Y-101180573D01*
X151027193Y-101176313D01*
X150856669Y-100709302D01*
X150857050Y-100700358D01*
X150863147Y-100694496D01*
X151125490Y-100584883D01*
X151134444Y-100584857D01*
X151396851Y-100694496D01*
G37*
%TD.AperFunction*%
%TD*%
%TA.AperFunction,Conductor*%
%TO.N,+3V3*%
G36*
X154102265Y-87681314D02*
G01*
X154108532Y-87687529D01*
X154521017Y-88655422D01*
X154521108Y-88664376D01*
X154518527Y-88668282D01*
X154387411Y-88799398D01*
X154379138Y-88802825D01*
X154376231Y-88802458D01*
X153630455Y-88611195D01*
X153623293Y-88605821D01*
X153621666Y-88600162D01*
X153603499Y-87891341D01*
X153606713Y-87882983D01*
X153610732Y-87880226D01*
X154093311Y-87681299D01*
X154102265Y-87681314D01*
G37*
%TD.AperFunction*%
%TD*%
%TA.AperFunction,Conductor*%
%TO.N,+BATT*%
G36*
X148787630Y-82902331D02*
G01*
X149342358Y-83369047D01*
X149346483Y-83376996D01*
X149343779Y-83385532D01*
X149342358Y-83386953D01*
X148787630Y-83853668D01*
X148779094Y-83856372D01*
X148774212Y-83854826D01*
X148528045Y-83711500D01*
X148132813Y-83481384D01*
X148127388Y-83474260D01*
X148127000Y-83471273D01*
X148127000Y-83284726D01*
X148130427Y-83276453D01*
X148132810Y-83274617D01*
X148774213Y-82901172D01*
X148783085Y-82899972D01*
X148787630Y-82902331D01*
G37*
%TD.AperFunction*%
%TD*%
%TA.AperFunction,Conductor*%
%TO.N,Net-(Q1-D2)*%
G36*
X153751335Y-71720704D02*
G01*
X153757569Y-71726848D01*
X154074848Y-72458292D01*
X154074996Y-72467246D01*
X154072387Y-72471221D01*
X153941899Y-72601709D01*
X153933626Y-72605136D01*
X153929558Y-72604406D01*
X153271579Y-72360435D01*
X153265014Y-72354346D01*
X153264151Y-72347291D01*
X153351114Y-71887521D01*
X153356019Y-71880030D01*
X153358147Y-71878882D01*
X153742383Y-71720685D01*
X153751335Y-71720704D01*
G37*
%TD.AperFunction*%
%TD*%
%TA.AperFunction,Conductor*%
%TO.N,Net-(IC3-CE{slash}MODE)*%
G36*
X151254793Y-86042725D02*
G01*
X151258047Y-86047100D01*
X151379098Y-86330036D01*
X151379201Y-86338990D01*
X151373752Y-86345012D01*
X150848720Y-86618871D01*
X150839800Y-86619658D01*
X150835036Y-86616770D01*
X150704420Y-86486154D01*
X150700993Y-86477881D01*
X150701366Y-86474950D01*
X150801929Y-86087587D01*
X150807324Y-86080442D01*
X150812208Y-86078876D01*
X151246249Y-86040049D01*
X151254793Y-86042725D01*
G37*
%TD.AperFunction*%
%TD*%
%TA.AperFunction,Conductor*%
%TO.N,Net-(J1-Pad13)*%
G36*
X137034648Y-101888541D02*
G01*
X137035445Y-101890753D01*
X137237521Y-102698479D01*
X137236205Y-102707337D01*
X137235413Y-102708494D01*
X137009513Y-102999475D01*
X137001733Y-103003908D01*
X137000271Y-103004000D01*
X136814989Y-103004000D01*
X136806716Y-103000573D01*
X136803684Y-102995315D01*
X136726931Y-102707493D01*
X136727201Y-102700590D01*
X137013061Y-101889702D01*
X137019043Y-101883040D01*
X137027985Y-101882559D01*
X137034648Y-101888541D01*
G37*
%TD.AperFunction*%
%TD*%
%TA.AperFunction,Conductor*%
%TO.N,Net-(U2-SELI)*%
G36*
X137320982Y-77313895D02*
G01*
X137328566Y-77317302D01*
X137458406Y-77447142D01*
X137461833Y-77455415D01*
X137458406Y-77463688D01*
X137458244Y-77463847D01*
X137188065Y-77723745D01*
X137179727Y-77727011D01*
X137178409Y-77726911D01*
X136255516Y-77603996D01*
X136247768Y-77599507D01*
X136245463Y-77590853D01*
X136249952Y-77583105D01*
X136253052Y-77581406D01*
X137031727Y-77297827D01*
X137036415Y-77297142D01*
X137320982Y-77313895D01*
G37*
%TD.AperFunction*%
%TD*%
%TA.AperFunction,Conductor*%
%TO.N,GND*%
G36*
X151197153Y-74732866D02*
G01*
X151197275Y-74733149D01*
X151383127Y-75179503D01*
X151383144Y-75188457D01*
X151383127Y-75188497D01*
X151197275Y-75634850D01*
X151190931Y-75641171D01*
X151181977Y-75641154D01*
X151181694Y-75641032D01*
X150390920Y-75287097D01*
X150384769Y-75280589D01*
X150384000Y-75276418D01*
X150384000Y-75091581D01*
X150387427Y-75083308D01*
X150390916Y-75080904D01*
X151181694Y-74726966D01*
X151190645Y-74726715D01*
X151197153Y-74732866D01*
G37*
%TD.AperFunction*%
%TD*%
%TA.AperFunction,Conductor*%
%TO.N,BAT_MON*%
G36*
X155104318Y-72534427D02*
G01*
X155106323Y-72537109D01*
X155383403Y-73046426D01*
X155384346Y-73055331D01*
X155381029Y-73060644D01*
X155010904Y-73399758D01*
X155002489Y-73402820D01*
X154995096Y-73399758D01*
X154624970Y-73060644D01*
X154621185Y-73052528D01*
X154622596Y-73046426D01*
X154899677Y-72537109D01*
X154906641Y-72531479D01*
X154909955Y-72531000D01*
X155096045Y-72531000D01*
X155104318Y-72534427D01*
G37*
%TD.AperFunction*%
%TD*%
%TA.AperFunction,Conductor*%
%TO.N,DISP_RST*%
G36*
X143417864Y-106696475D02*
G01*
X143868671Y-106906123D01*
X143874726Y-106912718D01*
X143874559Y-106921175D01*
X143766563Y-107184184D01*
X143760251Y-107190536D01*
X143760184Y-107190563D01*
X143497175Y-107298559D01*
X143488220Y-107298532D01*
X143482123Y-107292671D01*
X143272475Y-106841865D01*
X143272095Y-106832920D01*
X143274810Y-106828662D01*
X143404661Y-106698811D01*
X143412933Y-106695385D01*
X143417864Y-106696475D01*
G37*
%TD.AperFunction*%
%TD*%
%TA.AperFunction,Conductor*%
%TO.N,+3V3*%
G36*
X153705547Y-86662427D02*
G01*
X153707385Y-86664813D01*
X154080826Y-87306211D01*
X154082027Y-87315085D01*
X154079668Y-87319630D01*
X153612953Y-87874358D01*
X153605004Y-87878483D01*
X153596468Y-87875779D01*
X153595047Y-87874358D01*
X153128331Y-87319630D01*
X153125627Y-87311094D01*
X153127171Y-87306215D01*
X153500615Y-86664812D01*
X153507739Y-86659388D01*
X153510726Y-86659000D01*
X153697274Y-86659000D01*
X153705547Y-86662427D01*
G37*
%TD.AperFunction*%
%TD*%
%TA.AperFunction,Conductor*%
%TO.N,I2C_SCL*%
G36*
X139628011Y-100707427D02*
G01*
X139629473Y-100709210D01*
X139822756Y-100999135D01*
X139824494Y-101007920D01*
X139824055Y-101009515D01*
X139537034Y-101823700D01*
X139531052Y-101830363D01*
X139522110Y-101830844D01*
X139515447Y-101824862D01*
X139514966Y-101823700D01*
X139227944Y-101009515D01*
X139228425Y-101000573D01*
X139229243Y-100999135D01*
X139422527Y-100709210D01*
X139429967Y-100704227D01*
X139432262Y-100704000D01*
X139619738Y-100704000D01*
X139628011Y-100707427D01*
G37*
%TD.AperFunction*%
%TD*%
%TA.AperFunction,Conductor*%
%TO.N,GND*%
G36*
X143948196Y-69583894D02*
G01*
X144013406Y-69610785D01*
X144433306Y-69783937D01*
X144439648Y-69790259D01*
X144439662Y-69790293D01*
X144639703Y-70275402D01*
X144639689Y-70284356D01*
X144633347Y-70290678D01*
X144625023Y-70290905D01*
X144612817Y-70286634D01*
X144612816Y-70286633D01*
X144612814Y-70286633D01*
X144437104Y-70266835D01*
X144437096Y-70266835D01*
X144261385Y-70286633D01*
X144261384Y-70286633D01*
X144094480Y-70345034D01*
X143944747Y-70439118D01*
X143819718Y-70564147D01*
X143765705Y-70650105D01*
X143759808Y-70654871D01*
X143688635Y-70680837D01*
X143679688Y-70680454D01*
X143676352Y-70678119D01*
X143545480Y-70547247D01*
X143542053Y-70538974D01*
X143542761Y-70534969D01*
X143568728Y-70463787D01*
X143573490Y-70457895D01*
X143659448Y-70403885D01*
X143784485Y-70278848D01*
X143878564Y-70129123D01*
X143936966Y-69962217D01*
X143956338Y-69790293D01*
X143956765Y-69786503D01*
X143956765Y-69786496D01*
X143936966Y-69610785D01*
X143936966Y-69610784D01*
X143932694Y-69598575D01*
X143933196Y-69589635D01*
X143939873Y-69583668D01*
X143948196Y-69583894D01*
G37*
%TD.AperFunction*%
%TD*%
%TA.AperFunction,Conductor*%
%TO.N,Net-(Q1-D2)*%
G36*
X153595132Y-76297710D02*
G01*
X153732000Y-76343333D01*
X153738765Y-76349201D01*
X153740000Y-76354433D01*
X153740000Y-76537566D01*
X153736573Y-76545839D01*
X153732000Y-76548666D01*
X153595140Y-76594286D01*
X153586208Y-76593651D01*
X153585367Y-76593186D01*
X153468072Y-76521954D01*
X153359465Y-76455999D01*
X153354173Y-76448777D01*
X153355539Y-76439927D01*
X153359464Y-76436001D01*
X153585368Y-76298812D01*
X153594217Y-76297447D01*
X153595132Y-76297710D01*
G37*
%TD.AperFunction*%
%TD*%
%TA.AperFunction,Conductor*%
%TO.N,GND*%
G36*
X164420471Y-89348443D02*
G01*
X164795243Y-89695634D01*
X164798983Y-89703770D01*
X164795875Y-89712168D01*
X164795593Y-89712463D01*
X164596149Y-89913241D01*
X164587887Y-89916695D01*
X164587821Y-89916695D01*
X164303116Y-89916026D01*
X164294850Y-89912580D01*
X164291457Y-89904897D01*
X164271043Y-89487388D01*
X164274062Y-89478958D01*
X164274436Y-89478564D01*
X164404248Y-89348752D01*
X164412520Y-89345326D01*
X164420471Y-89348443D01*
G37*
%TD.AperFunction*%
%TD*%
%TA.AperFunction,Conductor*%
%TO.N,GND*%
G36*
X138275384Y-72505671D02*
G01*
X138615155Y-72890253D01*
X138618065Y-72898722D01*
X138615155Y-72905747D01*
X138275384Y-73290328D01*
X138267338Y-73294259D01*
X138260102Y-73292300D01*
X137826186Y-73001475D01*
X137821222Y-72994022D01*
X137821000Y-72991756D01*
X137821000Y-72804243D01*
X137824427Y-72795970D01*
X137826186Y-72794524D01*
X138260104Y-72503698D01*
X138268882Y-72501940D01*
X138275384Y-72505671D01*
G37*
%TD.AperFunction*%
%TD*%
%TA.AperFunction,Conductor*%
%TO.N,Net-(IC2-~{RESET})*%
G36*
X152537641Y-77959050D02*
G01*
X152543503Y-77965148D01*
X152653115Y-78227489D01*
X152653142Y-78236444D01*
X152653115Y-78236511D01*
X152543503Y-78498851D01*
X152537151Y-78505163D01*
X152528694Y-78505329D01*
X152394947Y-78456493D01*
X152061687Y-78334806D01*
X152055091Y-78328750D01*
X152054000Y-78323816D01*
X152054000Y-78140183D01*
X152057427Y-78131910D01*
X152061687Y-78129193D01*
X152528697Y-77958669D01*
X152537641Y-77959050D01*
G37*
%TD.AperFunction*%
%TD*%
%TA.AperFunction,Conductor*%
%TO.N,GND*%
G36*
X137095637Y-78580452D02*
G01*
X137477366Y-78763813D01*
X137483340Y-78770484D01*
X137484000Y-78774359D01*
X137484000Y-78959640D01*
X137480573Y-78967913D01*
X137477366Y-78970186D01*
X137095637Y-79153547D01*
X137086938Y-79154123D01*
X136482093Y-78956538D01*
X136242045Y-78878121D01*
X136235246Y-78872295D01*
X136234557Y-78863367D01*
X136240384Y-78856567D01*
X136242044Y-78855878D01*
X137086939Y-78579876D01*
X137095637Y-78580452D01*
G37*
%TD.AperFunction*%
%TD*%
%TA.AperFunction,Conductor*%
%TO.N,BAT_MON_EN*%
G36*
X152056318Y-72026427D02*
G01*
X152058323Y-72029109D01*
X152335403Y-72538426D01*
X152336346Y-72547331D01*
X152333029Y-72552644D01*
X151962904Y-72891758D01*
X151954489Y-72894820D01*
X151947096Y-72891758D01*
X151576970Y-72552644D01*
X151573185Y-72544528D01*
X151574596Y-72538426D01*
X151851677Y-72029109D01*
X151858641Y-72023479D01*
X151861955Y-72023000D01*
X152048045Y-72023000D01*
X152056318Y-72026427D01*
G37*
%TD.AperFunction*%
%TD*%
%TA.AperFunction,Conductor*%
%TO.N,/TP_RST*%
G36*
X151922085Y-91372350D02*
G01*
X152023005Y-91413790D01*
X152185095Y-91480347D01*
X152191447Y-91486659D01*
X152191474Y-91486726D01*
X152299470Y-91749735D01*
X152299443Y-91758690D01*
X152293581Y-91764788D01*
X151842778Y-91974434D01*
X151833831Y-91974815D01*
X151829571Y-91972098D01*
X151699723Y-91842250D01*
X151696296Y-91833977D01*
X151697385Y-91829047D01*
X151716915Y-91787054D01*
X151719242Y-91783727D01*
X151765387Y-91737582D01*
X151768441Y-91735385D01*
X151773139Y-91733047D01*
X151806233Y-91696742D01*
X151806375Y-91696594D01*
X151821085Y-91681886D01*
X151823457Y-91678421D01*
X151824807Y-91676453D01*
X151825304Y-91675824D01*
X151848827Y-91650022D01*
X151856038Y-91631405D01*
X151857287Y-91629035D01*
X151868567Y-91612570D01*
X151876557Y-91578593D01*
X151876797Y-91577820D01*
X151889411Y-91545262D01*
X151889411Y-91525307D01*
X151889722Y-91522628D01*
X151894290Y-91503208D01*
X151889467Y-91468633D01*
X151889411Y-91467824D01*
X151889411Y-91418723D01*
X151890502Y-91413790D01*
X151895983Y-91402001D01*
X151907034Y-91378239D01*
X151913629Y-91372184D01*
X151922085Y-91372350D01*
G37*
%TD.AperFunction*%
%TD*%
%TA.AperFunction,Conductor*%
%TO.N,VBUS*%
G36*
X139546090Y-76365427D02*
G01*
X139548807Y-76369687D01*
X139719330Y-76836694D01*
X139718949Y-76845641D01*
X139712851Y-76851503D01*
X139450511Y-76961115D01*
X139441556Y-76961142D01*
X139441489Y-76961115D01*
X139179148Y-76851503D01*
X139172836Y-76845151D01*
X139172669Y-76836697D01*
X139343193Y-76369686D01*
X139349249Y-76363091D01*
X139354183Y-76362000D01*
X139537817Y-76362000D01*
X139546090Y-76365427D01*
G37*
%TD.AperFunction*%
%TD*%
%TA.AperFunction,Conductor*%
%TO.N,GND*%
G36*
X150810070Y-80409030D02*
G01*
X151384029Y-80695532D01*
X151389901Y-80702293D01*
X151389272Y-80711225D01*
X151384029Y-80716468D01*
X150810070Y-81002969D01*
X150801138Y-81003598D01*
X150798355Y-81002236D01*
X150509210Y-80809473D01*
X150504227Y-80802033D01*
X150504000Y-80799738D01*
X150504000Y-80612261D01*
X150507427Y-80603988D01*
X150509205Y-80602529D01*
X150798355Y-80409762D01*
X150807140Y-80408025D01*
X150810070Y-80409030D01*
G37*
%TD.AperFunction*%
%TD*%
%TA.AperFunction,Conductor*%
%TO.N,GND*%
G36*
X153010165Y-72582606D02*
G01*
X153538617Y-72925739D01*
X153543689Y-72933119D01*
X153543087Y-72939951D01*
X153355927Y-73401235D01*
X153349641Y-73407613D01*
X153347986Y-73408171D01*
X152965970Y-73505934D01*
X152957105Y-73504665D01*
X152951734Y-73497500D01*
X152951449Y-73495964D01*
X152861455Y-72724491D01*
X152863900Y-72715877D01*
X152864794Y-72714872D01*
X152995521Y-72584145D01*
X153003793Y-72580719D01*
X153010165Y-72582606D01*
G37*
%TD.AperFunction*%
%TD*%
%TA.AperFunction,Conductor*%
%TO.N,GND*%
G36*
X135850446Y-78749544D02*
G01*
X136175953Y-78855878D01*
X136182753Y-78861705D01*
X136183442Y-78870633D01*
X136177615Y-78877433D01*
X136175953Y-78878122D01*
X135331061Y-79154123D01*
X135322362Y-79153547D01*
X134940634Y-78970186D01*
X134934660Y-78963515D01*
X134934000Y-78959640D01*
X134934000Y-78774359D01*
X134937427Y-78766086D01*
X134940632Y-78763814D01*
X135322362Y-78580451D01*
X135331060Y-78579876D01*
X135850446Y-78749544D01*
G37*
%TD.AperFunction*%
%TD*%
%TA.AperFunction,Conductor*%
%TO.N,+3V3*%
G36*
X158038598Y-84988962D02*
G01*
X158614054Y-85088283D01*
X158621624Y-85093068D01*
X158623761Y-85100089D01*
X158580398Y-86937387D01*
X158576777Y-86945577D01*
X158574232Y-86947421D01*
X157851817Y-87334956D01*
X157842906Y-87335847D01*
X157835976Y-87330177D01*
X157834586Y-87324646D01*
X157834586Y-87144457D01*
X157834609Y-87143939D01*
X157852945Y-86937387D01*
X158024976Y-84999458D01*
X158029121Y-84991523D01*
X158037665Y-84988841D01*
X158038598Y-84988962D01*
G37*
%TD.AperFunction*%
%TD*%
%TA.AperFunction,Conductor*%
%TO.N,GND*%
G36*
X149928696Y-84798806D02*
G01*
X150568611Y-84987526D01*
X150575575Y-84993152D01*
X150577000Y-84998747D01*
X150577000Y-85184716D01*
X150573573Y-85192989D01*
X150573035Y-85193494D01*
X150025869Y-85675671D01*
X150017397Y-85678570D01*
X150012089Y-85676911D01*
X149364996Y-85286445D01*
X149359683Y-85279236D01*
X149361023Y-85270382D01*
X149363503Y-85267479D01*
X149917861Y-84801076D01*
X149926396Y-84798373D01*
X149928696Y-84798806D01*
G37*
%TD.AperFunction*%
%TD*%
%TA.AperFunction,Conductor*%
%TO.N,I2C_SCL*%
G36*
X145783174Y-93869439D02*
G01*
X145946804Y-93936629D01*
X146046184Y-93977436D01*
X146052536Y-93983748D01*
X146052563Y-93983815D01*
X146160559Y-94246824D01*
X146160532Y-94255779D01*
X146154670Y-94261877D01*
X145703867Y-94471523D01*
X145694920Y-94471904D01*
X145690660Y-94469187D01*
X145560812Y-94339339D01*
X145557385Y-94331066D01*
X145558474Y-94326136D01*
X145768124Y-93875327D01*
X145774718Y-93869273D01*
X145783174Y-93869439D01*
G37*
%TD.AperFunction*%
%TD*%
%TA.AperFunction,Conductor*%
%TO.N,Net-(IC2-~{MR})*%
G36*
X155078379Y-80498548D02*
G01*
X155083018Y-80503986D01*
X155193115Y-80767489D01*
X155193142Y-80776444D01*
X155193115Y-80776511D01*
X155084081Y-81037469D01*
X155077729Y-81043781D01*
X155068774Y-81043754D01*
X155067927Y-81043359D01*
X154613470Y-80809266D01*
X154607685Y-80802431D01*
X154607128Y-80798865D01*
X154607128Y-80615264D01*
X154610555Y-80606991D01*
X154616144Y-80603876D01*
X155069541Y-80497109D01*
X155078379Y-80498548D01*
G37*
%TD.AperFunction*%
%TD*%
%TA.AperFunction,Conductor*%
%TO.N,GND*%
G36*
X127105573Y-96202596D02*
G01*
X127614891Y-96479677D01*
X127620521Y-96486640D01*
X127621000Y-96489954D01*
X127621000Y-96676045D01*
X127617573Y-96684318D01*
X127614891Y-96686323D01*
X127105573Y-96963403D01*
X127096668Y-96964346D01*
X127091355Y-96961029D01*
X126752240Y-96590902D01*
X126749179Y-96582489D01*
X126752240Y-96575097D01*
X127091357Y-96204969D01*
X127099471Y-96201185D01*
X127105573Y-96202596D01*
G37*
%TD.AperFunction*%
%TD*%
%TA.AperFunction,Conductor*%
%TO.N,GND*%
G36*
X150810486Y-84794315D02*
G01*
X151240354Y-85080258D01*
X151245344Y-85087694D01*
X151243616Y-85096480D01*
X151240354Y-85099742D01*
X150810486Y-85385684D01*
X150801700Y-85387412D01*
X150797516Y-85385677D01*
X150509210Y-85193473D01*
X150504227Y-85186033D01*
X150504000Y-85183738D01*
X150504000Y-84996261D01*
X150507427Y-84987988D01*
X150509205Y-84986529D01*
X150797517Y-84794321D01*
X150806301Y-84792584D01*
X150810486Y-84794315D01*
G37*
%TD.AperFunction*%
%TD*%
%TA.AperFunction,Conductor*%
%TO.N,GND*%
G36*
X151414562Y-80710934D02*
G01*
X151996629Y-81002310D01*
X152002493Y-81009077D01*
X152003007Y-81014181D01*
X151987328Y-81143412D01*
X151983986Y-81150276D01*
X151851383Y-81282879D01*
X151843110Y-81286306D01*
X151837879Y-81285071D01*
X151289455Y-81010859D01*
X151283588Y-81004095D01*
X151283866Y-80995948D01*
X151398504Y-80716947D01*
X151404817Y-80710599D01*
X151413772Y-80710574D01*
X151414562Y-80710934D01*
G37*
%TD.AperFunction*%
%TD*%
%TA.AperFunction,Conductor*%
%TO.N,+BATT*%
G36*
X149959384Y-76569671D02*
G01*
X150299155Y-76954253D01*
X150302065Y-76962722D01*
X150299155Y-76969747D01*
X149959384Y-77354328D01*
X149951338Y-77358259D01*
X149944102Y-77356300D01*
X149510186Y-77065475D01*
X149505222Y-77058022D01*
X149505000Y-77055756D01*
X149505000Y-76868243D01*
X149508427Y-76859970D01*
X149510186Y-76858524D01*
X149944104Y-76567698D01*
X149952882Y-76565940D01*
X149959384Y-76569671D01*
G37*
%TD.AperFunction*%
%TD*%
%TA.AperFunction,Conductor*%
%TO.N,+BATT*%
G36*
X150810662Y-79459335D02*
G01*
X151121263Y-79614818D01*
X151381924Y-79745302D01*
X151387788Y-79752069D01*
X151387149Y-79761001D01*
X151381210Y-79766555D01*
X150810132Y-80005911D01*
X150801177Y-80005948D01*
X150798652Y-80004527D01*
X150473499Y-79764075D01*
X150468885Y-79756401D01*
X150471049Y-79747711D01*
X150472176Y-79746402D01*
X150603769Y-79614809D01*
X150604249Y-79614381D01*
X150798161Y-79460629D01*
X150806771Y-79458175D01*
X150810662Y-79459335D01*
G37*
%TD.AperFunction*%
%TD*%
M02*
