%TF.GenerationSoftware,KiCad,Pcbnew,7.0.9*%
%TF.CreationDate,2023-12-29T19:26:43-05:00*%
%TF.ProjectId,watch-0001,77617463-682d-4303-9030-312e6b696361,v.0.0.1*%
%TF.SameCoordinates,Original*%
%TF.FileFunction,Legend,Top*%
%TF.FilePolarity,Positive*%
%FSLAX46Y46*%
G04 Gerber Fmt 4.6, Leading zero omitted, Abs format (unit mm)*
G04 Created by KiCad (PCBNEW 7.0.9) date 2023-12-29 19:26:43*
%MOMM*%
%LPD*%
G01*
G04 APERTURE LIST*
%ADD10C,0.150000*%
%ADD11C,0.100000*%
%ADD12C,0.254000*%
%ADD13C,0.120000*%
%ADD14C,0.200000*%
%ADD15C,0.127000*%
%ADD16C,0.152400*%
%ADD17C,0.508000*%
G04 APERTURE END LIST*
D10*
X133977142Y-105102819D02*
X133643809Y-104626628D01*
X133405714Y-105102819D02*
X133405714Y-104102819D01*
X133405714Y-104102819D02*
X133786666Y-104102819D01*
X133786666Y-104102819D02*
X133881904Y-104150438D01*
X133881904Y-104150438D02*
X133929523Y-104198057D01*
X133929523Y-104198057D02*
X133977142Y-104293295D01*
X133977142Y-104293295D02*
X133977142Y-104436152D01*
X133977142Y-104436152D02*
X133929523Y-104531390D01*
X133929523Y-104531390D02*
X133881904Y-104579009D01*
X133881904Y-104579009D02*
X133786666Y-104626628D01*
X133786666Y-104626628D02*
X133405714Y-104626628D01*
X134929523Y-105102819D02*
X134358095Y-105102819D01*
X134643809Y-105102819D02*
X134643809Y-104102819D01*
X134643809Y-104102819D02*
X134548571Y-104245676D01*
X134548571Y-104245676D02*
X134453333Y-104340914D01*
X134453333Y-104340914D02*
X134358095Y-104388533D01*
X135786666Y-104102819D02*
X135596190Y-104102819D01*
X135596190Y-104102819D02*
X135500952Y-104150438D01*
X135500952Y-104150438D02*
X135453333Y-104198057D01*
X135453333Y-104198057D02*
X135358095Y-104340914D01*
X135358095Y-104340914D02*
X135310476Y-104531390D01*
X135310476Y-104531390D02*
X135310476Y-104912342D01*
X135310476Y-104912342D02*
X135358095Y-105007580D01*
X135358095Y-105007580D02*
X135405714Y-105055200D01*
X135405714Y-105055200D02*
X135500952Y-105102819D01*
X135500952Y-105102819D02*
X135691428Y-105102819D01*
X135691428Y-105102819D02*
X135786666Y-105055200D01*
X135786666Y-105055200D02*
X135834285Y-105007580D01*
X135834285Y-105007580D02*
X135881904Y-104912342D01*
X135881904Y-104912342D02*
X135881904Y-104674247D01*
X135881904Y-104674247D02*
X135834285Y-104579009D01*
X135834285Y-104579009D02*
X135786666Y-104531390D01*
X135786666Y-104531390D02*
X135691428Y-104483771D01*
X135691428Y-104483771D02*
X135500952Y-104483771D01*
X135500952Y-104483771D02*
X135405714Y-104531390D01*
X135405714Y-104531390D02*
X135358095Y-104579009D01*
X135358095Y-104579009D02*
X135310476Y-104674247D01*
X147661333Y-73863580D02*
X147613714Y-73911200D01*
X147613714Y-73911200D02*
X147470857Y-73958819D01*
X147470857Y-73958819D02*
X147375619Y-73958819D01*
X147375619Y-73958819D02*
X147232762Y-73911200D01*
X147232762Y-73911200D02*
X147137524Y-73815961D01*
X147137524Y-73815961D02*
X147089905Y-73720723D01*
X147089905Y-73720723D02*
X147042286Y-73530247D01*
X147042286Y-73530247D02*
X147042286Y-73387390D01*
X147042286Y-73387390D02*
X147089905Y-73196914D01*
X147089905Y-73196914D02*
X147137524Y-73101676D01*
X147137524Y-73101676D02*
X147232762Y-73006438D01*
X147232762Y-73006438D02*
X147375619Y-72958819D01*
X147375619Y-72958819D02*
X147470857Y-72958819D01*
X147470857Y-72958819D02*
X147613714Y-73006438D01*
X147613714Y-73006438D02*
X147661333Y-73054057D01*
X148042286Y-73054057D02*
X148089905Y-73006438D01*
X148089905Y-73006438D02*
X148185143Y-72958819D01*
X148185143Y-72958819D02*
X148423238Y-72958819D01*
X148423238Y-72958819D02*
X148518476Y-73006438D01*
X148518476Y-73006438D02*
X148566095Y-73054057D01*
X148566095Y-73054057D02*
X148613714Y-73149295D01*
X148613714Y-73149295D02*
X148613714Y-73244533D01*
X148613714Y-73244533D02*
X148566095Y-73387390D01*
X148566095Y-73387390D02*
X147994667Y-73958819D01*
X147994667Y-73958819D02*
X148613714Y-73958819D01*
D11*
X146788285Y-77157609D02*
X146931142Y-77205228D01*
X146931142Y-77205228D02*
X146978761Y-77252847D01*
X146978761Y-77252847D02*
X147026380Y-77348085D01*
X147026380Y-77348085D02*
X147026380Y-77490942D01*
X147026380Y-77490942D02*
X146978761Y-77586180D01*
X146978761Y-77586180D02*
X146931142Y-77633800D01*
X146931142Y-77633800D02*
X146835904Y-77681419D01*
X146835904Y-77681419D02*
X146454952Y-77681419D01*
X146454952Y-77681419D02*
X146454952Y-76681419D01*
X146454952Y-76681419D02*
X146788285Y-76681419D01*
X146788285Y-76681419D02*
X146883523Y-76729038D01*
X146883523Y-76729038D02*
X146931142Y-76776657D01*
X146931142Y-76776657D02*
X146978761Y-76871895D01*
X146978761Y-76871895D02*
X146978761Y-76967133D01*
X146978761Y-76967133D02*
X146931142Y-77062371D01*
X146931142Y-77062371D02*
X146883523Y-77109990D01*
X146883523Y-77109990D02*
X146788285Y-77157609D01*
X146788285Y-77157609D02*
X146454952Y-77157609D01*
X147312095Y-76681419D02*
X147883523Y-76681419D01*
X147597809Y-77681419D02*
X147597809Y-76681419D01*
X148740666Y-77681419D02*
X148169238Y-77681419D01*
X148454952Y-77681419D02*
X148454952Y-76681419D01*
X148454952Y-76681419D02*
X148359714Y-76824276D01*
X148359714Y-76824276D02*
X148264476Y-76919514D01*
X148264476Y-76919514D02*
X148169238Y-76967133D01*
D10*
X129627333Y-95196819D02*
X129294000Y-94720628D01*
X129055905Y-95196819D02*
X129055905Y-94196819D01*
X129055905Y-94196819D02*
X129436857Y-94196819D01*
X129436857Y-94196819D02*
X129532095Y-94244438D01*
X129532095Y-94244438D02*
X129579714Y-94292057D01*
X129579714Y-94292057D02*
X129627333Y-94387295D01*
X129627333Y-94387295D02*
X129627333Y-94530152D01*
X129627333Y-94530152D02*
X129579714Y-94625390D01*
X129579714Y-94625390D02*
X129532095Y-94673009D01*
X129532095Y-94673009D02*
X129436857Y-94720628D01*
X129436857Y-94720628D02*
X129055905Y-94720628D01*
X130008286Y-94292057D02*
X130055905Y-94244438D01*
X130055905Y-94244438D02*
X130151143Y-94196819D01*
X130151143Y-94196819D02*
X130389238Y-94196819D01*
X130389238Y-94196819D02*
X130484476Y-94244438D01*
X130484476Y-94244438D02*
X130532095Y-94292057D01*
X130532095Y-94292057D02*
X130579714Y-94387295D01*
X130579714Y-94387295D02*
X130579714Y-94482533D01*
X130579714Y-94482533D02*
X130532095Y-94625390D01*
X130532095Y-94625390D02*
X129960667Y-95196819D01*
X129960667Y-95196819D02*
X130579714Y-95196819D01*
D12*
X157105047Y-76133270D02*
X156984095Y-76072794D01*
X156984095Y-76072794D02*
X156863142Y-75951842D01*
X156863142Y-75951842D02*
X156681714Y-75770413D01*
X156681714Y-75770413D02*
X156560761Y-75709937D01*
X156560761Y-75709937D02*
X156439809Y-75709937D01*
X156500285Y-76012318D02*
X156379333Y-75951842D01*
X156379333Y-75951842D02*
X156258380Y-75830889D01*
X156258380Y-75830889D02*
X156197904Y-75588984D01*
X156197904Y-75588984D02*
X156197904Y-75165651D01*
X156197904Y-75165651D02*
X156258380Y-74923746D01*
X156258380Y-74923746D02*
X156379333Y-74802794D01*
X156379333Y-74802794D02*
X156500285Y-74742318D01*
X156500285Y-74742318D02*
X156742190Y-74742318D01*
X156742190Y-74742318D02*
X156863142Y-74802794D01*
X156863142Y-74802794D02*
X156984095Y-74923746D01*
X156984095Y-74923746D02*
X157044571Y-75165651D01*
X157044571Y-75165651D02*
X157044571Y-75588984D01*
X157044571Y-75588984D02*
X156984095Y-75830889D01*
X156984095Y-75830889D02*
X156863142Y-75951842D01*
X156863142Y-75951842D02*
X156742190Y-76012318D01*
X156742190Y-76012318D02*
X156500285Y-76012318D01*
X158254095Y-76012318D02*
X157528380Y-76012318D01*
X157891237Y-76012318D02*
X157891237Y-74742318D01*
X157891237Y-74742318D02*
X157770285Y-74923746D01*
X157770285Y-74923746D02*
X157649333Y-75044699D01*
X157649333Y-75044699D02*
X157528380Y-75105175D01*
D10*
X140581142Y-108150819D02*
X140247809Y-107674628D01*
X140009714Y-108150819D02*
X140009714Y-107150819D01*
X140009714Y-107150819D02*
X140390666Y-107150819D01*
X140390666Y-107150819D02*
X140485904Y-107198438D01*
X140485904Y-107198438D02*
X140533523Y-107246057D01*
X140533523Y-107246057D02*
X140581142Y-107341295D01*
X140581142Y-107341295D02*
X140581142Y-107484152D01*
X140581142Y-107484152D02*
X140533523Y-107579390D01*
X140533523Y-107579390D02*
X140485904Y-107627009D01*
X140485904Y-107627009D02*
X140390666Y-107674628D01*
X140390666Y-107674628D02*
X140009714Y-107674628D01*
X141533523Y-108150819D02*
X140962095Y-108150819D01*
X141247809Y-108150819D02*
X141247809Y-107150819D01*
X141247809Y-107150819D02*
X141152571Y-107293676D01*
X141152571Y-107293676D02*
X141057333Y-107388914D01*
X141057333Y-107388914D02*
X140962095Y-107436533D01*
X142390666Y-107484152D02*
X142390666Y-108150819D01*
X142152571Y-107103200D02*
X141914476Y-107817485D01*
X141914476Y-107817485D02*
X142533523Y-107817485D01*
X156551333Y-74114819D02*
X156218000Y-73638628D01*
X155979905Y-74114819D02*
X155979905Y-73114819D01*
X155979905Y-73114819D02*
X156360857Y-73114819D01*
X156360857Y-73114819D02*
X156456095Y-73162438D01*
X156456095Y-73162438D02*
X156503714Y-73210057D01*
X156503714Y-73210057D02*
X156551333Y-73305295D01*
X156551333Y-73305295D02*
X156551333Y-73448152D01*
X156551333Y-73448152D02*
X156503714Y-73543390D01*
X156503714Y-73543390D02*
X156456095Y-73591009D01*
X156456095Y-73591009D02*
X156360857Y-73638628D01*
X156360857Y-73638628D02*
X155979905Y-73638628D01*
X157122762Y-73543390D02*
X157027524Y-73495771D01*
X157027524Y-73495771D02*
X156979905Y-73448152D01*
X156979905Y-73448152D02*
X156932286Y-73352914D01*
X156932286Y-73352914D02*
X156932286Y-73305295D01*
X156932286Y-73305295D02*
X156979905Y-73210057D01*
X156979905Y-73210057D02*
X157027524Y-73162438D01*
X157027524Y-73162438D02*
X157122762Y-73114819D01*
X157122762Y-73114819D02*
X157313238Y-73114819D01*
X157313238Y-73114819D02*
X157408476Y-73162438D01*
X157408476Y-73162438D02*
X157456095Y-73210057D01*
X157456095Y-73210057D02*
X157503714Y-73305295D01*
X157503714Y-73305295D02*
X157503714Y-73352914D01*
X157503714Y-73352914D02*
X157456095Y-73448152D01*
X157456095Y-73448152D02*
X157408476Y-73495771D01*
X157408476Y-73495771D02*
X157313238Y-73543390D01*
X157313238Y-73543390D02*
X157122762Y-73543390D01*
X157122762Y-73543390D02*
X157027524Y-73591009D01*
X157027524Y-73591009D02*
X156979905Y-73638628D01*
X156979905Y-73638628D02*
X156932286Y-73733866D01*
X156932286Y-73733866D02*
X156932286Y-73924342D01*
X156932286Y-73924342D02*
X156979905Y-74019580D01*
X156979905Y-74019580D02*
X157027524Y-74067200D01*
X157027524Y-74067200D02*
X157122762Y-74114819D01*
X157122762Y-74114819D02*
X157313238Y-74114819D01*
X157313238Y-74114819D02*
X157408476Y-74067200D01*
X157408476Y-74067200D02*
X157456095Y-74019580D01*
X157456095Y-74019580D02*
X157503714Y-73924342D01*
X157503714Y-73924342D02*
X157503714Y-73733866D01*
X157503714Y-73733866D02*
X157456095Y-73638628D01*
X157456095Y-73638628D02*
X157408476Y-73591009D01*
X157408476Y-73591009D02*
X157313238Y-73543390D01*
X154011333Y-70906819D02*
X153678000Y-70430628D01*
X153439905Y-70906819D02*
X153439905Y-69906819D01*
X153439905Y-69906819D02*
X153820857Y-69906819D01*
X153820857Y-69906819D02*
X153916095Y-69954438D01*
X153916095Y-69954438D02*
X153963714Y-70002057D01*
X153963714Y-70002057D02*
X154011333Y-70097295D01*
X154011333Y-70097295D02*
X154011333Y-70240152D01*
X154011333Y-70240152D02*
X153963714Y-70335390D01*
X153963714Y-70335390D02*
X153916095Y-70383009D01*
X153916095Y-70383009D02*
X153820857Y-70430628D01*
X153820857Y-70430628D02*
X153439905Y-70430628D01*
X154344667Y-69906819D02*
X155011333Y-69906819D01*
X155011333Y-69906819D02*
X154582762Y-70906819D01*
X163067537Y-93625504D02*
X163210499Y-93673157D01*
X163210499Y-93673157D02*
X163448768Y-93673157D01*
X163448768Y-93673157D02*
X163544076Y-93625504D01*
X163544076Y-93625504D02*
X163591730Y-93577850D01*
X163591730Y-93577850D02*
X163639384Y-93482542D01*
X163639384Y-93482542D02*
X163639384Y-93387234D01*
X163639384Y-93387234D02*
X163591730Y-93291926D01*
X163591730Y-93291926D02*
X163544076Y-93244272D01*
X163544076Y-93244272D02*
X163448768Y-93196618D01*
X163448768Y-93196618D02*
X163258153Y-93148964D01*
X163258153Y-93148964D02*
X163162845Y-93101311D01*
X163162845Y-93101311D02*
X163115191Y-93053657D01*
X163115191Y-93053657D02*
X163067537Y-92958349D01*
X163067537Y-92958349D02*
X163067537Y-92863041D01*
X163067537Y-92863041D02*
X163115191Y-92767733D01*
X163115191Y-92767733D02*
X163162845Y-92720079D01*
X163162845Y-92720079D02*
X163258153Y-92672425D01*
X163258153Y-92672425D02*
X163496422Y-92672425D01*
X163496422Y-92672425D02*
X163639384Y-92720079D01*
X164592462Y-93673157D02*
X164020615Y-93673157D01*
X164306539Y-93673157D02*
X164306539Y-92672425D01*
X164306539Y-92672425D02*
X164211231Y-92815387D01*
X164211231Y-92815387D02*
X164115923Y-92910695D01*
X164115923Y-92910695D02*
X164020615Y-92958349D01*
D12*
X128082318Y-88307332D02*
X128989461Y-88307332D01*
X128989461Y-88307332D02*
X129170889Y-88367809D01*
X129170889Y-88367809D02*
X129291842Y-88488761D01*
X129291842Y-88488761D02*
X129352318Y-88670190D01*
X129352318Y-88670190D02*
X129352318Y-88791142D01*
X128203270Y-87763047D02*
X128142794Y-87702571D01*
X128142794Y-87702571D02*
X128082318Y-87581618D01*
X128082318Y-87581618D02*
X128082318Y-87279237D01*
X128082318Y-87279237D02*
X128142794Y-87158285D01*
X128142794Y-87158285D02*
X128203270Y-87097809D01*
X128203270Y-87097809D02*
X128324222Y-87037332D01*
X128324222Y-87037332D02*
X128445175Y-87037332D01*
X128445175Y-87037332D02*
X128626603Y-87097809D01*
X128626603Y-87097809D02*
X129352318Y-87823523D01*
X129352318Y-87823523D02*
X129352318Y-87037332D01*
D10*
X135723333Y-73098819D02*
X135390000Y-72622628D01*
X135151905Y-73098819D02*
X135151905Y-72098819D01*
X135151905Y-72098819D02*
X135532857Y-72098819D01*
X135532857Y-72098819D02*
X135628095Y-72146438D01*
X135628095Y-72146438D02*
X135675714Y-72194057D01*
X135675714Y-72194057D02*
X135723333Y-72289295D01*
X135723333Y-72289295D02*
X135723333Y-72432152D01*
X135723333Y-72432152D02*
X135675714Y-72527390D01*
X135675714Y-72527390D02*
X135628095Y-72575009D01*
X135628095Y-72575009D02*
X135532857Y-72622628D01*
X135532857Y-72622628D02*
X135151905Y-72622628D01*
X136056667Y-72098819D02*
X136675714Y-72098819D01*
X136675714Y-72098819D02*
X136342381Y-72479771D01*
X136342381Y-72479771D02*
X136485238Y-72479771D01*
X136485238Y-72479771D02*
X136580476Y-72527390D01*
X136580476Y-72527390D02*
X136628095Y-72575009D01*
X136628095Y-72575009D02*
X136675714Y-72670247D01*
X136675714Y-72670247D02*
X136675714Y-72908342D01*
X136675714Y-72908342D02*
X136628095Y-73003580D01*
X136628095Y-73003580D02*
X136580476Y-73051200D01*
X136580476Y-73051200D02*
X136485238Y-73098819D01*
X136485238Y-73098819D02*
X136199524Y-73098819D01*
X136199524Y-73098819D02*
X136104286Y-73051200D01*
X136104286Y-73051200D02*
X136056667Y-73003580D01*
X139279333Y-71828819D02*
X138946000Y-71352628D01*
X138707905Y-71828819D02*
X138707905Y-70828819D01*
X138707905Y-70828819D02*
X139088857Y-70828819D01*
X139088857Y-70828819D02*
X139184095Y-70876438D01*
X139184095Y-70876438D02*
X139231714Y-70924057D01*
X139231714Y-70924057D02*
X139279333Y-71019295D01*
X139279333Y-71019295D02*
X139279333Y-71162152D01*
X139279333Y-71162152D02*
X139231714Y-71257390D01*
X139231714Y-71257390D02*
X139184095Y-71305009D01*
X139184095Y-71305009D02*
X139088857Y-71352628D01*
X139088857Y-71352628D02*
X138707905Y-71352628D01*
X140136476Y-71162152D02*
X140136476Y-71828819D01*
X139898381Y-70781200D02*
X139660286Y-71495485D01*
X139660286Y-71495485D02*
X140279333Y-71495485D01*
X131521580Y-74842666D02*
X131569200Y-74890285D01*
X131569200Y-74890285D02*
X131616819Y-75033142D01*
X131616819Y-75033142D02*
X131616819Y-75128380D01*
X131616819Y-75128380D02*
X131569200Y-75271237D01*
X131569200Y-75271237D02*
X131473961Y-75366475D01*
X131473961Y-75366475D02*
X131378723Y-75414094D01*
X131378723Y-75414094D02*
X131188247Y-75461713D01*
X131188247Y-75461713D02*
X131045390Y-75461713D01*
X131045390Y-75461713D02*
X130854914Y-75414094D01*
X130854914Y-75414094D02*
X130759676Y-75366475D01*
X130759676Y-75366475D02*
X130664438Y-75271237D01*
X130664438Y-75271237D02*
X130616819Y-75128380D01*
X130616819Y-75128380D02*
X130616819Y-75033142D01*
X130616819Y-75033142D02*
X130664438Y-74890285D01*
X130664438Y-74890285D02*
X130712057Y-74842666D01*
X131616819Y-73890285D02*
X131616819Y-74461713D01*
X131616819Y-74175999D02*
X130616819Y-74175999D01*
X130616819Y-74175999D02*
X130759676Y-74271237D01*
X130759676Y-74271237D02*
X130854914Y-74366475D01*
X130854914Y-74366475D02*
X130902533Y-74461713D01*
X140408819Y-106052857D02*
X139932628Y-106386190D01*
X140408819Y-106624285D02*
X139408819Y-106624285D01*
X139408819Y-106624285D02*
X139408819Y-106243333D01*
X139408819Y-106243333D02*
X139456438Y-106148095D01*
X139456438Y-106148095D02*
X139504057Y-106100476D01*
X139504057Y-106100476D02*
X139599295Y-106052857D01*
X139599295Y-106052857D02*
X139742152Y-106052857D01*
X139742152Y-106052857D02*
X139837390Y-106100476D01*
X139837390Y-106100476D02*
X139885009Y-106148095D01*
X139885009Y-106148095D02*
X139932628Y-106243333D01*
X139932628Y-106243333D02*
X139932628Y-106624285D01*
X140408819Y-105100476D02*
X140408819Y-105671904D01*
X140408819Y-105386190D02*
X139408819Y-105386190D01*
X139408819Y-105386190D02*
X139551676Y-105481428D01*
X139551676Y-105481428D02*
X139646914Y-105576666D01*
X139646914Y-105576666D02*
X139694533Y-105671904D01*
X139408819Y-104195714D02*
X139408819Y-104671904D01*
X139408819Y-104671904D02*
X139885009Y-104719523D01*
X139885009Y-104719523D02*
X139837390Y-104671904D01*
X139837390Y-104671904D02*
X139789771Y-104576666D01*
X139789771Y-104576666D02*
X139789771Y-104338571D01*
X139789771Y-104338571D02*
X139837390Y-104243333D01*
X139837390Y-104243333D02*
X139885009Y-104195714D01*
X139885009Y-104195714D02*
X139980247Y-104148095D01*
X139980247Y-104148095D02*
X140218342Y-104148095D01*
X140218342Y-104148095D02*
X140313580Y-104195714D01*
X140313580Y-104195714D02*
X140361200Y-104243333D01*
X140361200Y-104243333D02*
X140408819Y-104338571D01*
X140408819Y-104338571D02*
X140408819Y-104576666D01*
X140408819Y-104576666D02*
X140361200Y-104671904D01*
X140361200Y-104671904D02*
X140313580Y-104719523D01*
X143629142Y-108150819D02*
X143295809Y-107674628D01*
X143057714Y-108150819D02*
X143057714Y-107150819D01*
X143057714Y-107150819D02*
X143438666Y-107150819D01*
X143438666Y-107150819D02*
X143533904Y-107198438D01*
X143533904Y-107198438D02*
X143581523Y-107246057D01*
X143581523Y-107246057D02*
X143629142Y-107341295D01*
X143629142Y-107341295D02*
X143629142Y-107484152D01*
X143629142Y-107484152D02*
X143581523Y-107579390D01*
X143581523Y-107579390D02*
X143533904Y-107627009D01*
X143533904Y-107627009D02*
X143438666Y-107674628D01*
X143438666Y-107674628D02*
X143057714Y-107674628D01*
X144581523Y-108150819D02*
X144010095Y-108150819D01*
X144295809Y-108150819D02*
X144295809Y-107150819D01*
X144295809Y-107150819D02*
X144200571Y-107293676D01*
X144200571Y-107293676D02*
X144105333Y-107388914D01*
X144105333Y-107388914D02*
X144010095Y-107436533D01*
X144914857Y-107150819D02*
X145533904Y-107150819D01*
X145533904Y-107150819D02*
X145200571Y-107531771D01*
X145200571Y-107531771D02*
X145343428Y-107531771D01*
X145343428Y-107531771D02*
X145438666Y-107579390D01*
X145438666Y-107579390D02*
X145486285Y-107627009D01*
X145486285Y-107627009D02*
X145533904Y-107722247D01*
X145533904Y-107722247D02*
X145533904Y-107960342D01*
X145533904Y-107960342D02*
X145486285Y-108055580D01*
X145486285Y-108055580D02*
X145438666Y-108103200D01*
X145438666Y-108103200D02*
X145343428Y-108150819D01*
X145343428Y-108150819D02*
X145057714Y-108150819D01*
X145057714Y-108150819D02*
X144962476Y-108103200D01*
X144962476Y-108103200D02*
X144914857Y-108055580D01*
X137922095Y-74286819D02*
X137922095Y-75096342D01*
X137922095Y-75096342D02*
X137969714Y-75191580D01*
X137969714Y-75191580D02*
X138017333Y-75239200D01*
X138017333Y-75239200D02*
X138112571Y-75286819D01*
X138112571Y-75286819D02*
X138303047Y-75286819D01*
X138303047Y-75286819D02*
X138398285Y-75239200D01*
X138398285Y-75239200D02*
X138445904Y-75191580D01*
X138445904Y-75191580D02*
X138493523Y-75096342D01*
X138493523Y-75096342D02*
X138493523Y-74286819D01*
X138922095Y-74382057D02*
X138969714Y-74334438D01*
X138969714Y-74334438D02*
X139064952Y-74286819D01*
X139064952Y-74286819D02*
X139303047Y-74286819D01*
X139303047Y-74286819D02*
X139398285Y-74334438D01*
X139398285Y-74334438D02*
X139445904Y-74382057D01*
X139445904Y-74382057D02*
X139493523Y-74477295D01*
X139493523Y-74477295D02*
X139493523Y-74572533D01*
X139493523Y-74572533D02*
X139445904Y-74715390D01*
X139445904Y-74715390D02*
X138874476Y-75286819D01*
X138874476Y-75286819D02*
X139493523Y-75286819D01*
D12*
X147858237Y-79314318D02*
X147858237Y-78044318D01*
X149188714Y-79193365D02*
X149128238Y-79253842D01*
X149128238Y-79253842D02*
X148946809Y-79314318D01*
X148946809Y-79314318D02*
X148825857Y-79314318D01*
X148825857Y-79314318D02*
X148644428Y-79253842D01*
X148644428Y-79253842D02*
X148523476Y-79132889D01*
X148523476Y-79132889D02*
X148462999Y-79011937D01*
X148462999Y-79011937D02*
X148402523Y-78770032D01*
X148402523Y-78770032D02*
X148402523Y-78588603D01*
X148402523Y-78588603D02*
X148462999Y-78346699D01*
X148462999Y-78346699D02*
X148523476Y-78225746D01*
X148523476Y-78225746D02*
X148644428Y-78104794D01*
X148644428Y-78104794D02*
X148825857Y-78044318D01*
X148825857Y-78044318D02*
X148946809Y-78044318D01*
X148946809Y-78044318D02*
X149128238Y-78104794D01*
X149128238Y-78104794D02*
X149188714Y-78165270D01*
X149672523Y-78165270D02*
X149732999Y-78104794D01*
X149732999Y-78104794D02*
X149853952Y-78044318D01*
X149853952Y-78044318D02*
X150156333Y-78044318D01*
X150156333Y-78044318D02*
X150277285Y-78104794D01*
X150277285Y-78104794D02*
X150337761Y-78165270D01*
X150337761Y-78165270D02*
X150398238Y-78286222D01*
X150398238Y-78286222D02*
X150398238Y-78407175D01*
X150398238Y-78407175D02*
X150337761Y-78588603D01*
X150337761Y-78588603D02*
X149612047Y-79314318D01*
X149612047Y-79314318D02*
X150398238Y-79314318D01*
D10*
X148187580Y-84494666D02*
X148235200Y-84542285D01*
X148235200Y-84542285D02*
X148282819Y-84685142D01*
X148282819Y-84685142D02*
X148282819Y-84780380D01*
X148282819Y-84780380D02*
X148235200Y-84923237D01*
X148235200Y-84923237D02*
X148139961Y-85018475D01*
X148139961Y-85018475D02*
X148044723Y-85066094D01*
X148044723Y-85066094D02*
X147854247Y-85113713D01*
X147854247Y-85113713D02*
X147711390Y-85113713D01*
X147711390Y-85113713D02*
X147520914Y-85066094D01*
X147520914Y-85066094D02*
X147425676Y-85018475D01*
X147425676Y-85018475D02*
X147330438Y-84923237D01*
X147330438Y-84923237D02*
X147282819Y-84780380D01*
X147282819Y-84780380D02*
X147282819Y-84685142D01*
X147282819Y-84685142D02*
X147330438Y-84542285D01*
X147330438Y-84542285D02*
X147378057Y-84494666D01*
X147282819Y-84161332D02*
X147282819Y-83542285D01*
X147282819Y-83542285D02*
X147663771Y-83875618D01*
X147663771Y-83875618D02*
X147663771Y-83732761D01*
X147663771Y-83732761D02*
X147711390Y-83637523D01*
X147711390Y-83637523D02*
X147759009Y-83589904D01*
X147759009Y-83589904D02*
X147854247Y-83542285D01*
X147854247Y-83542285D02*
X148092342Y-83542285D01*
X148092342Y-83542285D02*
X148187580Y-83589904D01*
X148187580Y-83589904D02*
X148235200Y-83637523D01*
X148235200Y-83637523D02*
X148282819Y-83732761D01*
X148282819Y-83732761D02*
X148282819Y-84018475D01*
X148282819Y-84018475D02*
X148235200Y-84113713D01*
X148235200Y-84113713D02*
X148187580Y-84161332D01*
X150963333Y-71922819D02*
X150630000Y-71446628D01*
X150391905Y-71922819D02*
X150391905Y-70922819D01*
X150391905Y-70922819D02*
X150772857Y-70922819D01*
X150772857Y-70922819D02*
X150868095Y-70970438D01*
X150868095Y-70970438D02*
X150915714Y-71018057D01*
X150915714Y-71018057D02*
X150963333Y-71113295D01*
X150963333Y-71113295D02*
X150963333Y-71256152D01*
X150963333Y-71256152D02*
X150915714Y-71351390D01*
X150915714Y-71351390D02*
X150868095Y-71399009D01*
X150868095Y-71399009D02*
X150772857Y-71446628D01*
X150772857Y-71446628D02*
X150391905Y-71446628D01*
X151439524Y-71922819D02*
X151630000Y-71922819D01*
X151630000Y-71922819D02*
X151725238Y-71875200D01*
X151725238Y-71875200D02*
X151772857Y-71827580D01*
X151772857Y-71827580D02*
X151868095Y-71684723D01*
X151868095Y-71684723D02*
X151915714Y-71494247D01*
X151915714Y-71494247D02*
X151915714Y-71113295D01*
X151915714Y-71113295D02*
X151868095Y-71018057D01*
X151868095Y-71018057D02*
X151820476Y-70970438D01*
X151820476Y-70970438D02*
X151725238Y-70922819D01*
X151725238Y-70922819D02*
X151534762Y-70922819D01*
X151534762Y-70922819D02*
X151439524Y-70970438D01*
X151439524Y-70970438D02*
X151391905Y-71018057D01*
X151391905Y-71018057D02*
X151344286Y-71113295D01*
X151344286Y-71113295D02*
X151344286Y-71351390D01*
X151344286Y-71351390D02*
X151391905Y-71446628D01*
X151391905Y-71446628D02*
X151439524Y-71494247D01*
X151439524Y-71494247D02*
X151534762Y-71541866D01*
X151534762Y-71541866D02*
X151725238Y-71541866D01*
X151725238Y-71541866D02*
X151820476Y-71494247D01*
X151820476Y-71494247D02*
X151868095Y-71446628D01*
X151868095Y-71446628D02*
X151915714Y-71351390D01*
D12*
X151160237Y-83124318D02*
X151160237Y-81854318D01*
X152490714Y-83003365D02*
X152430238Y-83063842D01*
X152430238Y-83063842D02*
X152248809Y-83124318D01*
X152248809Y-83124318D02*
X152127857Y-83124318D01*
X152127857Y-83124318D02*
X151946428Y-83063842D01*
X151946428Y-83063842D02*
X151825476Y-82942889D01*
X151825476Y-82942889D02*
X151764999Y-82821937D01*
X151764999Y-82821937D02*
X151704523Y-82580032D01*
X151704523Y-82580032D02*
X151704523Y-82398603D01*
X151704523Y-82398603D02*
X151764999Y-82156699D01*
X151764999Y-82156699D02*
X151825476Y-82035746D01*
X151825476Y-82035746D02*
X151946428Y-81914794D01*
X151946428Y-81914794D02*
X152127857Y-81854318D01*
X152127857Y-81854318D02*
X152248809Y-81854318D01*
X152248809Y-81854318D02*
X152430238Y-81914794D01*
X152430238Y-81914794D02*
X152490714Y-81975270D01*
X152914047Y-81854318D02*
X153700238Y-81854318D01*
X153700238Y-81854318D02*
X153276904Y-82338127D01*
X153276904Y-82338127D02*
X153458333Y-82338127D01*
X153458333Y-82338127D02*
X153579285Y-82398603D01*
X153579285Y-82398603D02*
X153639761Y-82459080D01*
X153639761Y-82459080D02*
X153700238Y-82580032D01*
X153700238Y-82580032D02*
X153700238Y-82882413D01*
X153700238Y-82882413D02*
X153639761Y-83003365D01*
X153639761Y-83003365D02*
X153579285Y-83063842D01*
X153579285Y-83063842D02*
X153458333Y-83124318D01*
X153458333Y-83124318D02*
X153095476Y-83124318D01*
X153095476Y-83124318D02*
X152974523Y-83063842D01*
X152974523Y-83063842D02*
X152914047Y-83003365D01*
D10*
X127341333Y-98498819D02*
X127008000Y-98022628D01*
X126769905Y-98498819D02*
X126769905Y-97498819D01*
X126769905Y-97498819D02*
X127150857Y-97498819D01*
X127150857Y-97498819D02*
X127246095Y-97546438D01*
X127246095Y-97546438D02*
X127293714Y-97594057D01*
X127293714Y-97594057D02*
X127341333Y-97689295D01*
X127341333Y-97689295D02*
X127341333Y-97832152D01*
X127341333Y-97832152D02*
X127293714Y-97927390D01*
X127293714Y-97927390D02*
X127246095Y-97975009D01*
X127246095Y-97975009D02*
X127150857Y-98022628D01*
X127150857Y-98022628D02*
X126769905Y-98022628D01*
X128293714Y-98498819D02*
X127722286Y-98498819D01*
X128008000Y-98498819D02*
X128008000Y-97498819D01*
X128008000Y-97498819D02*
X127912762Y-97641676D01*
X127912762Y-97641676D02*
X127817524Y-97736914D01*
X127817524Y-97736914D02*
X127722286Y-97784533D01*
X141819333Y-74876819D02*
X141486000Y-74400628D01*
X141247905Y-74876819D02*
X141247905Y-73876819D01*
X141247905Y-73876819D02*
X141628857Y-73876819D01*
X141628857Y-73876819D02*
X141724095Y-73924438D01*
X141724095Y-73924438D02*
X141771714Y-73972057D01*
X141771714Y-73972057D02*
X141819333Y-74067295D01*
X141819333Y-74067295D02*
X141819333Y-74210152D01*
X141819333Y-74210152D02*
X141771714Y-74305390D01*
X141771714Y-74305390D02*
X141724095Y-74353009D01*
X141724095Y-74353009D02*
X141628857Y-74400628D01*
X141628857Y-74400628D02*
X141247905Y-74400628D01*
X142724095Y-73876819D02*
X142247905Y-73876819D01*
X142247905Y-73876819D02*
X142200286Y-74353009D01*
X142200286Y-74353009D02*
X142247905Y-74305390D01*
X142247905Y-74305390D02*
X142343143Y-74257771D01*
X142343143Y-74257771D02*
X142581238Y-74257771D01*
X142581238Y-74257771D02*
X142676476Y-74305390D01*
X142676476Y-74305390D02*
X142724095Y-74353009D01*
X142724095Y-74353009D02*
X142771714Y-74448247D01*
X142771714Y-74448247D02*
X142771714Y-74686342D01*
X142771714Y-74686342D02*
X142724095Y-74781580D01*
X142724095Y-74781580D02*
X142676476Y-74829200D01*
X142676476Y-74829200D02*
X142581238Y-74876819D01*
X142581238Y-74876819D02*
X142343143Y-74876819D01*
X142343143Y-74876819D02*
X142247905Y-74829200D01*
X142247905Y-74829200D02*
X142200286Y-74781580D01*
X145836819Y-80906857D02*
X145360628Y-81240190D01*
X145836819Y-81478285D02*
X144836819Y-81478285D01*
X144836819Y-81478285D02*
X144836819Y-81097333D01*
X144836819Y-81097333D02*
X144884438Y-81002095D01*
X144884438Y-81002095D02*
X144932057Y-80954476D01*
X144932057Y-80954476D02*
X145027295Y-80906857D01*
X145027295Y-80906857D02*
X145170152Y-80906857D01*
X145170152Y-80906857D02*
X145265390Y-80954476D01*
X145265390Y-80954476D02*
X145313009Y-81002095D01*
X145313009Y-81002095D02*
X145360628Y-81097333D01*
X145360628Y-81097333D02*
X145360628Y-81478285D01*
X144932057Y-80525904D02*
X144884438Y-80478285D01*
X144884438Y-80478285D02*
X144836819Y-80383047D01*
X144836819Y-80383047D02*
X144836819Y-80144952D01*
X144836819Y-80144952D02*
X144884438Y-80049714D01*
X144884438Y-80049714D02*
X144932057Y-80002095D01*
X144932057Y-80002095D02*
X145027295Y-79954476D01*
X145027295Y-79954476D02*
X145122533Y-79954476D01*
X145122533Y-79954476D02*
X145265390Y-80002095D01*
X145265390Y-80002095D02*
X145836819Y-80573523D01*
X145836819Y-80573523D02*
X145836819Y-79954476D01*
X144836819Y-79335428D02*
X144836819Y-79240190D01*
X144836819Y-79240190D02*
X144884438Y-79144952D01*
X144884438Y-79144952D02*
X144932057Y-79097333D01*
X144932057Y-79097333D02*
X145027295Y-79049714D01*
X145027295Y-79049714D02*
X145217771Y-79002095D01*
X145217771Y-79002095D02*
X145455866Y-79002095D01*
X145455866Y-79002095D02*
X145646342Y-79049714D01*
X145646342Y-79049714D02*
X145741580Y-79097333D01*
X145741580Y-79097333D02*
X145789200Y-79144952D01*
X145789200Y-79144952D02*
X145836819Y-79240190D01*
X145836819Y-79240190D02*
X145836819Y-79335428D01*
X145836819Y-79335428D02*
X145789200Y-79430666D01*
X145789200Y-79430666D02*
X145741580Y-79478285D01*
X145741580Y-79478285D02*
X145646342Y-79525904D01*
X145646342Y-79525904D02*
X145455866Y-79573523D01*
X145455866Y-79573523D02*
X145217771Y-79573523D01*
X145217771Y-79573523D02*
X145027295Y-79525904D01*
X145027295Y-79525904D02*
X144932057Y-79478285D01*
X144932057Y-79478285D02*
X144884438Y-79430666D01*
X144884438Y-79430666D02*
X144836819Y-79335428D01*
X153503333Y-77924819D02*
X153170000Y-77448628D01*
X152931905Y-77924819D02*
X152931905Y-76924819D01*
X152931905Y-76924819D02*
X153312857Y-76924819D01*
X153312857Y-76924819D02*
X153408095Y-76972438D01*
X153408095Y-76972438D02*
X153455714Y-77020057D01*
X153455714Y-77020057D02*
X153503333Y-77115295D01*
X153503333Y-77115295D02*
X153503333Y-77258152D01*
X153503333Y-77258152D02*
X153455714Y-77353390D01*
X153455714Y-77353390D02*
X153408095Y-77401009D01*
X153408095Y-77401009D02*
X153312857Y-77448628D01*
X153312857Y-77448628D02*
X152931905Y-77448628D01*
X154360476Y-76924819D02*
X154170000Y-76924819D01*
X154170000Y-76924819D02*
X154074762Y-76972438D01*
X154074762Y-76972438D02*
X154027143Y-77020057D01*
X154027143Y-77020057D02*
X153931905Y-77162914D01*
X153931905Y-77162914D02*
X153884286Y-77353390D01*
X153884286Y-77353390D02*
X153884286Y-77734342D01*
X153884286Y-77734342D02*
X153931905Y-77829580D01*
X153931905Y-77829580D02*
X153979524Y-77877200D01*
X153979524Y-77877200D02*
X154074762Y-77924819D01*
X154074762Y-77924819D02*
X154265238Y-77924819D01*
X154265238Y-77924819D02*
X154360476Y-77877200D01*
X154360476Y-77877200D02*
X154408095Y-77829580D01*
X154408095Y-77829580D02*
X154455714Y-77734342D01*
X154455714Y-77734342D02*
X154455714Y-77496247D01*
X154455714Y-77496247D02*
X154408095Y-77401009D01*
X154408095Y-77401009D02*
X154360476Y-77353390D01*
X154360476Y-77353390D02*
X154265238Y-77305771D01*
X154265238Y-77305771D02*
X154074762Y-77305771D01*
X154074762Y-77305771D02*
X153979524Y-77353390D01*
X153979524Y-77353390D02*
X153931905Y-77401009D01*
X153931905Y-77401009D02*
X153884286Y-77496247D01*
X157059333Y-85544819D02*
X156583143Y-85544819D01*
X156583143Y-85544819D02*
X156583143Y-84544819D01*
X157916476Y-85544819D02*
X157345048Y-85544819D01*
X157630762Y-85544819D02*
X157630762Y-84544819D01*
X157630762Y-84544819D02*
X157535524Y-84687676D01*
X157535524Y-84687676D02*
X157440286Y-84782914D01*
X157440286Y-84782914D02*
X157345048Y-84830533D01*
D12*
X144102667Y-99308318D02*
X144102667Y-100215461D01*
X144102667Y-100215461D02*
X144042190Y-100396889D01*
X144042190Y-100396889D02*
X143921238Y-100517842D01*
X143921238Y-100517842D02*
X143739809Y-100578318D01*
X143739809Y-100578318D02*
X143618857Y-100578318D01*
X145372667Y-100578318D02*
X144646952Y-100578318D01*
X145009809Y-100578318D02*
X145009809Y-99308318D01*
X145009809Y-99308318D02*
X144888857Y-99489746D01*
X144888857Y-99489746D02*
X144767905Y-99610699D01*
X144767905Y-99610699D02*
X144646952Y-99671175D01*
D10*
X152487333Y-89923580D02*
X152439714Y-89971200D01*
X152439714Y-89971200D02*
X152296857Y-90018819D01*
X152296857Y-90018819D02*
X152201619Y-90018819D01*
X152201619Y-90018819D02*
X152058762Y-89971200D01*
X152058762Y-89971200D02*
X151963524Y-89875961D01*
X151963524Y-89875961D02*
X151915905Y-89780723D01*
X151915905Y-89780723D02*
X151868286Y-89590247D01*
X151868286Y-89590247D02*
X151868286Y-89447390D01*
X151868286Y-89447390D02*
X151915905Y-89256914D01*
X151915905Y-89256914D02*
X151963524Y-89161676D01*
X151963524Y-89161676D02*
X152058762Y-89066438D01*
X152058762Y-89066438D02*
X152201619Y-89018819D01*
X152201619Y-89018819D02*
X152296857Y-89018819D01*
X152296857Y-89018819D02*
X152439714Y-89066438D01*
X152439714Y-89066438D02*
X152487333Y-89114057D01*
X153344476Y-89352152D02*
X153344476Y-90018819D01*
X153106381Y-88971200D02*
X152868286Y-89685485D01*
X152868286Y-89685485D02*
X153487333Y-89685485D01*
X146677142Y-105356819D02*
X146343809Y-104880628D01*
X146105714Y-105356819D02*
X146105714Y-104356819D01*
X146105714Y-104356819D02*
X146486666Y-104356819D01*
X146486666Y-104356819D02*
X146581904Y-104404438D01*
X146581904Y-104404438D02*
X146629523Y-104452057D01*
X146629523Y-104452057D02*
X146677142Y-104547295D01*
X146677142Y-104547295D02*
X146677142Y-104690152D01*
X146677142Y-104690152D02*
X146629523Y-104785390D01*
X146629523Y-104785390D02*
X146581904Y-104833009D01*
X146581904Y-104833009D02*
X146486666Y-104880628D01*
X146486666Y-104880628D02*
X146105714Y-104880628D01*
X147629523Y-105356819D02*
X147058095Y-105356819D01*
X147343809Y-105356819D02*
X147343809Y-104356819D01*
X147343809Y-104356819D02*
X147248571Y-104499676D01*
X147248571Y-104499676D02*
X147153333Y-104594914D01*
X147153333Y-104594914D02*
X147058095Y-104642533D01*
X148010476Y-104452057D02*
X148058095Y-104404438D01*
X148058095Y-104404438D02*
X148153333Y-104356819D01*
X148153333Y-104356819D02*
X148391428Y-104356819D01*
X148391428Y-104356819D02*
X148486666Y-104404438D01*
X148486666Y-104404438D02*
X148534285Y-104452057D01*
X148534285Y-104452057D02*
X148581904Y-104547295D01*
X148581904Y-104547295D02*
X148581904Y-104642533D01*
X148581904Y-104642533D02*
X148534285Y-104785390D01*
X148534285Y-104785390D02*
X147962857Y-105356819D01*
X147962857Y-105356819D02*
X148581904Y-105356819D01*
D13*
%TO.C,R16*%
X137428500Y-105172742D02*
X137428500Y-105647258D01*
X136383500Y-105172742D02*
X136383500Y-105647258D01*
%TO.C,C2*%
X147566748Y-74449000D02*
X148089252Y-74449000D01*
X147566748Y-75919000D02*
X148089252Y-75919000D01*
%TO.C,R2*%
X128792500Y-95520742D02*
X128792500Y-95995258D01*
X127747500Y-95520742D02*
X127747500Y-95995258D01*
D14*
%TO.C,Q1*%
X153098000Y-75046000D02*
X153590000Y-75046000D01*
X153940000Y-75146000D02*
X154416000Y-75146000D01*
X153940000Y-76746000D02*
X153940000Y-75146000D01*
X154416000Y-75146000D02*
X154416000Y-76746000D01*
X154416000Y-76746000D02*
X153940000Y-76746000D01*
D13*
%TO.C,R14*%
X142254500Y-105172742D02*
X142254500Y-105647258D01*
X141209500Y-105172742D02*
X141209500Y-105647258D01*
%TO.C,R8*%
X154415258Y-73928500D02*
X153940742Y-73928500D01*
X154415258Y-72883500D02*
X153940742Y-72883500D01*
%TO.C,R7*%
X153940742Y-71359500D02*
X154415258Y-71359500D01*
X153940742Y-72404500D02*
X154415258Y-72404500D01*
D15*
%TO.C,S1*%
X162538000Y-92384000D02*
X166138000Y-92384000D01*
X166138000Y-92384000D02*
X166138000Y-83384000D01*
X162538000Y-83384000D02*
X166138000Y-83384000D01*
D14*
%TO.C,J2*%
X133713000Y-82959000D02*
X133713000Y-92809000D01*
X131778000Y-82959000D02*
X133713000Y-82959000D01*
X129978000Y-82959000D02*
X127578000Y-82959000D01*
X125178000Y-82959000D02*
X123843000Y-82959000D01*
X123843000Y-82959000D02*
X123843000Y-92809000D01*
D11*
X134278000Y-85084000D02*
X134278000Y-85084000D01*
X134178000Y-85084000D02*
X134178000Y-85084000D01*
D14*
X133713000Y-92809000D02*
X131778000Y-92809000D01*
X127578000Y-92809000D02*
X129978000Y-92809000D01*
X123843000Y-92809000D02*
X125178000Y-92809000D01*
D11*
X134178000Y-85084000D02*
G75*
G03*
X134278000Y-85084000I50000J0D01*
G01*
X134278000Y-85084000D02*
G75*
G03*
X134178000Y-85084000I-50000J0D01*
G01*
D13*
%TO.C,R3*%
X136127258Y-74690500D02*
X135652742Y-74690500D01*
X136127258Y-73645500D02*
X135652742Y-73645500D01*
%TO.C,R4*%
X139683258Y-73420500D02*
X139208742Y-73420500D01*
X139683258Y-72375500D02*
X139208742Y-72375500D01*
%TO.C,C1*%
X132107000Y-74937252D02*
X132107000Y-74414748D01*
X133577000Y-74937252D02*
X133577000Y-74414748D01*
%TO.C,R15*%
X137907500Y-105647258D02*
X137907500Y-105172742D01*
X138952500Y-105647258D02*
X138952500Y-105172742D01*
%TO.C,R13*%
X143778500Y-105172742D02*
X143778500Y-105647258D01*
X142733500Y-105172742D02*
X142733500Y-105647258D01*
%TO.C,U2*%
X138684000Y-75672000D02*
X135234000Y-75672000D01*
X138684000Y-75672000D02*
X140634000Y-75672000D01*
X138684000Y-80792000D02*
X136734000Y-80792000D01*
X138684000Y-80792000D02*
X140634000Y-80792000D01*
D14*
%TO.C,IC2*%
X150804000Y-78256000D02*
X152004000Y-78256000D01*
X152354000Y-78306000D02*
X152954000Y-78306000D01*
X152354000Y-81206000D02*
X152354000Y-78306000D01*
X152954000Y-78306000D02*
X152954000Y-81206000D01*
X152954000Y-81206000D02*
X152354000Y-81206000D01*
D13*
%TO.C,C3*%
X150087000Y-84066748D02*
X150087000Y-84589252D01*
X148617000Y-84066748D02*
X148617000Y-84589252D01*
%TO.C,R9*%
X150892742Y-72375500D02*
X151367258Y-72375500D01*
X150892742Y-73420500D02*
X151367258Y-73420500D01*
D14*
%TO.C,IC3*%
X150804000Y-83590000D02*
X151704000Y-83590000D01*
X152054000Y-83640000D02*
X153254000Y-83640000D01*
X152054000Y-86540000D02*
X152054000Y-83640000D01*
X153254000Y-83640000D02*
X153254000Y-86540000D01*
X153254000Y-86540000D02*
X152054000Y-86540000D01*
D13*
%TO.C,R1*%
X127268500Y-95520742D02*
X127268500Y-95995258D01*
X126223500Y-95520742D02*
X126223500Y-95995258D01*
%TO.C,R5*%
X142256742Y-72375500D02*
X142731258Y-72375500D01*
X142256742Y-73420500D02*
X142731258Y-73420500D01*
%TO.C,R20*%
X146289500Y-80501258D02*
X146289500Y-80026742D01*
X147334500Y-80501258D02*
X147334500Y-80026742D01*
%TO.C,R6*%
X150892742Y-76439500D02*
X151367258Y-76439500D01*
X150892742Y-77484500D02*
X151367258Y-77484500D01*
D16*
%TO.C,L1*%
X155003500Y-87312500D02*
X159448500Y-87312500D01*
X159448500Y-82867500D02*
X155003500Y-82867500D01*
X154546300Y-85090000D02*
G75*
G03*
X154546300Y-85090000I-76200J0D01*
G01*
D14*
%TO.C,J1*%
X154276000Y-101604000D02*
X154276000Y-100254000D01*
X153076000Y-97554000D02*
X136076000Y-97554000D01*
X152676000Y-101604000D02*
X154276000Y-101604000D01*
X152126000Y-103304000D02*
X152126000Y-103304000D01*
X152126000Y-103204000D02*
X152126000Y-103204000D01*
X136476000Y-101604000D02*
X134776000Y-101604000D01*
X134776000Y-101604000D02*
X134776000Y-100254000D01*
X152126000Y-103204000D02*
G75*
G03*
X152126000Y-103304000I0J-50000D01*
G01*
X152126000Y-103304000D02*
G75*
G03*
X152126000Y-103204000I0J50000D01*
G01*
D13*
%TO.C,C4*%
X152915252Y-88619000D02*
X152392748Y-88619000D01*
X152915252Y-87149000D02*
X152392748Y-87149000D01*
%TO.C,R12*%
X145302500Y-105172742D02*
X145302500Y-105647258D01*
X144257500Y-105172742D02*
X144257500Y-105647258D01*
D17*
%TO.C,J3*%
X150152100Y-69786500D02*
G75*
G03*
X150152100Y-69786500I-381000J0D01*
G01*
%TD*%
M02*
