%TF.GenerationSoftware,KiCad,Pcbnew,7.0.9*%
%TF.CreationDate,2023-12-29T19:26:42-05:00*%
%TF.ProjectId,watch-0001,77617463-682d-4303-9030-312e6b696361,v.0.0.1*%
%TF.SameCoordinates,Original*%
%TF.FileFunction,Paste,Bot*%
%TF.FilePolarity,Positive*%
%FSLAX46Y46*%
G04 Gerber Fmt 4.6, Leading zero omitted, Abs format (unit mm)*
G04 Created by KiCad (PCBNEW 7.0.9) date 2023-12-29 19:26:42*
%MOMM*%
%LPD*%
G01*
G04 APERTURE LIST*
G04 Aperture macros list*
%AMRoundRect*
0 Rectangle with rounded corners*
0 $1 Rounding radius*
0 $2 $3 $4 $5 $6 $7 $8 $9 X,Y pos of 4 corners*
0 Add a 4 corners polygon primitive as box body*
4,1,4,$2,$3,$4,$5,$6,$7,$8,$9,$2,$3,0*
0 Add four circle primitives for the rounded corners*
1,1,$1+$1,$2,$3*
1,1,$1+$1,$4,$5*
1,1,$1+$1,$6,$7*
1,1,$1+$1,$8,$9*
0 Add four rect primitives between the rounded corners*
20,1,$1+$1,$2,$3,$4,$5,0*
20,1,$1+$1,$4,$5,$6,$7,0*
20,1,$1+$1,$6,$7,$8,$9,0*
20,1,$1+$1,$8,$9,$2,$3,0*%
G04 Aperture macros list end*
%ADD10RoundRect,0.250000X-0.475000X0.250000X-0.475000X-0.250000X0.475000X-0.250000X0.475000X0.250000X0*%
%ADD11RoundRect,0.200000X0.200000X0.275000X-0.200000X0.275000X-0.200000X-0.275000X0.200000X-0.275000X0*%
%ADD12RoundRect,0.200000X-0.275000X0.200000X-0.275000X-0.200000X0.275000X-0.200000X0.275000X0.200000X0*%
%ADD13R,0.350000X0.600000*%
%ADD14R,0.600000X0.350000*%
%ADD15RoundRect,0.087500X-0.125000X-0.087500X0.125000X-0.087500X0.125000X0.087500X-0.125000X0.087500X0*%
%ADD16RoundRect,0.087500X-0.087500X-0.125000X0.087500X-0.125000X0.087500X0.125000X-0.087500X0.125000X0*%
%ADD17RoundRect,0.250000X0.250000X0.475000X-0.250000X0.475000X-0.250000X-0.475000X0.250000X-0.475000X0*%
%ADD18RoundRect,0.250000X0.475000X-0.250000X0.475000X0.250000X-0.475000X0.250000X-0.475000X-0.250000X0*%
%ADD19R,1.500000X0.900000*%
%ADD20R,0.900000X1.500000*%
%ADD21R,0.900000X0.900000*%
G04 APERTURE END LIST*
D10*
%TO.C,C7*%
X162052000Y-86426000D03*
X162052000Y-88326000D03*
%TD*%
D11*
%TO.C,R10*%
X160591000Y-93218000D03*
X158941000Y-93218000D03*
%TD*%
D12*
%TO.C,R18*%
X160020000Y-86551000D03*
X160020000Y-88201000D03*
%TD*%
D13*
%TO.C,U3*%
X157468000Y-102346500D03*
X156968000Y-102346500D03*
X156468000Y-102346500D03*
X155968000Y-102346500D03*
D14*
X155808000Y-101686500D03*
X155808000Y-101186500D03*
X155808000Y-100686500D03*
D13*
X155968000Y-100026500D03*
X156468000Y-100026500D03*
X156968000Y-100026500D03*
X157468000Y-100026500D03*
D14*
X157628000Y-100686500D03*
X157628000Y-101186500D03*
X157628000Y-101686500D03*
%TD*%
D12*
%TO.C,R19*%
X160782000Y-96711000D03*
X160782000Y-98361000D03*
%TD*%
D15*
%TO.C,U4*%
X160527500Y-84578000D03*
X160527500Y-84078000D03*
D16*
X160790000Y-83565500D03*
X161290000Y-83565500D03*
X161790000Y-83565500D03*
D15*
X162052500Y-84078000D03*
X162052500Y-84578000D03*
D16*
X161790000Y-85090500D03*
X161290000Y-85090500D03*
X160790000Y-85090500D03*
%TD*%
D17*
%TO.C,C9*%
X162494000Y-79502000D03*
X160594000Y-79502000D03*
%TD*%
%TO.C,C11*%
X162494000Y-81534000D03*
X160594000Y-81534000D03*
%TD*%
D10*
%TO.C,C8*%
X164084000Y-86746000D03*
X164084000Y-88646000D03*
%TD*%
D11*
%TO.C,R17*%
X157797000Y-74676000D03*
X156147000Y-74676000D03*
%TD*%
%TO.C,R11*%
X160591000Y-94742000D03*
X158941000Y-94742000D03*
%TD*%
D18*
%TO.C,C10*%
X154178000Y-104582000D03*
X154178000Y-102682000D03*
%TD*%
%TO.C,C6*%
X156210000Y-84262000D03*
X156210000Y-82362000D03*
%TD*%
%TO.C,C5*%
X158242000Y-84262000D03*
X158242000Y-82362000D03*
%TD*%
D19*
%TO.C,U1*%
X153276000Y-82374000D03*
X153276000Y-83644000D03*
X153276000Y-84914000D03*
X153276000Y-86184000D03*
X153276000Y-87454000D03*
X153276000Y-88724000D03*
X153276000Y-89994000D03*
X153276000Y-91264000D03*
X153276000Y-92534000D03*
X153276000Y-93804000D03*
X153276000Y-95074000D03*
X153276000Y-96344000D03*
X153276000Y-97614000D03*
X153276000Y-98884000D03*
D20*
X150241000Y-100134000D03*
X148971000Y-100134000D03*
X147701000Y-100134000D03*
X146431000Y-100134000D03*
X145161000Y-100134000D03*
X143891000Y-100134000D03*
X142621000Y-100134000D03*
X141351000Y-100134000D03*
X140081000Y-100134000D03*
X138811000Y-100134000D03*
D19*
X135776000Y-98884000D03*
X135776000Y-97614000D03*
X135776000Y-96344000D03*
X135776000Y-95074000D03*
X135776000Y-93804000D03*
X135776000Y-92534000D03*
X135776000Y-91264000D03*
X135776000Y-89994000D03*
X135776000Y-88724000D03*
X135776000Y-87454000D03*
X135776000Y-86184000D03*
X135776000Y-84914000D03*
X135776000Y-83644000D03*
X135776000Y-82374000D03*
D21*
X147426000Y-88694000D03*
X147426000Y-90094000D03*
X147426000Y-91494000D03*
X146026000Y-91494000D03*
X144626000Y-91494000D03*
X144626000Y-90094000D03*
X144626000Y-88694000D03*
X146026000Y-88694000D03*
X146026000Y-90094000D03*
%TD*%
D18*
%TO.C,C12*%
X156718000Y-90358000D03*
X156718000Y-88458000D03*
%TD*%
M02*
