M48
; DRILL file {KiCad 7.0.9} date Fri 29 Dec 2023 07:26:44 PM EST
; FORMAT={-:-/ absolute / inch / decimal}
; #@! TF.CreationDate,2023-12-29T19:26:44-05:00
; #@! TF.GenerationSoftware,Kicad,Pcbnew,7.0.9
; #@! TF.FileFunction,Plated,1,4,PTH
FMAT,2
INCH
; #@! TA.AperFunction,Plated,PTH,ViaDrill
T1C0.0118
; #@! TA.AperFunction,Plated,PTH,ComponentDrill
T2C0.0157
; #@! TA.AperFunction,Plated,PTH,ComponentDrill
T3C0.0300
; #@! TA.AperFunction,Plated,PTH,ComponentDrill
T4C0.0476
; #@! TA.AperFunction,Plated,PTH,ComponentDrill
T5C0.0866
%
G90
G05
T1
X5.24Y-3.61
X5.3Y-3.03
X5.3Y-3.11
X5.35Y-3.4
X5.35Y-3.45
X5.4Y-3.34
X5.4Y-3.7
X5.4Y-3.88
X5.44Y-3.73
X5.49Y-3.03
X5.51Y-3.88
X5.55Y-4.08
X5.6421Y-3.6021
X5.66Y-3.01
X5.66Y-4.22
X5.68Y-3.2
X5.69Y-3.33
X5.72Y-2.96
X5.73Y-3.89
X5.75Y-3.7
X5.79Y-3.89
X5.8Y-3.82
X5.84Y-3.69
X5.84Y-3.86
X5.87Y-2.78
X5.88Y-3.89
X5.9Y-3.41
X5.92Y-2.93
X5.9472Y-3.5565
X5.9472Y-3.5231
X5.95Y-3.96
X5.96Y-3.92
X5.97Y-3.66
X5.98Y-2.82
X5.98Y-3.82
X5.9917Y-3.6017
X6.01Y-2.77
X6.01Y-3.08
X6.0146Y-3.9677
X6.02Y-4.08
X6.06Y-3.99
X6.09Y-3.24
X6.09Y-3.8
X6.1Y-2.93
X6.1Y-3.54
X6.11Y-3.18
X6.1439Y-4.0712
X6.17Y-3.9737
X6.22Y-3.47
X6.25Y-3.63
X6.25Y-4.0
X6.26Y-3.47
X6.28Y-3.24
X6.3Y-3.2864
X6.31Y-3.61
X6.33Y-3.06
X6.35Y-3.2626
X6.35Y-3.62
X6.38Y-3.4049
X6.3974Y-3.2928
X6.4Y-3.67
X6.45Y-3.27
X6.47Y-3.37
X6.48Y-3.54
T2
X5.1442Y-3.3655
X5.1442Y-3.397
X5.1442Y-3.4285
X5.1442Y-3.4915
X5.1442Y-3.523
X5.1442Y-3.5545
X5.1718Y-3.3498
X5.1718Y-3.4128
X5.1718Y-3.4443
X5.1718Y-3.4757
X5.1718Y-3.5072
X5.1718Y-3.5702
T3
X5.5865Y-2.7475
X5.5865Y-2.7975
X5.6365Y-2.7475
X5.6365Y-2.7975
X5.6865Y-2.7475
X5.6865Y-2.7975
X5.7365Y-2.7475
X5.7365Y-2.7975
X5.7865Y-2.7475
X5.7865Y-2.7975
T4
X4.9753Y-3.2832
X4.9753Y-3.6368
X5.1485Y-3.2974
X5.1485Y-3.6226
T5
X5.1667Y-3.0929
X5.1667Y-3.8271
X6.21Y-3.0929
X6.21Y-3.8271
T0
M30
