%TF.GenerationSoftware,KiCad,Pcbnew,7.0.9*%
%TF.CreationDate,2023-12-29T19:26:42-05:00*%
%TF.ProjectId,watch-0001,77617463-682d-4303-9030-312e6b696361,v.0.0.1*%
%TF.SameCoordinates,Original*%
%TF.FileFunction,Copper,L4,Bot*%
%TF.FilePolarity,Positive*%
%FSLAX46Y46*%
G04 Gerber Fmt 4.6, Leading zero omitted, Abs format (unit mm)*
G04 Created by KiCad (PCBNEW 7.0.9) date 2023-12-29 19:26:42*
%MOMM*%
%LPD*%
G01*
G04 APERTURE LIST*
G04 Aperture macros list*
%AMRoundRect*
0 Rectangle with rounded corners*
0 $1 Rounding radius*
0 $2 $3 $4 $5 $6 $7 $8 $9 X,Y pos of 4 corners*
0 Add a 4 corners polygon primitive as box body*
4,1,4,$2,$3,$4,$5,$6,$7,$8,$9,$2,$3,0*
0 Add four circle primitives for the rounded corners*
1,1,$1+$1,$2,$3*
1,1,$1+$1,$4,$5*
1,1,$1+$1,$6,$7*
1,1,$1+$1,$8,$9*
0 Add four rect primitives between the rounded corners*
20,1,$1+$1,$2,$3,$4,$5,0*
20,1,$1+$1,$4,$5,$6,$7,0*
20,1,$1+$1,$6,$7,$8,$9,0*
20,1,$1+$1,$8,$9,$2,$3,0*%
G04 Aperture macros list end*
%TA.AperFunction,ComponentPad*%
%ADD10C,3.800000*%
%TD*%
%TA.AperFunction,ComponentPad*%
%ADD11C,0.600000*%
%TD*%
%TA.AperFunction,ComponentPad*%
%ADD12C,1.815000*%
%TD*%
%TA.AperFunction,SMDPad,CuDef*%
%ADD13RoundRect,0.250000X-0.475000X0.250000X-0.475000X-0.250000X0.475000X-0.250000X0.475000X0.250000X0*%
%TD*%
%TA.AperFunction,SMDPad,CuDef*%
%ADD14C,1.000000*%
%TD*%
%TA.AperFunction,SMDPad,CuDef*%
%ADD15RoundRect,0.200000X0.200000X0.275000X-0.200000X0.275000X-0.200000X-0.275000X0.200000X-0.275000X0*%
%TD*%
%TA.AperFunction,SMDPad,CuDef*%
%ADD16RoundRect,0.200000X-0.275000X0.200000X-0.275000X-0.200000X0.275000X-0.200000X0.275000X0.200000X0*%
%TD*%
%TA.AperFunction,ComponentPad*%
%ADD17C,1.168400*%
%TD*%
%TA.AperFunction,SMDPad,CuDef*%
%ADD18R,0.350000X0.600000*%
%TD*%
%TA.AperFunction,SMDPad,CuDef*%
%ADD19R,0.600000X0.350000*%
%TD*%
%TA.AperFunction,SMDPad,CuDef*%
%ADD20RoundRect,0.087500X-0.125000X-0.087500X0.125000X-0.087500X0.125000X0.087500X-0.125000X0.087500X0*%
%TD*%
%TA.AperFunction,SMDPad,CuDef*%
%ADD21RoundRect,0.087500X-0.087500X-0.125000X0.087500X-0.125000X0.087500X0.125000X-0.087500X0.125000X0*%
%TD*%
%TA.AperFunction,SMDPad,CuDef*%
%ADD22RoundRect,0.250000X0.250000X0.475000X-0.250000X0.475000X-0.250000X-0.475000X0.250000X-0.475000X0*%
%TD*%
%TA.AperFunction,SMDPad,CuDef*%
%ADD23RoundRect,0.250000X0.475000X-0.250000X0.475000X0.250000X-0.475000X0.250000X-0.475000X-0.250000X0*%
%TD*%
%TA.AperFunction,SMDPad,CuDef*%
%ADD24R,1.500000X0.900000*%
%TD*%
%TA.AperFunction,SMDPad,CuDef*%
%ADD25R,0.900000X1.500000*%
%TD*%
%TA.AperFunction,SMDPad,CuDef*%
%ADD26R,0.900000X0.900000*%
%TD*%
%TA.AperFunction,ViaPad*%
%ADD27C,0.600000*%
%TD*%
%TA.AperFunction,Conductor*%
%ADD28C,0.200000*%
%TD*%
G04 APERTURE END LIST*
D10*
%TO.P,H1,1*%
%TO.N,N/C*%
X131234000Y-78559000D03*
%TD*%
D11*
%TO.P,J2,B1,GND_3*%
%TO.N,GND*%
X131363000Y-90684000D03*
%TO.P,J2,B2,SSTXP2*%
%TO.N,unconnected-(J2-SSTXP2-PadB2)*%
X130663000Y-90284000D03*
%TO.P,J2,B3,SSTXN2*%
%TO.N,unconnected-(J2-SSTXN2-PadB3)*%
X130663000Y-89484000D03*
%TO.P,J2,B4,VBUS_3*%
%TO.N,VBUS*%
X131363000Y-89084000D03*
%TO.P,J2,B5,CC2*%
%TO.N,Net-(J2-CC2)*%
X130663000Y-88684000D03*
%TO.P,J2,B6,DP2*%
%TO.N,unconnected-(J2-DP2-PadB6)*%
X131363000Y-88284000D03*
%TO.P,J2,B7,DN2*%
%TO.N,unconnected-(J2-DN2-PadB7)*%
X131363000Y-87484000D03*
%TO.P,J2,B8,SBU2*%
%TO.N,unconnected-(J2-SBU2-PadB8)*%
X130663000Y-87084000D03*
%TO.P,J2,B9,VBUS_4*%
%TO.N,VBUS*%
X131363000Y-86684000D03*
%TO.P,J2,B10,SSRXN1*%
%TO.N,unconnected-(J2-SSRXN1-PadB10)*%
X130663000Y-86284000D03*
%TO.P,J2,B11,SSRXP1*%
%TO.N,unconnected-(J2-SSRXP1-PadB11)*%
X130663000Y-85484000D03*
%TO.P,J2,B12,GND_4*%
%TO.N,GND*%
X131363000Y-85084000D03*
D12*
%TO.P,J2,MH1,MH1*%
%TO.N,unconnected-(J2-PadMH1)*%
X130773000Y-83754000D03*
%TO.P,J2,MH2,MH2*%
%TO.N,unconnected-(J2-PadMH2)*%
X130773000Y-92014000D03*
%TO.P,J2,MH3,MH3*%
%TO.N,unconnected-(J2-PadMH3)*%
X126373000Y-92374000D03*
%TO.P,J2,MH4,MH4*%
%TO.N,unconnected-(J2-PadMH4)*%
X126373000Y-83394000D03*
%TD*%
D10*
%TO.P,H4,1*%
%TO.N,N/C*%
X157734000Y-97209000D03*
%TD*%
%TO.P,H3,1*%
%TO.N,N/C*%
X157734000Y-78559000D03*
%TD*%
%TO.P,H2,1*%
%TO.N,N/C*%
X131234000Y-97209000D03*
%TD*%
D13*
%TO.P,C7,1*%
%TO.N,Net-(U4-VDD)*%
X162052000Y-86426000D03*
%TO.P,C7,2*%
%TO.N,GND*%
X162052000Y-88326000D03*
%TD*%
D14*
%TO.P,TP4,1,1*%
%TO.N,Net-(U1-RXD0)*%
X144609333Y-105410000D03*
%TD*%
D15*
%TO.P,R10,1*%
%TO.N,+3V3*%
X160591000Y-93218000D03*
%TO.P,R10,2*%
%TO.N,I2C_SDA*%
X158941000Y-93218000D03*
%TD*%
D16*
%TO.P,R18,1*%
%TO.N,+3V3*%
X160020000Y-86551000D03*
%TO.P,R18,2*%
%TO.N,Net-(U4-VDD)*%
X160020000Y-88201000D03*
%TD*%
D17*
%TO.P,J3,1,1*%
%TO.N,+3V3*%
X146977100Y-69786500D03*
%TO.P,J3,2,2*%
%TO.N,/JTAG_TMS*%
X145707100Y-69786500D03*
%TO.P,J3,3,3*%
%TO.N,GND*%
X144437100Y-69786500D03*
%TO.P,J3,4,4*%
%TO.N,/JTAG_TCK*%
X143167100Y-69786500D03*
%TO.P,J3,5,5*%
%TO.N,GND*%
X141897100Y-69786500D03*
%TO.P,J3,6,6*%
%TO.N,/JTAG_TDO*%
X146977100Y-71056500D03*
%TO.P,J3,7,7*%
%TO.N,GND*%
X145707100Y-71056500D03*
%TO.P,J3,8,8*%
%TO.N,/JTAG_TDI*%
X144437100Y-71056500D03*
%TO.P,J3,9,9*%
%TO.N,GND*%
X143167100Y-71056500D03*
%TO.P,J3,10,10*%
%TO.N,unconnected-(J3-Pad10)*%
X141897100Y-71056500D03*
%TD*%
D18*
%TO.P,U3,1,SDO/SA0*%
%TO.N,Net-(U3-CS)*%
X157468000Y-102346500D03*
%TO.P,U3,2,SDX*%
%TO.N,unconnected-(U3-SDX-Pad2)*%
X156968000Y-102346500D03*
%TO.P,U3,3,SCX*%
%TO.N,unconnected-(U3-SCX-Pad3)*%
X156468000Y-102346500D03*
%TO.P,U3,4,INT1*%
%TO.N,IMU_INT*%
X155968000Y-102346500D03*
D19*
%TO.P,U3,5,VDDIO*%
%TO.N,+3V3*%
X155808000Y-101686500D03*
%TO.P,U3,6,GND*%
%TO.N,GND*%
X155808000Y-101186500D03*
%TO.P,U3,7,GND*%
X155808000Y-100686500D03*
D18*
%TO.P,U3,8,VDD*%
%TO.N,+3V3*%
X155968000Y-100026500D03*
%TO.P,U3,9,INT2/DEN/MDRDY*%
%TO.N,unconnected-(U3-INT2{slash}DEN{slash}MDRDY-Pad9)*%
X156468000Y-100026500D03*
%TO.P,U3,10,OCS_AUX*%
%TO.N,unconnected-(U3-OCS_AUX-Pad10)*%
X156968000Y-100026500D03*
%TO.P,U3,11,SDO_AUX*%
%TO.N,unconnected-(U3-SDO_AUX-Pad11)*%
X157468000Y-100026500D03*
D19*
%TO.P,U3,12,CS*%
%TO.N,Net-(U3-CS)*%
X157628000Y-100686500D03*
%TO.P,U3,13,SCL/SPC*%
%TO.N,I2C_SCL*%
X157628000Y-101186500D03*
%TO.P,U3,14,SDA/SDI/SDO*%
%TO.N,I2C_SDA*%
X157628000Y-101686500D03*
%TD*%
D16*
%TO.P,R19,1*%
%TO.N,+3V3*%
X160782000Y-96711000D03*
%TO.P,R19,2*%
%TO.N,Net-(U3-CS)*%
X160782000Y-98361000D03*
%TD*%
D14*
%TO.P,TP5,1,1*%
%TO.N,Net-(U1-TXD0)*%
X141307333Y-105410000D03*
%TD*%
%TO.P,TP1,1,1*%
%TO.N,CHG*%
X138005333Y-105410000D03*
%TD*%
D20*
%TO.P,U4,1,Vdd_IO*%
%TO.N,+3V3*%
X160527500Y-84578000D03*
%TO.P,U4,2,SCL*%
%TO.N,I2C_SCL*%
X160527500Y-84078000D03*
D21*
%TO.P,U4,3,RES*%
%TO.N,GND*%
X160790000Y-83565500D03*
%TO.P,U4,4,SDA*%
%TO.N,I2C_SDA*%
X161290000Y-83565500D03*
%TO.P,U4,5,SA0*%
%TO.N,+3V3*%
X161790000Y-83565500D03*
D20*
%TO.P,U4,6,~{CS}*%
X162052500Y-84078000D03*
%TO.P,U4,7,INT_DRDY*%
%TO.N,PR_INT_DRDY*%
X162052500Y-84578000D03*
D21*
%TO.P,U4,8,GND*%
%TO.N,GND*%
X161790000Y-85090500D03*
%TO.P,U4,9,GND*%
X161290000Y-85090500D03*
%TO.P,U4,10,VDD*%
%TO.N,Net-(U4-VDD)*%
X160790000Y-85090500D03*
%TD*%
D22*
%TO.P,C9,1*%
%TO.N,+3V3*%
X162494000Y-79502000D03*
%TO.P,C9,2*%
%TO.N,GND*%
X160594000Y-79502000D03*
%TD*%
D14*
%TO.P,TP2,1,1*%
%TO.N,BAT_MON*%
X147911333Y-105410000D03*
%TD*%
D22*
%TO.P,C11,1*%
%TO.N,+3V3*%
X162494000Y-81534000D03*
%TO.P,C11,2*%
%TO.N,GND*%
X160594000Y-81534000D03*
%TD*%
D13*
%TO.P,C8,1*%
%TO.N,Net-(U4-VDD)*%
X164084000Y-86746000D03*
%TO.P,C8,2*%
%TO.N,GND*%
X164084000Y-88646000D03*
%TD*%
D15*
%TO.P,R17,1*%
%TO.N,Net-(U1-EN)*%
X157797000Y-74676000D03*
%TO.P,R17,2*%
%TO.N,+3V3*%
X156147000Y-74676000D03*
%TD*%
%TO.P,R11,1*%
%TO.N,+3V3*%
X160591000Y-94742000D03*
%TO.P,R11,2*%
%TO.N,I2C_SCL*%
X158941000Y-94742000D03*
%TD*%
D23*
%TO.P,C10,1*%
%TO.N,+3V3*%
X154178000Y-104582000D03*
%TO.P,C10,2*%
%TO.N,GND*%
X154178000Y-102682000D03*
%TD*%
%TO.P,C6,1*%
%TO.N,+3V3*%
X156210000Y-84262000D03*
%TO.P,C6,2*%
%TO.N,GND*%
X156210000Y-82362000D03*
%TD*%
%TO.P,C5,1*%
%TO.N,+3V3*%
X158242000Y-84262000D03*
%TO.P,C5,2*%
%TO.N,GND*%
X158242000Y-82362000D03*
%TD*%
D14*
%TO.P,TP3,1,1*%
%TO.N,Net-(IC2-~{MR})*%
X151213333Y-105410000D03*
%TD*%
D24*
%TO.P,U1,1,GND_1*%
%TO.N,GND*%
X153276000Y-82374000D03*
%TO.P,U1,2,3V3*%
%TO.N,+3V3*%
X153276000Y-83644000D03*
%TO.P,U1,3,EN*%
%TO.N,Net-(U1-EN)*%
X153276000Y-84914000D03*
%TO.P,U1,4,SENSOR_VP*%
%TO.N,unconnected-(U1-SENSOR_VP-Pad4)*%
X153276000Y-86184000D03*
%TO.P,U1,5,SENSOR_VN*%
%TO.N,unconnected-(U1-SENSOR_VN-Pad5)*%
X153276000Y-87454000D03*
%TO.P,U1,6,IO34*%
%TO.N,/DISP_BL*%
X153276000Y-88724000D03*
%TO.P,U1,7,IO35*%
%TO.N,/TP_INT*%
X153276000Y-89994000D03*
%TO.P,U1,8,IO32*%
%TO.N,/TP_RST*%
X153276000Y-91264000D03*
%TO.P,U1,9,IO33*%
%TO.N,BAT_MON*%
X153276000Y-92534000D03*
%TO.P,U1,10,IO25*%
%TO.N,I2C_SDA*%
X153276000Y-93804000D03*
%TO.P,U1,11,IO26*%
%TO.N,I2C_SCL*%
X153276000Y-95074000D03*
%TO.P,U1,12,IO27*%
%TO.N,IMU_INT*%
X153276000Y-96344000D03*
%TO.P,U1,13,IO14*%
%TO.N,/JTAG_TMS*%
X153276000Y-97614000D03*
%TO.P,U1,14,IO12*%
%TO.N,/JTAG_TDI*%
X153276000Y-98884000D03*
D25*
%TO.P,U1,15,GND_2*%
%TO.N,GND*%
X150241000Y-100134000D03*
%TO.P,U1,16,IO13*%
%TO.N,/JTAG_TCK*%
X148971000Y-100134000D03*
%TO.P,U1,17,NC_1*%
%TO.N,unconnected-(U1-NC_1-Pad17)*%
X147701000Y-100134000D03*
%TO.P,U1,18,NC_2*%
%TO.N,unconnected-(U1-NC_2-Pad18)*%
X146431000Y-100134000D03*
%TO.P,U1,19,NC_3*%
%TO.N,unconnected-(U1-NC_3-Pad19)*%
X145161000Y-100134000D03*
%TO.P,U1,20,NC_4*%
%TO.N,unconnected-(U1-NC_4-Pad20)*%
X143891000Y-100134000D03*
%TO.P,U1,21,NC_5*%
%TO.N,unconnected-(U1-NC_5-Pad21)*%
X142621000Y-100134000D03*
%TO.P,U1,22,NC_6*%
%TO.N,unconnected-(U1-NC_6-Pad22)*%
X141351000Y-100134000D03*
%TO.P,U1,23,IO15*%
%TO.N,/JTAG_TDO*%
X140081000Y-100134000D03*
%TO.P,U1,24,IO2*%
%TO.N,unconnected-(U1-IO2-Pad24)*%
X138811000Y-100134000D03*
D24*
%TO.P,U1,25,IO0*%
%TO.N,unconnected-(U1-IO0-Pad25)*%
X135776000Y-98884000D03*
%TO.P,U1,26,IO4*%
%TO.N,BAT_MON_EN*%
X135776000Y-97614000D03*
%TO.P,U1,27,IO16*%
%TO.N,DISP_RST*%
X135776000Y-96344000D03*
%TO.P,U1,28,IO17*%
%TO.N,PR_INT_DRDY*%
X135776000Y-95074000D03*
%TO.P,U1,29,IO5*%
%TO.N,DISP_CS*%
X135776000Y-93804000D03*
%TO.P,U1,30,IO18*%
%TO.N,DISP_SPI_SCLK*%
X135776000Y-92534000D03*
%TO.P,U1,31,IO19*%
%TO.N,DISP_SPI_MISO*%
X135776000Y-91264000D03*
%TO.P,U1,32,NC_7*%
%TO.N,unconnected-(U1-NC_7-Pad32)*%
X135776000Y-89994000D03*
%TO.P,U1,33,IO21*%
%TO.N,DISP_DC*%
X135776000Y-88724000D03*
%TO.P,U1,34,RXD0*%
%TO.N,Net-(U1-RXD0)*%
X135776000Y-87454000D03*
%TO.P,U1,35,TXD0*%
%TO.N,Net-(U1-TXD0)*%
X135776000Y-86184000D03*
%TO.P,U1,36,IO22*%
%TO.N,CHG*%
X135776000Y-84914000D03*
%TO.P,U1,37,IO23*%
%TO.N,DISP_SPI_MOSI*%
X135776000Y-83644000D03*
%TO.P,U1,38,GND_3*%
%TO.N,GND*%
X135776000Y-82374000D03*
D26*
%TO.P,U1,39,GND_4*%
X147426000Y-88694000D03*
%TO.P,U1,40,GND_5*%
X147426000Y-90094000D03*
%TO.P,U1,41,GND_6*%
X147426000Y-91494000D03*
%TO.P,U1,42,GND_7*%
X146026000Y-91494000D03*
%TO.P,U1,43,GND_8*%
X144626000Y-91494000D03*
%TO.P,U1,44,GND_9*%
X144626000Y-90094000D03*
%TO.P,U1,45,GND_10*%
X144626000Y-88694000D03*
%TO.P,U1,46,GND_11*%
X146026000Y-88694000D03*
%TO.P,U1,47,GND_12*%
X146026000Y-90094000D03*
%TD*%
D23*
%TO.P,C12,1*%
%TO.N,Net-(U1-EN)*%
X156718000Y-90358000D03*
%TO.P,C12,2*%
%TO.N,GND*%
X156718000Y-88458000D03*
%TD*%
D27*
%TO.N,I2C_SDA*%
X161290000Y-82870137D03*
X158750000Y-101600000D03*
X148336000Y-93726000D03*
X158750000Y-92202000D03*
%TO.N,I2C_SCL*%
X146050000Y-93980000D03*
X156718000Y-100932500D03*
X160020000Y-83474500D03*
X161290000Y-91948000D03*
%TO.N,DISP_SPI_MISO*%
X149352000Y-98806000D03*
%TO.N,DISP_SPI_MOSI*%
X148336000Y-98044000D03*
%TO.N,+BATT*%
X143764000Y-76454000D03*
X145288000Y-75184000D03*
X144272000Y-81280000D03*
%TO.N,DISP_SPI_SCLK*%
X147066000Y-98806000D03*
%TO.N,CHG*%
X137160000Y-84836000D03*
%TO.N,+3V3*%
X144526000Y-84582000D03*
X162494000Y-83636500D03*
X152908000Y-103632000D03*
X157988000Y-88138000D03*
X154940000Y-89916000D03*
%TO.N,Net-(IC2-~{MR})*%
X155194000Y-80772000D03*
X152771676Y-100778445D03*
%TO.N,BAT_MON_EN*%
X151892000Y-71628000D03*
X137160000Y-98552000D03*
%TO.N,Net-(IC2-~{RESET})*%
X152654000Y-78232000D03*
X160274000Y-91694000D03*
%TO.N,/JTAG_TMS*%
X149098000Y-70612000D03*
X151892000Y-97028000D03*
%TO.N,/JTAG_TDO*%
X139954000Y-98552000D03*
%TO.N,DISP_CS*%
X145542000Y-98806000D03*
%TO.N,GND*%
X162560000Y-93218000D03*
X164338000Y-85598000D03*
X164592000Y-89916000D03*
X143310000Y-91494000D03*
X152654000Y-70358000D03*
X159512000Y-82296000D03*
X151130000Y-100584000D03*
X154686000Y-82296000D03*
X160782000Y-77724000D03*
X149860000Y-86614000D03*
X133096000Y-91694000D03*
X134620000Y-78994000D03*
X150368000Y-74422000D03*
X153924000Y-101346000D03*
%TO.N,VBUS*%
X139446000Y-76962000D03*
X134620000Y-76962000D03*
%TO.N,/DISP_BL*%
X151059225Y-89486747D03*
%TO.N,/TP_INT*%
X151059085Y-90334429D03*
%TO.N,/TP_RST*%
X152188911Y-91482911D03*
%TO.N,DISP_RST*%
X143764000Y-107188000D03*
%TO.N,DISP_DC*%
X147320000Y-97028000D03*
%TO.N,IMU_INT*%
X154686000Y-96520000D03*
X156054470Y-103409248D03*
%TO.N,PR_INT_DRDY*%
X163830000Y-83058000D03*
X137160000Y-93980000D03*
%TO.N,BAT_MON*%
X151638000Y-92964000D03*
X151384000Y-99568000D03*
X154940000Y-74422000D03*
%TO.N,Net-(U1-RXD0)*%
X140970000Y-103632000D03*
X135890000Y-87630000D03*
%TO.N,Net-(U1-TXD0)*%
X138176000Y-94742000D03*
X135890000Y-86360000D03*
%TO.N,Net-(U4-VDD)*%
X159004000Y-88138000D03*
X162052000Y-86483502D03*
%TD*%
D28*
%TO.N,I2C_SDA*%
X157628000Y-101686500D02*
X158663500Y-101686500D01*
X158750000Y-92202000D02*
X158750000Y-93027000D01*
X158355000Y-93804000D02*
X158941000Y-93218000D01*
X153276000Y-93804000D02*
X148414000Y-93804000D01*
X153276000Y-93804000D02*
X158355000Y-93804000D01*
X158663500Y-101686500D02*
X158750000Y-101600000D01*
X148414000Y-93804000D02*
X148336000Y-93726000D01*
X161290000Y-83565500D02*
X161290000Y-82870137D01*
X158750000Y-93027000D02*
X158941000Y-93218000D01*
%TO.N,I2C_SCL*%
X153608000Y-94742000D02*
X158941000Y-94742000D01*
X153276000Y-95074000D02*
X147144000Y-95074000D01*
X157628000Y-101186500D02*
X156972000Y-101186500D01*
X160178352Y-92443000D02*
X159641000Y-92980352D01*
X160527500Y-84078000D02*
X160020000Y-83570500D01*
X159641000Y-94042000D02*
X158941000Y-94742000D01*
X156972000Y-101186500D02*
X156718000Y-100932500D01*
X160795000Y-92443000D02*
X160178352Y-92443000D01*
X153276000Y-95074000D02*
X153608000Y-94742000D01*
X161290000Y-91948000D02*
X160795000Y-92443000D01*
X159641000Y-92980352D02*
X159641000Y-94042000D01*
X147144000Y-95074000D02*
X146050000Y-93980000D01*
X160020000Y-83570500D02*
X160020000Y-83474500D01*
%TO.N,DISP_SPI_MISO*%
X140247000Y-91264000D02*
X135776000Y-91264000D01*
X147935500Y-98806000D02*
X146557500Y-97428000D01*
X146557500Y-97428000D02*
X146411000Y-97428000D01*
X149352000Y-98806000D02*
X147935500Y-98806000D01*
X146411000Y-97428000D02*
X140247000Y-91264000D01*
%TO.N,DISP_SPI_MOSI*%
X148336000Y-97195471D02*
X148336000Y-98044000D01*
X136984000Y-83644000D02*
X137760000Y-84420000D01*
X137760000Y-87976000D02*
X138108000Y-88324000D01*
X146380372Y-96266000D02*
X147406529Y-96266000D01*
X137760000Y-84420000D02*
X137760000Y-87976000D01*
X147406529Y-96266000D02*
X148336000Y-97195471D01*
X135776000Y-83644000D02*
X136984000Y-83644000D01*
X138438372Y-88324000D02*
X146380372Y-96266000D01*
X138108000Y-88324000D02*
X138438372Y-88324000D01*
%TO.N,DISP_SPI_SCLK*%
X140794000Y-92534000D02*
X147066000Y-98806000D01*
X135776000Y-92534000D02*
X140794000Y-92534000D01*
%TO.N,CHG*%
X134112000Y-85628000D02*
X134826000Y-84914000D01*
X137082000Y-84914000D02*
X137160000Y-84836000D01*
X135776000Y-84914000D02*
X137082000Y-84914000D01*
X138005333Y-105410000D02*
X134112000Y-101516667D01*
X134112000Y-101516667D02*
X134112000Y-85628000D01*
X134826000Y-84914000D02*
X135776000Y-84914000D01*
%TO.N,+3V3*%
X155592000Y-83644000D02*
X156210000Y-84262000D01*
X160591000Y-93218000D02*
X160591000Y-94742000D01*
X160991000Y-93218000D02*
X162052000Y-92157000D01*
X158242000Y-84262000D02*
X160020000Y-86040000D01*
X162052000Y-91861471D02*
X161284529Y-91094000D01*
X153324000Y-101097471D02*
X154394971Y-100026500D01*
X156210000Y-84262000D02*
X158242000Y-84262000D01*
X155448000Y-88218256D02*
X157115256Y-86551000D01*
X153276000Y-83644000D02*
X155592000Y-83644000D01*
X154940000Y-91694000D02*
X154940000Y-89916000D01*
X157988000Y-88138000D02*
X157988000Y-88697744D01*
X155702000Y-92456000D02*
X154940000Y-91694000D01*
X154394971Y-100026500D02*
X155968000Y-100026500D01*
X160527500Y-84578000D02*
X158558000Y-84578000D01*
X153324000Y-101438000D02*
X153324000Y-101097471D01*
X158645270Y-99409000D02*
X160020000Y-98034270D01*
X147861300Y-70670700D02*
X146977100Y-69786500D01*
X162052500Y-84078000D02*
X162494000Y-83636500D01*
X155203000Y-102197256D02*
X155646256Y-101754000D01*
X157988000Y-88697744D02*
X157277744Y-89408000D01*
X154178000Y-104582000D02*
X152908000Y-103632000D01*
X161657709Y-76821709D02*
X158737000Y-73901000D01*
X157277744Y-89408000D02*
X156158256Y-89408000D01*
X160591000Y-93218000D02*
X160991000Y-93218000D01*
X156085500Y-99409000D02*
X158645270Y-99409000D01*
X152908000Y-103632000D02*
X152908000Y-101854000D01*
X162494000Y-78236564D02*
X162408899Y-78073086D01*
X160020000Y-97473000D02*
X160782000Y-96711000D01*
X162494000Y-79502000D02*
X162494000Y-78236564D01*
X161963945Y-77302404D02*
X161657709Y-76821709D01*
X162494000Y-83636500D02*
X162494000Y-81534000D01*
X156922000Y-73901000D02*
X156147000Y-74676000D01*
X162408899Y-78073086D02*
X161963945Y-77302404D01*
X161284529Y-91094000D02*
X157572000Y-91094000D01*
X162494000Y-79502000D02*
X162494000Y-81534000D01*
X160020000Y-98034270D02*
X160020000Y-97473000D01*
X158558000Y-84578000D02*
X158242000Y-84262000D01*
X161790000Y-83815500D02*
X162052500Y-84078000D01*
X157572000Y-91094000D02*
X156210000Y-92456000D01*
X157115256Y-86551000D02*
X160020000Y-86551000D01*
X155448000Y-88697744D02*
X155448000Y-88218256D01*
X155203000Y-103557000D02*
X155203000Y-102197256D01*
X160591000Y-94742000D02*
X160591000Y-96520000D01*
X156210000Y-92456000D02*
X155702000Y-92456000D01*
X144526000Y-84582000D02*
X147861300Y-81246700D01*
X160591000Y-96520000D02*
X160782000Y-96711000D01*
X160020000Y-86040000D02*
X160020000Y-86551000D01*
X152908000Y-101854000D02*
X153324000Y-101438000D01*
X154178000Y-104582000D02*
X155203000Y-103557000D01*
X155968000Y-100026500D02*
X155968000Y-99526500D01*
X156158256Y-89408000D02*
X155448000Y-88697744D01*
X160845000Y-93472000D02*
X160591000Y-93218000D01*
X161790000Y-83565500D02*
X161790000Y-83815500D01*
X147861300Y-81246700D02*
X147861300Y-70670700D01*
X158737000Y-73901000D02*
X156922000Y-73901000D01*
X162052000Y-92157000D02*
X162052000Y-91861471D01*
X155968000Y-99526500D02*
X156085500Y-99409000D01*
%TO.N,Net-(IC2-~{MR})*%
X152771676Y-100778445D02*
X152771676Y-101188324D01*
X152771676Y-101188324D02*
X151213333Y-102746667D01*
X151213333Y-102746667D02*
X151213333Y-105410000D01*
%TO.N,BAT_MON_EN*%
X136222000Y-97614000D02*
X135776000Y-97614000D01*
X137160000Y-98552000D02*
X136222000Y-97614000D01*
%TO.N,/JTAG_TMS*%
X153276000Y-97614000D02*
X152478000Y-97614000D01*
X152478000Y-97614000D02*
X151892000Y-97028000D01*
X146591300Y-68902300D02*
X147388300Y-68902300D01*
X147388300Y-68902300D02*
X149098000Y-70612000D01*
X145707100Y-69786500D02*
X146591300Y-68902300D01*
%TO.N,/JTAG_TCK*%
X143911105Y-107889424D02*
X148971000Y-102829529D01*
X133434000Y-79470270D02*
X133350000Y-79554270D01*
X133350000Y-77563730D02*
X133434000Y-77647730D01*
X139677832Y-107696808D02*
X140546666Y-107889424D01*
X133350000Y-79554270D02*
X133350000Y-91099471D01*
X133696000Y-102344244D02*
X138818238Y-107466482D01*
X133350000Y-91099471D02*
X133696000Y-91445471D01*
X143167100Y-69786500D02*
X142282900Y-68902300D01*
X142282900Y-68902300D02*
X137636310Y-68902300D01*
X140546666Y-107889424D02*
X143911105Y-107889424D01*
X137636310Y-68902300D02*
X133350000Y-73188610D01*
X133696000Y-91445471D02*
X133696000Y-102344244D01*
X133434000Y-77647730D02*
X133434000Y-79470270D01*
X133350000Y-73188610D02*
X133350000Y-77563730D01*
X138818238Y-107466482D02*
X139677832Y-107696808D01*
X148971000Y-102829529D02*
X148971000Y-100134000D01*
%TO.N,/JTAG_TDO*%
X140081000Y-98679000D02*
X139954000Y-98552000D01*
X140081000Y-100134000D02*
X140081000Y-98679000D01*
%TO.N,/JTAG_TDI*%
X142240000Y-91272529D02*
X142240000Y-73253600D01*
X146441471Y-95474000D02*
X142240000Y-91272529D01*
X147180215Y-95474000D02*
X146441471Y-95474000D01*
X142240000Y-73253600D02*
X144437100Y-71056500D01*
X153276000Y-98884000D02*
X150590215Y-98884000D01*
X150590215Y-98884000D02*
X147180215Y-95474000D01*
%TO.N,DISP_CS*%
X140116000Y-93380000D02*
X145542000Y-98806000D01*
X136200000Y-93380000D02*
X140116000Y-93380000D01*
X135776000Y-93804000D02*
X136200000Y-93380000D01*
%TO.N,GND*%
X159512000Y-82296000D02*
X158308000Y-82296000D01*
X160594000Y-81534000D02*
X160594000Y-79502000D01*
X160690000Y-83465500D02*
X160690000Y-81630000D01*
X153961000Y-101383000D02*
X153924000Y-101346000D01*
X150426000Y-100134000D02*
X150241000Y-100134000D01*
X164084000Y-88326000D02*
X164592000Y-88834000D01*
X163068000Y-89342000D02*
X162052000Y-88326000D01*
X164338000Y-85598000D02*
X162297500Y-85598000D01*
X144626000Y-88694000D02*
X144626000Y-91494000D01*
X155808000Y-100686500D02*
X155673500Y-100686500D01*
X154608000Y-82374000D02*
X154686000Y-82296000D01*
X161227000Y-87501000D02*
X157675000Y-87501000D01*
X154686000Y-82296000D02*
X156144000Y-82296000D01*
X147780000Y-88694000D02*
X147426000Y-88694000D01*
X155673500Y-100686500D02*
X154977000Y-101383000D01*
X162052000Y-88326000D02*
X161227000Y-87501000D01*
X158308000Y-82296000D02*
X158242000Y-82362000D01*
X161290000Y-85090500D02*
X161790000Y-85090500D01*
X163068000Y-92710000D02*
X163068000Y-89342000D01*
X143310000Y-91494000D02*
X144626000Y-91494000D01*
X160802392Y-81534000D02*
X160594000Y-81534000D01*
X153924000Y-101346000D02*
X153924000Y-102428000D01*
X154977000Y-101383000D02*
X153961000Y-101383000D01*
X159832000Y-82296000D02*
X160594000Y-81534000D01*
X160690000Y-81630000D02*
X160594000Y-81534000D01*
X144626000Y-88694000D02*
X147426000Y-88694000D01*
X144626000Y-90094000D02*
X147426000Y-90094000D01*
X155808000Y-101186500D02*
X155173500Y-101186500D01*
X150876000Y-100584000D02*
X150426000Y-100134000D01*
X162297500Y-85598000D02*
X161790000Y-85090500D01*
X160782000Y-77724000D02*
X160782000Y-79314000D01*
X160790000Y-81730000D02*
X160594000Y-81534000D01*
X162560000Y-93218000D02*
X163068000Y-92710000D01*
X155173500Y-101186500D02*
X154977000Y-101383000D01*
X134620000Y-78994000D02*
X135776000Y-80150000D01*
X135776000Y-80150000D02*
X135776000Y-82374000D01*
X153276000Y-82374000D02*
X154608000Y-82374000D01*
X158242000Y-82362000D02*
X156210000Y-82362000D01*
X164592000Y-88834000D02*
X164592000Y-89916000D01*
X144626000Y-91494000D02*
X147426000Y-91494000D01*
X151130000Y-100584000D02*
X150876000Y-100584000D01*
X153924000Y-102428000D02*
X154178000Y-102682000D01*
X164084000Y-88326000D02*
X162442256Y-88326000D01*
X160782000Y-79314000D02*
X160594000Y-79502000D01*
X146026000Y-88694000D02*
X146026000Y-91494000D01*
X157675000Y-87501000D02*
X156718000Y-88458000D01*
X156144000Y-82296000D02*
X156210000Y-82362000D01*
X159512000Y-82296000D02*
X159832000Y-82296000D01*
X149860000Y-86614000D02*
X147780000Y-88694000D01*
X160790000Y-83565500D02*
X160690000Y-83465500D01*
X147426000Y-88694000D02*
X147426000Y-91494000D01*
X162052000Y-88326000D02*
X164084000Y-88326000D01*
%TO.N,/DISP_BL*%
X151821972Y-88724000D02*
X153276000Y-88724000D01*
X151059225Y-89486747D02*
X151821972Y-88724000D01*
%TO.N,/TP_INT*%
X151632529Y-90262000D02*
X151900529Y-89994000D01*
X151059085Y-90334429D02*
X151131514Y-90262000D01*
X151131514Y-90262000D02*
X151632529Y-90262000D01*
X151900529Y-89994000D02*
X153276000Y-89994000D01*
%TO.N,/TP_RST*%
X152407822Y-91264000D02*
X153276000Y-91264000D01*
X152188911Y-91482911D02*
X152407822Y-91264000D01*
%TO.N,DISP_RST*%
X141732000Y-107188000D02*
X143764000Y-107188000D01*
X137160000Y-102616000D02*
X141732000Y-107188000D01*
X137760000Y-97972000D02*
X137760000Y-98800529D01*
X137760000Y-98800529D02*
X137160000Y-99400529D01*
X143764000Y-107188000D02*
X143764000Y-107442000D01*
X135776000Y-96344000D02*
X136132000Y-96344000D01*
X137160000Y-99400529D02*
X137160000Y-102616000D01*
X136132000Y-96344000D02*
X137760000Y-97972000D01*
%TO.N,DISP_DC*%
X146576686Y-97028000D02*
X138272686Y-88724000D01*
X147320000Y-97028000D02*
X146576686Y-97028000D01*
X138272686Y-88724000D02*
X135776000Y-88724000D01*
%TO.N,Net-(U1-EN)*%
X151130000Y-81343000D02*
X151130000Y-83718000D01*
X151130000Y-83718000D02*
X152326000Y-84914000D01*
X156398000Y-90358000D02*
X154326000Y-88286000D01*
X153642000Y-84914000D02*
X153276000Y-84914000D01*
X157797000Y-74676000D02*
X151130000Y-81343000D01*
X154326000Y-88286000D02*
X154326000Y-85598000D01*
X156718000Y-90358000D02*
X156398000Y-90358000D01*
X152326000Y-84914000D02*
X153276000Y-84914000D01*
X154326000Y-85598000D02*
X153642000Y-84914000D01*
%TO.N,IMU_INT*%
X155968000Y-103366000D02*
X155956000Y-103378000D01*
X155968000Y-102346500D02*
X155968000Y-103366000D01*
X154510000Y-96344000D02*
X154686000Y-96520000D01*
X153276000Y-96344000D02*
X154510000Y-96344000D01*
%TO.N,PR_INT_DRDY*%
X137160000Y-94640000D02*
X136726000Y-95074000D01*
X136726000Y-95074000D02*
X135776000Y-95074000D01*
X137160000Y-93980000D02*
X137160000Y-94640000D01*
X162401029Y-84578000D02*
X163830000Y-83149029D01*
X163830000Y-83149029D02*
X163830000Y-83058000D01*
X162052500Y-84578000D02*
X162401029Y-84578000D01*
%TO.N,BAT_MON*%
X151730000Y-99914000D02*
X151384000Y-99568000D01*
X152068000Y-92534000D02*
X151638000Y-92964000D01*
X153276000Y-92534000D02*
X152068000Y-92534000D01*
X153276000Y-92534000D02*
X152326000Y-92534000D01*
X150459225Y-78902775D02*
X154940000Y-74422000D01*
X150459225Y-90667225D02*
X150459225Y-78902775D01*
X147911333Y-105410000D02*
X151730000Y-101591333D01*
X151730000Y-101591333D02*
X151730000Y-99914000D01*
X152326000Y-92534000D02*
X150459225Y-90667225D01*
%TO.N,Net-(U1-RXD0)*%
X144609333Y-105410000D02*
X142748000Y-105410000D01*
X142748000Y-105410000D02*
X140970000Y-103632000D01*
%TO.N,Net-(U1-TXD0)*%
X138176000Y-98950215D02*
X138176000Y-94742000D01*
X138176000Y-94742000D02*
X138176000Y-94996000D01*
X137668000Y-99458215D02*
X138176000Y-98950215D01*
X137668000Y-101770667D02*
X137668000Y-99458215D01*
X141307333Y-105410000D02*
X137668000Y-101770667D01*
%TO.N,Net-(U3-CS)*%
X160782000Y-98361000D02*
X159035500Y-100107500D01*
X158456500Y-100686500D02*
X157628000Y-100686500D01*
X159512000Y-100584000D02*
X159035500Y-100107500D01*
X159035500Y-100107500D02*
X158456500Y-100686500D01*
X157468000Y-102346500D02*
X158852029Y-102346500D01*
X158852029Y-102346500D02*
X159512000Y-101686529D01*
X159512000Y-101686529D02*
X159512000Y-100584000D01*
%TO.N,Net-(U4-VDD)*%
X159004000Y-88138000D02*
X159957000Y-88138000D01*
X159957000Y-88138000D02*
X160020000Y-88201000D01*
X160790000Y-85353432D02*
X160790000Y-85090500D01*
X162052000Y-86483502D02*
X162109502Y-86426000D01*
X161862568Y-86426000D02*
X160790000Y-85353432D01*
X162109502Y-86426000D02*
X164084000Y-86426000D01*
X162052000Y-86426000D02*
X161862568Y-86426000D01*
X162052000Y-86426000D02*
X162052000Y-86483502D01*
%TD*%
%TA.AperFunction,Conductor*%
%TO.N,GND*%
G36*
X159395641Y-82023050D02*
G01*
X159401503Y-82029148D01*
X159511115Y-82291489D01*
X159511142Y-82300444D01*
X159511115Y-82300511D01*
X159401503Y-82562851D01*
X159395151Y-82569163D01*
X159386694Y-82569329D01*
X159252947Y-82520493D01*
X158919687Y-82398806D01*
X158913091Y-82392750D01*
X158912000Y-82387816D01*
X158912000Y-82204183D01*
X158915427Y-82195910D01*
X158919687Y-82193193D01*
X159386697Y-82022669D01*
X159395641Y-82023050D01*
G37*
%TD.AperFunction*%
%TD*%
%TA.AperFunction,Conductor*%
%TO.N,DISP_CS*%
G36*
X145195864Y-98314475D02*
G01*
X145646671Y-98524123D01*
X145652726Y-98530718D01*
X145652559Y-98539175D01*
X145544563Y-98802184D01*
X145538251Y-98808536D01*
X145538184Y-98808563D01*
X145275175Y-98916559D01*
X145266220Y-98916532D01*
X145260123Y-98910671D01*
X145050475Y-98459865D01*
X145050095Y-98450920D01*
X145052810Y-98446662D01*
X145182661Y-98316811D01*
X145190933Y-98313385D01*
X145195864Y-98314475D01*
G37*
%TD.AperFunction*%
%TD*%
%TA.AperFunction,Conductor*%
%TO.N,+3V3*%
G36*
X155278718Y-83546782D02*
G01*
X156347219Y-83759493D01*
X156354664Y-83764469D01*
X156356410Y-83773252D01*
X156356149Y-83774306D01*
X156213077Y-84255019D01*
X156207432Y-84261970D01*
X156203818Y-84263217D01*
X155494792Y-84383379D01*
X155486063Y-84381382D01*
X155481772Y-84375645D01*
X155443142Y-84263217D01*
X155265378Y-83745848D01*
X155264743Y-83742046D01*
X155264743Y-83558258D01*
X155268170Y-83549985D01*
X155276443Y-83546558D01*
X155278718Y-83546782D01*
G37*
%TD.AperFunction*%
%TD*%
%TA.AperFunction,Conductor*%
%TO.N,/JTAG_TMS*%
G36*
X152167779Y-96917467D02*
G01*
X152173877Y-96923329D01*
X152383523Y-97374132D01*
X152383904Y-97383079D01*
X152381187Y-97387339D01*
X152251339Y-97517187D01*
X152243066Y-97520614D01*
X152238132Y-97519523D01*
X151944736Y-97383079D01*
X151787328Y-97309876D01*
X151781273Y-97303281D01*
X151781439Y-97294825D01*
X151889436Y-97031814D01*
X151895746Y-97025464D01*
X152158825Y-96917440D01*
X152167779Y-96917467D01*
G37*
%TD.AperFunction*%
%TD*%
%TA.AperFunction,Conductor*%
%TO.N,BAT_MON*%
G36*
X148549595Y-104635137D02*
G01*
X148553088Y-104637543D01*
X148683789Y-104768244D01*
X148687216Y-104776517D01*
X148686447Y-104780688D01*
X148377555Y-105590119D01*
X148371404Y-105596627D01*
X148362453Y-105596879D01*
X148362182Y-105596772D01*
X147915129Y-105412562D01*
X147908786Y-105406242D01*
X147724566Y-104959162D01*
X147724583Y-104950211D01*
X147730927Y-104943890D01*
X147731174Y-104943792D01*
X148540647Y-104634885D01*
X148549595Y-104635137D01*
G37*
%TD.AperFunction*%
%TD*%
%TA.AperFunction,Conductor*%
%TO.N,Net-(U3-CS)*%
G36*
X160776476Y-98359114D02*
G01*
X160783969Y-98364019D01*
X160785121Y-98366156D01*
X160943314Y-98750381D01*
X160943295Y-98759335D01*
X160937151Y-98765569D01*
X160205707Y-99082848D01*
X160196753Y-99082996D01*
X160192778Y-99080387D01*
X160062290Y-98949899D01*
X160058863Y-98941626D01*
X160059592Y-98937562D01*
X160303565Y-98279577D01*
X160309653Y-98273014D01*
X160316707Y-98272151D01*
X160776476Y-98359114D01*
G37*
%TD.AperFunction*%
%TD*%
%TA.AperFunction,Conductor*%
%TO.N,+3V3*%
G36*
X159674644Y-86172970D02*
G01*
X160013758Y-86543096D01*
X160016820Y-86551511D01*
X160013758Y-86558904D01*
X159674644Y-86929029D01*
X159666528Y-86932814D01*
X159660426Y-86931403D01*
X159151109Y-86654323D01*
X159145479Y-86647359D01*
X159145000Y-86644045D01*
X159145000Y-86457954D01*
X159148427Y-86449681D01*
X159151106Y-86447678D01*
X159660426Y-86170595D01*
X159669331Y-86169653D01*
X159674644Y-86172970D01*
G37*
%TD.AperFunction*%
%TD*%
%TA.AperFunction,Conductor*%
%TO.N,GND*%
G36*
X146983303Y-88251287D02*
G01*
X147418699Y-88685718D01*
X147422135Y-88693987D01*
X147418717Y-88702264D01*
X147418699Y-88702282D01*
X146983303Y-89136712D01*
X146975026Y-89140130D01*
X146967856Y-89137665D01*
X146530517Y-88797513D01*
X146526090Y-88789729D01*
X146526000Y-88788278D01*
X146526000Y-88599721D01*
X146529427Y-88591448D01*
X146530509Y-88590492D01*
X146967856Y-88250333D01*
X146976490Y-88247959D01*
X146983303Y-88251287D01*
G37*
%TD.AperFunction*%
%TD*%
%TA.AperFunction,Conductor*%
%TO.N,GND*%
G36*
X162768163Y-88343666D02*
G01*
X162776344Y-88347304D01*
X162779195Y-88352455D01*
X162970458Y-89098231D01*
X162969194Y-89107097D01*
X162967398Y-89109411D01*
X162836282Y-89240527D01*
X162828009Y-89243954D01*
X162823422Y-89243017D01*
X161855529Y-88830532D01*
X161849262Y-88824136D01*
X161849298Y-88815311D01*
X162048225Y-88332734D01*
X162054545Y-88326393D01*
X162059339Y-88325499D01*
X162768163Y-88343666D01*
G37*
%TD.AperFunction*%
%TD*%
%TA.AperFunction,Conductor*%
%TO.N,GND*%
G36*
X158819485Y-81884310D02*
G01*
X159460376Y-82192811D01*
X159466343Y-82199486D01*
X159467000Y-82203352D01*
X159467000Y-82389833D01*
X159463573Y-82398106D01*
X159461913Y-82399485D01*
X158900237Y-82784350D01*
X158891476Y-82786199D01*
X158887222Y-82784491D01*
X158254173Y-82370612D01*
X158249123Y-82363216D01*
X158250782Y-82354417D01*
X158253036Y-82351872D01*
X158806883Y-81885899D01*
X158815417Y-81883196D01*
X158819485Y-81884310D01*
G37*
%TD.AperFunction*%
%TD*%
%TA.AperFunction,Conductor*%
%TO.N,Net-(U1-RXD0)*%
G36*
X141245779Y-103521467D02*
G01*
X141251877Y-103527329D01*
X141461523Y-103978132D01*
X141461904Y-103987079D01*
X141459187Y-103991339D01*
X141329339Y-104121187D01*
X141321066Y-104124614D01*
X141316132Y-104123523D01*
X141022736Y-103987079D01*
X140865328Y-103913876D01*
X140859273Y-103907281D01*
X140859439Y-103898825D01*
X140967436Y-103635814D01*
X140973746Y-103629464D01*
X141236825Y-103521440D01*
X141245779Y-103521467D01*
G37*
%TD.AperFunction*%
%TD*%
%TA.AperFunction,Conductor*%
%TO.N,I2C_SDA*%
G36*
X158551645Y-93039760D02*
G01*
X158551931Y-93039885D01*
X158903078Y-93200227D01*
X158936076Y-93215295D01*
X158942178Y-93221849D01*
X158942822Y-93224460D01*
X159001218Y-93683012D01*
X158998864Y-93691652D01*
X158992804Y-93695746D01*
X158273294Y-93899777D01*
X158264400Y-93898737D01*
X158258846Y-93891713D01*
X158258402Y-93888521D01*
X158258402Y-93706368D01*
X158259324Y-93701816D01*
X158263048Y-93693000D01*
X158536315Y-93045985D01*
X158542691Y-93039698D01*
X158551645Y-93039760D01*
G37*
%TD.AperFunction*%
%TD*%
%TA.AperFunction,Conductor*%
%TO.N,Net-(U1-EN)*%
G36*
X155751810Y-89565595D02*
G01*
X155935621Y-89613486D01*
X155940551Y-89616161D01*
X155950563Y-89625288D01*
X155950739Y-89625455D01*
X155958106Y-89632822D01*
X155965454Y-89640171D01*
X155965460Y-89640176D01*
X155970895Y-89643899D01*
X155971531Y-89644403D01*
X155997320Y-89667914D01*
X155997321Y-89667914D01*
X155997323Y-89667916D01*
X156015938Y-89675126D01*
X156018307Y-89676375D01*
X156034776Y-89687657D01*
X156068754Y-89695649D01*
X156069528Y-89695889D01*
X156102082Y-89708500D01*
X156102083Y-89708500D01*
X156122036Y-89708500D01*
X156124715Y-89708811D01*
X156144137Y-89713379D01*
X156178711Y-89708555D01*
X156179519Y-89708500D01*
X156298799Y-89708500D01*
X156301747Y-89708877D01*
X156862244Y-89854911D01*
X156869386Y-89860313D01*
X156870616Y-89869183D01*
X156870468Y-89869701D01*
X156720895Y-90351655D01*
X156715170Y-90358541D01*
X156711399Y-90359766D01*
X156001272Y-90462693D01*
X155992593Y-90460488D01*
X155989184Y-90456454D01*
X155607796Y-89712912D01*
X155607070Y-89703989D01*
X155609932Y-89699303D01*
X155740591Y-89568644D01*
X155748863Y-89565218D01*
X155751810Y-89565595D01*
G37*
%TD.AperFunction*%
%TD*%
%TA.AperFunction,Conductor*%
%TO.N,+3V3*%
G36*
X154962282Y-103667472D02*
G01*
X155093398Y-103798588D01*
X155096825Y-103806861D01*
X155096458Y-103809768D01*
X154905195Y-104555543D01*
X154899821Y-104562705D01*
X154894162Y-104564332D01*
X154185341Y-104582500D01*
X154176983Y-104579286D01*
X154174224Y-104575263D01*
X154169718Y-104564332D01*
X153975299Y-104092688D01*
X153975314Y-104083734D01*
X153981528Y-104077467D01*
X154949424Y-103664981D01*
X154958376Y-103664891D01*
X154962282Y-103667472D01*
G37*
%TD.AperFunction*%
%TD*%
%TA.AperFunction,Conductor*%
%TO.N,+3V3*%
G36*
X158254241Y-88248241D02*
G01*
X158260552Y-88254592D01*
X158260525Y-88263547D01*
X158260471Y-88263674D01*
X158037075Y-88781099D01*
X158030649Y-88787336D01*
X158021695Y-88787203D01*
X158018060Y-88784734D01*
X157890369Y-88657043D01*
X157887941Y-88653500D01*
X157715672Y-88263747D01*
X157715461Y-88254795D01*
X157721643Y-88248316D01*
X157721882Y-88248213D01*
X157984206Y-88139163D01*
X157993159Y-88139153D01*
X158254241Y-88248241D01*
G37*
%TD.AperFunction*%
%TD*%
%TA.AperFunction,Conductor*%
%TO.N,IMU_INT*%
G36*
X155973881Y-102358663D02*
G01*
X155978115Y-102362897D01*
X156090915Y-102556913D01*
X156092500Y-102562794D01*
X156092500Y-102666247D01*
X156104133Y-102724730D01*
X156104575Y-102725798D01*
X156104186Y-102725958D01*
X156105605Y-102733112D01*
X156104885Y-102735431D01*
X156071039Y-102814409D01*
X156064630Y-102820663D01*
X156060285Y-102821500D01*
X155875715Y-102821500D01*
X155867442Y-102818073D01*
X155864961Y-102814409D01*
X155795316Y-102651905D01*
X155795207Y-102642951D01*
X155795947Y-102641429D01*
X155957885Y-102362896D01*
X155965006Y-102357468D01*
X155973881Y-102358663D01*
G37*
%TD.AperFunction*%
%TD*%
%TA.AperFunction,Conductor*%
%TO.N,DISP_SPI_MOSI*%
G36*
X148436090Y-97447427D02*
G01*
X148438807Y-97451687D01*
X148609330Y-97918694D01*
X148608949Y-97927641D01*
X148602851Y-97933503D01*
X148340511Y-98043115D01*
X148331556Y-98043142D01*
X148331489Y-98043115D01*
X148069148Y-97933503D01*
X148062836Y-97927151D01*
X148062669Y-97918697D01*
X148233193Y-97451686D01*
X148239249Y-97445091D01*
X148244183Y-97444000D01*
X148427817Y-97444000D01*
X148436090Y-97447427D01*
G37*
%TD.AperFunction*%
%TD*%
%TA.AperFunction,Conductor*%
%TO.N,GND*%
G36*
X144728551Y-90597427D02*
G01*
X144729513Y-90598517D01*
X145069665Y-91035856D01*
X145072040Y-91044490D01*
X145068712Y-91051303D01*
X144634282Y-91486699D01*
X144626013Y-91490135D01*
X144617736Y-91486717D01*
X144617718Y-91486699D01*
X144183287Y-91051303D01*
X144179869Y-91043026D01*
X144182334Y-91035856D01*
X144522487Y-90598517D01*
X144530271Y-90594090D01*
X144531722Y-90594000D01*
X144720278Y-90594000D01*
X144728551Y-90597427D01*
G37*
%TD.AperFunction*%
%TD*%
%TA.AperFunction,Conductor*%
%TO.N,GND*%
G36*
X161634135Y-84918616D02*
G01*
X161638103Y-84921478D01*
X161783899Y-85082651D01*
X161786907Y-85091085D01*
X161783899Y-85098349D01*
X161638103Y-85259521D01*
X161630011Y-85263357D01*
X161625182Y-85262575D01*
X161447456Y-85193401D01*
X161440989Y-85187207D01*
X161440000Y-85182498D01*
X161440000Y-84998501D01*
X161443427Y-84990228D01*
X161447456Y-84987598D01*
X161625183Y-84918424D01*
X161634135Y-84918616D01*
G37*
%TD.AperFunction*%
%TD*%
%TA.AperFunction,Conductor*%
%TO.N,/TP_RST*%
G36*
X152533650Y-90958909D02*
G01*
X153255112Y-91254447D01*
X153261469Y-91260754D01*
X153261504Y-91269709D01*
X153256699Y-91275305D01*
X152532030Y-91710379D01*
X152523173Y-91711699D01*
X152519973Y-91710371D01*
X152260849Y-91554359D01*
X152258611Y-91552609D01*
X152126021Y-91420019D01*
X152122594Y-91411746D01*
X152125568Y-91403953D01*
X152520491Y-90961940D01*
X152528558Y-90958054D01*
X152533650Y-90958909D01*
G37*
%TD.AperFunction*%
%TD*%
%TA.AperFunction,Conductor*%
%TO.N,I2C_SCL*%
G36*
X156937273Y-100729768D02*
G01*
X156938241Y-100730872D01*
X157210351Y-101083341D01*
X157212790Y-101090490D01*
X157212790Y-101273453D01*
X157209363Y-101281726D01*
X157201090Y-101285153D01*
X157199821Y-101285084D01*
X156728396Y-101233634D01*
X156720543Y-101229330D01*
X156717965Y-101222042D01*
X156717016Y-100937384D01*
X156720414Y-100929101D01*
X156920727Y-100729728D01*
X156929008Y-100726322D01*
X156937273Y-100729768D01*
G37*
%TD.AperFunction*%
%TD*%
%TA.AperFunction,Conductor*%
%TO.N,GND*%
G36*
X160601532Y-79510220D02*
G01*
X160602953Y-79511641D01*
X161069668Y-80066369D01*
X161072372Y-80074905D01*
X161070826Y-80079788D01*
X160697385Y-80721187D01*
X160690261Y-80726612D01*
X160687274Y-80727000D01*
X160500726Y-80727000D01*
X160492453Y-80723573D01*
X160490615Y-80721187D01*
X160117172Y-80079786D01*
X160115972Y-80070914D01*
X160118329Y-80066372D01*
X160585047Y-79511640D01*
X160592996Y-79507516D01*
X160601532Y-79510220D01*
G37*
%TD.AperFunction*%
%TD*%
%TA.AperFunction,Conductor*%
%TO.N,DISP_SPI_SCLK*%
G36*
X136532325Y-92088919D02*
G01*
X136971483Y-92430487D01*
X136975910Y-92438270D01*
X136976000Y-92439721D01*
X136976000Y-92628278D01*
X136972573Y-92636551D01*
X136971483Y-92637513D01*
X136532324Y-92979080D01*
X136523690Y-92981455D01*
X136519127Y-92979881D01*
X136123828Y-92743018D01*
X135791747Y-92544034D01*
X135786413Y-92536844D01*
X135787726Y-92527986D01*
X135791746Y-92523965D01*
X136519127Y-92088117D01*
X136527985Y-92086805D01*
X136532325Y-92088919D01*
G37*
%TD.AperFunction*%
%TD*%
%TA.AperFunction,Conductor*%
%TO.N,DISP_SPI_SCLK*%
G36*
X146719864Y-98314475D02*
G01*
X147170671Y-98524123D01*
X147176726Y-98530718D01*
X147176559Y-98539175D01*
X147068563Y-98802184D01*
X147062251Y-98808536D01*
X147062184Y-98808563D01*
X146799175Y-98916559D01*
X146790220Y-98916532D01*
X146784123Y-98910671D01*
X146574475Y-98459865D01*
X146574095Y-98450920D01*
X146576810Y-98446662D01*
X146706661Y-98316811D01*
X146714933Y-98313385D01*
X146719864Y-98314475D01*
G37*
%TD.AperFunction*%
%TD*%
%TA.AperFunction,Conductor*%
%TO.N,GND*%
G36*
X150696995Y-99877407D02*
G01*
X151062679Y-100481206D01*
X151064371Y-100487267D01*
X151064371Y-100676993D01*
X151060944Y-100685266D01*
X151058196Y-100687307D01*
X150700814Y-100878742D01*
X150691903Y-100879627D01*
X150685262Y-100874457D01*
X150246075Y-100144103D01*
X150244749Y-100135247D01*
X150250071Y-100128048D01*
X150681037Y-99873394D01*
X150689901Y-99872137D01*
X150696995Y-99877407D01*
G37*
%TD.AperFunction*%
%TD*%
%TA.AperFunction,Conductor*%
%TO.N,+3V3*%
G36*
X161892515Y-83780536D02*
G01*
X162121140Y-83897941D01*
X162126933Y-83904768D01*
X162126480Y-83913113D01*
X162055240Y-84072856D01*
X162048740Y-84079016D01*
X162045811Y-84079723D01*
X161848333Y-84101071D01*
X161839740Y-84098553D01*
X161836467Y-84094372D01*
X161697730Y-83795876D01*
X161697351Y-83786930D01*
X161703409Y-83780335D01*
X161708340Y-83779245D01*
X161887171Y-83779245D01*
X161892515Y-83780536D01*
G37*
%TD.AperFunction*%
%TD*%
%TA.AperFunction,Conductor*%
%TO.N,GND*%
G36*
X160881525Y-78280427D02*
G01*
X160884474Y-78285390D01*
X161073191Y-78925297D01*
X161072244Y-78934202D01*
X161070922Y-78936139D01*
X160604525Y-79490490D01*
X160596576Y-79494615D01*
X160588040Y-79491911D01*
X160585554Y-79489003D01*
X160251947Y-78936139D01*
X160195086Y-78841907D01*
X160193747Y-78833055D01*
X160196326Y-78828130D01*
X160619939Y-78347424D01*
X160678506Y-78280965D01*
X160686547Y-78277023D01*
X160687284Y-78277000D01*
X160873252Y-78277000D01*
X160881525Y-78280427D01*
G37*
%TD.AperFunction*%
%TD*%
%TA.AperFunction,Conductor*%
%TO.N,GND*%
G36*
X150701382Y-100263042D02*
G01*
X151118897Y-100283457D01*
X151126993Y-100287284D01*
X151130026Y-100295116D01*
X151130695Y-100579821D01*
X151127288Y-100588102D01*
X151127241Y-100588149D01*
X150926463Y-100787593D01*
X150918178Y-100790992D01*
X150909916Y-100787538D01*
X150909634Y-100787243D01*
X150562443Y-100412471D01*
X150559335Y-100404073D01*
X150562752Y-100396248D01*
X150692545Y-100266455D01*
X150700817Y-100263029D01*
X150701382Y-100263042D01*
G37*
%TD.AperFunction*%
%TD*%
%TA.AperFunction,Conductor*%
%TO.N,Net-(U1-EN)*%
G36*
X154027046Y-84880651D02*
G01*
X154029489Y-84883782D01*
X154416769Y-85606510D01*
X154417656Y-85615421D01*
X154411982Y-85622349D01*
X154406456Y-85623736D01*
X154227377Y-85623736D01*
X154224657Y-85623415D01*
X154191737Y-85615545D01*
X154184730Y-85610666D01*
X154170552Y-85589448D01*
X154104231Y-85545133D01*
X154045748Y-85533500D01*
X153849910Y-85533500D01*
X153847190Y-85533179D01*
X153151570Y-85366886D01*
X153144320Y-85361630D01*
X153142911Y-85352787D01*
X153143092Y-85352118D01*
X153273607Y-84920905D01*
X153279283Y-84913979D01*
X153284247Y-84912607D01*
X154018620Y-84877621D01*
X154027046Y-84880651D01*
G37*
%TD.AperFunction*%
%TD*%
%TA.AperFunction,Conductor*%
%TO.N,GND*%
G36*
X162919339Y-92728812D02*
G01*
X163049187Y-92858660D01*
X163052614Y-92866933D01*
X163051523Y-92871867D01*
X162841877Y-93322670D01*
X162835281Y-93328726D01*
X162826824Y-93328559D01*
X162563815Y-93220563D01*
X162557463Y-93214251D01*
X162557436Y-93214184D01*
X162449440Y-92951175D01*
X162449467Y-92942220D01*
X162455326Y-92936124D01*
X162906134Y-92726475D01*
X162915079Y-92726095D01*
X162919339Y-92728812D01*
G37*
%TD.AperFunction*%
%TD*%
%TA.AperFunction,Conductor*%
%TO.N,GND*%
G36*
X162629785Y-87849172D02*
G01*
X163271187Y-88222615D01*
X163276612Y-88229739D01*
X163277000Y-88232726D01*
X163277000Y-88419273D01*
X163273573Y-88427546D01*
X163271187Y-88429384D01*
X162629788Y-88802826D01*
X162620914Y-88804027D01*
X162616369Y-88801668D01*
X162061641Y-88334953D01*
X162057516Y-88327004D01*
X162060220Y-88318468D01*
X162061641Y-88317047D01*
X162616371Y-87850330D01*
X162624905Y-87847627D01*
X162629785Y-87849172D01*
G37*
%TD.AperFunction*%
%TD*%
%TA.AperFunction,Conductor*%
%TO.N,BAT_MON*%
G36*
X154673174Y-74311439D02*
G01*
X154836804Y-74378629D01*
X154936184Y-74419436D01*
X154942536Y-74425748D01*
X154942563Y-74425815D01*
X155050559Y-74688824D01*
X155050532Y-74697779D01*
X155044670Y-74703877D01*
X154593867Y-74913523D01*
X154584920Y-74913904D01*
X154580660Y-74911187D01*
X154450812Y-74781339D01*
X154447385Y-74773066D01*
X154448474Y-74768136D01*
X154658124Y-74317327D01*
X154664718Y-74311273D01*
X154673174Y-74311439D01*
G37*
%TD.AperFunction*%
%TD*%
%TA.AperFunction,Conductor*%
%TO.N,+3V3*%
G36*
X153008090Y-103035427D02*
G01*
X153010807Y-103039687D01*
X153181330Y-103506694D01*
X153180949Y-103515641D01*
X153174851Y-103521503D01*
X152912511Y-103631115D01*
X152903556Y-103631142D01*
X152903489Y-103631115D01*
X152641148Y-103521503D01*
X152634836Y-103515151D01*
X152634669Y-103506697D01*
X152805193Y-103039686D01*
X152811249Y-103033091D01*
X152816183Y-103032000D01*
X152999817Y-103032000D01*
X153008090Y-103035427D01*
G37*
%TD.AperFunction*%
%TD*%
%TA.AperFunction,Conductor*%
%TO.N,CHG*%
G36*
X137376016Y-104634884D02*
G01*
X138185452Y-104943777D01*
X138191960Y-104949928D01*
X138192212Y-104958879D01*
X138192099Y-104959165D01*
X138007896Y-105406202D01*
X138001575Y-105412546D01*
X138001535Y-105412563D01*
X137554498Y-105596766D01*
X137545544Y-105596749D01*
X137539223Y-105590405D01*
X137539110Y-105590119D01*
X137471352Y-105412563D01*
X137230218Y-104780685D01*
X137230470Y-104771737D01*
X137232873Y-104768247D01*
X137363578Y-104637542D01*
X137371850Y-104634116D01*
X137376016Y-104634884D01*
G37*
%TD.AperFunction*%
%TD*%
%TA.AperFunction,Conductor*%
%TO.N,I2C_SCL*%
G36*
X146325779Y-93869467D02*
G01*
X146331877Y-93875329D01*
X146541523Y-94326132D01*
X146541904Y-94335079D01*
X146539187Y-94339339D01*
X146409339Y-94469187D01*
X146401066Y-94472614D01*
X146396132Y-94471523D01*
X146102736Y-94335079D01*
X145945328Y-94261876D01*
X145939273Y-94255281D01*
X145939439Y-94246825D01*
X146047436Y-93983814D01*
X146053746Y-93977464D01*
X146316825Y-93869440D01*
X146325779Y-93869467D01*
G37*
%TD.AperFunction*%
%TD*%
%TA.AperFunction,Conductor*%
%TO.N,Net-(IC2-~{MR})*%
G36*
X152777919Y-100783311D02*
G01*
X152976985Y-100983709D01*
X152980384Y-100991994D01*
X152978338Y-100998565D01*
X152715912Y-101381841D01*
X152708410Y-101386731D01*
X152699648Y-101384885D01*
X152697985Y-101383504D01*
X152569031Y-101254550D01*
X152565833Y-101248580D01*
X152496402Y-100902667D01*
X152498134Y-100893883D01*
X152503380Y-100889563D01*
X152765130Y-100780752D01*
X152774082Y-100780742D01*
X152777919Y-100783311D01*
G37*
%TD.AperFunction*%
%TD*%
%TA.AperFunction,Conductor*%
%TO.N,I2C_SDA*%
G36*
X161556851Y-82980633D02*
G01*
X161563163Y-82986985D01*
X161563330Y-82995442D01*
X161462351Y-83271987D01*
X161461018Y-83274579D01*
X161460786Y-83274917D01*
X161417292Y-83373419D01*
X161414501Y-83397484D01*
X161414500Y-83397503D01*
X161414500Y-83400970D01*
X161413790Y-83404983D01*
X161392807Y-83462450D01*
X161386751Y-83469046D01*
X161381817Y-83470137D01*
X161198183Y-83470137D01*
X161189910Y-83466710D01*
X161187193Y-83462450D01*
X161166209Y-83404980D01*
X161165499Y-83400967D01*
X161165499Y-83397495D01*
X161162707Y-83373419D01*
X161119215Y-83274921D01*
X161118984Y-83274584D01*
X161117648Y-83271990D01*
X161016669Y-82995439D01*
X161017050Y-82986495D01*
X161023147Y-82980633D01*
X161285490Y-82871020D01*
X161294444Y-82870994D01*
X161556851Y-82980633D01*
G37*
%TD.AperFunction*%
%TD*%
%TA.AperFunction,Conductor*%
%TO.N,CHG*%
G36*
X135033332Y-84579220D02*
G01*
X135756284Y-84904115D01*
X135762425Y-84910632D01*
X135762160Y-84919583D01*
X135757510Y-84924818D01*
X135032324Y-85360202D01*
X135023467Y-85361522D01*
X135019846Y-85359928D01*
X134720918Y-85162138D01*
X134719101Y-85160654D01*
X134586817Y-85028370D01*
X134583390Y-85020097D01*
X134586817Y-85011824D01*
X134586848Y-85011793D01*
X135020294Y-84581587D01*
X135028580Y-84578192D01*
X135033332Y-84579220D01*
G37*
%TD.AperFunction*%
%TD*%
%TA.AperFunction,Conductor*%
%TO.N,GND*%
G36*
X135878551Y-81477427D02*
G01*
X135879513Y-81478517D01*
X136219665Y-81915856D01*
X136222040Y-81924490D01*
X136218712Y-81931303D01*
X135784282Y-82366699D01*
X135776013Y-82370135D01*
X135767736Y-82366717D01*
X135767718Y-82366699D01*
X135333287Y-81931303D01*
X135329869Y-81923026D01*
X135332334Y-81915856D01*
X135672487Y-81478517D01*
X135680271Y-81474090D01*
X135681722Y-81474000D01*
X135870278Y-81474000D01*
X135878551Y-81477427D01*
G37*
%TD.AperFunction*%
%TD*%
%TA.AperFunction,Conductor*%
%TO.N,GND*%
G36*
X146128551Y-90597427D02*
G01*
X146129513Y-90598517D01*
X146469665Y-91035856D01*
X146472040Y-91044490D01*
X146468712Y-91051303D01*
X146034282Y-91486699D01*
X146026013Y-91490135D01*
X146017736Y-91486717D01*
X146017718Y-91486699D01*
X145583287Y-91051303D01*
X145579869Y-91043026D01*
X145582334Y-91035856D01*
X145922487Y-90598517D01*
X145930271Y-90594090D01*
X145931722Y-90594000D01*
X146120278Y-90594000D01*
X146128551Y-90597427D01*
G37*
%TD.AperFunction*%
%TD*%
%TA.AperFunction,Conductor*%
%TO.N,GND*%
G36*
X155800215Y-100685608D02*
G01*
X155808410Y-100689213D01*
X155811161Y-100693924D01*
X155858782Y-100851703D01*
X155857892Y-100860614D01*
X155852424Y-100865735D01*
X155462348Y-101043097D01*
X155453398Y-101043402D01*
X155449232Y-101040719D01*
X155321226Y-100912713D01*
X155317799Y-100904440D01*
X155320634Y-100896804D01*
X155351806Y-100860614D01*
X155504400Y-100683456D01*
X155512395Y-100679425D01*
X155513505Y-100679396D01*
X155800215Y-100685608D01*
G37*
%TD.AperFunction*%
%TD*%
%TA.AperFunction,Conductor*%
%TO.N,GND*%
G36*
X154027359Y-101685095D02*
G01*
X154558813Y-102174716D01*
X154562575Y-102182842D01*
X154560129Y-102190493D01*
X154184854Y-102674166D01*
X154177075Y-102678602D01*
X154168864Y-102676553D01*
X154165481Y-102674166D01*
X154069874Y-102606697D01*
X153557800Y-102245337D01*
X153553016Y-102237767D01*
X153554048Y-102230612D01*
X153577969Y-102182000D01*
X153820785Y-101688534D01*
X153827513Y-101682624D01*
X153831283Y-101682000D01*
X154019431Y-101682000D01*
X154027359Y-101685095D01*
G37*
%TD.AperFunction*%
%TD*%
%TA.AperFunction,Conductor*%
%TO.N,Net-(U4-VDD)*%
G36*
X162629785Y-85949172D02*
G01*
X163271187Y-86322615D01*
X163276612Y-86329739D01*
X163277000Y-86332726D01*
X163277000Y-86519273D01*
X163273573Y-86527546D01*
X163271187Y-86529384D01*
X162629788Y-86902826D01*
X162620914Y-86904027D01*
X162616369Y-86901668D01*
X162061641Y-86434953D01*
X162057516Y-86427004D01*
X162060220Y-86418468D01*
X162061641Y-86417047D01*
X162616371Y-85950330D01*
X162624905Y-85947627D01*
X162629785Y-85949172D01*
G37*
%TD.AperFunction*%
%TD*%
%TA.AperFunction,Conductor*%
%TO.N,+3V3*%
G36*
X153236488Y-103749330D02*
G01*
X154332798Y-104078541D01*
X154339735Y-104084202D01*
X154340638Y-104093111D01*
X154340541Y-104093419D01*
X154181153Y-104575480D01*
X154175302Y-104582259D01*
X154171349Y-104583434D01*
X153461440Y-104663138D01*
X153452837Y-104660656D01*
X153449484Y-104656353D01*
X153189361Y-104084202D01*
X153111723Y-103913434D01*
X153111420Y-103904486D01*
X153113004Y-103901587D01*
X153223757Y-103753528D01*
X153231457Y-103748957D01*
X153236488Y-103749330D01*
G37*
%TD.AperFunction*%
%TD*%
%TA.AperFunction,Conductor*%
%TO.N,BAT_MON*%
G36*
X151658126Y-99458146D02*
G01*
X151664438Y-99464498D01*
X151664836Y-99465627D01*
X151825564Y-100009668D01*
X151824621Y-100018573D01*
X151817658Y-100024204D01*
X151814343Y-100024683D01*
X151632750Y-100024683D01*
X151627538Y-100023458D01*
X151278958Y-99850021D01*
X151273078Y-99843268D01*
X151273354Y-99835084D01*
X151382141Y-99571503D01*
X151388460Y-99565168D01*
X151649171Y-99458119D01*
X151658126Y-99458146D01*
G37*
%TD.AperFunction*%
%TD*%
%TA.AperFunction,Conductor*%
%TO.N,GND*%
G36*
X163611845Y-88149137D02*
G01*
X163612987Y-88150188D01*
X163685160Y-88226000D01*
X164073754Y-88634187D01*
X164076976Y-88642542D01*
X164073347Y-88650728D01*
X164070206Y-88652866D01*
X163382622Y-88972030D01*
X163373675Y-88972405D01*
X163369056Y-88969308D01*
X162875984Y-88429350D01*
X162872924Y-88421460D01*
X162872924Y-88236497D01*
X162876351Y-88228224D01*
X162883357Y-88224865D01*
X163603252Y-88146624D01*
X163611845Y-88149137D01*
G37*
%TD.AperFunction*%
%TD*%
%TA.AperFunction,Conductor*%
%TO.N,+3V3*%
G36*
X147514511Y-69567598D02*
G01*
X147520833Y-69573940D01*
X147521008Y-69574390D01*
X147871437Y-70534964D01*
X147871053Y-70543911D01*
X147868719Y-70547247D01*
X147737847Y-70678119D01*
X147729574Y-70681546D01*
X147725564Y-70680837D01*
X147654390Y-70654871D01*
X147648493Y-70650105D01*
X147612099Y-70592185D01*
X147594485Y-70564152D01*
X147594482Y-70564149D01*
X147594481Y-70564147D01*
X147469452Y-70439118D01*
X147469449Y-70439116D01*
X147469448Y-70439115D01*
X147319723Y-70345036D01*
X147319721Y-70345035D01*
X147319719Y-70345034D01*
X147152814Y-70286633D01*
X146977104Y-70266835D01*
X146977096Y-70266835D01*
X146801389Y-70286632D01*
X146801383Y-70286633D01*
X146801383Y-70286634D01*
X146789174Y-70290905D01*
X146780234Y-70290403D01*
X146774267Y-70283726D01*
X146774494Y-70275403D01*
X146974537Y-69790292D01*
X146980858Y-69783951D01*
X147505558Y-69567584D01*
X147514511Y-69567598D01*
G37*
%TD.AperFunction*%
%TD*%
%TA.AperFunction,Conductor*%
%TO.N,GND*%
G36*
X160792169Y-83183914D02*
G01*
X160793492Y-83185493D01*
X160914029Y-83358279D01*
X160915952Y-83367025D01*
X160914302Y-83371257D01*
X160792945Y-83561871D01*
X160785612Y-83567009D01*
X160784555Y-83567193D01*
X160627393Y-83587220D01*
X160618753Y-83584867D01*
X160614308Y-83577093D01*
X160614236Y-83576329D01*
X160613665Y-83567009D01*
X160590760Y-83192901D01*
X160593675Y-83184435D01*
X160601723Y-83180509D01*
X160602438Y-83180487D01*
X160783896Y-83180487D01*
X160792169Y-83183914D01*
G37*
%TD.AperFunction*%
%TD*%
%TA.AperFunction,Conductor*%
%TO.N,+3V3*%
G36*
X162501532Y-79510220D02*
G01*
X162502953Y-79511641D01*
X162969668Y-80066369D01*
X162972372Y-80074905D01*
X162970826Y-80079788D01*
X162597385Y-80721187D01*
X162590261Y-80726612D01*
X162587274Y-80727000D01*
X162400726Y-80727000D01*
X162392453Y-80723573D01*
X162390615Y-80721187D01*
X162017172Y-80079786D01*
X162015972Y-80070914D01*
X162018329Y-80066372D01*
X162485047Y-79511640D01*
X162492996Y-79507516D01*
X162501532Y-79510220D01*
G37*
%TD.AperFunction*%
%TD*%
%TA.AperFunction,Conductor*%
%TO.N,Net-(U1-EN)*%
G36*
X157407616Y-74514685D02*
G01*
X157791844Y-74672879D01*
X157798189Y-74679197D01*
X157798885Y-74681523D01*
X157885849Y-75141291D01*
X157884020Y-75150056D01*
X157878421Y-75154435D01*
X157220441Y-75398406D01*
X157211492Y-75398069D01*
X157208100Y-75395709D01*
X157077612Y-75265221D01*
X157074185Y-75256948D01*
X157075149Y-75252298D01*
X157392431Y-74520847D01*
X157398866Y-74514623D01*
X157407616Y-74514685D01*
G37*
%TD.AperFunction*%
%TD*%
%TA.AperFunction,Conductor*%
%TO.N,Net-(U1-RXD0)*%
G36*
X144422486Y-104958866D02*
G01*
X144422608Y-104959149D01*
X144608460Y-105405503D01*
X144608477Y-105414457D01*
X144608460Y-105414497D01*
X144422608Y-105860850D01*
X144416264Y-105867171D01*
X144407310Y-105867154D01*
X144407027Y-105867032D01*
X143616253Y-105513097D01*
X143610102Y-105506589D01*
X143609333Y-105502418D01*
X143609333Y-105317581D01*
X143612760Y-105309308D01*
X143616249Y-105306904D01*
X144407027Y-104952966D01*
X144415978Y-104952715D01*
X144422486Y-104958866D01*
G37*
%TD.AperFunction*%
%TD*%
%TA.AperFunction,Conductor*%
%TO.N,BAT_MON_EN*%
G36*
X136527211Y-97533246D02*
G01*
X136529880Y-97536274D01*
X136910097Y-98157625D01*
X136911492Y-98166470D01*
X136908390Y-98172004D01*
X136778002Y-98302392D01*
X136769729Y-98305819D01*
X136767246Y-98305552D01*
X136661870Y-98282668D01*
X136657854Y-98280963D01*
X136604231Y-98245133D01*
X136545748Y-98233500D01*
X136436715Y-98233500D01*
X136434232Y-98233233D01*
X135666939Y-98066602D01*
X135659582Y-98061498D01*
X135657989Y-98052686D01*
X135658111Y-98052176D01*
X135773229Y-97621019D01*
X135778674Y-97613912D01*
X135783240Y-97612410D01*
X136518611Y-97530753D01*
X136527211Y-97533246D01*
G37*
%TD.AperFunction*%
%TD*%
%TA.AperFunction,Conductor*%
%TO.N,+3V3*%
G36*
X155206851Y-90026496D02*
G01*
X155213163Y-90032848D01*
X155213330Y-90041305D01*
X155042807Y-90508313D01*
X155036751Y-90514909D01*
X155031817Y-90516000D01*
X154848183Y-90516000D01*
X154839910Y-90512573D01*
X154837193Y-90508313D01*
X154666669Y-90041302D01*
X154667050Y-90032358D01*
X154673147Y-90026496D01*
X154935490Y-89916883D01*
X154944444Y-89916857D01*
X155206851Y-90026496D01*
G37*
%TD.AperFunction*%
%TD*%
%TA.AperFunction,Conductor*%
%TO.N,/JTAG_TMS*%
G36*
X146464511Y-68892546D02*
G01*
X146467847Y-68894880D01*
X146598719Y-69025752D01*
X146602146Y-69034025D01*
X146601437Y-69038035D01*
X146575471Y-69109208D01*
X146570705Y-69115105D01*
X146484747Y-69169118D01*
X146359718Y-69294147D01*
X146265634Y-69443880D01*
X146207233Y-69610784D01*
X146207233Y-69610785D01*
X146187435Y-69786496D01*
X146187435Y-69786503D01*
X146207233Y-69962214D01*
X146207233Y-69962215D01*
X146211505Y-69974423D01*
X146211003Y-69983363D01*
X146204326Y-69989330D01*
X146196002Y-69989103D01*
X145710893Y-69789062D01*
X145704551Y-69782740D01*
X145704537Y-69782706D01*
X145564817Y-69443880D01*
X145488184Y-69258041D01*
X145488198Y-69249088D01*
X145494540Y-69242766D01*
X145494971Y-69242598D01*
X146455566Y-68892162D01*
X146464511Y-68892546D01*
G37*
%TD.AperFunction*%
%TD*%
%TA.AperFunction,Conductor*%
%TO.N,/JTAG_TCK*%
G36*
X148977014Y-100145726D02*
G01*
X148981034Y-100149746D01*
X149180018Y-100481828D01*
X149416881Y-100877127D01*
X149418194Y-100885985D01*
X149416080Y-100890324D01*
X149074513Y-101329483D01*
X149066729Y-101333910D01*
X149065278Y-101334000D01*
X148876722Y-101334000D01*
X148868449Y-101330573D01*
X148867487Y-101329483D01*
X148525919Y-100890324D01*
X148523544Y-100881690D01*
X148525118Y-100877127D01*
X148960965Y-100149747D01*
X148968156Y-100144413D01*
X148977014Y-100145726D01*
G37*
%TD.AperFunction*%
%TD*%
%TA.AperFunction,Conductor*%
%TO.N,GND*%
G36*
X134895779Y-78883467D02*
G01*
X134901877Y-78889329D01*
X135111523Y-79340132D01*
X135111904Y-79349079D01*
X135109187Y-79353339D01*
X134979339Y-79483187D01*
X134971066Y-79486614D01*
X134966132Y-79485523D01*
X134672736Y-79349079D01*
X134515328Y-79275876D01*
X134509273Y-79269281D01*
X134509439Y-79260825D01*
X134617436Y-78997814D01*
X134623746Y-78991464D01*
X134886825Y-78883440D01*
X134895779Y-78883467D01*
G37*
%TD.AperFunction*%
%TD*%
%TA.AperFunction,Conductor*%
%TO.N,GND*%
G36*
X156787785Y-81885172D02*
G01*
X157429187Y-82258615D01*
X157434612Y-82265739D01*
X157435000Y-82268726D01*
X157435000Y-82455273D01*
X157431573Y-82463546D01*
X157429187Y-82465384D01*
X156787788Y-82838826D01*
X156778914Y-82840027D01*
X156774369Y-82837668D01*
X156219641Y-82370953D01*
X156215516Y-82363004D01*
X156218220Y-82354468D01*
X156219641Y-82353047D01*
X156774371Y-81886330D01*
X156782905Y-81883627D01*
X156787785Y-81885172D01*
G37*
%TD.AperFunction*%
%TD*%
%TA.AperFunction,Conductor*%
%TO.N,DISP_SPI_MOSI*%
G36*
X136532325Y-83198919D02*
G01*
X136971483Y-83540487D01*
X136975910Y-83548270D01*
X136976000Y-83549721D01*
X136976000Y-83738278D01*
X136972573Y-83746551D01*
X136971483Y-83747513D01*
X136532324Y-84089080D01*
X136523690Y-84091455D01*
X136519127Y-84089881D01*
X136123828Y-83853018D01*
X135791747Y-83654034D01*
X135786413Y-83646844D01*
X135787726Y-83637986D01*
X135791746Y-83633965D01*
X136519127Y-83198117D01*
X136527985Y-83196805D01*
X136532325Y-83198919D01*
G37*
%TD.AperFunction*%
%TD*%
%TA.AperFunction,Conductor*%
%TO.N,+3V3*%
G36*
X160598902Y-93224240D02*
G01*
X160969029Y-93563355D01*
X160972814Y-93571471D01*
X160971403Y-93577573D01*
X160694323Y-94086891D01*
X160687359Y-94092521D01*
X160684045Y-94093000D01*
X160497955Y-94093000D01*
X160489682Y-94089573D01*
X160487677Y-94086891D01*
X160210596Y-93577573D01*
X160209653Y-93568668D01*
X160212968Y-93563357D01*
X160583097Y-93224240D01*
X160591511Y-93221179D01*
X160598902Y-93224240D01*
G37*
%TD.AperFunction*%
%TD*%
%TA.AperFunction,Conductor*%
%TO.N,I2C_SCL*%
G36*
X160317985Y-83724170D02*
G01*
X160432423Y-83796740D01*
X160436859Y-83801894D01*
X160460785Y-83856079D01*
X160460786Y-83856081D01*
X160536918Y-83932213D01*
X160536920Y-83932214D01*
X160536921Y-83932215D01*
X160569831Y-83946746D01*
X160576014Y-83953221D01*
X160575935Y-83961873D01*
X160530692Y-84072623D01*
X160524391Y-84078985D01*
X160521718Y-84079750D01*
X160322943Y-84111709D01*
X160314231Y-84109639D01*
X160310964Y-84106026D01*
X160173164Y-83868355D01*
X160171980Y-83859479D01*
X160175012Y-83854216D01*
X160303450Y-83725778D01*
X160311722Y-83722352D01*
X160317985Y-83724170D01*
G37*
%TD.AperFunction*%
%TD*%
%TA.AperFunction,Conductor*%
%TO.N,+3V3*%
G36*
X162501532Y-81542220D02*
G01*
X162502953Y-81543641D01*
X162969668Y-82098369D01*
X162972372Y-82106905D01*
X162970826Y-82111788D01*
X162597385Y-82753187D01*
X162590261Y-82758612D01*
X162587274Y-82759000D01*
X162400726Y-82759000D01*
X162392453Y-82755573D01*
X162390615Y-82753187D01*
X162017172Y-82111786D01*
X162015972Y-82102914D01*
X162018329Y-82098372D01*
X162485047Y-81543640D01*
X162492996Y-81539516D01*
X162501532Y-81542220D01*
G37*
%TD.AperFunction*%
%TD*%
%TA.AperFunction,Conductor*%
%TO.N,+3V3*%
G36*
X160776476Y-96709114D02*
G01*
X160783969Y-96714019D01*
X160785121Y-96716156D01*
X160943314Y-97100381D01*
X160943295Y-97109335D01*
X160937151Y-97115569D01*
X160205707Y-97432848D01*
X160196753Y-97432996D01*
X160192778Y-97430387D01*
X160062290Y-97299899D01*
X160058863Y-97291626D01*
X160059592Y-97287562D01*
X160303565Y-96629577D01*
X160309653Y-96623014D01*
X160316707Y-96622151D01*
X160776476Y-96709114D01*
G37*
%TD.AperFunction*%
%TD*%
%TA.AperFunction,Conductor*%
%TO.N,DISP_CS*%
G36*
X136972081Y-93283658D02*
G01*
X136975980Y-93291720D01*
X136976000Y-93292396D01*
X136976000Y-93475740D01*
X136973261Y-93483262D01*
X136934667Y-93529237D01*
X136932032Y-93531558D01*
X136828872Y-93597857D01*
X136828871Y-93597858D01*
X136734622Y-93706628D01*
X136674488Y-93838303D01*
X136674353Y-93838241D01*
X136672702Y-93841318D01*
X136530862Y-94010293D01*
X136522919Y-94014427D01*
X136518721Y-94014031D01*
X135782105Y-93806006D01*
X135775075Y-93800459D01*
X135773753Y-93796722D01*
X135700107Y-93366899D01*
X135702088Y-93358166D01*
X135709663Y-93353391D01*
X135710954Y-93353244D01*
X136963625Y-93280716D01*
X136972081Y-93283658D01*
G37*
%TD.AperFunction*%
%TD*%
%TA.AperFunction,Conductor*%
%TO.N,GND*%
G36*
X145084143Y-88250334D02*
G01*
X145266368Y-88392064D01*
X145521483Y-88590487D01*
X145525910Y-88598270D01*
X145526000Y-88599721D01*
X145526000Y-88788278D01*
X145522573Y-88796551D01*
X145521483Y-88797513D01*
X145084143Y-89137665D01*
X145075509Y-89140040D01*
X145068696Y-89136712D01*
X144725222Y-88794000D01*
X144633299Y-88702281D01*
X144629864Y-88694013D01*
X144633282Y-88685736D01*
X144633300Y-88685718D01*
X145068697Y-88251286D01*
X145076973Y-88247869D01*
X145084143Y-88250334D01*
G37*
%TD.AperFunction*%
%TD*%
%TA.AperFunction,Conductor*%
%TO.N,/JTAG_TDI*%
G36*
X143948196Y-70853894D02*
G01*
X144013406Y-70880785D01*
X144433306Y-71053937D01*
X144439648Y-71060259D01*
X144439662Y-71060293D01*
X144656015Y-71584957D01*
X144656001Y-71593911D01*
X144649659Y-71600233D01*
X144649209Y-71600408D01*
X143688635Y-71950837D01*
X143679688Y-71950453D01*
X143676352Y-71948119D01*
X143545480Y-71817247D01*
X143542053Y-71808974D01*
X143542761Y-71804969D01*
X143568728Y-71733787D01*
X143573490Y-71727895D01*
X143659448Y-71673885D01*
X143784485Y-71548848D01*
X143878564Y-71399123D01*
X143936966Y-71232217D01*
X143956338Y-71060293D01*
X143956765Y-71056503D01*
X143956765Y-71056496D01*
X143936966Y-70880785D01*
X143936966Y-70880784D01*
X143932694Y-70868575D01*
X143933196Y-70859635D01*
X143939873Y-70853668D01*
X143948196Y-70853894D01*
G37*
%TD.AperFunction*%
%TD*%
%TA.AperFunction,Conductor*%
%TO.N,GND*%
G36*
X160695547Y-80312427D02*
G01*
X160697385Y-80314813D01*
X161070826Y-80956211D01*
X161072027Y-80965085D01*
X161069668Y-80969630D01*
X160602953Y-81524358D01*
X160595004Y-81528483D01*
X160586468Y-81525779D01*
X160585047Y-81524358D01*
X160118331Y-80969630D01*
X160115627Y-80961094D01*
X160117171Y-80956215D01*
X160490615Y-80314812D01*
X160497739Y-80309388D01*
X160500726Y-80309000D01*
X160687274Y-80309000D01*
X160695547Y-80312427D01*
G37*
%TD.AperFunction*%
%TD*%
%TA.AperFunction,Conductor*%
%TO.N,Net-(U1-TXD0)*%
G36*
X140678016Y-104634884D02*
G01*
X141487452Y-104943777D01*
X141493960Y-104949928D01*
X141494212Y-104958879D01*
X141494099Y-104959165D01*
X141309896Y-105406202D01*
X141303575Y-105412546D01*
X141303535Y-105412563D01*
X140856498Y-105596766D01*
X140847544Y-105596749D01*
X140841223Y-105590405D01*
X140841110Y-105590119D01*
X140773352Y-105412563D01*
X140532218Y-104780685D01*
X140532470Y-104771737D01*
X140534873Y-104768247D01*
X140665578Y-104637542D01*
X140673850Y-104634116D01*
X140678016Y-104634884D01*
G37*
%TD.AperFunction*%
%TD*%
%TA.AperFunction,Conductor*%
%TO.N,GND*%
G36*
X154032325Y-81928919D02*
G01*
X154471483Y-82270487D01*
X154475910Y-82278270D01*
X154476000Y-82279721D01*
X154476000Y-82468278D01*
X154472573Y-82476551D01*
X154471483Y-82477513D01*
X154032324Y-82819080D01*
X154023690Y-82821455D01*
X154019127Y-82819881D01*
X153623828Y-82583018D01*
X153291747Y-82384034D01*
X153286413Y-82376844D01*
X153287726Y-82367986D01*
X153291746Y-82363965D01*
X154019127Y-81928117D01*
X154027985Y-81926805D01*
X154032325Y-81928919D01*
G37*
%TD.AperFunction*%
%TD*%
%TA.AperFunction,Conductor*%
%TO.N,+3V3*%
G36*
X162227174Y-83525939D02*
G01*
X162390804Y-83593129D01*
X162490184Y-83633936D01*
X162496536Y-83640248D01*
X162496563Y-83640315D01*
X162604559Y-83903324D01*
X162604532Y-83912279D01*
X162598670Y-83918377D01*
X162147867Y-84128023D01*
X162138920Y-84128404D01*
X162134660Y-84125687D01*
X162004812Y-83995839D01*
X162001385Y-83987566D01*
X162002474Y-83982636D01*
X162212124Y-83531827D01*
X162218718Y-83525773D01*
X162227174Y-83525939D01*
G37*
%TD.AperFunction*%
%TD*%
%TA.AperFunction,Conductor*%
%TO.N,GND*%
G36*
X145084143Y-89650334D02*
G01*
X145266368Y-89792064D01*
X145521483Y-89990487D01*
X145525910Y-89998270D01*
X145526000Y-89999721D01*
X145526000Y-90188278D01*
X145522573Y-90196551D01*
X145521483Y-90197513D01*
X145084143Y-90537665D01*
X145075509Y-90540040D01*
X145068696Y-90536712D01*
X144725222Y-90194000D01*
X144633299Y-90102281D01*
X144629864Y-90094013D01*
X144633282Y-90085736D01*
X144633300Y-90085718D01*
X145068697Y-89651286D01*
X145076973Y-89647869D01*
X145084143Y-89650334D01*
G37*
%TD.AperFunction*%
%TD*%
%TA.AperFunction,Conductor*%
%TO.N,PR_INT_DRDY*%
G36*
X136532153Y-94628071D02*
G01*
X136831081Y-94825861D01*
X136832898Y-94827345D01*
X136965182Y-94959629D01*
X136968609Y-94967902D01*
X136965182Y-94976175D01*
X136965151Y-94976206D01*
X136531705Y-95406411D01*
X136523419Y-95409807D01*
X136518667Y-95408779D01*
X135795715Y-95083884D01*
X135789574Y-95077367D01*
X135789839Y-95068416D01*
X135794486Y-95063183D01*
X136519675Y-94627796D01*
X136528532Y-94626477D01*
X136532153Y-94628071D01*
G37*
%TD.AperFunction*%
%TD*%
%TA.AperFunction,Conductor*%
%TO.N,GND*%
G36*
X157677630Y-81886331D02*
G01*
X158232358Y-82353047D01*
X158236483Y-82360996D01*
X158233779Y-82369532D01*
X158232358Y-82370953D01*
X157677630Y-82837668D01*
X157669094Y-82840372D01*
X157664212Y-82838826D01*
X157418045Y-82695500D01*
X157022813Y-82465384D01*
X157017388Y-82458260D01*
X157017000Y-82455273D01*
X157017000Y-82268726D01*
X157020427Y-82260453D01*
X157022810Y-82258617D01*
X157664213Y-81885172D01*
X157673085Y-81883972D01*
X157677630Y-81886331D01*
G37*
%TD.AperFunction*%
%TD*%
%TA.AperFunction,Conductor*%
%TO.N,DISP_RST*%
G36*
X143647641Y-106915050D02*
G01*
X143653503Y-106921148D01*
X143763115Y-107183489D01*
X143763142Y-107192444D01*
X143763115Y-107192511D01*
X143653503Y-107454851D01*
X143647151Y-107461163D01*
X143638694Y-107461329D01*
X143504947Y-107412493D01*
X143171687Y-107290806D01*
X143165091Y-107284750D01*
X143164000Y-107279816D01*
X143164000Y-107096183D01*
X143167427Y-107087910D01*
X143171687Y-107085193D01*
X143638697Y-106914669D01*
X143647641Y-106915050D01*
G37*
%TD.AperFunction*%
%TD*%
%TA.AperFunction,Conductor*%
%TO.N,+3V3*%
G36*
X156787785Y-83785172D02*
G01*
X157429187Y-84158615D01*
X157434612Y-84165739D01*
X157435000Y-84168726D01*
X157435000Y-84355273D01*
X157431573Y-84363546D01*
X157429187Y-84365384D01*
X156787788Y-84738826D01*
X156778914Y-84740027D01*
X156774369Y-84737668D01*
X156219641Y-84270953D01*
X156215516Y-84263004D01*
X156218220Y-84254468D01*
X156219641Y-84253047D01*
X156774371Y-83786330D01*
X156782905Y-83783627D01*
X156787785Y-83785172D01*
G37*
%TD.AperFunction*%
%TD*%
%TA.AperFunction,Conductor*%
%TO.N,I2C_SDA*%
G36*
X158016928Y-101549612D02*
G01*
X158049532Y-101563585D01*
X158095909Y-101583461D01*
X158102163Y-101589870D01*
X158103000Y-101594215D01*
X158103000Y-101778785D01*
X158099573Y-101787058D01*
X158095909Y-101789539D01*
X157933405Y-101859183D01*
X157924451Y-101859292D01*
X157922919Y-101858546D01*
X157644396Y-101696614D01*
X157638968Y-101689494D01*
X157640163Y-101680619D01*
X157644395Y-101676386D01*
X157838414Y-101563585D01*
X157844295Y-101562000D01*
X157947747Y-101562000D01*
X157947748Y-101562000D01*
X158006231Y-101550367D01*
X158006234Y-101550364D01*
X158007295Y-101549926D01*
X158007457Y-101550317D01*
X158014588Y-101548888D01*
X158016928Y-101549612D01*
G37*
%TD.AperFunction*%
%TD*%
%TA.AperFunction,Conductor*%
%TO.N,Net-(U1-TXD0)*%
G36*
X138442851Y-94852496D02*
G01*
X138449163Y-94858848D01*
X138449330Y-94867305D01*
X138278807Y-95334313D01*
X138272751Y-95340909D01*
X138267817Y-95342000D01*
X138084183Y-95342000D01*
X138075910Y-95338573D01*
X138073193Y-95334313D01*
X137902669Y-94867302D01*
X137903050Y-94858358D01*
X137909147Y-94852496D01*
X138171490Y-94742883D01*
X138180444Y-94742857D01*
X138442851Y-94852496D01*
G37*
%TD.AperFunction*%
%TD*%
%TA.AperFunction,Conductor*%
%TO.N,GND*%
G36*
X154190851Y-101456496D02*
G01*
X154197163Y-101462848D01*
X154197330Y-101471305D01*
X154026807Y-101938313D01*
X154020751Y-101944909D01*
X154015817Y-101946000D01*
X153832183Y-101946000D01*
X153823910Y-101942573D01*
X153821193Y-101938313D01*
X153650669Y-101471302D01*
X153651050Y-101462358D01*
X153657147Y-101456496D01*
X153919490Y-101346883D01*
X153928444Y-101346857D01*
X154190851Y-101456496D01*
G37*
%TD.AperFunction*%
%TD*%
%TA.AperFunction,Conductor*%
%TO.N,/TP_INT*%
G36*
X151567686Y-90181837D02*
G01*
X151572429Y-90184719D01*
X151700674Y-90312964D01*
X151704101Y-90321237D01*
X151700674Y-90329510D01*
X151697915Y-90331556D01*
X151185239Y-90605528D01*
X151176328Y-90606405D01*
X151169406Y-90600723D01*
X151168929Y-90599720D01*
X151060256Y-90339633D01*
X151060230Y-90330680D01*
X151169777Y-90067158D01*
X151176115Y-90060837D01*
X151184107Y-90060497D01*
X151567686Y-90181837D01*
G37*
%TD.AperFunction*%
%TD*%
%TA.AperFunction,Conductor*%
%TO.N,I2C_SDA*%
G36*
X158639666Y-101333746D02*
G01*
X158640268Y-101334978D01*
X158745359Y-101586500D01*
X158750088Y-101597817D01*
X158750992Y-101602367D01*
X158750047Y-101885849D01*
X158746593Y-101894111D01*
X158738308Y-101897510D01*
X158736110Y-101897294D01*
X158176669Y-101788342D01*
X158169204Y-101783397D01*
X158167206Y-101776858D01*
X158167206Y-101593337D01*
X158170633Y-101585064D01*
X158173158Y-101583146D01*
X158623731Y-101329294D01*
X158632619Y-101328220D01*
X158639666Y-101333746D01*
G37*
%TD.AperFunction*%
%TD*%
%TA.AperFunction,Conductor*%
%TO.N,DISP_DC*%
G36*
X147203641Y-96755050D02*
G01*
X147209503Y-96761148D01*
X147319115Y-97023489D01*
X147319142Y-97032444D01*
X147319115Y-97032511D01*
X147209503Y-97294851D01*
X147203151Y-97301163D01*
X147194694Y-97301329D01*
X147060947Y-97252493D01*
X146727687Y-97130806D01*
X146721091Y-97124750D01*
X146720000Y-97119816D01*
X146720000Y-96936183D01*
X146723427Y-96927910D01*
X146727687Y-96925193D01*
X147194697Y-96754669D01*
X147203641Y-96755050D01*
G37*
%TD.AperFunction*%
%TD*%
%TA.AperFunction,Conductor*%
%TO.N,GND*%
G36*
X161048851Y-77834496D02*
G01*
X161055163Y-77840848D01*
X161055330Y-77849305D01*
X160884807Y-78316313D01*
X160878751Y-78322909D01*
X160873817Y-78324000D01*
X160690183Y-78324000D01*
X160681910Y-78320573D01*
X160679193Y-78316313D01*
X160508669Y-77849302D01*
X160509050Y-77840358D01*
X160515147Y-77834496D01*
X160777490Y-77724883D01*
X160786444Y-77724857D01*
X161048851Y-77834496D01*
G37*
%TD.AperFunction*%
%TD*%
%TA.AperFunction,Conductor*%
%TO.N,GND*%
G36*
X157502282Y-87543472D02*
G01*
X157633398Y-87674588D01*
X157636825Y-87682861D01*
X157636458Y-87685768D01*
X157603028Y-87816114D01*
X157600538Y-87820869D01*
X157575083Y-87850247D01*
X157562623Y-87864627D01*
X157562622Y-87864628D01*
X157562621Y-87864630D01*
X157502834Y-87995544D01*
X157482353Y-88138000D01*
X157495715Y-88230947D01*
X157495467Y-88235518D01*
X157445196Y-88431542D01*
X157439822Y-88438705D01*
X157434163Y-88440332D01*
X156725341Y-88458500D01*
X156716983Y-88455286D01*
X156714224Y-88451263D01*
X156709718Y-88440332D01*
X156515299Y-87968688D01*
X156515314Y-87959734D01*
X156521528Y-87953467D01*
X157489424Y-87540981D01*
X157498376Y-87540891D01*
X157502282Y-87543472D01*
G37*
%TD.AperFunction*%
%TD*%
%TA.AperFunction,Conductor*%
%TO.N,/DISP_BL*%
G36*
X151418564Y-88997559D02*
G01*
X151548412Y-89127407D01*
X151551839Y-89135680D01*
X151550748Y-89140614D01*
X151341102Y-89591417D01*
X151334506Y-89597473D01*
X151326049Y-89597306D01*
X151063040Y-89489310D01*
X151056688Y-89482998D01*
X151056661Y-89482931D01*
X150948665Y-89219922D01*
X150948692Y-89210967D01*
X150954551Y-89204871D01*
X151405359Y-88995222D01*
X151414304Y-88994842D01*
X151418564Y-88997559D01*
G37*
%TD.AperFunction*%
%TD*%
%TA.AperFunction,Conductor*%
%TO.N,CHG*%
G36*
X137049675Y-84569717D02*
G01*
X137050190Y-84570791D01*
X137159115Y-84831489D01*
X137159142Y-84840444D01*
X137159115Y-84840511D01*
X137048929Y-85104225D01*
X137042577Y-85110537D01*
X137035716Y-85111162D01*
X136584798Y-85015959D01*
X136577411Y-85010897D01*
X136575515Y-85004511D01*
X136575515Y-84820958D01*
X136578942Y-84812685D01*
X136581625Y-84810680D01*
X137033810Y-84565020D01*
X137042714Y-84564083D01*
X137049675Y-84569717D01*
G37*
%TD.AperFunction*%
%TD*%
%TA.AperFunction,Conductor*%
%TO.N,PR_INT_DRDY*%
G36*
X163564517Y-82947991D02*
G01*
X163710751Y-83008037D01*
X163826184Y-83055436D01*
X163832536Y-83061748D01*
X163832563Y-83061815D01*
X163941026Y-83325960D01*
X163940999Y-83334915D01*
X163936329Y-83340372D01*
X163772243Y-83441202D01*
X163538883Y-83584600D01*
X163530041Y-83586012D01*
X163524485Y-83582905D01*
X163394655Y-83453075D01*
X163391228Y-83444802D01*
X163391795Y-83441206D01*
X163548948Y-82955216D01*
X163554754Y-82948400D01*
X163563680Y-82947685D01*
X163564517Y-82947991D01*
G37*
%TD.AperFunction*%
%TD*%
%TA.AperFunction,Conductor*%
%TO.N,DISP_RST*%
G36*
X136527230Y-96306438D02*
G01*
X136529576Y-96309349D01*
X136910488Y-96977732D01*
X136911607Y-96986616D01*
X136908596Y-96991798D01*
X136778396Y-97121998D01*
X136770123Y-97125425D01*
X136766826Y-97124951D01*
X136726716Y-97113170D01*
X136719744Y-97107550D01*
X136718538Y-97104226D01*
X136714867Y-97085769D01*
X136714866Y-97085768D01*
X136670552Y-97019448D01*
X136670551Y-97019447D01*
X136604231Y-96975133D01*
X136545748Y-96963500D01*
X136218825Y-96963500D01*
X136215528Y-96963026D01*
X135651347Y-96797316D01*
X135644375Y-96791696D01*
X135643418Y-96782794D01*
X135772929Y-96351170D01*
X135778588Y-96344233D01*
X135783504Y-96342853D01*
X136518786Y-96303459D01*
X136527230Y-96306438D01*
G37*
%TD.AperFunction*%
%TD*%
%TA.AperFunction,Conductor*%
%TO.N,I2C_SCL*%
G36*
X157249253Y-101050153D02*
G01*
X157249766Y-101050365D01*
X157249769Y-101050367D01*
X157308252Y-101062000D01*
X157308253Y-101062000D01*
X157411705Y-101062000D01*
X157417586Y-101063585D01*
X157611602Y-101176385D01*
X157617031Y-101183506D01*
X157615836Y-101192381D01*
X157611602Y-101196615D01*
X157417586Y-101309415D01*
X157411705Y-101311000D01*
X157308252Y-101311000D01*
X157288757Y-101314877D01*
X157249767Y-101322633D01*
X157248704Y-101323074D01*
X157248544Y-101322688D01*
X157241382Y-101324105D01*
X157239068Y-101323386D01*
X157160091Y-101289538D01*
X157153837Y-101283129D01*
X157153000Y-101278784D01*
X157153000Y-101094214D01*
X157156427Y-101085941D01*
X157160086Y-101083462D01*
X157239069Y-101049612D01*
X157248020Y-101049504D01*
X157249253Y-101050153D01*
G37*
%TD.AperFunction*%
%TD*%
%TA.AperFunction,Conductor*%
%TO.N,BAT_MON*%
G36*
X152532324Y-92087797D02*
G01*
X152733172Y-92208381D01*
X153257510Y-92523182D01*
X153262839Y-92530377D01*
X153261519Y-92539234D01*
X153256284Y-92543884D01*
X152533332Y-92868779D01*
X152524381Y-92869044D01*
X152520294Y-92866411D01*
X152086848Y-92436206D01*
X152083390Y-92427946D01*
X152086785Y-92419661D01*
X152219106Y-92287340D01*
X152220912Y-92285865D01*
X152519847Y-92088070D01*
X152528636Y-92086363D01*
X152532324Y-92087797D01*
G37*
%TD.AperFunction*%
%TD*%
%TA.AperFunction,Conductor*%
%TO.N,GND*%
G36*
X162629785Y-87849172D02*
G01*
X163271187Y-88222615D01*
X163276612Y-88229739D01*
X163277000Y-88232726D01*
X163277000Y-88419273D01*
X163273573Y-88427546D01*
X163271187Y-88429384D01*
X162629788Y-88802826D01*
X162620914Y-88804027D01*
X162616369Y-88801668D01*
X162061641Y-88334953D01*
X162057516Y-88327004D01*
X162060220Y-88318468D01*
X162061641Y-88317047D01*
X162616371Y-87850330D01*
X162624905Y-87847627D01*
X162629785Y-87849172D01*
G37*
%TD.AperFunction*%
%TD*%
%TA.AperFunction,Conductor*%
%TO.N,GND*%
G36*
X161208530Y-87407424D02*
G01*
X162243086Y-87821645D01*
X162249493Y-87827902D01*
X162249599Y-87836856D01*
X162249593Y-87836870D01*
X162055963Y-88318626D01*
X162049698Y-88325025D01*
X162045053Y-88325963D01*
X161336675Y-88322675D01*
X161328418Y-88319210D01*
X161325227Y-88313119D01*
X161192683Y-87602062D01*
X161192485Y-87599918D01*
X161192485Y-87418287D01*
X161195912Y-87410014D01*
X161204185Y-87406587D01*
X161208530Y-87407424D01*
G37*
%TD.AperFunction*%
%TD*%
%TA.AperFunction,Conductor*%
%TO.N,+3V3*%
G36*
X160694426Y-95914425D02*
G01*
X161092167Y-96312029D01*
X161095595Y-96320302D01*
X161092990Y-96327664D01*
X160788413Y-96704074D01*
X160780545Y-96708349D01*
X160773272Y-96706731D01*
X160330157Y-96439251D01*
X160324845Y-96432041D01*
X160325067Y-96425644D01*
X160488385Y-95919110D01*
X160494186Y-95912287D01*
X160499521Y-95911000D01*
X160686154Y-95911000D01*
X160694426Y-95914425D01*
G37*
%TD.AperFunction*%
%TD*%
%TA.AperFunction,Conductor*%
%TO.N,GND*%
G36*
X147528551Y-90597427D02*
G01*
X147529513Y-90598517D01*
X147869665Y-91035856D01*
X147872040Y-91044490D01*
X147868712Y-91051303D01*
X147434282Y-91486699D01*
X147426013Y-91490135D01*
X147417736Y-91486717D01*
X147417718Y-91486699D01*
X146983287Y-91051303D01*
X146979869Y-91043026D01*
X146982334Y-91035856D01*
X147322487Y-90598517D01*
X147330271Y-90594090D01*
X147331722Y-90594000D01*
X147520278Y-90594000D01*
X147528551Y-90597427D01*
G37*
%TD.AperFunction*%
%TD*%
%TA.AperFunction,Conductor*%
%TO.N,/JTAG_TMS*%
G36*
X148751864Y-70120475D02*
G01*
X149202671Y-70330123D01*
X149208726Y-70336718D01*
X149208559Y-70345175D01*
X149100563Y-70608184D01*
X149094251Y-70614536D01*
X149094184Y-70614563D01*
X148831175Y-70722559D01*
X148822220Y-70722532D01*
X148816123Y-70716671D01*
X148606475Y-70265865D01*
X148606095Y-70256920D01*
X148608810Y-70252662D01*
X148738661Y-70122811D01*
X148746933Y-70119385D01*
X148751864Y-70120475D01*
G37*
%TD.AperFunction*%
%TD*%
%TA.AperFunction,Conductor*%
%TO.N,CHG*%
G36*
X136532325Y-84468919D02*
G01*
X136971483Y-84810487D01*
X136975910Y-84818270D01*
X136976000Y-84819721D01*
X136976000Y-85008278D01*
X136972573Y-85016551D01*
X136971483Y-85017513D01*
X136532324Y-85359080D01*
X136523690Y-85361455D01*
X136519127Y-85359881D01*
X136123828Y-85123018D01*
X135791747Y-84924034D01*
X135786413Y-84916844D01*
X135787726Y-84907986D01*
X135791746Y-84903965D01*
X136519127Y-84468117D01*
X136527985Y-84466805D01*
X136532325Y-84468919D01*
G37*
%TD.AperFunction*%
%TD*%
%TA.AperFunction,Conductor*%
%TO.N,Net-(U4-VDD)*%
G36*
X159674045Y-87822316D02*
G01*
X160013503Y-88192818D01*
X160016565Y-88201233D01*
X160013224Y-88208919D01*
X159659979Y-88568685D01*
X159651738Y-88572188D01*
X159645157Y-88570234D01*
X159150226Y-88241471D01*
X159145231Y-88234039D01*
X159145000Y-88231725D01*
X159145000Y-88045749D01*
X159148427Y-88037476D01*
X159152133Y-88034977D01*
X159660855Y-87819446D01*
X159669808Y-87819375D01*
X159674045Y-87822316D01*
G37*
%TD.AperFunction*%
%TD*%
%TA.AperFunction,Conductor*%
%TO.N,Net-(IC2-~{MR})*%
G36*
X151314024Y-104413427D02*
G01*
X151316430Y-104416920D01*
X151670365Y-105207694D01*
X151670617Y-105216645D01*
X151664466Y-105223153D01*
X151664183Y-105223275D01*
X151217830Y-105409127D01*
X151208876Y-105409144D01*
X151208836Y-105409127D01*
X150762482Y-105223275D01*
X150756161Y-105216931D01*
X150756178Y-105207977D01*
X150756300Y-105207694D01*
X151110236Y-104416920D01*
X151116744Y-104410769D01*
X151120915Y-104410000D01*
X151305751Y-104410000D01*
X151314024Y-104413427D01*
G37*
%TD.AperFunction*%
%TD*%
%TA.AperFunction,Conductor*%
%TO.N,IMU_INT*%
G36*
X154032325Y-95898919D02*
G01*
X154471483Y-96240487D01*
X154475910Y-96248270D01*
X154476000Y-96249721D01*
X154476000Y-96438278D01*
X154472573Y-96446551D01*
X154471483Y-96447513D01*
X154032324Y-96789080D01*
X154023690Y-96791455D01*
X154019127Y-96789881D01*
X153623828Y-96553018D01*
X153291747Y-96354034D01*
X153286413Y-96346844D01*
X153287726Y-96337986D01*
X153291746Y-96333965D01*
X154019127Y-95898117D01*
X154027985Y-95896805D01*
X154032325Y-95898919D01*
G37*
%TD.AperFunction*%
%TD*%
%TA.AperFunction,Conductor*%
%TO.N,GND*%
G36*
X164221641Y-85325050D02*
G01*
X164227503Y-85331148D01*
X164337115Y-85593489D01*
X164337142Y-85602444D01*
X164337115Y-85602511D01*
X164227503Y-85864851D01*
X164221151Y-85871163D01*
X164212694Y-85871329D01*
X164078947Y-85822493D01*
X163745687Y-85700806D01*
X163739091Y-85694750D01*
X163738000Y-85689816D01*
X163738000Y-85506183D01*
X163741427Y-85497910D01*
X163745687Y-85495193D01*
X164212697Y-85324669D01*
X164221641Y-85325050D01*
G37*
%TD.AperFunction*%
%TD*%
%TA.AperFunction,Conductor*%
%TO.N,GND*%
G36*
X154049484Y-101073626D02*
G01*
X154049751Y-101073741D01*
X154509726Y-101279901D01*
X154515873Y-101286411D01*
X154516640Y-101290577D01*
X154516640Y-101474239D01*
X154513213Y-101482512D01*
X154508233Y-101485466D01*
X154048856Y-101620215D01*
X154039953Y-101619255D01*
X154034767Y-101613499D01*
X153981272Y-101485466D01*
X153924883Y-101350509D01*
X153924857Y-101341556D01*
X153924862Y-101341542D01*
X154034178Y-101079909D01*
X154040529Y-101073599D01*
X154049484Y-101073626D01*
G37*
%TD.AperFunction*%
%TD*%
%TA.AperFunction,Conductor*%
%TO.N,/JTAG_TCK*%
G36*
X142418631Y-68892161D02*
G01*
X143029752Y-69115105D01*
X143379209Y-69242591D01*
X143385806Y-69248645D01*
X143386190Y-69257592D01*
X143386015Y-69258042D01*
X143169662Y-69782706D01*
X143163340Y-69789048D01*
X143163306Y-69789062D01*
X142678197Y-69989103D01*
X142669243Y-69989089D01*
X142662921Y-69982747D01*
X142662694Y-69974425D01*
X142666966Y-69962217D01*
X142666966Y-69962215D01*
X142666967Y-69962213D01*
X142686765Y-69786503D01*
X142686765Y-69786496D01*
X142666966Y-69610785D01*
X142666966Y-69610784D01*
X142648302Y-69557445D01*
X142608564Y-69443877D01*
X142514485Y-69294152D01*
X142514482Y-69294149D01*
X142514481Y-69294147D01*
X142389452Y-69169118D01*
X142389449Y-69169116D01*
X142389448Y-69169115D01*
X142350226Y-69144470D01*
X142303493Y-69115105D01*
X142298727Y-69109208D01*
X142272762Y-69038033D01*
X142273146Y-69029088D01*
X142275477Y-69025755D01*
X142406353Y-68894879D01*
X142414625Y-68891453D01*
X142418631Y-68892161D01*
G37*
%TD.AperFunction*%
%TD*%
%TA.AperFunction,Conductor*%
%TO.N,/JTAG_TDO*%
G36*
X140183551Y-98937427D02*
G01*
X140184513Y-98938517D01*
X140526080Y-99377675D01*
X140528455Y-99386309D01*
X140526881Y-99390872D01*
X140091036Y-100118251D01*
X140083844Y-100123586D01*
X140074986Y-100122273D01*
X140070964Y-100118251D01*
X139635118Y-99390872D01*
X139633805Y-99382014D01*
X139635919Y-99377675D01*
X139977487Y-98938517D01*
X139985271Y-98934090D01*
X139986722Y-98934000D01*
X140175278Y-98934000D01*
X140183551Y-98937427D01*
G37*
%TD.AperFunction*%
%TD*%
%TA.AperFunction,Conductor*%
%TO.N,I2C_SDA*%
G36*
X158853140Y-92346427D02*
G01*
X158853476Y-92346777D01*
X159248986Y-92776532D01*
X159252067Y-92784940D01*
X159249862Y-92791305D01*
X158947704Y-93209716D01*
X158940083Y-93214417D01*
X158931574Y-93212496D01*
X158547217Y-92947289D01*
X158542354Y-92939770D01*
X158542350Y-92935568D01*
X158569965Y-92783561D01*
X158648254Y-92352608D01*
X158653105Y-92345081D01*
X158659766Y-92343000D01*
X158844867Y-92343000D01*
X158853140Y-92346427D01*
G37*
%TD.AperFunction*%
%TD*%
%TA.AperFunction,Conductor*%
%TO.N,I2C_SCL*%
G36*
X158595384Y-94349671D02*
G01*
X158935155Y-94734253D01*
X158938065Y-94742722D01*
X158935155Y-94749747D01*
X158595384Y-95134328D01*
X158587338Y-95138259D01*
X158580102Y-95136300D01*
X158146186Y-94845475D01*
X158141222Y-94838022D01*
X158141000Y-94835756D01*
X158141000Y-94648243D01*
X158144427Y-94639970D01*
X158146186Y-94638524D01*
X158580104Y-94347698D01*
X158588882Y-94345940D01*
X158595384Y-94349671D01*
G37*
%TD.AperFunction*%
%TD*%
%TA.AperFunction,Conductor*%
%TO.N,+3V3*%
G36*
X160692318Y-93870427D02*
G01*
X160694323Y-93873109D01*
X160971403Y-94382426D01*
X160972346Y-94391331D01*
X160969029Y-94396644D01*
X160598904Y-94735758D01*
X160590489Y-94738820D01*
X160583096Y-94735758D01*
X160212970Y-94396644D01*
X160209185Y-94388528D01*
X160210596Y-94382426D01*
X160487677Y-93873109D01*
X160494641Y-93867479D01*
X160497955Y-93867000D01*
X160684045Y-93867000D01*
X160692318Y-93870427D01*
G37*
%TD.AperFunction*%
%TD*%
%TA.AperFunction,Conductor*%
%TO.N,GND*%
G36*
X148126761Y-88212381D02*
G01*
X148127124Y-88212729D01*
X148258277Y-88343882D01*
X148261704Y-88352155D01*
X148259880Y-88358428D01*
X147882092Y-88953245D01*
X147874764Y-88958391D01*
X147866234Y-88957027D01*
X147429484Y-88697200D01*
X147424126Y-88690025D01*
X147424113Y-88689975D01*
X147339900Y-88352155D01*
X147316404Y-88257900D01*
X147317728Y-88249046D01*
X147324927Y-88243719D01*
X147327249Y-88243383D01*
X148118348Y-88209313D01*
X148126761Y-88212381D01*
G37*
%TD.AperFunction*%
%TD*%
%TA.AperFunction,Conductor*%
%TO.N,DISP_DC*%
G36*
X136532325Y-88278919D02*
G01*
X136971483Y-88620487D01*
X136975910Y-88628270D01*
X136976000Y-88629721D01*
X136976000Y-88818278D01*
X136972573Y-88826551D01*
X136971483Y-88827513D01*
X136532324Y-89169080D01*
X136523690Y-89171455D01*
X136519127Y-89169881D01*
X136123828Y-88933018D01*
X135791747Y-88734034D01*
X135786413Y-88726844D01*
X135787726Y-88717986D01*
X135791746Y-88713965D01*
X136519127Y-88278117D01*
X136527985Y-88276805D01*
X136532325Y-88278919D01*
G37*
%TD.AperFunction*%
%TD*%
%TA.AperFunction,Conductor*%
%TO.N,GND*%
G36*
X144634264Y-88701282D02*
G01*
X144634282Y-88701300D01*
X145068712Y-89136696D01*
X145072130Y-89144973D01*
X145069665Y-89152143D01*
X144729513Y-89589483D01*
X144721729Y-89593910D01*
X144720278Y-89594000D01*
X144531722Y-89594000D01*
X144523449Y-89590573D01*
X144522487Y-89589483D01*
X144182334Y-89152143D01*
X144179959Y-89143509D01*
X144183286Y-89136697D01*
X144617718Y-88701299D01*
X144625987Y-88697864D01*
X144634264Y-88701282D01*
G37*
%TD.AperFunction*%
%TD*%
%TA.AperFunction,Conductor*%
%TO.N,/JTAG_TDI*%
G36*
X152532872Y-98438118D02*
G01*
X153260251Y-98873964D01*
X153265586Y-98881156D01*
X153264273Y-98890014D01*
X153260251Y-98894036D01*
X152532872Y-99329881D01*
X152524014Y-99331194D01*
X152519675Y-99329080D01*
X152080517Y-98987513D01*
X152076090Y-98979729D01*
X152076000Y-98978278D01*
X152076000Y-98789721D01*
X152079427Y-98781448D01*
X152080509Y-98780492D01*
X152519675Y-98438918D01*
X152528309Y-98436544D01*
X152532872Y-98438118D01*
G37*
%TD.AperFunction*%
%TD*%
%TA.AperFunction,Conductor*%
%TO.N,I2C_SCL*%
G36*
X160294353Y-83364553D02*
G01*
X160300665Y-83370905D01*
X160300998Y-83371821D01*
X160413956Y-83729040D01*
X160414500Y-83732559D01*
X160414500Y-83733503D01*
X160417292Y-83757580D01*
X160437203Y-83802673D01*
X160437429Y-83803273D01*
X160455282Y-83859729D01*
X160454510Y-83868651D01*
X160452400Y-83871530D01*
X160322580Y-84001350D01*
X160314307Y-84004777D01*
X160308115Y-84003004D01*
X159913579Y-83756894D01*
X159908373Y-83749608D01*
X159908948Y-83742523D01*
X159913040Y-83732559D01*
X160017436Y-83478314D01*
X160023746Y-83471964D01*
X160285398Y-83364526D01*
X160294353Y-83364553D01*
G37*
%TD.AperFunction*%
%TD*%
%TA.AperFunction,Conductor*%
%TO.N,+3V3*%
G36*
X158958163Y-84279666D02*
G01*
X158966344Y-84283304D01*
X158969195Y-84288455D01*
X159160458Y-85034231D01*
X159159194Y-85043097D01*
X159157398Y-85045411D01*
X159026282Y-85176527D01*
X159018009Y-85179954D01*
X159013422Y-85179017D01*
X158045529Y-84766532D01*
X158039262Y-84760136D01*
X158039298Y-84751311D01*
X158238225Y-84268734D01*
X158244545Y-84262393D01*
X158249339Y-84261499D01*
X158958163Y-84279666D01*
G37*
%TD.AperFunction*%
%TD*%
%TA.AperFunction,Conductor*%
%TO.N,Net-(U4-VDD)*%
G36*
X161145570Y-85563014D02*
G01*
X162217271Y-85922228D01*
X162224026Y-85928106D01*
X162224646Y-85937039D01*
X162224592Y-85937197D01*
X162055233Y-86419510D01*
X162049259Y-86426181D01*
X162045104Y-86427299D01*
X161335409Y-86482651D01*
X161326894Y-86479877D01*
X161323720Y-86475536D01*
X161000343Y-85709389D01*
X161000283Y-85700434D01*
X161002847Y-85696568D01*
X161133581Y-85565834D01*
X161141853Y-85562408D01*
X161145570Y-85563014D01*
G37*
%TD.AperFunction*%
%TD*%
%TA.AperFunction,Conductor*%
%TO.N,GND*%
G36*
X154575675Y-82029717D02*
G01*
X154576190Y-82030791D01*
X154685115Y-82291489D01*
X154685142Y-82300444D01*
X154685115Y-82300511D01*
X154574929Y-82564225D01*
X154568577Y-82570537D01*
X154561716Y-82571162D01*
X154110798Y-82475959D01*
X154103411Y-82470897D01*
X154101515Y-82464511D01*
X154101515Y-82280958D01*
X154104942Y-82272685D01*
X154107625Y-82270680D01*
X154559810Y-82025020D01*
X154568714Y-82024083D01*
X154575675Y-82029717D01*
G37*
%TD.AperFunction*%
%TD*%
%TA.AperFunction,Conductor*%
%TO.N,GND*%
G36*
X159524462Y-81996872D02*
G01*
X159954916Y-82026994D01*
X159962371Y-82030392D01*
X160091986Y-82160007D01*
X160095413Y-82168280D01*
X160091986Y-82176553D01*
X160091546Y-82176971D01*
X159732356Y-82500719D01*
X159723917Y-82503712D01*
X159716277Y-82500329D01*
X159514758Y-82300149D01*
X159511304Y-82291887D01*
X159511304Y-82291820D01*
X159511970Y-82008514D01*
X159515416Y-82000251D01*
X159523698Y-81996844D01*
X159524462Y-81996872D01*
G37*
%TD.AperFunction*%
%TD*%
%TA.AperFunction,Conductor*%
%TO.N,I2C_SCL*%
G36*
X161023174Y-91837439D02*
G01*
X161186804Y-91904629D01*
X161286184Y-91945436D01*
X161292536Y-91951748D01*
X161292563Y-91951815D01*
X161400559Y-92214824D01*
X161400532Y-92223779D01*
X161394670Y-92229877D01*
X160943867Y-92439523D01*
X160934920Y-92439904D01*
X160930660Y-92437187D01*
X160800812Y-92307339D01*
X160797385Y-92299066D01*
X160798474Y-92294136D01*
X161008124Y-91843327D01*
X161014718Y-91837273D01*
X161023174Y-91837439D01*
G37*
%TD.AperFunction*%
%TD*%
%TA.AperFunction,Conductor*%
%TO.N,I2C_SDA*%
G36*
X154032325Y-93358919D02*
G01*
X154471483Y-93700487D01*
X154475910Y-93708270D01*
X154476000Y-93709721D01*
X154476000Y-93898278D01*
X154472573Y-93906551D01*
X154471483Y-93907513D01*
X154032324Y-94249080D01*
X154023690Y-94251455D01*
X154019127Y-94249881D01*
X153623828Y-94013018D01*
X153291747Y-93814034D01*
X153286413Y-93806844D01*
X153287726Y-93797986D01*
X153291746Y-93793965D01*
X154019127Y-93358117D01*
X154027985Y-93356805D01*
X154032325Y-93358919D01*
G37*
%TD.AperFunction*%
%TD*%
%TA.AperFunction,Conductor*%
%TO.N,GND*%
G36*
X160104644Y-81310155D02*
G01*
X160104828Y-81310236D01*
X160587340Y-81530503D01*
X160593443Y-81537056D01*
X160594116Y-81542373D01*
X160519476Y-82250171D01*
X160515201Y-82258039D01*
X160509792Y-82260480D01*
X159722041Y-82393691D01*
X159713312Y-82391692D01*
X159708554Y-82384106D01*
X159708390Y-82382155D01*
X159708390Y-82198423D01*
X159709353Y-82193775D01*
X160089259Y-81316244D01*
X160095691Y-81310013D01*
X160104644Y-81310155D01*
G37*
%TD.AperFunction*%
%TD*%
%TA.AperFunction,Conductor*%
%TO.N,PR_INT_DRDY*%
G36*
X137426851Y-94090496D02*
G01*
X137433163Y-94096848D01*
X137433330Y-94105305D01*
X137262807Y-94572313D01*
X137256751Y-94578909D01*
X137251817Y-94580000D01*
X137068183Y-94580000D01*
X137059910Y-94576573D01*
X137057193Y-94572313D01*
X136886669Y-94105302D01*
X136887050Y-94096358D01*
X136893147Y-94090496D01*
X137155490Y-93980883D01*
X137164444Y-93980857D01*
X137426851Y-94090496D01*
G37*
%TD.AperFunction*%
%TD*%
%TA.AperFunction,Conductor*%
%TO.N,+3V3*%
G36*
X162594090Y-83039927D02*
G01*
X162596807Y-83044187D01*
X162767330Y-83511194D01*
X162766949Y-83520141D01*
X162760851Y-83526003D01*
X162498511Y-83635615D01*
X162489556Y-83635642D01*
X162489489Y-83635615D01*
X162227148Y-83526003D01*
X162220836Y-83519651D01*
X162220669Y-83511197D01*
X162391193Y-83044186D01*
X162397249Y-83037591D01*
X162402183Y-83036500D01*
X162585817Y-83036500D01*
X162594090Y-83039927D01*
G37*
%TD.AperFunction*%
%TD*%
%TA.AperFunction,Conductor*%
%TO.N,GND*%
G36*
X145084143Y-91050334D02*
G01*
X145266368Y-91192064D01*
X145521483Y-91390487D01*
X145525910Y-91398270D01*
X145526000Y-91399721D01*
X145526000Y-91588278D01*
X145522573Y-91596551D01*
X145521483Y-91597513D01*
X145084143Y-91937665D01*
X145075509Y-91940040D01*
X145068696Y-91936712D01*
X144725222Y-91594000D01*
X144633299Y-91502281D01*
X144629864Y-91494013D01*
X144633282Y-91485736D01*
X144633300Y-91485718D01*
X145068697Y-91051286D01*
X145076973Y-91047869D01*
X145084143Y-91050334D01*
G37*
%TD.AperFunction*%
%TD*%
%TA.AperFunction,Conductor*%
%TO.N,/JTAG_TDO*%
G36*
X140240748Y-98551955D02*
G01*
X140249009Y-98555409D01*
X140252408Y-98563694D01*
X140252313Y-98565144D01*
X140182310Y-99110805D01*
X140177858Y-99118575D01*
X140170705Y-99121016D01*
X139987244Y-99121016D01*
X139978971Y-99117589D01*
X139977524Y-99115829D01*
X139747207Y-98772100D01*
X139745449Y-98763319D01*
X139748632Y-98757335D01*
X139950555Y-98554461D01*
X139958817Y-98551016D01*
X140240748Y-98551955D01*
G37*
%TD.AperFunction*%
%TD*%
%TA.AperFunction,Conductor*%
%TO.N,I2C_SCL*%
G36*
X159526507Y-94019930D02*
G01*
X159529899Y-94022290D01*
X159660387Y-94152778D01*
X159663814Y-94161051D01*
X159662848Y-94165707D01*
X159345569Y-94897151D01*
X159339133Y-94903377D01*
X159330381Y-94903314D01*
X158946156Y-94745121D01*
X158939810Y-94738802D01*
X158939114Y-94736476D01*
X158852151Y-94276708D01*
X158853980Y-94267943D01*
X158859576Y-94263565D01*
X159517560Y-94019593D01*
X159526507Y-94019930D01*
G37*
%TD.AperFunction*%
%TD*%
%TA.AperFunction,Conductor*%
%TO.N,+3V3*%
G36*
X144885339Y-84092812D02*
G01*
X145015187Y-84222660D01*
X145018614Y-84230933D01*
X145017523Y-84235867D01*
X144807877Y-84686670D01*
X144801281Y-84692726D01*
X144792824Y-84692559D01*
X144529815Y-84584563D01*
X144523463Y-84578251D01*
X144523436Y-84578184D01*
X144415440Y-84315175D01*
X144415467Y-84306220D01*
X144421326Y-84300124D01*
X144872134Y-84090475D01*
X144881079Y-84090095D01*
X144885339Y-84092812D01*
G37*
%TD.AperFunction*%
%TD*%
%TA.AperFunction,Conductor*%
%TO.N,I2C_SDA*%
G36*
X152532872Y-93358118D02*
G01*
X153260251Y-93793964D01*
X153265586Y-93801156D01*
X153264273Y-93810014D01*
X153260251Y-93814036D01*
X152532872Y-94249881D01*
X152524014Y-94251194D01*
X152519675Y-94249080D01*
X152080517Y-93907513D01*
X152076090Y-93899729D01*
X152076000Y-93898278D01*
X152076000Y-93709721D01*
X152079427Y-93701448D01*
X152080509Y-93700492D01*
X152519675Y-93358918D01*
X152528309Y-93356544D01*
X152532872Y-93358118D01*
G37*
%TD.AperFunction*%
%TD*%
%TA.AperFunction,Conductor*%
%TO.N,GND*%
G36*
X160601582Y-81542782D02*
G01*
X160604130Y-81545040D01*
X160816754Y-81797760D01*
X161070298Y-82099119D01*
X161073002Y-82107655D01*
X161072072Y-82111323D01*
X160793061Y-82751972D01*
X160786616Y-82758188D01*
X160782334Y-82759000D01*
X160595909Y-82759000D01*
X160587636Y-82755573D01*
X160586493Y-82754245D01*
X160172048Y-82192319D01*
X160169895Y-82183627D01*
X160171669Y-82178975D01*
X160585388Y-81546172D01*
X160592783Y-81541123D01*
X160601582Y-81542782D01*
G37*
%TD.AperFunction*%
%TD*%
%TA.AperFunction,Conductor*%
%TO.N,+3V3*%
G36*
X160297435Y-84433934D02*
G01*
X160315520Y-84441920D01*
X160335416Y-84450706D01*
X160335418Y-84450706D01*
X160335420Y-84450707D01*
X160359495Y-84453500D01*
X160405516Y-84453499D01*
X160413787Y-84456926D01*
X160414007Y-84457152D01*
X160520875Y-84569953D01*
X160524078Y-84578316D01*
X160520875Y-84586047D01*
X160373960Y-84741118D01*
X160365784Y-84744767D01*
X160362122Y-84744282D01*
X160148354Y-84680492D01*
X160141407Y-84674843D01*
X160140000Y-84669281D01*
X160140000Y-84486718D01*
X160143427Y-84478445D01*
X160148354Y-84475507D01*
X160289370Y-84433427D01*
X160297435Y-84433934D01*
G37*
%TD.AperFunction*%
%TD*%
%TA.AperFunction,Conductor*%
%TO.N,Net-(U4-VDD)*%
G36*
X161652117Y-86069348D02*
G01*
X161937946Y-86145424D01*
X162153930Y-86202911D01*
X162161044Y-86208350D01*
X162162227Y-86217226D01*
X162161744Y-86218661D01*
X162053606Y-86482018D01*
X162051029Y-86485875D01*
X161849797Y-86685770D01*
X161841512Y-86689169D01*
X161833250Y-86685715D01*
X161831920Y-86684113D01*
X161509717Y-86217058D01*
X161507840Y-86208302D01*
X161511073Y-86202143D01*
X161640836Y-86072380D01*
X161649108Y-86068954D01*
X161652117Y-86069348D01*
G37*
%TD.AperFunction*%
%TD*%
%TA.AperFunction,Conductor*%
%TO.N,Net-(U4-VDD)*%
G36*
X159596313Y-88035193D02*
G01*
X159602909Y-88041249D01*
X159604000Y-88046183D01*
X159604000Y-88229816D01*
X159600573Y-88238089D01*
X159596313Y-88240806D01*
X159129305Y-88411330D01*
X159120358Y-88410949D01*
X159114496Y-88404851D01*
X159004883Y-88142509D01*
X159004857Y-88133556D01*
X159004862Y-88133542D01*
X159114496Y-87871147D01*
X159120848Y-87864836D01*
X159129302Y-87864669D01*
X159596313Y-88035193D01*
G37*
%TD.AperFunction*%
%TD*%
%TA.AperFunction,Conductor*%
%TO.N,IMU_INT*%
G36*
X154682235Y-96223598D02*
G01*
X154686028Y-96231710D01*
X154686040Y-96232194D01*
X154686983Y-96515114D01*
X154683584Y-96523399D01*
X154683537Y-96523446D01*
X154481668Y-96724367D01*
X154473386Y-96727774D01*
X154465641Y-96724819D01*
X154153652Y-96447490D01*
X154149745Y-96439432D01*
X154149725Y-96438745D01*
X154149725Y-96255187D01*
X154153152Y-96246914D01*
X154160899Y-96243499D01*
X154673817Y-96220545D01*
X154682235Y-96223598D01*
G37*
%TD.AperFunction*%
%TD*%
%TA.AperFunction,Conductor*%
%TO.N,/DISP_BL*%
G36*
X152532872Y-88278118D02*
G01*
X153260251Y-88713964D01*
X153265586Y-88721156D01*
X153264273Y-88730014D01*
X153260251Y-88734036D01*
X152532872Y-89169881D01*
X152524014Y-89171194D01*
X152519675Y-89169080D01*
X152080517Y-88827513D01*
X152076090Y-88819729D01*
X152076000Y-88818278D01*
X152076000Y-88629721D01*
X152079427Y-88621448D01*
X152080509Y-88620492D01*
X152519675Y-88278918D01*
X152528309Y-88276544D01*
X152532872Y-88278118D01*
G37*
%TD.AperFunction*%
%TD*%
%TA.AperFunction,Conductor*%
%TO.N,GND*%
G36*
X146983303Y-89651287D02*
G01*
X147418699Y-90085718D01*
X147422135Y-90093987D01*
X147418717Y-90102264D01*
X147418699Y-90102282D01*
X146983303Y-90536712D01*
X146975026Y-90540130D01*
X146967856Y-90537665D01*
X146530517Y-90197513D01*
X146526090Y-90189729D01*
X146526000Y-90188278D01*
X146526000Y-89999721D01*
X146529427Y-89991448D01*
X146530509Y-89990492D01*
X146967856Y-89650333D01*
X146976490Y-89647959D01*
X146983303Y-89651287D01*
G37*
%TD.AperFunction*%
%TD*%
%TA.AperFunction,Conductor*%
%TO.N,+3V3*%
G36*
X161798816Y-83571645D02*
G01*
X161799525Y-83572113D01*
X161855412Y-83612097D01*
X161959824Y-83686797D01*
X161964558Y-83694398D01*
X161964703Y-83696858D01*
X161958147Y-83837491D01*
X161954733Y-83845219D01*
X161826338Y-83973614D01*
X161818065Y-83977041D01*
X161809792Y-83973614D01*
X161808506Y-83972088D01*
X161669280Y-83774835D01*
X161667309Y-83766100D01*
X161668854Y-83761990D01*
X161782735Y-83575530D01*
X161789970Y-83570257D01*
X161798816Y-83571645D01*
G37*
%TD.AperFunction*%
%TD*%
%TA.AperFunction,Conductor*%
%TO.N,DISP_SPI_MISO*%
G36*
X149235641Y-98533050D02*
G01*
X149241503Y-98539148D01*
X149351115Y-98801489D01*
X149351142Y-98810444D01*
X149351115Y-98810511D01*
X149241503Y-99072851D01*
X149235151Y-99079163D01*
X149226694Y-99079329D01*
X149092947Y-99030493D01*
X148759687Y-98908806D01*
X148753091Y-98902750D01*
X148752000Y-98897816D01*
X148752000Y-98714183D01*
X148755427Y-98705910D01*
X148759687Y-98703193D01*
X149226697Y-98532669D01*
X149235641Y-98533050D01*
G37*
%TD.AperFunction*%
%TD*%
%TA.AperFunction,Conductor*%
%TO.N,+3V3*%
G36*
X160598902Y-94748240D02*
G01*
X160969029Y-95087355D01*
X160972814Y-95095471D01*
X160971403Y-95101573D01*
X160694323Y-95610891D01*
X160687359Y-95616521D01*
X160684045Y-95617000D01*
X160497955Y-95617000D01*
X160489682Y-95613573D01*
X160487677Y-95610891D01*
X160210596Y-95101573D01*
X160209653Y-95092668D01*
X160212968Y-95087357D01*
X160583097Y-94748240D01*
X160591511Y-94745179D01*
X160598902Y-94748240D01*
G37*
%TD.AperFunction*%
%TD*%
%TA.AperFunction,Conductor*%
%TO.N,+3V3*%
G36*
X159894604Y-85772324D02*
G01*
X160263667Y-86102951D01*
X160315593Y-86149469D01*
X160319468Y-86157541D01*
X160317070Y-86165303D01*
X160027069Y-86543411D01*
X160019315Y-86547891D01*
X160011750Y-86546314D01*
X159569504Y-86280050D01*
X159564184Y-86272847D01*
X159565081Y-86264782D01*
X159744090Y-85908042D01*
X159746268Y-85905024D01*
X159878527Y-85772765D01*
X159886799Y-85769339D01*
X159894604Y-85772324D01*
G37*
%TD.AperFunction*%
%TD*%
%TA.AperFunction,Conductor*%
%TO.N,PR_INT_DRDY*%
G36*
X162276659Y-84440990D02*
G01*
X162302892Y-84453504D01*
X162356062Y-84478868D01*
X162359297Y-84481155D01*
X162487075Y-84608933D01*
X162490502Y-84617206D01*
X162487075Y-84625479D01*
X162483410Y-84627960D01*
X162225073Y-84738652D01*
X162216119Y-84738761D01*
X162212269Y-84736247D01*
X162153289Y-84678347D01*
X162059969Y-84586733D01*
X162056466Y-84578494D01*
X162059647Y-84570366D01*
X162166238Y-84457177D01*
X162174404Y-84453504D01*
X162174745Y-84453499D01*
X162220504Y-84453499D01*
X162244580Y-84450707D01*
X162266903Y-84440849D01*
X162275854Y-84440643D01*
X162276659Y-84440990D01*
G37*
%TD.AperFunction*%
%TD*%
%TA.AperFunction,Conductor*%
%TO.N,+3V3*%
G36*
X157677630Y-83786331D02*
G01*
X158232358Y-84253047D01*
X158236483Y-84260996D01*
X158233779Y-84269532D01*
X158232358Y-84270953D01*
X157677630Y-84737668D01*
X157669094Y-84740372D01*
X157664212Y-84738826D01*
X157418045Y-84595500D01*
X157022813Y-84365384D01*
X157017388Y-84358260D01*
X157017000Y-84355273D01*
X157017000Y-84168726D01*
X157020427Y-84160453D01*
X157022810Y-84158617D01*
X157664213Y-83785172D01*
X157673085Y-83783972D01*
X157677630Y-83786331D01*
G37*
%TD.AperFunction*%
%TD*%
%TA.AperFunction,Conductor*%
%TO.N,Net-(U4-VDD)*%
G36*
X163611845Y-86249137D02*
G01*
X163612987Y-86250188D01*
X163685160Y-86326000D01*
X164073754Y-86734187D01*
X164076976Y-86742542D01*
X164073347Y-86750728D01*
X164070206Y-86752866D01*
X163382622Y-87072030D01*
X163373675Y-87072405D01*
X163369056Y-87069308D01*
X162875984Y-86529350D01*
X162872924Y-86521460D01*
X162872924Y-86336497D01*
X162876351Y-86328224D01*
X162883357Y-86324865D01*
X163603252Y-86246624D01*
X163611845Y-86249137D01*
G37*
%TD.AperFunction*%
%TD*%
%TA.AperFunction,Conductor*%
%TO.N,Net-(U1-EN)*%
G36*
X152532324Y-84467797D02*
G01*
X152733172Y-84588381D01*
X153257510Y-84903182D01*
X153262839Y-84910377D01*
X153261519Y-84919234D01*
X153256284Y-84923884D01*
X152533332Y-85248779D01*
X152524381Y-85249044D01*
X152520294Y-85246411D01*
X152086848Y-84816206D01*
X152083390Y-84807946D01*
X152086785Y-84799661D01*
X152219106Y-84667340D01*
X152220912Y-84665865D01*
X152519847Y-84468070D01*
X152528636Y-84466363D01*
X152532324Y-84467797D01*
G37*
%TD.AperFunction*%
%TD*%
%TA.AperFunction,Conductor*%
%TO.N,GND*%
G36*
X149593174Y-86503439D02*
G01*
X149756804Y-86570629D01*
X149856184Y-86611436D01*
X149862536Y-86617748D01*
X149862563Y-86617815D01*
X149970559Y-86880824D01*
X149970532Y-86889779D01*
X149964670Y-86895877D01*
X149513867Y-87105523D01*
X149504920Y-87105904D01*
X149500660Y-87103187D01*
X149370812Y-86973339D01*
X149367385Y-86965066D01*
X149368474Y-86960136D01*
X149578124Y-86509327D01*
X149584718Y-86503273D01*
X149593174Y-86503439D01*
G37*
%TD.AperFunction*%
%TD*%
%TA.AperFunction,Conductor*%
%TO.N,/TP_RST*%
G36*
X152694496Y-91167568D02*
G01*
X152698228Y-91175708D01*
X152698236Y-91176142D01*
X152698236Y-91359519D01*
X152695242Y-91367335D01*
X152409272Y-91685876D01*
X152401195Y-91689743D01*
X152392750Y-91686766D01*
X152392312Y-91686353D01*
X152191373Y-91486357D01*
X152187927Y-91478092D01*
X152187927Y-91478025D01*
X152188322Y-91359519D01*
X152188873Y-91194145D01*
X152192327Y-91185885D01*
X152200138Y-91182494D01*
X152686103Y-91164450D01*
X152694496Y-91167568D01*
G37*
%TD.AperFunction*%
%TD*%
%TA.AperFunction,Conductor*%
%TO.N,+3V3*%
G36*
X155798599Y-99857068D02*
G01*
X155960655Y-100018203D01*
X155964105Y-100026467D01*
X155960702Y-100034750D01*
X155960655Y-100034797D01*
X155798599Y-100195931D01*
X155790316Y-100199334D01*
X155785740Y-100198388D01*
X155625091Y-100129539D01*
X155618837Y-100123130D01*
X155618000Y-100118785D01*
X155618000Y-99934215D01*
X155621427Y-99925942D01*
X155625091Y-99923461D01*
X155785741Y-99854610D01*
X155794694Y-99854502D01*
X155798599Y-99857068D01*
G37*
%TD.AperFunction*%
%TD*%
%TA.AperFunction,Conductor*%
%TO.N,I2C_SCL*%
G36*
X152532872Y-94628118D02*
G01*
X153260251Y-95063964D01*
X153265586Y-95071156D01*
X153264273Y-95080014D01*
X153260251Y-95084036D01*
X152532872Y-95519881D01*
X152524014Y-95521194D01*
X152519675Y-95519080D01*
X152080517Y-95177513D01*
X152076090Y-95169729D01*
X152076000Y-95168278D01*
X152076000Y-94979721D01*
X152079427Y-94971448D01*
X152080509Y-94970492D01*
X152519675Y-94628918D01*
X152528309Y-94626544D01*
X152532872Y-94628118D01*
G37*
%TD.AperFunction*%
%TD*%
%TA.AperFunction,Conductor*%
%TO.N,GND*%
G36*
X161454816Y-84918423D02*
G01*
X161632544Y-84987598D01*
X161639011Y-84993792D01*
X161640000Y-84998501D01*
X161640000Y-85182498D01*
X161636573Y-85190771D01*
X161632544Y-85193401D01*
X161454817Y-85262575D01*
X161445864Y-85262383D01*
X161441896Y-85259521D01*
X161296100Y-85098349D01*
X161293092Y-85089915D01*
X161296100Y-85082651D01*
X161372222Y-84998501D01*
X161441896Y-84921477D01*
X161449988Y-84917642D01*
X161454816Y-84918423D01*
G37*
%TD.AperFunction*%
%TD*%
%TA.AperFunction,Conductor*%
%TO.N,IMU_INT*%
G36*
X156069435Y-102829875D02*
G01*
X156071356Y-102832406D01*
X156325175Y-103282977D01*
X156326250Y-103291867D01*
X156320723Y-103298913D01*
X156319492Y-103299515D01*
X156056652Y-103409336D01*
X156052102Y-103410240D01*
X155768620Y-103409295D01*
X155760358Y-103405841D01*
X155756959Y-103397556D01*
X155757174Y-103395366D01*
X155866157Y-102835911D01*
X155871102Y-102828446D01*
X155877641Y-102826448D01*
X156061162Y-102826448D01*
X156069435Y-102829875D01*
G37*
%TD.AperFunction*%
%TD*%
%TA.AperFunction,Conductor*%
%TO.N,+3V3*%
G36*
X153185225Y-103520873D02*
G01*
X153190472Y-103525210D01*
X153439520Y-103901245D01*
X153441231Y-103910034D01*
X153439134Y-103914713D01*
X153329168Y-104061720D01*
X153321468Y-104066292D01*
X153316441Y-104065920D01*
X152805563Y-103912869D01*
X152798622Y-103907212D01*
X152797713Y-103898303D01*
X152798089Y-103897238D01*
X152905345Y-103635920D01*
X152911654Y-103629571D01*
X153176273Y-103520848D01*
X153185225Y-103520873D01*
G37*
%TD.AperFunction*%
%TD*%
%TA.AperFunction,Conductor*%
%TO.N,BAT_MON*%
G36*
X152532872Y-92088118D02*
G01*
X153260251Y-92523964D01*
X153265586Y-92531156D01*
X153264273Y-92540014D01*
X153260251Y-92544036D01*
X152532872Y-92979881D01*
X152524014Y-92981194D01*
X152519675Y-92979080D01*
X152080517Y-92637513D01*
X152076090Y-92629729D01*
X152076000Y-92628278D01*
X152076000Y-92439721D01*
X152079427Y-92431448D01*
X152080509Y-92430492D01*
X152519675Y-92088918D01*
X152528309Y-92086544D01*
X152532872Y-92088118D01*
G37*
%TD.AperFunction*%
%TD*%
%TA.AperFunction,Conductor*%
%TO.N,Net-(U4-VDD)*%
G36*
X162631727Y-86323768D02*
G01*
X162638909Y-86329117D01*
X162640562Y-86335112D01*
X162640562Y-86518739D01*
X162637135Y-86527012D01*
X162634055Y-86529223D01*
X162177984Y-86755128D01*
X162169050Y-86755730D01*
X162162307Y-86749837D01*
X162161995Y-86749155D01*
X162052883Y-86488011D01*
X162052857Y-86479058D01*
X162052862Y-86479044D01*
X162162919Y-86215637D01*
X162169270Y-86209327D01*
X162176576Y-86208806D01*
X162631727Y-86323768D01*
G37*
%TD.AperFunction*%
%TD*%
%TA.AperFunction,Conductor*%
%TO.N,I2C_SDA*%
G36*
X161389555Y-83181427D02*
G01*
X161392493Y-83186354D01*
X161434571Y-83327365D01*
X161434063Y-83335437D01*
X161417292Y-83373419D01*
X161414501Y-83397484D01*
X161414500Y-83397503D01*
X161414500Y-83443515D01*
X161411073Y-83451788D01*
X161410847Y-83452008D01*
X161298047Y-83558876D01*
X161289684Y-83562079D01*
X161281953Y-83558876D01*
X161169152Y-83452007D01*
X161165503Y-83443830D01*
X161165499Y-83443514D01*
X161165499Y-83397495D01*
X161162707Y-83373419D01*
X161147211Y-83338326D01*
X161145934Y-83335435D01*
X161145427Y-83327370D01*
X161187507Y-83186353D01*
X161193156Y-83179407D01*
X161198718Y-83178000D01*
X161381282Y-83178000D01*
X161389555Y-83181427D01*
G37*
%TD.AperFunction*%
%TD*%
%TA.AperFunction,Conductor*%
%TO.N,Net-(U4-VDD)*%
G36*
X160798812Y-85096617D02*
G01*
X160799245Y-85096913D01*
X160909608Y-85175871D01*
X160914342Y-85183471D01*
X160914500Y-85185386D01*
X160914500Y-85258504D01*
X160917292Y-85282580D01*
X160948961Y-85354300D01*
X160949895Y-85360241D01*
X160949223Y-85366679D01*
X160945859Y-85373737D01*
X160817469Y-85502127D01*
X160809196Y-85505554D01*
X160800923Y-85502127D01*
X160799457Y-85500338D01*
X160663571Y-85296257D01*
X160661839Y-85287472D01*
X160663499Y-85283398D01*
X160782627Y-85100052D01*
X160790007Y-85094983D01*
X160798812Y-85096617D01*
G37*
%TD.AperFunction*%
%TD*%
%TA.AperFunction,Conductor*%
%TO.N,/TP_INT*%
G36*
X152532872Y-89548118D02*
G01*
X153260251Y-89983964D01*
X153265586Y-89991156D01*
X153264273Y-90000014D01*
X153260251Y-90004036D01*
X152532872Y-90439881D01*
X152524014Y-90441194D01*
X152519675Y-90439080D01*
X152080517Y-90097513D01*
X152076090Y-90089729D01*
X152076000Y-90088278D01*
X152076000Y-89899721D01*
X152079427Y-89891448D01*
X152080509Y-89890492D01*
X152519675Y-89548918D01*
X152528309Y-89546544D01*
X152532872Y-89548118D01*
G37*
%TD.AperFunction*%
%TD*%
%TA.AperFunction,Conductor*%
%TO.N,GND*%
G36*
X161964891Y-85021758D02*
G01*
X161970242Y-85026279D01*
X162044824Y-85143889D01*
X162143828Y-85300012D01*
X162145364Y-85308833D01*
X162142220Y-85314550D01*
X162013785Y-85442985D01*
X162005512Y-85446412D01*
X161999643Y-85444834D01*
X161761973Y-85307035D01*
X161756535Y-85299921D01*
X161756290Y-85295056D01*
X161788250Y-85096279D01*
X161792946Y-85088656D01*
X161795369Y-85087310D01*
X161955938Y-85021714D01*
X161964891Y-85021758D01*
G37*
%TD.AperFunction*%
%TD*%
%TA.AperFunction,Conductor*%
%TO.N,BAT_MON_EN*%
G36*
X136813864Y-98060475D02*
G01*
X137264671Y-98270123D01*
X137270726Y-98276718D01*
X137270559Y-98285175D01*
X137162563Y-98548184D01*
X137156251Y-98554536D01*
X137156184Y-98554563D01*
X136893175Y-98662559D01*
X136884220Y-98662532D01*
X136878123Y-98656671D01*
X136668475Y-98205865D01*
X136668095Y-98196920D01*
X136670810Y-98192662D01*
X136800661Y-98062811D01*
X136808933Y-98059385D01*
X136813864Y-98060475D01*
G37*
%TD.AperFunction*%
%TD*%
%TA.AperFunction,Conductor*%
%TO.N,I2C_SDA*%
G36*
X148461116Y-93454506D02*
G01*
X148462187Y-93455019D01*
X148914371Y-93700678D01*
X148920004Y-93707638D01*
X148920485Y-93710958D01*
X148920485Y-93894511D01*
X148917058Y-93902784D01*
X148911202Y-93905959D01*
X148460283Y-94001162D01*
X148451480Y-93999518D01*
X148447070Y-93994225D01*
X148336883Y-93730509D01*
X148336857Y-93721556D01*
X148336862Y-93721542D01*
X148445810Y-93460789D01*
X148452161Y-93454479D01*
X148461116Y-93454506D01*
G37*
%TD.AperFunction*%
%TD*%
%TA.AperFunction,Conductor*%
%TO.N,DISP_SPI_MISO*%
G36*
X136532325Y-90818919D02*
G01*
X136971483Y-91160487D01*
X136975910Y-91168270D01*
X136976000Y-91169721D01*
X136976000Y-91358278D01*
X136972573Y-91366551D01*
X136971483Y-91367513D01*
X136532324Y-91709080D01*
X136523690Y-91711455D01*
X136519127Y-91709881D01*
X136123828Y-91473018D01*
X135791747Y-91274034D01*
X135786413Y-91266844D01*
X135787726Y-91257986D01*
X135791746Y-91253965D01*
X136519127Y-90818117D01*
X136527985Y-90816805D01*
X136532325Y-90818919D01*
G37*
%TD.AperFunction*%
%TD*%
%TA.AperFunction,Conductor*%
%TO.N,GND*%
G36*
X146983303Y-91051287D02*
G01*
X147418699Y-91485718D01*
X147422135Y-91493987D01*
X147418717Y-91502264D01*
X147418699Y-91502282D01*
X146983303Y-91936712D01*
X146975026Y-91940130D01*
X146967856Y-91937665D01*
X146530517Y-91597513D01*
X146526090Y-91589729D01*
X146526000Y-91588278D01*
X146526000Y-91399721D01*
X146529427Y-91391448D01*
X146530509Y-91390492D01*
X146967856Y-91050333D01*
X146976490Y-91047959D01*
X146983303Y-91051287D01*
G37*
%TD.AperFunction*%
%TD*%
%TA.AperFunction,Conductor*%
%TO.N,BAT_MON*%
G36*
X151997339Y-92474812D02*
G01*
X152127187Y-92604660D01*
X152130614Y-92612933D01*
X152129523Y-92617867D01*
X151919877Y-93068670D01*
X151913281Y-93074726D01*
X151904824Y-93074559D01*
X151641815Y-92966563D01*
X151635463Y-92960251D01*
X151635436Y-92960184D01*
X151527440Y-92697175D01*
X151527467Y-92688220D01*
X151533326Y-92682124D01*
X151984134Y-92472475D01*
X151993079Y-92472095D01*
X151997339Y-92474812D01*
G37*
%TD.AperFunction*%
%TD*%
%TA.AperFunction,Conductor*%
%TO.N,GND*%
G36*
X147434264Y-88701282D02*
G01*
X147434282Y-88701300D01*
X147868712Y-89136696D01*
X147872130Y-89144973D01*
X147869665Y-89152143D01*
X147529513Y-89589483D01*
X147521729Y-89593910D01*
X147520278Y-89594000D01*
X147331722Y-89594000D01*
X147323449Y-89590573D01*
X147322487Y-89589483D01*
X146982334Y-89152143D01*
X146979959Y-89143509D01*
X146983286Y-89136697D01*
X147417718Y-88701299D01*
X147425987Y-88697864D01*
X147434264Y-88701282D01*
G37*
%TD.AperFunction*%
%TD*%
%TA.AperFunction,Conductor*%
%TO.N,GND*%
G36*
X144183303Y-91051287D02*
G01*
X144618699Y-91485718D01*
X144622135Y-91493987D01*
X144618717Y-91502264D01*
X144618699Y-91502282D01*
X144183303Y-91936712D01*
X144175026Y-91940130D01*
X144167856Y-91937665D01*
X143730517Y-91597513D01*
X143726090Y-91589729D01*
X143726000Y-91588278D01*
X143726000Y-91399721D01*
X143729427Y-91391448D01*
X143730509Y-91390492D01*
X144167856Y-91050333D01*
X144176490Y-91047959D01*
X144183303Y-91051287D01*
G37*
%TD.AperFunction*%
%TD*%
%TA.AperFunction,Conductor*%
%TO.N,+3V3*%
G36*
X162276550Y-83725779D02*
G01*
X162404985Y-83854214D01*
X162408412Y-83862487D01*
X162406834Y-83868356D01*
X162269035Y-84106026D01*
X162261921Y-84111464D01*
X162257056Y-84111709D01*
X162058281Y-84079750D01*
X162050656Y-84075053D01*
X162049308Y-84072626D01*
X161983714Y-83912061D01*
X161983758Y-83903108D01*
X161988278Y-83897758D01*
X162262014Y-83724170D01*
X162270833Y-83722635D01*
X162276550Y-83725779D01*
G37*
%TD.AperFunction*%
%TD*%
%TA.AperFunction,Conductor*%
%TO.N,+3V3*%
G36*
X154032325Y-83198919D02*
G01*
X154471483Y-83540487D01*
X154475910Y-83548270D01*
X154476000Y-83549721D01*
X154476000Y-83738278D01*
X154472573Y-83746551D01*
X154471483Y-83747513D01*
X154032324Y-84089080D01*
X154023690Y-84091455D01*
X154019127Y-84089881D01*
X153623828Y-83853018D01*
X153291747Y-83654034D01*
X153286413Y-83646844D01*
X153287726Y-83637986D01*
X153291746Y-83633965D01*
X154019127Y-83198117D01*
X154027985Y-83196805D01*
X154032325Y-83198919D01*
G37*
%TD.AperFunction*%
%TD*%
%TA.AperFunction,Conductor*%
%TO.N,+3V3*%
G36*
X162595547Y-78280427D02*
G01*
X162597385Y-78282813D01*
X162892162Y-78789103D01*
X162892337Y-78789426D01*
X162964305Y-78933021D01*
X162964948Y-78941952D01*
X162962798Y-78945795D01*
X162502952Y-79492358D01*
X162495003Y-79496483D01*
X162486467Y-79493779D01*
X162485046Y-79492358D01*
X162021967Y-78941952D01*
X162018330Y-78937629D01*
X162015627Y-78929094D01*
X162017171Y-78924215D01*
X162390615Y-78282812D01*
X162397739Y-78277388D01*
X162400726Y-78277000D01*
X162587274Y-78277000D01*
X162595547Y-78280427D01*
G37*
%TD.AperFunction*%
%TD*%
%TA.AperFunction,Conductor*%
%TO.N,GND*%
G36*
X155645116Y-81885898D02*
G01*
X156198956Y-82351867D01*
X156203081Y-82359815D01*
X156200377Y-82368351D01*
X156197826Y-82370612D01*
X155564777Y-82784491D01*
X155555978Y-82786150D01*
X155551762Y-82784350D01*
X154990087Y-82399485D01*
X154985199Y-82391981D01*
X154985000Y-82389833D01*
X154985000Y-82203352D01*
X154988427Y-82195079D01*
X154991620Y-82192813D01*
X155632513Y-81884310D01*
X155641452Y-81883810D01*
X155645116Y-81885898D01*
G37*
%TD.AperFunction*%
%TD*%
%TA.AperFunction,Conductor*%
%TO.N,I2C_SCL*%
G36*
X154464769Y-94641550D02*
G01*
X154472897Y-94645305D01*
X154476000Y-94653241D01*
X154476000Y-94837450D01*
X154472928Y-94845353D01*
X154031186Y-95327610D01*
X154023071Y-95331396D01*
X154018740Y-95330766D01*
X153298729Y-95082192D01*
X153292027Y-95076253D01*
X153291488Y-95067315D01*
X153296532Y-95061097D01*
X154023006Y-94625793D01*
X154029485Y-94624139D01*
X154464769Y-94641550D01*
G37*
%TD.AperFunction*%
%TD*%
%TA.AperFunction,Conductor*%
%TO.N,GND*%
G36*
X164692090Y-89319427D02*
G01*
X164694807Y-89323687D01*
X164865330Y-89790694D01*
X164864949Y-89799641D01*
X164858851Y-89805503D01*
X164596511Y-89915115D01*
X164587556Y-89915142D01*
X164587489Y-89915115D01*
X164325148Y-89805503D01*
X164318836Y-89799151D01*
X164318669Y-89790697D01*
X164489193Y-89323686D01*
X164495249Y-89317091D01*
X164500183Y-89316000D01*
X164683817Y-89316000D01*
X164692090Y-89319427D01*
G37*
%TD.AperFunction*%
%TD*%
%TA.AperFunction,Conductor*%
%TO.N,+3V3*%
G36*
X156732507Y-73953930D02*
G01*
X156735899Y-73956290D01*
X156866387Y-74086778D01*
X156869814Y-74095051D01*
X156868848Y-74099707D01*
X156551569Y-74831151D01*
X156545133Y-74837377D01*
X156536381Y-74837314D01*
X156152156Y-74679121D01*
X156145810Y-74672802D01*
X156145114Y-74670476D01*
X156058151Y-74210708D01*
X156059980Y-74201943D01*
X156065576Y-74197565D01*
X156723560Y-73953593D01*
X156732507Y-73953930D01*
G37*
%TD.AperFunction*%
%TD*%
%TA.AperFunction,Conductor*%
%TO.N,GND*%
G36*
X155278313Y-82193193D02*
G01*
X155284909Y-82199249D01*
X155286000Y-82204183D01*
X155286000Y-82387816D01*
X155282573Y-82396089D01*
X155278313Y-82398806D01*
X154811305Y-82569330D01*
X154802358Y-82568949D01*
X154796496Y-82562851D01*
X154686883Y-82300509D01*
X154686857Y-82291556D01*
X154686862Y-82291542D01*
X154796496Y-82029147D01*
X154802848Y-82022836D01*
X154811302Y-82022669D01*
X155278313Y-82193193D01*
G37*
%TD.AperFunction*%
%TD*%
%TA.AperFunction,Conductor*%
%TO.N,+3V3*%
G36*
X160876329Y-92761006D02*
G01*
X161200411Y-92863585D01*
X161205152Y-92866467D01*
X161337437Y-92998752D01*
X161340864Y-93007025D01*
X161338582Y-93013967D01*
X160997618Y-93476557D01*
X160989951Y-93481183D01*
X160981715Y-93479353D01*
X160599597Y-93224902D01*
X160594610Y-93217465D01*
X160596058Y-93209130D01*
X160862779Y-92766125D01*
X160869981Y-92760807D01*
X160876329Y-92761006D01*
G37*
%TD.AperFunction*%
%TD*%
%TA.AperFunction,Conductor*%
%TO.N,GND*%
G36*
X143902313Y-91391193D02*
G01*
X143908909Y-91397249D01*
X143910000Y-91402183D01*
X143910000Y-91585816D01*
X143906573Y-91594089D01*
X143902313Y-91596806D01*
X143435305Y-91767330D01*
X143426358Y-91766949D01*
X143420496Y-91760851D01*
X143310883Y-91498509D01*
X143310857Y-91489556D01*
X143310862Y-91489542D01*
X143420496Y-91227147D01*
X143426848Y-91220836D01*
X143435302Y-91220669D01*
X143902313Y-91391193D01*
G37*
%TD.AperFunction*%
%TD*%
%TA.AperFunction,Conductor*%
%TO.N,+3V3*%
G36*
X162595547Y-80312427D02*
G01*
X162597385Y-80314813D01*
X162970826Y-80956211D01*
X162972027Y-80965085D01*
X162969668Y-80969630D01*
X162502953Y-81524358D01*
X162495004Y-81528483D01*
X162486468Y-81525779D01*
X162485047Y-81524358D01*
X162018331Y-80969630D01*
X162015627Y-80961094D01*
X162017171Y-80956215D01*
X162390615Y-80314812D01*
X162397739Y-80309388D01*
X162400726Y-80309000D01*
X162587274Y-80309000D01*
X162595547Y-80312427D01*
G37*
%TD.AperFunction*%
%TD*%
%TA.AperFunction,Conductor*%
%TO.N,+3V3*%
G36*
X158956534Y-83936537D02*
G01*
X159258618Y-84265423D01*
X159450789Y-84474643D01*
X159453872Y-84482558D01*
X159453872Y-84667557D01*
X159450445Y-84675830D01*
X159443497Y-84679182D01*
X158722784Y-84761340D01*
X158714176Y-84758872D01*
X158712985Y-84757782D01*
X158252213Y-84273778D01*
X158248991Y-84265423D01*
X158252620Y-84257237D01*
X158255726Y-84255115D01*
X158942963Y-83933852D01*
X158951908Y-83933454D01*
X158956534Y-83936537D01*
G37*
%TD.AperFunction*%
%TD*%
%TA.AperFunction,Conductor*%
%TO.N,+3V3*%
G36*
X156068558Y-99554927D02*
G01*
X156071039Y-99558591D01*
X156104886Y-99637568D01*
X156104995Y-99646522D01*
X156104343Y-99647761D01*
X156104133Y-99648267D01*
X156092500Y-99706752D01*
X156092500Y-99810205D01*
X156090915Y-99816086D01*
X155978115Y-100010102D01*
X155970994Y-100015531D01*
X155962119Y-100014336D01*
X155957885Y-100010102D01*
X155937643Y-99975287D01*
X155795954Y-99731582D01*
X155794760Y-99722709D01*
X155795312Y-99721104D01*
X155864961Y-99558591D01*
X155871370Y-99552337D01*
X155875715Y-99551500D01*
X156060285Y-99551500D01*
X156068558Y-99554927D01*
G37*
%TD.AperFunction*%
%TD*%
%TA.AperFunction,Conductor*%
%TO.N,Net-(U3-CS)*%
G36*
X157933399Y-100513814D02*
G01*
X158095909Y-100583461D01*
X158102163Y-100589870D01*
X158103000Y-100594215D01*
X158103000Y-100778784D01*
X158099573Y-100787057D01*
X158095909Y-100789538D01*
X158016931Y-100823385D01*
X158007977Y-100823494D01*
X158006749Y-100822848D01*
X158006232Y-100822634D01*
X158006231Y-100822633D01*
X157947748Y-100811000D01*
X157844295Y-100811000D01*
X157838414Y-100809415D01*
X157785728Y-100778784D01*
X157644396Y-100696614D01*
X157638968Y-100689494D01*
X157640163Y-100680619D01*
X157644395Y-100676386D01*
X157922918Y-100514454D01*
X157931790Y-100513260D01*
X157933399Y-100513814D01*
G37*
%TD.AperFunction*%
%TD*%
%TA.AperFunction,Conductor*%
%TO.N,GND*%
G36*
X146034264Y-88701282D02*
G01*
X146034282Y-88701300D01*
X146468712Y-89136696D01*
X146472130Y-89144973D01*
X146469665Y-89152143D01*
X146129513Y-89589483D01*
X146121729Y-89593910D01*
X146120278Y-89594000D01*
X145931722Y-89594000D01*
X145923449Y-89590573D01*
X145922487Y-89589483D01*
X145582334Y-89152143D01*
X145579959Y-89143509D01*
X145583286Y-89136697D01*
X146017718Y-88701299D01*
X146025987Y-88697864D01*
X146034264Y-88701282D01*
G37*
%TD.AperFunction*%
%TD*%
%TA.AperFunction,Conductor*%
%TO.N,I2C_SDA*%
G36*
X159016851Y-92312496D02*
G01*
X159023163Y-92318848D01*
X159023330Y-92327305D01*
X158852807Y-92794313D01*
X158846751Y-92800909D01*
X158841817Y-92802000D01*
X158658183Y-92802000D01*
X158649910Y-92798573D01*
X158647193Y-92794313D01*
X158476669Y-92327302D01*
X158477050Y-92318358D01*
X158483147Y-92312496D01*
X158745490Y-92202883D01*
X158754444Y-92202857D01*
X159016851Y-92312496D01*
G37*
%TD.AperFunction*%
%TD*%
%TA.AperFunction,Conductor*%
%TO.N,/JTAG_TMS*%
G36*
X152529707Y-97166299D02*
G01*
X152530776Y-97166867D01*
X153255491Y-97601969D01*
X153260820Y-97609165D01*
X153259500Y-97618022D01*
X153253400Y-97623020D01*
X152533678Y-97879749D01*
X152524734Y-97879301D01*
X152520770Y-97876233D01*
X152129896Y-97408663D01*
X152127219Y-97400118D01*
X152130599Y-97392887D01*
X152262618Y-97260868D01*
X152266890Y-97258147D01*
X152520762Y-97165903D01*
X152529707Y-97166299D01*
G37*
%TD.AperFunction*%
%TD*%
%TA.AperFunction,Conductor*%
%TO.N,GND*%
G36*
X164093279Y-88648902D02*
G01*
X164790681Y-88942216D01*
X164796979Y-88948582D01*
X164797708Y-88954786D01*
X164693531Y-89629521D01*
X164688882Y-89637175D01*
X164681968Y-89639436D01*
X164495652Y-89639436D01*
X164488997Y-89637359D01*
X163787555Y-89152283D01*
X163782700Y-89144759D01*
X163784220Y-89136570D01*
X164078758Y-88653594D01*
X164085990Y-88648317D01*
X164093279Y-88648902D01*
G37*
%TD.AperFunction*%
%TD*%
%TA.AperFunction,Conductor*%
%TO.N,Net-(U3-CS)*%
G36*
X157650259Y-102174611D02*
G01*
X157810909Y-102243461D01*
X157817163Y-102249870D01*
X157818000Y-102254215D01*
X157818000Y-102438785D01*
X157814573Y-102447058D01*
X157810909Y-102449539D01*
X157650259Y-102518388D01*
X157641305Y-102518497D01*
X157637400Y-102515931D01*
X157475344Y-102354797D01*
X157471894Y-102346533D01*
X157475297Y-102338250D01*
X157475344Y-102338203D01*
X157637400Y-102177068D01*
X157645683Y-102173665D01*
X157650259Y-102174611D01*
G37*
%TD.AperFunction*%
%TD*%
%TA.AperFunction,Conductor*%
%TO.N,GND*%
G36*
X163611845Y-88149137D02*
G01*
X163612987Y-88150188D01*
X163685160Y-88226000D01*
X164073754Y-88634187D01*
X164076976Y-88642542D01*
X164073347Y-88650728D01*
X164070206Y-88652866D01*
X163382622Y-88972030D01*
X163373675Y-88972405D01*
X163369056Y-88969308D01*
X162875984Y-88429350D01*
X162872924Y-88421460D01*
X162872924Y-88236497D01*
X162876351Y-88228224D01*
X162883357Y-88224865D01*
X163603252Y-88146624D01*
X163611845Y-88149137D01*
G37*
%TD.AperFunction*%
%TD*%
%TA.AperFunction,Conductor*%
%TO.N,GND*%
G36*
X155513075Y-101014450D02*
G01*
X155650270Y-101094215D01*
X155791602Y-101176385D01*
X155797031Y-101183506D01*
X155795836Y-101192381D01*
X155791602Y-101196615D01*
X155597586Y-101309415D01*
X155591705Y-101311000D01*
X155488252Y-101311000D01*
X155468757Y-101314877D01*
X155429767Y-101322633D01*
X155428704Y-101323074D01*
X155428544Y-101322688D01*
X155421382Y-101324105D01*
X155419068Y-101323386D01*
X155340091Y-101289538D01*
X155333837Y-101283129D01*
X155333000Y-101278784D01*
X155333000Y-101094215D01*
X155336427Y-101085942D01*
X155340091Y-101083461D01*
X155502596Y-101013815D01*
X155511548Y-101013707D01*
X155513075Y-101014450D01*
G37*
%TD.AperFunction*%
%TD*%
M02*
